G75*
%MOIN*%
%OFA0B0*%
%FSLAX25Y25*%
%IPPOS*%
%LPD*%
%AMOC8*
5,1,8,0,0,1.08239X$1,22.5*
%
%ADD10C,0.00000*%
%ADD11C,0.00300*%
%ADD12C,0.00400*%
%ADD13C,0.00800*%
%ADD14C,0.01000*%
%ADD15C,0.00500*%
%ADD16C,0.00600*%
D10*
X0091335Y0054209D02*
X0091335Y0231374D01*
X0091341Y0231850D01*
X0091358Y0232325D01*
X0091387Y0232800D01*
X0091427Y0233274D01*
X0091479Y0233747D01*
X0091542Y0234218D01*
X0091616Y0234688D01*
X0091702Y0235156D01*
X0091799Y0235622D01*
X0091907Y0236085D01*
X0092026Y0236545D01*
X0092157Y0237003D01*
X0092298Y0237457D01*
X0092451Y0237908D01*
X0092614Y0238354D01*
X0092788Y0238797D01*
X0092973Y0239235D01*
X0093168Y0239669D01*
X0093374Y0240098D01*
X0093590Y0240522D01*
X0093816Y0240941D01*
X0094052Y0241354D01*
X0094298Y0241761D01*
X0094554Y0242162D01*
X0094820Y0242556D01*
X0095095Y0242945D01*
X0095379Y0243326D01*
X0095672Y0243700D01*
X0095974Y0244068D01*
X0096286Y0244428D01*
X0096605Y0244780D01*
X0096933Y0245124D01*
X0097270Y0245461D01*
X0097614Y0245789D01*
X0097966Y0246108D01*
X0098326Y0246420D01*
X0098694Y0246722D01*
X0099068Y0247015D01*
X0099449Y0247299D01*
X0099838Y0247574D01*
X0100232Y0247840D01*
X0100633Y0248096D01*
X0101040Y0248342D01*
X0101453Y0248578D01*
X0101872Y0248804D01*
X0102296Y0249020D01*
X0102725Y0249226D01*
X0103159Y0249421D01*
X0103597Y0249606D01*
X0104040Y0249780D01*
X0104486Y0249943D01*
X0104937Y0250096D01*
X0105391Y0250237D01*
X0105849Y0250368D01*
X0106309Y0250487D01*
X0106772Y0250595D01*
X0107238Y0250692D01*
X0107706Y0250778D01*
X0108176Y0250852D01*
X0108647Y0250915D01*
X0109120Y0250967D01*
X0109594Y0251007D01*
X0110069Y0251036D01*
X0110544Y0251053D01*
X0111020Y0251059D01*
X0347241Y0251059D01*
X0347717Y0251053D01*
X0348192Y0251036D01*
X0348667Y0251007D01*
X0349141Y0250967D01*
X0349614Y0250915D01*
X0350085Y0250852D01*
X0350555Y0250778D01*
X0351023Y0250692D01*
X0351489Y0250595D01*
X0351952Y0250487D01*
X0352412Y0250368D01*
X0352870Y0250237D01*
X0353324Y0250096D01*
X0353775Y0249943D01*
X0354221Y0249780D01*
X0354664Y0249606D01*
X0355102Y0249421D01*
X0355536Y0249226D01*
X0355965Y0249020D01*
X0356389Y0248804D01*
X0356808Y0248578D01*
X0357221Y0248342D01*
X0357628Y0248096D01*
X0358029Y0247840D01*
X0358423Y0247574D01*
X0358812Y0247299D01*
X0359193Y0247015D01*
X0359567Y0246722D01*
X0359935Y0246420D01*
X0360295Y0246108D01*
X0360647Y0245789D01*
X0360991Y0245461D01*
X0361328Y0245124D01*
X0361656Y0244780D01*
X0361975Y0244428D01*
X0362287Y0244068D01*
X0362589Y0243700D01*
X0362882Y0243326D01*
X0363166Y0242945D01*
X0363441Y0242556D01*
X0363707Y0242162D01*
X0363963Y0241761D01*
X0364209Y0241354D01*
X0364445Y0240941D01*
X0364671Y0240522D01*
X0364887Y0240098D01*
X0365093Y0239669D01*
X0365288Y0239235D01*
X0365473Y0238797D01*
X0365647Y0238354D01*
X0365810Y0237908D01*
X0365963Y0237457D01*
X0366104Y0237003D01*
X0366235Y0236545D01*
X0366354Y0236085D01*
X0366462Y0235622D01*
X0366559Y0235156D01*
X0366645Y0234688D01*
X0366719Y0234218D01*
X0366782Y0233747D01*
X0366834Y0233274D01*
X0366874Y0232800D01*
X0366903Y0232325D01*
X0366920Y0231850D01*
X0366926Y0231374D01*
X0366926Y0054209D01*
X0366920Y0053733D01*
X0366903Y0053258D01*
X0366874Y0052783D01*
X0366834Y0052309D01*
X0366782Y0051836D01*
X0366719Y0051365D01*
X0366645Y0050895D01*
X0366559Y0050427D01*
X0366462Y0049961D01*
X0366354Y0049498D01*
X0366235Y0049038D01*
X0366104Y0048580D01*
X0365963Y0048126D01*
X0365810Y0047675D01*
X0365647Y0047229D01*
X0365473Y0046786D01*
X0365288Y0046348D01*
X0365093Y0045914D01*
X0364887Y0045485D01*
X0364671Y0045061D01*
X0364445Y0044642D01*
X0364209Y0044229D01*
X0363963Y0043822D01*
X0363707Y0043421D01*
X0363441Y0043027D01*
X0363166Y0042638D01*
X0362882Y0042257D01*
X0362589Y0041883D01*
X0362287Y0041515D01*
X0361975Y0041155D01*
X0361656Y0040803D01*
X0361328Y0040459D01*
X0360991Y0040122D01*
X0360647Y0039794D01*
X0360295Y0039475D01*
X0359935Y0039163D01*
X0359567Y0038861D01*
X0359193Y0038568D01*
X0358812Y0038284D01*
X0358423Y0038009D01*
X0358029Y0037743D01*
X0357628Y0037487D01*
X0357221Y0037241D01*
X0356808Y0037005D01*
X0356389Y0036779D01*
X0355965Y0036563D01*
X0355536Y0036357D01*
X0355102Y0036162D01*
X0354664Y0035977D01*
X0354221Y0035803D01*
X0353775Y0035640D01*
X0353324Y0035487D01*
X0352870Y0035346D01*
X0352412Y0035215D01*
X0351952Y0035096D01*
X0351489Y0034988D01*
X0351023Y0034891D01*
X0350555Y0034805D01*
X0350085Y0034731D01*
X0349614Y0034668D01*
X0349141Y0034616D01*
X0348667Y0034576D01*
X0348192Y0034547D01*
X0347717Y0034530D01*
X0347241Y0034524D01*
X0111020Y0034524D01*
X0110544Y0034530D01*
X0110069Y0034547D01*
X0109594Y0034576D01*
X0109120Y0034616D01*
X0108647Y0034668D01*
X0108176Y0034731D01*
X0107706Y0034805D01*
X0107238Y0034891D01*
X0106772Y0034988D01*
X0106309Y0035096D01*
X0105849Y0035215D01*
X0105391Y0035346D01*
X0104937Y0035487D01*
X0104486Y0035640D01*
X0104040Y0035803D01*
X0103597Y0035977D01*
X0103159Y0036162D01*
X0102725Y0036357D01*
X0102296Y0036563D01*
X0101872Y0036779D01*
X0101453Y0037005D01*
X0101040Y0037241D01*
X0100633Y0037487D01*
X0100232Y0037743D01*
X0099838Y0038009D01*
X0099449Y0038284D01*
X0099068Y0038568D01*
X0098694Y0038861D01*
X0098326Y0039163D01*
X0097966Y0039475D01*
X0097614Y0039794D01*
X0097270Y0040122D01*
X0096933Y0040459D01*
X0096605Y0040803D01*
X0096286Y0041155D01*
X0095974Y0041515D01*
X0095672Y0041883D01*
X0095379Y0042257D01*
X0095095Y0042638D01*
X0094820Y0043027D01*
X0094554Y0043421D01*
X0094298Y0043822D01*
X0094052Y0044229D01*
X0093816Y0044642D01*
X0093590Y0045061D01*
X0093374Y0045485D01*
X0093168Y0045914D01*
X0092973Y0046348D01*
X0092788Y0046786D01*
X0092614Y0047229D01*
X0092451Y0047675D01*
X0092298Y0048126D01*
X0092157Y0048580D01*
X0092026Y0049038D01*
X0091907Y0049498D01*
X0091799Y0049961D01*
X0091702Y0050427D01*
X0091616Y0050895D01*
X0091542Y0051365D01*
X0091479Y0051836D01*
X0091427Y0052309D01*
X0091387Y0052783D01*
X0091358Y0053258D01*
X0091341Y0053733D01*
X0091335Y0054209D01*
X0226453Y0083539D02*
X0226455Y0083687D01*
X0226461Y0083835D01*
X0226471Y0083983D01*
X0226485Y0084130D01*
X0226503Y0084277D01*
X0226524Y0084423D01*
X0226550Y0084569D01*
X0226580Y0084714D01*
X0226613Y0084858D01*
X0226651Y0085001D01*
X0226692Y0085143D01*
X0226737Y0085284D01*
X0226785Y0085424D01*
X0226838Y0085563D01*
X0226894Y0085700D01*
X0226954Y0085835D01*
X0227017Y0085969D01*
X0227084Y0086101D01*
X0227155Y0086231D01*
X0227229Y0086359D01*
X0227306Y0086485D01*
X0227387Y0086609D01*
X0227471Y0086731D01*
X0227558Y0086850D01*
X0227649Y0086967D01*
X0227743Y0087082D01*
X0227839Y0087194D01*
X0227939Y0087304D01*
X0228041Y0087410D01*
X0228147Y0087514D01*
X0228255Y0087615D01*
X0228366Y0087713D01*
X0228479Y0087809D01*
X0228595Y0087901D01*
X0228713Y0087990D01*
X0228834Y0088075D01*
X0228957Y0088158D01*
X0229082Y0088237D01*
X0229209Y0088313D01*
X0229338Y0088385D01*
X0229469Y0088454D01*
X0229602Y0088519D01*
X0229737Y0088580D01*
X0229873Y0088638D01*
X0230010Y0088693D01*
X0230149Y0088743D01*
X0230290Y0088790D01*
X0230431Y0088833D01*
X0230574Y0088873D01*
X0230718Y0088908D01*
X0230862Y0088940D01*
X0231008Y0088967D01*
X0231154Y0088991D01*
X0231301Y0089011D01*
X0231448Y0089027D01*
X0231595Y0089039D01*
X0231743Y0089047D01*
X0231891Y0089051D01*
X0232039Y0089051D01*
X0232187Y0089047D01*
X0232335Y0089039D01*
X0232482Y0089027D01*
X0232629Y0089011D01*
X0232776Y0088991D01*
X0232922Y0088967D01*
X0233068Y0088940D01*
X0233212Y0088908D01*
X0233356Y0088873D01*
X0233499Y0088833D01*
X0233640Y0088790D01*
X0233781Y0088743D01*
X0233920Y0088693D01*
X0234057Y0088638D01*
X0234193Y0088580D01*
X0234328Y0088519D01*
X0234461Y0088454D01*
X0234592Y0088385D01*
X0234721Y0088313D01*
X0234848Y0088237D01*
X0234973Y0088158D01*
X0235096Y0088075D01*
X0235217Y0087990D01*
X0235335Y0087901D01*
X0235451Y0087809D01*
X0235564Y0087713D01*
X0235675Y0087615D01*
X0235783Y0087514D01*
X0235889Y0087410D01*
X0235991Y0087304D01*
X0236091Y0087194D01*
X0236187Y0087082D01*
X0236281Y0086967D01*
X0236372Y0086850D01*
X0236459Y0086731D01*
X0236543Y0086609D01*
X0236624Y0086485D01*
X0236701Y0086359D01*
X0236775Y0086231D01*
X0236846Y0086101D01*
X0236913Y0085969D01*
X0236976Y0085835D01*
X0237036Y0085700D01*
X0237092Y0085563D01*
X0237145Y0085424D01*
X0237193Y0085284D01*
X0237238Y0085143D01*
X0237279Y0085001D01*
X0237317Y0084858D01*
X0237350Y0084714D01*
X0237380Y0084569D01*
X0237406Y0084423D01*
X0237427Y0084277D01*
X0237445Y0084130D01*
X0237459Y0083983D01*
X0237469Y0083835D01*
X0237475Y0083687D01*
X0237477Y0083539D01*
X0237475Y0083391D01*
X0237469Y0083243D01*
X0237459Y0083095D01*
X0237445Y0082948D01*
X0237427Y0082801D01*
X0237406Y0082655D01*
X0237380Y0082509D01*
X0237350Y0082364D01*
X0237317Y0082220D01*
X0237279Y0082077D01*
X0237238Y0081935D01*
X0237193Y0081794D01*
X0237145Y0081654D01*
X0237092Y0081515D01*
X0237036Y0081378D01*
X0236976Y0081243D01*
X0236913Y0081109D01*
X0236846Y0080977D01*
X0236775Y0080847D01*
X0236701Y0080719D01*
X0236624Y0080593D01*
X0236543Y0080469D01*
X0236459Y0080347D01*
X0236372Y0080228D01*
X0236281Y0080111D01*
X0236187Y0079996D01*
X0236091Y0079884D01*
X0235991Y0079774D01*
X0235889Y0079668D01*
X0235783Y0079564D01*
X0235675Y0079463D01*
X0235564Y0079365D01*
X0235451Y0079269D01*
X0235335Y0079177D01*
X0235217Y0079088D01*
X0235096Y0079003D01*
X0234973Y0078920D01*
X0234848Y0078841D01*
X0234721Y0078765D01*
X0234592Y0078693D01*
X0234461Y0078624D01*
X0234328Y0078559D01*
X0234193Y0078498D01*
X0234057Y0078440D01*
X0233920Y0078385D01*
X0233781Y0078335D01*
X0233640Y0078288D01*
X0233499Y0078245D01*
X0233356Y0078205D01*
X0233212Y0078170D01*
X0233068Y0078138D01*
X0232922Y0078111D01*
X0232776Y0078087D01*
X0232629Y0078067D01*
X0232482Y0078051D01*
X0232335Y0078039D01*
X0232187Y0078031D01*
X0232039Y0078027D01*
X0231891Y0078027D01*
X0231743Y0078031D01*
X0231595Y0078039D01*
X0231448Y0078051D01*
X0231301Y0078067D01*
X0231154Y0078087D01*
X0231008Y0078111D01*
X0230862Y0078138D01*
X0230718Y0078170D01*
X0230574Y0078205D01*
X0230431Y0078245D01*
X0230290Y0078288D01*
X0230149Y0078335D01*
X0230010Y0078385D01*
X0229873Y0078440D01*
X0229737Y0078498D01*
X0229602Y0078559D01*
X0229469Y0078624D01*
X0229338Y0078693D01*
X0229209Y0078765D01*
X0229082Y0078841D01*
X0228957Y0078920D01*
X0228834Y0079003D01*
X0228713Y0079088D01*
X0228595Y0079177D01*
X0228479Y0079269D01*
X0228366Y0079365D01*
X0228255Y0079463D01*
X0228147Y0079564D01*
X0228041Y0079668D01*
X0227939Y0079774D01*
X0227839Y0079884D01*
X0227743Y0079996D01*
X0227649Y0080111D01*
X0227558Y0080228D01*
X0227471Y0080347D01*
X0227387Y0080469D01*
X0227306Y0080593D01*
X0227229Y0080719D01*
X0227155Y0080847D01*
X0227084Y0080977D01*
X0227017Y0081109D01*
X0226954Y0081243D01*
X0226894Y0081378D01*
X0226838Y0081515D01*
X0226785Y0081654D01*
X0226737Y0081794D01*
X0226692Y0081935D01*
X0226651Y0082077D01*
X0226613Y0082220D01*
X0226580Y0082364D01*
X0226550Y0082509D01*
X0226524Y0082655D01*
X0226503Y0082801D01*
X0226485Y0082948D01*
X0226471Y0083095D01*
X0226461Y0083243D01*
X0226455Y0083391D01*
X0226453Y0083539D01*
X0346335Y0114248D02*
X0346337Y0114396D01*
X0346343Y0114544D01*
X0346353Y0114692D01*
X0346367Y0114839D01*
X0346385Y0114986D01*
X0346406Y0115132D01*
X0346432Y0115278D01*
X0346462Y0115423D01*
X0346495Y0115567D01*
X0346533Y0115710D01*
X0346574Y0115852D01*
X0346619Y0115993D01*
X0346667Y0116133D01*
X0346720Y0116272D01*
X0346776Y0116409D01*
X0346836Y0116544D01*
X0346899Y0116678D01*
X0346966Y0116810D01*
X0347037Y0116940D01*
X0347111Y0117068D01*
X0347188Y0117194D01*
X0347269Y0117318D01*
X0347353Y0117440D01*
X0347440Y0117559D01*
X0347531Y0117676D01*
X0347625Y0117791D01*
X0347721Y0117903D01*
X0347821Y0118013D01*
X0347923Y0118119D01*
X0348029Y0118223D01*
X0348137Y0118324D01*
X0348248Y0118422D01*
X0348361Y0118518D01*
X0348477Y0118610D01*
X0348595Y0118699D01*
X0348716Y0118784D01*
X0348839Y0118867D01*
X0348964Y0118946D01*
X0349091Y0119022D01*
X0349220Y0119094D01*
X0349351Y0119163D01*
X0349484Y0119228D01*
X0349619Y0119289D01*
X0349755Y0119347D01*
X0349892Y0119402D01*
X0350031Y0119452D01*
X0350172Y0119499D01*
X0350313Y0119542D01*
X0350456Y0119582D01*
X0350600Y0119617D01*
X0350744Y0119649D01*
X0350890Y0119676D01*
X0351036Y0119700D01*
X0351183Y0119720D01*
X0351330Y0119736D01*
X0351477Y0119748D01*
X0351625Y0119756D01*
X0351773Y0119760D01*
X0351921Y0119760D01*
X0352069Y0119756D01*
X0352217Y0119748D01*
X0352364Y0119736D01*
X0352511Y0119720D01*
X0352658Y0119700D01*
X0352804Y0119676D01*
X0352950Y0119649D01*
X0353094Y0119617D01*
X0353238Y0119582D01*
X0353381Y0119542D01*
X0353522Y0119499D01*
X0353663Y0119452D01*
X0353802Y0119402D01*
X0353939Y0119347D01*
X0354075Y0119289D01*
X0354210Y0119228D01*
X0354343Y0119163D01*
X0354474Y0119094D01*
X0354603Y0119022D01*
X0354730Y0118946D01*
X0354855Y0118867D01*
X0354978Y0118784D01*
X0355099Y0118699D01*
X0355217Y0118610D01*
X0355333Y0118518D01*
X0355446Y0118422D01*
X0355557Y0118324D01*
X0355665Y0118223D01*
X0355771Y0118119D01*
X0355873Y0118013D01*
X0355973Y0117903D01*
X0356069Y0117791D01*
X0356163Y0117676D01*
X0356254Y0117559D01*
X0356341Y0117440D01*
X0356425Y0117318D01*
X0356506Y0117194D01*
X0356583Y0117068D01*
X0356657Y0116940D01*
X0356728Y0116810D01*
X0356795Y0116678D01*
X0356858Y0116544D01*
X0356918Y0116409D01*
X0356974Y0116272D01*
X0357027Y0116133D01*
X0357075Y0115993D01*
X0357120Y0115852D01*
X0357161Y0115710D01*
X0357199Y0115567D01*
X0357232Y0115423D01*
X0357262Y0115278D01*
X0357288Y0115132D01*
X0357309Y0114986D01*
X0357327Y0114839D01*
X0357341Y0114692D01*
X0357351Y0114544D01*
X0357357Y0114396D01*
X0357359Y0114248D01*
X0357357Y0114100D01*
X0357351Y0113952D01*
X0357341Y0113804D01*
X0357327Y0113657D01*
X0357309Y0113510D01*
X0357288Y0113364D01*
X0357262Y0113218D01*
X0357232Y0113073D01*
X0357199Y0112929D01*
X0357161Y0112786D01*
X0357120Y0112644D01*
X0357075Y0112503D01*
X0357027Y0112363D01*
X0356974Y0112224D01*
X0356918Y0112087D01*
X0356858Y0111952D01*
X0356795Y0111818D01*
X0356728Y0111686D01*
X0356657Y0111556D01*
X0356583Y0111428D01*
X0356506Y0111302D01*
X0356425Y0111178D01*
X0356341Y0111056D01*
X0356254Y0110937D01*
X0356163Y0110820D01*
X0356069Y0110705D01*
X0355973Y0110593D01*
X0355873Y0110483D01*
X0355771Y0110377D01*
X0355665Y0110273D01*
X0355557Y0110172D01*
X0355446Y0110074D01*
X0355333Y0109978D01*
X0355217Y0109886D01*
X0355099Y0109797D01*
X0354978Y0109712D01*
X0354855Y0109629D01*
X0354730Y0109550D01*
X0354603Y0109474D01*
X0354474Y0109402D01*
X0354343Y0109333D01*
X0354210Y0109268D01*
X0354075Y0109207D01*
X0353939Y0109149D01*
X0353802Y0109094D01*
X0353663Y0109044D01*
X0353522Y0108997D01*
X0353381Y0108954D01*
X0353238Y0108914D01*
X0353094Y0108879D01*
X0352950Y0108847D01*
X0352804Y0108820D01*
X0352658Y0108796D01*
X0352511Y0108776D01*
X0352364Y0108760D01*
X0352217Y0108748D01*
X0352069Y0108740D01*
X0351921Y0108736D01*
X0351773Y0108736D01*
X0351625Y0108740D01*
X0351477Y0108748D01*
X0351330Y0108760D01*
X0351183Y0108776D01*
X0351036Y0108796D01*
X0350890Y0108820D01*
X0350744Y0108847D01*
X0350600Y0108879D01*
X0350456Y0108914D01*
X0350313Y0108954D01*
X0350172Y0108997D01*
X0350031Y0109044D01*
X0349892Y0109094D01*
X0349755Y0109149D01*
X0349619Y0109207D01*
X0349484Y0109268D01*
X0349351Y0109333D01*
X0349220Y0109402D01*
X0349091Y0109474D01*
X0348964Y0109550D01*
X0348839Y0109629D01*
X0348716Y0109712D01*
X0348595Y0109797D01*
X0348477Y0109886D01*
X0348361Y0109978D01*
X0348248Y0110074D01*
X0348137Y0110172D01*
X0348029Y0110273D01*
X0347923Y0110377D01*
X0347821Y0110483D01*
X0347721Y0110593D01*
X0347625Y0110705D01*
X0347531Y0110820D01*
X0347440Y0110937D01*
X0347353Y0111056D01*
X0347269Y0111178D01*
X0347188Y0111302D01*
X0347111Y0111428D01*
X0347037Y0111556D01*
X0346966Y0111686D01*
X0346899Y0111818D01*
X0346836Y0111952D01*
X0346776Y0112087D01*
X0346720Y0112224D01*
X0346667Y0112363D01*
X0346619Y0112503D01*
X0346574Y0112644D01*
X0346533Y0112786D01*
X0346495Y0112929D01*
X0346462Y0113073D01*
X0346432Y0113218D01*
X0346406Y0113364D01*
X0346385Y0113510D01*
X0346367Y0113657D01*
X0346353Y0113804D01*
X0346343Y0113952D01*
X0346337Y0114100D01*
X0346335Y0114248D01*
D11*
X0291481Y0117377D02*
X0290863Y0116760D01*
X0289629Y0116760D01*
X0289012Y0117377D01*
X0287797Y0116760D02*
X0285329Y0116760D01*
X0286563Y0116760D02*
X0286563Y0120463D01*
X0287797Y0119229D01*
X0289012Y0119846D02*
X0289629Y0120463D01*
X0290863Y0120463D01*
X0291481Y0119846D01*
X0291481Y0117377D01*
X0284114Y0117377D02*
X0283497Y0116760D01*
X0282263Y0116760D01*
X0281646Y0117377D01*
X0281646Y0118612D01*
X0282263Y0119229D01*
X0282880Y0119229D01*
X0284114Y0118612D01*
X0284114Y0120463D01*
X0281646Y0120463D01*
X0265795Y0118177D02*
X0265178Y0118794D01*
X0264560Y0118794D01*
X0263943Y0118177D01*
X0263326Y0118794D01*
X0262709Y0118794D01*
X0262092Y0118177D01*
X0262092Y0116942D01*
X0262709Y0116325D01*
X0262709Y0115111D02*
X0262092Y0114494D01*
X0262092Y0113259D01*
X0262709Y0112642D01*
X0265178Y0112642D01*
X0265795Y0113259D01*
X0265795Y0114494D01*
X0265178Y0115111D01*
X0265178Y0116325D02*
X0265795Y0116942D01*
X0265795Y0118177D01*
X0263943Y0118177D02*
X0263943Y0117560D01*
X0237183Y0128425D02*
X0236699Y0127941D01*
X0236216Y0127941D01*
X0235732Y0128425D01*
X0235732Y0129393D01*
X0235248Y0129876D01*
X0234764Y0129876D01*
X0234281Y0129393D01*
X0234281Y0128425D01*
X0234764Y0127941D01*
X0237183Y0128425D02*
X0237183Y0129393D01*
X0236699Y0129876D01*
X0237183Y0130888D02*
X0237183Y0132823D01*
X0237183Y0131855D02*
X0234281Y0131855D01*
X0234281Y0133834D02*
X0237183Y0133834D01*
X0236216Y0134802D01*
X0237183Y0135769D01*
X0234281Y0135769D01*
X0234764Y0136781D02*
X0234281Y0137265D01*
X0234281Y0138232D01*
X0234764Y0138716D01*
X0235248Y0138716D01*
X0235732Y0138232D01*
X0235732Y0137748D01*
X0235732Y0138232D02*
X0236216Y0138716D01*
X0236699Y0138716D01*
X0237183Y0138232D01*
X0237183Y0137265D01*
X0236699Y0136781D01*
X0236699Y0139727D02*
X0237183Y0140211D01*
X0237183Y0141179D01*
X0236699Y0141662D01*
X0236216Y0141662D01*
X0234281Y0139727D01*
X0234281Y0141662D01*
X0234281Y0142674D02*
X0237183Y0142674D01*
X0237183Y0144609D01*
X0235732Y0143641D02*
X0235732Y0142674D01*
X0235732Y0145620D02*
X0235732Y0147555D01*
X0236699Y0148567D02*
X0237183Y0149051D01*
X0237183Y0150018D01*
X0236699Y0150502D01*
X0234764Y0148567D01*
X0234281Y0149051D01*
X0234281Y0150018D01*
X0234764Y0150502D01*
X0236699Y0150502D01*
X0237183Y0151513D02*
X0235732Y0151513D01*
X0236216Y0152481D01*
X0236216Y0152965D01*
X0235732Y0153448D01*
X0234764Y0153448D01*
X0234281Y0152965D01*
X0234281Y0151997D01*
X0234764Y0151513D01*
X0237183Y0151513D02*
X0237183Y0153448D01*
X0237183Y0154460D02*
X0234281Y0156395D01*
X0234281Y0157407D02*
X0237183Y0159341D01*
X0237183Y0157407D02*
X0234281Y0159341D01*
X0237183Y0156395D02*
X0234281Y0154460D01*
X0234764Y0148567D02*
X0236699Y0148567D01*
X0237183Y0147072D02*
X0235732Y0145620D01*
X0234281Y0147072D02*
X0237183Y0147072D01*
X0196697Y0137563D02*
X0196697Y0135094D01*
X0196080Y0134477D01*
X0194846Y0134477D01*
X0194228Y0135094D01*
X0193014Y0134477D02*
X0190545Y0134477D01*
X0191780Y0134477D02*
X0191780Y0138180D01*
X0193014Y0136946D01*
X0194228Y0137563D02*
X0194846Y0138180D01*
X0196080Y0138180D01*
X0196697Y0137563D01*
X0189331Y0137563D02*
X0189331Y0135094D01*
X0186862Y0137563D01*
X0186862Y0135094D01*
X0187479Y0134477D01*
X0188714Y0134477D01*
X0189331Y0135094D01*
X0189331Y0137563D02*
X0188714Y0138180D01*
X0187479Y0138180D01*
X0186862Y0137563D01*
X0190545Y0161248D02*
X0193014Y0161248D01*
X0191780Y0161248D02*
X0191780Y0164952D01*
X0193014Y0163717D01*
X0194228Y0164334D02*
X0194846Y0164952D01*
X0196080Y0164952D01*
X0196697Y0164334D01*
X0196697Y0161866D01*
X0196080Y0161248D01*
X0194846Y0161248D01*
X0194228Y0161866D01*
X0194846Y0169122D02*
X0194228Y0169740D01*
X0194846Y0169122D02*
X0196080Y0169122D01*
X0196697Y0169740D01*
X0196697Y0172208D01*
X0196080Y0172826D01*
X0194846Y0172826D01*
X0194228Y0172208D01*
X0193014Y0172208D02*
X0193014Y0171591D01*
X0192397Y0170974D01*
X0190545Y0170974D01*
X0190545Y0169740D02*
X0190545Y0172208D01*
X0191162Y0172826D01*
X0192397Y0172826D01*
X0193014Y0172208D01*
X0193014Y0169740D02*
X0192397Y0169122D01*
X0191162Y0169122D01*
X0190545Y0169740D01*
X0246407Y0175842D02*
X0246407Y0177076D01*
X0247024Y0177694D01*
X0248258Y0178908D02*
X0248258Y0181377D01*
X0246407Y0180760D02*
X0250110Y0180760D01*
X0248258Y0178908D01*
X0249493Y0177694D02*
X0250110Y0177076D01*
X0250110Y0175842D01*
X0249493Y0175225D01*
X0247024Y0175225D01*
X0246407Y0175842D01*
X0253493Y0175842D02*
X0253493Y0177076D01*
X0254110Y0177694D01*
X0254110Y0178908D02*
X0254728Y0178908D01*
X0255345Y0179525D01*
X0255345Y0180760D01*
X0254728Y0181377D01*
X0254110Y0181377D01*
X0253493Y0180760D01*
X0253493Y0179525D01*
X0254110Y0178908D01*
X0255345Y0179525D02*
X0255962Y0178908D01*
X0256579Y0178908D01*
X0257196Y0179525D01*
X0257196Y0180760D01*
X0256579Y0181377D01*
X0255962Y0181377D01*
X0255345Y0180760D01*
X0256579Y0177694D02*
X0257196Y0177076D01*
X0257196Y0175842D01*
X0256579Y0175225D01*
X0254110Y0175225D01*
X0253493Y0175842D01*
X0279745Y0201800D02*
X0280979Y0201800D01*
X0281597Y0202417D01*
X0282811Y0202417D02*
X0283428Y0201800D01*
X0284663Y0201800D01*
X0285280Y0202417D01*
X0285280Y0204886D01*
X0284663Y0205503D01*
X0283428Y0205503D01*
X0282811Y0204886D01*
X0281597Y0205503D02*
X0281597Y0203651D01*
X0280362Y0204268D01*
X0279745Y0204268D01*
X0279128Y0203651D01*
X0279128Y0202417D01*
X0279745Y0201800D01*
X0279128Y0205503D02*
X0281597Y0205503D01*
X0220125Y0109050D02*
X0219508Y0107815D01*
X0218274Y0106581D01*
X0218274Y0108433D01*
X0217657Y0109050D01*
X0217039Y0109050D01*
X0216422Y0108433D01*
X0216422Y0107198D01*
X0217039Y0106581D01*
X0218274Y0106581D01*
X0219508Y0105367D02*
X0220125Y0104749D01*
X0220125Y0103515D01*
X0219508Y0102898D01*
X0217039Y0102898D01*
X0216422Y0103515D01*
X0216422Y0104749D01*
X0217039Y0105367D01*
D12*
X0236594Y0107282D02*
X0237362Y0106515D01*
X0238896Y0106515D01*
X0239664Y0107282D01*
X0236594Y0110352D01*
X0236594Y0107282D01*
X0236594Y0110352D02*
X0237362Y0111119D01*
X0238896Y0111119D01*
X0239664Y0110352D01*
X0239664Y0107282D01*
X0241198Y0106515D02*
X0244268Y0106515D01*
X0245802Y0106515D02*
X0247337Y0108050D01*
X0246570Y0108050D02*
X0248872Y0108050D01*
X0248872Y0106515D02*
X0248872Y0111119D01*
X0246570Y0111119D01*
X0245802Y0110352D01*
X0245802Y0108817D01*
X0246570Y0108050D01*
X0244268Y0109584D02*
X0242733Y0111119D01*
X0242733Y0106515D01*
X0242969Y0102457D02*
X0242969Y0097854D01*
X0241435Y0097854D02*
X0244504Y0097854D01*
X0246038Y0097854D02*
X0247573Y0099388D01*
X0246806Y0099388D02*
X0249108Y0099388D01*
X0249108Y0097854D02*
X0249108Y0102457D01*
X0246806Y0102457D01*
X0246038Y0101690D01*
X0246038Y0100155D01*
X0246806Y0099388D01*
X0244504Y0100923D02*
X0242969Y0102457D01*
X0239900Y0101690D02*
X0239133Y0102457D01*
X0237598Y0102457D01*
X0236831Y0101690D01*
X0236831Y0100923D01*
X0239900Y0097854D01*
X0236831Y0097854D01*
X0218188Y0071747D02*
X0218188Y0068678D01*
X0220490Y0070980D01*
X0215886Y0070980D01*
X0217086Y0067382D02*
X0216319Y0066615D01*
X0216319Y0065080D01*
X0217086Y0064313D01*
X0217420Y0064074D02*
X0217420Y0066376D01*
X0218188Y0067143D01*
X0219722Y0067143D01*
X0220490Y0066376D01*
X0220490Y0064074D01*
X0215886Y0064074D01*
X0216319Y0062778D02*
X0217853Y0061243D01*
X0217853Y0062011D02*
X0217853Y0059709D01*
X0216319Y0059709D02*
X0220923Y0059709D01*
X0220923Y0062011D01*
X0220155Y0062778D01*
X0218621Y0062778D01*
X0217853Y0062011D01*
X0220155Y0064313D02*
X0220923Y0065080D01*
X0220923Y0066615D01*
X0220155Y0067382D01*
X0219388Y0067382D01*
X0218621Y0066615D01*
X0217853Y0067382D01*
X0217086Y0067382D01*
X0215886Y0067143D02*
X0217420Y0065609D01*
X0218621Y0065847D02*
X0218621Y0066615D01*
X0267264Y0131436D02*
X0271868Y0131436D01*
X0271868Y0133738D01*
X0271100Y0134505D01*
X0269566Y0134505D01*
X0268798Y0133738D01*
X0268798Y0131436D01*
X0268798Y0132971D02*
X0267264Y0134505D01*
X0267264Y0136040D02*
X0270333Y0139109D01*
X0271100Y0139109D01*
X0271868Y0138342D01*
X0271868Y0136807D01*
X0271100Y0136040D01*
X0267264Y0136040D02*
X0267264Y0139109D01*
X0279976Y0176987D02*
X0279976Y0177755D01*
X0276907Y0180824D01*
X0276907Y0181591D01*
X0279976Y0181591D01*
X0281511Y0180824D02*
X0281511Y0179289D01*
X0282278Y0178522D01*
X0284580Y0178522D01*
X0283046Y0178522D02*
X0281511Y0176987D01*
X0284580Y0176987D02*
X0284580Y0181591D01*
X0282278Y0181591D01*
X0281511Y0180824D01*
X0281511Y0185255D02*
X0283046Y0186790D01*
X0282278Y0186790D02*
X0284580Y0186790D01*
X0284580Y0185255D02*
X0284580Y0189859D01*
X0282278Y0189859D01*
X0281511Y0189092D01*
X0281511Y0187557D01*
X0282278Y0186790D01*
X0279976Y0187557D02*
X0277674Y0187557D01*
X0276907Y0186790D01*
X0276907Y0186022D01*
X0277674Y0185255D01*
X0279209Y0185255D01*
X0279976Y0186022D01*
X0279976Y0187557D01*
X0278442Y0189092D01*
X0276907Y0189859D01*
X0277674Y0193523D02*
X0276907Y0194290D01*
X0276907Y0195825D01*
X0277674Y0196592D01*
X0278442Y0196592D01*
X0279976Y0195825D01*
X0279976Y0198127D01*
X0276907Y0198127D01*
X0281511Y0197359D02*
X0281511Y0195825D01*
X0282278Y0195057D01*
X0284580Y0195057D01*
X0284580Y0193523D02*
X0284580Y0198127D01*
X0282278Y0198127D01*
X0281511Y0197359D01*
X0283046Y0195057D02*
X0281511Y0193523D01*
X0279976Y0194290D02*
X0279209Y0193523D01*
X0277674Y0193523D01*
X0277674Y0210058D02*
X0279209Y0210058D01*
X0279976Y0210826D01*
X0279976Y0211593D01*
X0279209Y0212360D01*
X0277674Y0212360D01*
X0276907Y0211593D01*
X0276907Y0210826D01*
X0277674Y0210058D01*
X0277674Y0212360D02*
X0276907Y0213128D01*
X0276907Y0213895D01*
X0277674Y0214662D01*
X0279209Y0214662D01*
X0279976Y0213895D01*
X0279976Y0213128D01*
X0279209Y0212360D01*
X0281511Y0212360D02*
X0282278Y0211593D01*
X0284580Y0211593D01*
X0283046Y0211593D02*
X0281511Y0210058D01*
X0281511Y0212360D02*
X0281511Y0213895D01*
X0282278Y0214662D01*
X0284580Y0214662D01*
X0284580Y0210058D01*
X0284580Y0218326D02*
X0284580Y0222930D01*
X0282278Y0222930D01*
X0281511Y0222163D01*
X0281511Y0220628D01*
X0282278Y0219861D01*
X0284580Y0219861D01*
X0283046Y0219861D02*
X0281511Y0218326D01*
X0279976Y0219093D02*
X0279209Y0218326D01*
X0277674Y0218326D01*
X0276907Y0219093D01*
X0276907Y0222163D01*
X0277674Y0222930D01*
X0279209Y0222930D01*
X0279976Y0222163D01*
X0279976Y0221395D01*
X0279209Y0220628D01*
X0276907Y0220628D01*
X0322694Y0231318D02*
X0325764Y0231318D01*
X0327298Y0231318D02*
X0328833Y0232853D01*
X0328066Y0232853D02*
X0330368Y0232853D01*
X0330368Y0231318D02*
X0330368Y0235922D01*
X0328066Y0235922D01*
X0327298Y0235155D01*
X0327298Y0233620D01*
X0328066Y0232853D01*
X0325764Y0234387D02*
X0324229Y0235922D01*
X0324229Y0231318D01*
X0338186Y0205472D02*
X0338186Y0202403D01*
X0338186Y0203938D02*
X0333583Y0203938D01*
X0330903Y0205276D02*
X0330903Y0202206D01*
X0326299Y0202206D01*
X0326299Y0205276D01*
X0328601Y0203741D02*
X0328601Y0202206D01*
X0327834Y0200672D02*
X0327066Y0200672D01*
X0326299Y0199904D01*
X0326299Y0198370D01*
X0327066Y0197602D01*
X0327066Y0196068D02*
X0326299Y0195300D01*
X0326299Y0193766D01*
X0327066Y0192998D01*
X0330136Y0192998D01*
X0330903Y0193766D01*
X0330903Y0195300D01*
X0330136Y0196068D01*
X0327066Y0196068D01*
X0328601Y0198370D02*
X0328601Y0199904D01*
X0327834Y0200672D01*
X0330136Y0200672D02*
X0330903Y0199904D01*
X0330903Y0198370D01*
X0330136Y0197602D01*
X0329368Y0197602D01*
X0328601Y0198370D01*
X0333583Y0197799D02*
X0336652Y0197799D01*
X0338186Y0199334D01*
X0336652Y0200868D01*
X0333583Y0200868D01*
X0335884Y0200868D02*
X0335884Y0197799D01*
X0335117Y0196265D02*
X0334350Y0196265D01*
X0333583Y0195497D01*
X0333583Y0193963D01*
X0334350Y0193195D01*
X0333583Y0191661D02*
X0338186Y0191661D01*
X0336652Y0190126D01*
X0338186Y0188591D01*
X0333583Y0188591D01*
X0334350Y0187057D02*
X0337419Y0187057D01*
X0338186Y0186289D01*
X0338186Y0183987D01*
X0333583Y0183987D01*
X0333583Y0186289D01*
X0334350Y0187057D01*
X0330903Y0186860D02*
X0330903Y0185325D01*
X0330903Y0186093D02*
X0326299Y0186093D01*
X0326299Y0186860D02*
X0326299Y0185325D01*
X0326299Y0183791D02*
X0330903Y0183791D01*
X0328601Y0183791D02*
X0328601Y0180721D01*
X0326299Y0180721D02*
X0330903Y0180721D01*
X0330903Y0188394D02*
X0326299Y0188394D01*
X0327834Y0188394D02*
X0327834Y0190696D01*
X0328601Y0191464D01*
X0330136Y0191464D01*
X0330903Y0190696D01*
X0330903Y0188394D01*
X0327834Y0189929D02*
X0326299Y0191464D01*
X0335117Y0196265D02*
X0335884Y0195497D01*
X0335884Y0194730D01*
X0335884Y0195497D02*
X0336652Y0196265D01*
X0337419Y0196265D01*
X0338186Y0195497D01*
X0338186Y0193963D01*
X0337419Y0193195D01*
X0196611Y0173254D02*
X0190473Y0173254D01*
X0191240Y0174021D02*
X0191240Y0172486D01*
X0192007Y0171719D01*
X0192007Y0170184D02*
X0191240Y0169417D01*
X0191240Y0167882D01*
X0192007Y0167115D01*
X0195844Y0167115D01*
X0195844Y0170184D02*
X0192007Y0170184D01*
X0193542Y0172486D02*
X0194309Y0171719D01*
X0195077Y0171719D01*
X0195844Y0172486D01*
X0195844Y0174021D01*
X0195077Y0174788D01*
X0193542Y0174021D02*
X0193542Y0172486D01*
X0193542Y0174021D02*
X0192775Y0174788D01*
X0192007Y0174788D01*
X0191240Y0174021D01*
X0191240Y0176323D02*
X0191240Y0179392D01*
X0191240Y0177857D02*
X0195844Y0177857D01*
X0194309Y0176323D01*
X0195077Y0180927D02*
X0195844Y0181694D01*
X0195844Y0183229D01*
X0195077Y0183996D01*
X0194309Y0183996D01*
X0193542Y0183229D01*
X0192775Y0183996D01*
X0192007Y0183996D01*
X0191240Y0183229D01*
X0191240Y0181694D01*
X0192007Y0180927D01*
X0193542Y0182461D02*
X0193542Y0183229D01*
X0173442Y0161824D02*
X0173442Y0158754D01*
X0171140Y0158754D01*
X0171908Y0160289D01*
X0171908Y0161056D01*
X0171140Y0161824D01*
X0169606Y0161824D01*
X0168838Y0161056D01*
X0168838Y0159522D01*
X0169606Y0158754D01*
X0168838Y0157220D02*
X0168838Y0154150D01*
X0168838Y0152616D02*
X0170373Y0151081D01*
X0170373Y0151848D02*
X0170373Y0149546D01*
X0168838Y0149546D02*
X0173442Y0149546D01*
X0173442Y0151848D01*
X0172675Y0152616D01*
X0171140Y0152616D01*
X0170373Y0151848D01*
X0171908Y0154150D02*
X0173442Y0155685D01*
X0168838Y0155685D01*
D13*
X0210587Y0161335D02*
X0210587Y0124248D01*
X0247713Y0124248D01*
X0247713Y0161335D01*
X0210587Y0161335D01*
D14*
X0241926Y0128027D02*
X0241928Y0128115D01*
X0241934Y0128203D01*
X0241944Y0128291D01*
X0241958Y0128379D01*
X0241975Y0128465D01*
X0241997Y0128551D01*
X0242022Y0128635D01*
X0242052Y0128719D01*
X0242084Y0128801D01*
X0242121Y0128881D01*
X0242161Y0128960D01*
X0242205Y0129037D01*
X0242252Y0129112D01*
X0242302Y0129184D01*
X0242356Y0129255D01*
X0242412Y0129322D01*
X0242472Y0129388D01*
X0242534Y0129450D01*
X0242600Y0129510D01*
X0242667Y0129566D01*
X0242738Y0129620D01*
X0242810Y0129670D01*
X0242885Y0129717D01*
X0242962Y0129761D01*
X0243041Y0129801D01*
X0243121Y0129838D01*
X0243203Y0129870D01*
X0243287Y0129900D01*
X0243371Y0129925D01*
X0243457Y0129947D01*
X0243543Y0129964D01*
X0243631Y0129978D01*
X0243719Y0129988D01*
X0243807Y0129994D01*
X0243895Y0129996D01*
X0243983Y0129994D01*
X0244071Y0129988D01*
X0244159Y0129978D01*
X0244247Y0129964D01*
X0244333Y0129947D01*
X0244419Y0129925D01*
X0244503Y0129900D01*
X0244587Y0129870D01*
X0244669Y0129838D01*
X0244749Y0129801D01*
X0244828Y0129761D01*
X0244905Y0129717D01*
X0244980Y0129670D01*
X0245052Y0129620D01*
X0245123Y0129566D01*
X0245190Y0129510D01*
X0245256Y0129450D01*
X0245318Y0129388D01*
X0245378Y0129322D01*
X0245434Y0129255D01*
X0245488Y0129184D01*
X0245538Y0129112D01*
X0245585Y0129037D01*
X0245629Y0128960D01*
X0245669Y0128881D01*
X0245706Y0128801D01*
X0245738Y0128719D01*
X0245768Y0128635D01*
X0245793Y0128551D01*
X0245815Y0128465D01*
X0245832Y0128379D01*
X0245846Y0128291D01*
X0245856Y0128203D01*
X0245862Y0128115D01*
X0245864Y0128027D01*
X0245862Y0127939D01*
X0245856Y0127851D01*
X0245846Y0127763D01*
X0245832Y0127675D01*
X0245815Y0127589D01*
X0245793Y0127503D01*
X0245768Y0127419D01*
X0245738Y0127335D01*
X0245706Y0127253D01*
X0245669Y0127173D01*
X0245629Y0127094D01*
X0245585Y0127017D01*
X0245538Y0126942D01*
X0245488Y0126870D01*
X0245434Y0126799D01*
X0245378Y0126732D01*
X0245318Y0126666D01*
X0245256Y0126604D01*
X0245190Y0126544D01*
X0245123Y0126488D01*
X0245052Y0126434D01*
X0244980Y0126384D01*
X0244905Y0126337D01*
X0244828Y0126293D01*
X0244749Y0126253D01*
X0244669Y0126216D01*
X0244587Y0126184D01*
X0244503Y0126154D01*
X0244419Y0126129D01*
X0244333Y0126107D01*
X0244247Y0126090D01*
X0244159Y0126076D01*
X0244071Y0126066D01*
X0243983Y0126060D01*
X0243895Y0126058D01*
X0243807Y0126060D01*
X0243719Y0126066D01*
X0243631Y0126076D01*
X0243543Y0126090D01*
X0243457Y0126107D01*
X0243371Y0126129D01*
X0243287Y0126154D01*
X0243203Y0126184D01*
X0243121Y0126216D01*
X0243041Y0126253D01*
X0242962Y0126293D01*
X0242885Y0126337D01*
X0242810Y0126384D01*
X0242738Y0126434D01*
X0242667Y0126488D01*
X0242600Y0126544D01*
X0242534Y0126604D01*
X0242472Y0126666D01*
X0242412Y0126732D01*
X0242356Y0126799D01*
X0242302Y0126870D01*
X0242252Y0126942D01*
X0242205Y0127017D01*
X0242161Y0127094D01*
X0242121Y0127173D01*
X0242084Y0127253D01*
X0242052Y0127335D01*
X0242022Y0127419D01*
X0241997Y0127503D01*
X0241975Y0127589D01*
X0241958Y0127675D01*
X0241944Y0127763D01*
X0241934Y0127851D01*
X0241928Y0127939D01*
X0241926Y0128027D01*
D15*
X0270784Y0128815D02*
X0296768Y0128815D01*
X0296768Y0142752D01*
X0270784Y0142752D01*
X0270784Y0128815D01*
X0273276Y0128752D02*
X0273276Y0120752D01*
X0275776Y0120752D01*
X0275776Y0128752D01*
X0273276Y0128752D01*
X0282276Y0128752D02*
X0282276Y0120752D01*
X0284776Y0120752D01*
X0284776Y0128752D01*
X0282276Y0128752D01*
X0291276Y0128752D02*
X0291276Y0120752D01*
X0293776Y0120752D01*
X0293776Y0128752D01*
X0291276Y0128752D01*
X0289776Y0142752D02*
X0277776Y0142752D01*
X0277776Y0149752D01*
X0289776Y0149752D01*
X0289776Y0142752D01*
X0296650Y0167634D02*
X0360430Y0167634D01*
X0360430Y0214878D01*
X0359446Y0215862D01*
X0359446Y0220783D01*
X0296650Y0220783D01*
X0296650Y0167634D01*
X0286276Y0074364D02*
X0284775Y0074364D01*
X0285525Y0074364D02*
X0285525Y0069860D01*
X0284775Y0069860D02*
X0286276Y0069860D01*
X0283207Y0070611D02*
X0283207Y0073613D01*
X0282456Y0074364D01*
X0280955Y0074364D01*
X0280204Y0073613D01*
X0278603Y0073613D02*
X0277852Y0074364D01*
X0276351Y0074364D01*
X0275600Y0073613D01*
X0275600Y0072863D01*
X0278603Y0069860D01*
X0275600Y0069860D01*
X0280204Y0070611D02*
X0280955Y0069860D01*
X0282456Y0069860D01*
X0283207Y0070611D01*
X0141335Y0061531D02*
X0141335Y0110154D01*
X0102949Y0110154D01*
X0102949Y0061531D01*
X0141335Y0061531D01*
X0133658Y0105035D02*
X0133660Y0105136D01*
X0133666Y0105237D01*
X0133676Y0105338D01*
X0133690Y0105438D01*
X0133708Y0105537D01*
X0133730Y0105636D01*
X0133755Y0105734D01*
X0133785Y0105831D01*
X0133818Y0105926D01*
X0133855Y0106020D01*
X0133896Y0106113D01*
X0133940Y0106204D01*
X0133988Y0106293D01*
X0134040Y0106380D01*
X0134095Y0106465D01*
X0134153Y0106547D01*
X0134214Y0106628D01*
X0134279Y0106706D01*
X0134346Y0106781D01*
X0134416Y0106853D01*
X0134490Y0106923D01*
X0134566Y0106990D01*
X0134644Y0107054D01*
X0134725Y0107114D01*
X0134808Y0107171D01*
X0134894Y0107225D01*
X0134982Y0107276D01*
X0135071Y0107323D01*
X0135162Y0107367D01*
X0135255Y0107406D01*
X0135350Y0107443D01*
X0135445Y0107475D01*
X0135542Y0107504D01*
X0135641Y0107528D01*
X0135739Y0107549D01*
X0135839Y0107566D01*
X0135939Y0107579D01*
X0136040Y0107588D01*
X0136141Y0107593D01*
X0136242Y0107594D01*
X0136343Y0107591D01*
X0136444Y0107584D01*
X0136545Y0107573D01*
X0136645Y0107558D01*
X0136744Y0107539D01*
X0136843Y0107516D01*
X0136940Y0107490D01*
X0137037Y0107459D01*
X0137132Y0107425D01*
X0137225Y0107387D01*
X0137318Y0107345D01*
X0137408Y0107300D01*
X0137497Y0107251D01*
X0137583Y0107199D01*
X0137667Y0107143D01*
X0137750Y0107084D01*
X0137829Y0107022D01*
X0137907Y0106957D01*
X0137981Y0106889D01*
X0138053Y0106817D01*
X0138122Y0106744D01*
X0138188Y0106667D01*
X0138251Y0106588D01*
X0138311Y0106506D01*
X0138367Y0106422D01*
X0138420Y0106336D01*
X0138470Y0106248D01*
X0138516Y0106158D01*
X0138559Y0106067D01*
X0138598Y0105973D01*
X0138633Y0105878D01*
X0138664Y0105782D01*
X0138692Y0105685D01*
X0138716Y0105587D01*
X0138736Y0105488D01*
X0138752Y0105388D01*
X0138764Y0105287D01*
X0138772Y0105187D01*
X0138776Y0105086D01*
X0138776Y0104984D01*
X0138772Y0104883D01*
X0138764Y0104783D01*
X0138752Y0104682D01*
X0138736Y0104582D01*
X0138716Y0104483D01*
X0138692Y0104385D01*
X0138664Y0104288D01*
X0138633Y0104192D01*
X0138598Y0104097D01*
X0138559Y0104003D01*
X0138516Y0103912D01*
X0138470Y0103822D01*
X0138420Y0103734D01*
X0138367Y0103648D01*
X0138311Y0103564D01*
X0138251Y0103482D01*
X0138188Y0103403D01*
X0138122Y0103326D01*
X0138053Y0103253D01*
X0137981Y0103181D01*
X0137907Y0103113D01*
X0137829Y0103048D01*
X0137750Y0102986D01*
X0137667Y0102927D01*
X0137583Y0102871D01*
X0137496Y0102819D01*
X0137408Y0102770D01*
X0137318Y0102725D01*
X0137225Y0102683D01*
X0137132Y0102645D01*
X0137037Y0102611D01*
X0136940Y0102580D01*
X0136843Y0102554D01*
X0136744Y0102531D01*
X0136645Y0102512D01*
X0136545Y0102497D01*
X0136444Y0102486D01*
X0136343Y0102479D01*
X0136242Y0102476D01*
X0136141Y0102477D01*
X0136040Y0102482D01*
X0135939Y0102491D01*
X0135839Y0102504D01*
X0135739Y0102521D01*
X0135641Y0102542D01*
X0135542Y0102566D01*
X0135445Y0102595D01*
X0135350Y0102627D01*
X0135255Y0102664D01*
X0135162Y0102703D01*
X0135071Y0102747D01*
X0134982Y0102794D01*
X0134894Y0102845D01*
X0134808Y0102899D01*
X0134725Y0102956D01*
X0134644Y0103016D01*
X0134566Y0103080D01*
X0134490Y0103147D01*
X0134416Y0103217D01*
X0134346Y0103289D01*
X0134279Y0103364D01*
X0134214Y0103442D01*
X0134153Y0103523D01*
X0134095Y0103605D01*
X0134040Y0103690D01*
X0133988Y0103777D01*
X0133940Y0103866D01*
X0133896Y0103957D01*
X0133855Y0104050D01*
X0133818Y0104144D01*
X0133785Y0104239D01*
X0133755Y0104336D01*
X0133730Y0104434D01*
X0133708Y0104533D01*
X0133690Y0104632D01*
X0133676Y0104732D01*
X0133666Y0104833D01*
X0133660Y0104934D01*
X0133658Y0105035D01*
X0142005Y0178776D02*
X0103619Y0178776D01*
X0103619Y0227398D01*
X0142005Y0227398D01*
X0142005Y0178776D01*
X0134327Y0222280D02*
X0134329Y0222381D01*
X0134335Y0222482D01*
X0134345Y0222583D01*
X0134359Y0222683D01*
X0134377Y0222782D01*
X0134399Y0222881D01*
X0134424Y0222979D01*
X0134454Y0223076D01*
X0134487Y0223171D01*
X0134524Y0223265D01*
X0134565Y0223358D01*
X0134609Y0223449D01*
X0134657Y0223538D01*
X0134709Y0223625D01*
X0134764Y0223710D01*
X0134822Y0223792D01*
X0134883Y0223873D01*
X0134948Y0223951D01*
X0135015Y0224026D01*
X0135085Y0224098D01*
X0135159Y0224168D01*
X0135235Y0224235D01*
X0135313Y0224299D01*
X0135394Y0224359D01*
X0135477Y0224416D01*
X0135563Y0224470D01*
X0135651Y0224521D01*
X0135740Y0224568D01*
X0135831Y0224612D01*
X0135924Y0224651D01*
X0136019Y0224688D01*
X0136114Y0224720D01*
X0136211Y0224749D01*
X0136310Y0224773D01*
X0136408Y0224794D01*
X0136508Y0224811D01*
X0136608Y0224824D01*
X0136709Y0224833D01*
X0136810Y0224838D01*
X0136911Y0224839D01*
X0137012Y0224836D01*
X0137113Y0224829D01*
X0137214Y0224818D01*
X0137314Y0224803D01*
X0137413Y0224784D01*
X0137512Y0224761D01*
X0137609Y0224735D01*
X0137706Y0224704D01*
X0137801Y0224670D01*
X0137894Y0224632D01*
X0137987Y0224590D01*
X0138077Y0224545D01*
X0138166Y0224496D01*
X0138252Y0224444D01*
X0138336Y0224388D01*
X0138419Y0224329D01*
X0138498Y0224267D01*
X0138576Y0224202D01*
X0138650Y0224134D01*
X0138722Y0224062D01*
X0138791Y0223989D01*
X0138857Y0223912D01*
X0138920Y0223833D01*
X0138980Y0223751D01*
X0139036Y0223667D01*
X0139089Y0223581D01*
X0139139Y0223493D01*
X0139185Y0223403D01*
X0139228Y0223312D01*
X0139267Y0223218D01*
X0139302Y0223123D01*
X0139333Y0223027D01*
X0139361Y0222930D01*
X0139385Y0222832D01*
X0139405Y0222733D01*
X0139421Y0222633D01*
X0139433Y0222532D01*
X0139441Y0222432D01*
X0139445Y0222331D01*
X0139445Y0222229D01*
X0139441Y0222128D01*
X0139433Y0222028D01*
X0139421Y0221927D01*
X0139405Y0221827D01*
X0139385Y0221728D01*
X0139361Y0221630D01*
X0139333Y0221533D01*
X0139302Y0221437D01*
X0139267Y0221342D01*
X0139228Y0221248D01*
X0139185Y0221157D01*
X0139139Y0221067D01*
X0139089Y0220979D01*
X0139036Y0220893D01*
X0138980Y0220809D01*
X0138920Y0220727D01*
X0138857Y0220648D01*
X0138791Y0220571D01*
X0138722Y0220498D01*
X0138650Y0220426D01*
X0138576Y0220358D01*
X0138498Y0220293D01*
X0138419Y0220231D01*
X0138336Y0220172D01*
X0138252Y0220116D01*
X0138165Y0220064D01*
X0138077Y0220015D01*
X0137987Y0219970D01*
X0137894Y0219928D01*
X0137801Y0219890D01*
X0137706Y0219856D01*
X0137609Y0219825D01*
X0137512Y0219799D01*
X0137413Y0219776D01*
X0137314Y0219757D01*
X0137214Y0219742D01*
X0137113Y0219731D01*
X0137012Y0219724D01*
X0136911Y0219721D01*
X0136810Y0219722D01*
X0136709Y0219727D01*
X0136608Y0219736D01*
X0136508Y0219749D01*
X0136408Y0219766D01*
X0136310Y0219787D01*
X0136211Y0219811D01*
X0136114Y0219840D01*
X0136019Y0219872D01*
X0135924Y0219909D01*
X0135831Y0219948D01*
X0135740Y0219992D01*
X0135651Y0220039D01*
X0135563Y0220090D01*
X0135477Y0220144D01*
X0135394Y0220201D01*
X0135313Y0220261D01*
X0135235Y0220325D01*
X0135159Y0220392D01*
X0135085Y0220462D01*
X0135015Y0220534D01*
X0134948Y0220609D01*
X0134883Y0220687D01*
X0134822Y0220768D01*
X0134764Y0220850D01*
X0134709Y0220935D01*
X0134657Y0221022D01*
X0134609Y0221111D01*
X0134565Y0221202D01*
X0134524Y0221295D01*
X0134487Y0221389D01*
X0134454Y0221484D01*
X0134424Y0221581D01*
X0134399Y0221679D01*
X0134377Y0221778D01*
X0134359Y0221877D01*
X0134345Y0221977D01*
X0134335Y0222078D01*
X0134329Y0222179D01*
X0134327Y0222280D01*
D16*
X0200940Y0183431D02*
X0200940Y0180420D01*
X0200940Y0183431D02*
X0204270Y0183431D01*
X0200940Y0175340D02*
X0200940Y0172231D01*
X0204270Y0172231D01*
X0271949Y0098417D02*
X0296548Y0098417D01*
X0296548Y0084795D01*
X0271949Y0084795D01*
X0271949Y0098417D01*
M02*
