G75*
%MOIN*%
%OFA0B0*%
%FSLAX25Y25*%
%IPPOS*%
%LPD*%
%AMOC8*
5,1,8,0,0,1.08239X$1,22.5*
%
%ADD10C,0.00000*%
%ADD11R,0.04134X0.04252*%
%ADD12R,0.04252X0.04134*%
%ADD13R,0.06000X0.06000*%
%ADD14C,0.06000*%
%ADD15R,0.03937X0.04331*%
%ADD16R,0.04331X0.03937*%
%ADD17R,0.01181X0.06299*%
%ADD18R,0.06299X0.01181*%
%ADD19R,0.05000X0.01575*%
%ADD20C,0.05906*%
%ADD21R,0.05906X0.05906*%
%ADD22R,0.05600X0.02800*%
%ADD23R,0.04724X0.02756*%
%ADD24R,0.04724X0.03937*%
%ADD25R,0.10000X0.05000*%
%ADD26R,0.15748X0.07874*%
%ADD27R,0.04724X0.06693*%
%ADD28OC8,0.06000*%
%ADD29C,0.06000*%
%ADD30R,0.05512X0.03937*%
%ADD31R,0.05900X0.07900*%
%ADD32R,0.15000X0.07900*%
%ADD33C,0.01000*%
%ADD34C,0.02400*%
%ADD35C,0.01600*%
%ADD36C,0.04000*%
%ADD37C,0.13780*%
%ADD38C,0.03200*%
%ADD39C,0.08600*%
%ADD40C,0.00787*%
D10*
X0091335Y0054209D02*
X0091335Y0231374D01*
X0091341Y0231850D01*
X0091358Y0232325D01*
X0091387Y0232800D01*
X0091427Y0233274D01*
X0091479Y0233747D01*
X0091542Y0234218D01*
X0091616Y0234688D01*
X0091702Y0235156D01*
X0091799Y0235622D01*
X0091907Y0236085D01*
X0092026Y0236545D01*
X0092157Y0237003D01*
X0092298Y0237457D01*
X0092451Y0237908D01*
X0092614Y0238354D01*
X0092788Y0238797D01*
X0092973Y0239235D01*
X0093168Y0239669D01*
X0093374Y0240098D01*
X0093590Y0240522D01*
X0093816Y0240941D01*
X0094052Y0241354D01*
X0094298Y0241761D01*
X0094554Y0242162D01*
X0094820Y0242556D01*
X0095095Y0242945D01*
X0095379Y0243326D01*
X0095672Y0243700D01*
X0095974Y0244068D01*
X0096286Y0244428D01*
X0096605Y0244780D01*
X0096933Y0245124D01*
X0097270Y0245461D01*
X0097614Y0245789D01*
X0097966Y0246108D01*
X0098326Y0246420D01*
X0098694Y0246722D01*
X0099068Y0247015D01*
X0099449Y0247299D01*
X0099838Y0247574D01*
X0100232Y0247840D01*
X0100633Y0248096D01*
X0101040Y0248342D01*
X0101453Y0248578D01*
X0101872Y0248804D01*
X0102296Y0249020D01*
X0102725Y0249226D01*
X0103159Y0249421D01*
X0103597Y0249606D01*
X0104040Y0249780D01*
X0104486Y0249943D01*
X0104937Y0250096D01*
X0105391Y0250237D01*
X0105849Y0250368D01*
X0106309Y0250487D01*
X0106772Y0250595D01*
X0107238Y0250692D01*
X0107706Y0250778D01*
X0108176Y0250852D01*
X0108647Y0250915D01*
X0109120Y0250967D01*
X0109594Y0251007D01*
X0110069Y0251036D01*
X0110544Y0251053D01*
X0111020Y0251059D01*
X0347241Y0251059D01*
X0347717Y0251053D01*
X0348192Y0251036D01*
X0348667Y0251007D01*
X0349141Y0250967D01*
X0349614Y0250915D01*
X0350085Y0250852D01*
X0350555Y0250778D01*
X0351023Y0250692D01*
X0351489Y0250595D01*
X0351952Y0250487D01*
X0352412Y0250368D01*
X0352870Y0250237D01*
X0353324Y0250096D01*
X0353775Y0249943D01*
X0354221Y0249780D01*
X0354664Y0249606D01*
X0355102Y0249421D01*
X0355536Y0249226D01*
X0355965Y0249020D01*
X0356389Y0248804D01*
X0356808Y0248578D01*
X0357221Y0248342D01*
X0357628Y0248096D01*
X0358029Y0247840D01*
X0358423Y0247574D01*
X0358812Y0247299D01*
X0359193Y0247015D01*
X0359567Y0246722D01*
X0359935Y0246420D01*
X0360295Y0246108D01*
X0360647Y0245789D01*
X0360991Y0245461D01*
X0361328Y0245124D01*
X0361656Y0244780D01*
X0361975Y0244428D01*
X0362287Y0244068D01*
X0362589Y0243700D01*
X0362882Y0243326D01*
X0363166Y0242945D01*
X0363441Y0242556D01*
X0363707Y0242162D01*
X0363963Y0241761D01*
X0364209Y0241354D01*
X0364445Y0240941D01*
X0364671Y0240522D01*
X0364887Y0240098D01*
X0365093Y0239669D01*
X0365288Y0239235D01*
X0365473Y0238797D01*
X0365647Y0238354D01*
X0365810Y0237908D01*
X0365963Y0237457D01*
X0366104Y0237003D01*
X0366235Y0236545D01*
X0366354Y0236085D01*
X0366462Y0235622D01*
X0366559Y0235156D01*
X0366645Y0234688D01*
X0366719Y0234218D01*
X0366782Y0233747D01*
X0366834Y0233274D01*
X0366874Y0232800D01*
X0366903Y0232325D01*
X0366920Y0231850D01*
X0366926Y0231374D01*
X0366926Y0054209D01*
X0366920Y0053733D01*
X0366903Y0053258D01*
X0366874Y0052783D01*
X0366834Y0052309D01*
X0366782Y0051836D01*
X0366719Y0051365D01*
X0366645Y0050895D01*
X0366559Y0050427D01*
X0366462Y0049961D01*
X0366354Y0049498D01*
X0366235Y0049038D01*
X0366104Y0048580D01*
X0365963Y0048126D01*
X0365810Y0047675D01*
X0365647Y0047229D01*
X0365473Y0046786D01*
X0365288Y0046348D01*
X0365093Y0045914D01*
X0364887Y0045485D01*
X0364671Y0045061D01*
X0364445Y0044642D01*
X0364209Y0044229D01*
X0363963Y0043822D01*
X0363707Y0043421D01*
X0363441Y0043027D01*
X0363166Y0042638D01*
X0362882Y0042257D01*
X0362589Y0041883D01*
X0362287Y0041515D01*
X0361975Y0041155D01*
X0361656Y0040803D01*
X0361328Y0040459D01*
X0360991Y0040122D01*
X0360647Y0039794D01*
X0360295Y0039475D01*
X0359935Y0039163D01*
X0359567Y0038861D01*
X0359193Y0038568D01*
X0358812Y0038284D01*
X0358423Y0038009D01*
X0358029Y0037743D01*
X0357628Y0037487D01*
X0357221Y0037241D01*
X0356808Y0037005D01*
X0356389Y0036779D01*
X0355965Y0036563D01*
X0355536Y0036357D01*
X0355102Y0036162D01*
X0354664Y0035977D01*
X0354221Y0035803D01*
X0353775Y0035640D01*
X0353324Y0035487D01*
X0352870Y0035346D01*
X0352412Y0035215D01*
X0351952Y0035096D01*
X0351489Y0034988D01*
X0351023Y0034891D01*
X0350555Y0034805D01*
X0350085Y0034731D01*
X0349614Y0034668D01*
X0349141Y0034616D01*
X0348667Y0034576D01*
X0348192Y0034547D01*
X0347717Y0034530D01*
X0347241Y0034524D01*
X0111020Y0034524D01*
X0110544Y0034530D01*
X0110069Y0034547D01*
X0109594Y0034576D01*
X0109120Y0034616D01*
X0108647Y0034668D01*
X0108176Y0034731D01*
X0107706Y0034805D01*
X0107238Y0034891D01*
X0106772Y0034988D01*
X0106309Y0035096D01*
X0105849Y0035215D01*
X0105391Y0035346D01*
X0104937Y0035487D01*
X0104486Y0035640D01*
X0104040Y0035803D01*
X0103597Y0035977D01*
X0103159Y0036162D01*
X0102725Y0036357D01*
X0102296Y0036563D01*
X0101872Y0036779D01*
X0101453Y0037005D01*
X0101040Y0037241D01*
X0100633Y0037487D01*
X0100232Y0037743D01*
X0099838Y0038009D01*
X0099449Y0038284D01*
X0099068Y0038568D01*
X0098694Y0038861D01*
X0098326Y0039163D01*
X0097966Y0039475D01*
X0097614Y0039794D01*
X0097270Y0040122D01*
X0096933Y0040459D01*
X0096605Y0040803D01*
X0096286Y0041155D01*
X0095974Y0041515D01*
X0095672Y0041883D01*
X0095379Y0042257D01*
X0095095Y0042638D01*
X0094820Y0043027D01*
X0094554Y0043421D01*
X0094298Y0043822D01*
X0094052Y0044229D01*
X0093816Y0044642D01*
X0093590Y0045061D01*
X0093374Y0045485D01*
X0093168Y0045914D01*
X0092973Y0046348D01*
X0092788Y0046786D01*
X0092614Y0047229D01*
X0092451Y0047675D01*
X0092298Y0048126D01*
X0092157Y0048580D01*
X0092026Y0049038D01*
X0091907Y0049498D01*
X0091799Y0049961D01*
X0091702Y0050427D01*
X0091616Y0050895D01*
X0091542Y0051365D01*
X0091479Y0051836D01*
X0091427Y0052309D01*
X0091387Y0052783D01*
X0091358Y0053258D01*
X0091341Y0053733D01*
X0091335Y0054209D01*
X0226453Y0083539D02*
X0226455Y0083687D01*
X0226461Y0083835D01*
X0226471Y0083983D01*
X0226485Y0084130D01*
X0226503Y0084277D01*
X0226524Y0084423D01*
X0226550Y0084569D01*
X0226580Y0084714D01*
X0226613Y0084858D01*
X0226651Y0085001D01*
X0226692Y0085143D01*
X0226737Y0085284D01*
X0226785Y0085424D01*
X0226838Y0085563D01*
X0226894Y0085700D01*
X0226954Y0085835D01*
X0227017Y0085969D01*
X0227084Y0086101D01*
X0227155Y0086231D01*
X0227229Y0086359D01*
X0227306Y0086485D01*
X0227387Y0086609D01*
X0227471Y0086731D01*
X0227558Y0086850D01*
X0227649Y0086967D01*
X0227743Y0087082D01*
X0227839Y0087194D01*
X0227939Y0087304D01*
X0228041Y0087410D01*
X0228147Y0087514D01*
X0228255Y0087615D01*
X0228366Y0087713D01*
X0228479Y0087809D01*
X0228595Y0087901D01*
X0228713Y0087990D01*
X0228834Y0088075D01*
X0228957Y0088158D01*
X0229082Y0088237D01*
X0229209Y0088313D01*
X0229338Y0088385D01*
X0229469Y0088454D01*
X0229602Y0088519D01*
X0229737Y0088580D01*
X0229873Y0088638D01*
X0230010Y0088693D01*
X0230149Y0088743D01*
X0230290Y0088790D01*
X0230431Y0088833D01*
X0230574Y0088873D01*
X0230718Y0088908D01*
X0230862Y0088940D01*
X0231008Y0088967D01*
X0231154Y0088991D01*
X0231301Y0089011D01*
X0231448Y0089027D01*
X0231595Y0089039D01*
X0231743Y0089047D01*
X0231891Y0089051D01*
X0232039Y0089051D01*
X0232187Y0089047D01*
X0232335Y0089039D01*
X0232482Y0089027D01*
X0232629Y0089011D01*
X0232776Y0088991D01*
X0232922Y0088967D01*
X0233068Y0088940D01*
X0233212Y0088908D01*
X0233356Y0088873D01*
X0233499Y0088833D01*
X0233640Y0088790D01*
X0233781Y0088743D01*
X0233920Y0088693D01*
X0234057Y0088638D01*
X0234193Y0088580D01*
X0234328Y0088519D01*
X0234461Y0088454D01*
X0234592Y0088385D01*
X0234721Y0088313D01*
X0234848Y0088237D01*
X0234973Y0088158D01*
X0235096Y0088075D01*
X0235217Y0087990D01*
X0235335Y0087901D01*
X0235451Y0087809D01*
X0235564Y0087713D01*
X0235675Y0087615D01*
X0235783Y0087514D01*
X0235889Y0087410D01*
X0235991Y0087304D01*
X0236091Y0087194D01*
X0236187Y0087082D01*
X0236281Y0086967D01*
X0236372Y0086850D01*
X0236459Y0086731D01*
X0236543Y0086609D01*
X0236624Y0086485D01*
X0236701Y0086359D01*
X0236775Y0086231D01*
X0236846Y0086101D01*
X0236913Y0085969D01*
X0236976Y0085835D01*
X0237036Y0085700D01*
X0237092Y0085563D01*
X0237145Y0085424D01*
X0237193Y0085284D01*
X0237238Y0085143D01*
X0237279Y0085001D01*
X0237317Y0084858D01*
X0237350Y0084714D01*
X0237380Y0084569D01*
X0237406Y0084423D01*
X0237427Y0084277D01*
X0237445Y0084130D01*
X0237459Y0083983D01*
X0237469Y0083835D01*
X0237475Y0083687D01*
X0237477Y0083539D01*
X0237475Y0083391D01*
X0237469Y0083243D01*
X0237459Y0083095D01*
X0237445Y0082948D01*
X0237427Y0082801D01*
X0237406Y0082655D01*
X0237380Y0082509D01*
X0237350Y0082364D01*
X0237317Y0082220D01*
X0237279Y0082077D01*
X0237238Y0081935D01*
X0237193Y0081794D01*
X0237145Y0081654D01*
X0237092Y0081515D01*
X0237036Y0081378D01*
X0236976Y0081243D01*
X0236913Y0081109D01*
X0236846Y0080977D01*
X0236775Y0080847D01*
X0236701Y0080719D01*
X0236624Y0080593D01*
X0236543Y0080469D01*
X0236459Y0080347D01*
X0236372Y0080228D01*
X0236281Y0080111D01*
X0236187Y0079996D01*
X0236091Y0079884D01*
X0235991Y0079774D01*
X0235889Y0079668D01*
X0235783Y0079564D01*
X0235675Y0079463D01*
X0235564Y0079365D01*
X0235451Y0079269D01*
X0235335Y0079177D01*
X0235217Y0079088D01*
X0235096Y0079003D01*
X0234973Y0078920D01*
X0234848Y0078841D01*
X0234721Y0078765D01*
X0234592Y0078693D01*
X0234461Y0078624D01*
X0234328Y0078559D01*
X0234193Y0078498D01*
X0234057Y0078440D01*
X0233920Y0078385D01*
X0233781Y0078335D01*
X0233640Y0078288D01*
X0233499Y0078245D01*
X0233356Y0078205D01*
X0233212Y0078170D01*
X0233068Y0078138D01*
X0232922Y0078111D01*
X0232776Y0078087D01*
X0232629Y0078067D01*
X0232482Y0078051D01*
X0232335Y0078039D01*
X0232187Y0078031D01*
X0232039Y0078027D01*
X0231891Y0078027D01*
X0231743Y0078031D01*
X0231595Y0078039D01*
X0231448Y0078051D01*
X0231301Y0078067D01*
X0231154Y0078087D01*
X0231008Y0078111D01*
X0230862Y0078138D01*
X0230718Y0078170D01*
X0230574Y0078205D01*
X0230431Y0078245D01*
X0230290Y0078288D01*
X0230149Y0078335D01*
X0230010Y0078385D01*
X0229873Y0078440D01*
X0229737Y0078498D01*
X0229602Y0078559D01*
X0229469Y0078624D01*
X0229338Y0078693D01*
X0229209Y0078765D01*
X0229082Y0078841D01*
X0228957Y0078920D01*
X0228834Y0079003D01*
X0228713Y0079088D01*
X0228595Y0079177D01*
X0228479Y0079269D01*
X0228366Y0079365D01*
X0228255Y0079463D01*
X0228147Y0079564D01*
X0228041Y0079668D01*
X0227939Y0079774D01*
X0227839Y0079884D01*
X0227743Y0079996D01*
X0227649Y0080111D01*
X0227558Y0080228D01*
X0227471Y0080347D01*
X0227387Y0080469D01*
X0227306Y0080593D01*
X0227229Y0080719D01*
X0227155Y0080847D01*
X0227084Y0080977D01*
X0227017Y0081109D01*
X0226954Y0081243D01*
X0226894Y0081378D01*
X0226838Y0081515D01*
X0226785Y0081654D01*
X0226737Y0081794D01*
X0226692Y0081935D01*
X0226651Y0082077D01*
X0226613Y0082220D01*
X0226580Y0082364D01*
X0226550Y0082509D01*
X0226524Y0082655D01*
X0226503Y0082801D01*
X0226485Y0082948D01*
X0226471Y0083095D01*
X0226461Y0083243D01*
X0226455Y0083391D01*
X0226453Y0083539D01*
X0346335Y0114248D02*
X0346337Y0114396D01*
X0346343Y0114544D01*
X0346353Y0114692D01*
X0346367Y0114839D01*
X0346385Y0114986D01*
X0346406Y0115132D01*
X0346432Y0115278D01*
X0346462Y0115423D01*
X0346495Y0115567D01*
X0346533Y0115710D01*
X0346574Y0115852D01*
X0346619Y0115993D01*
X0346667Y0116133D01*
X0346720Y0116272D01*
X0346776Y0116409D01*
X0346836Y0116544D01*
X0346899Y0116678D01*
X0346966Y0116810D01*
X0347037Y0116940D01*
X0347111Y0117068D01*
X0347188Y0117194D01*
X0347269Y0117318D01*
X0347353Y0117440D01*
X0347440Y0117559D01*
X0347531Y0117676D01*
X0347625Y0117791D01*
X0347721Y0117903D01*
X0347821Y0118013D01*
X0347923Y0118119D01*
X0348029Y0118223D01*
X0348137Y0118324D01*
X0348248Y0118422D01*
X0348361Y0118518D01*
X0348477Y0118610D01*
X0348595Y0118699D01*
X0348716Y0118784D01*
X0348839Y0118867D01*
X0348964Y0118946D01*
X0349091Y0119022D01*
X0349220Y0119094D01*
X0349351Y0119163D01*
X0349484Y0119228D01*
X0349619Y0119289D01*
X0349755Y0119347D01*
X0349892Y0119402D01*
X0350031Y0119452D01*
X0350172Y0119499D01*
X0350313Y0119542D01*
X0350456Y0119582D01*
X0350600Y0119617D01*
X0350744Y0119649D01*
X0350890Y0119676D01*
X0351036Y0119700D01*
X0351183Y0119720D01*
X0351330Y0119736D01*
X0351477Y0119748D01*
X0351625Y0119756D01*
X0351773Y0119760D01*
X0351921Y0119760D01*
X0352069Y0119756D01*
X0352217Y0119748D01*
X0352364Y0119736D01*
X0352511Y0119720D01*
X0352658Y0119700D01*
X0352804Y0119676D01*
X0352950Y0119649D01*
X0353094Y0119617D01*
X0353238Y0119582D01*
X0353381Y0119542D01*
X0353522Y0119499D01*
X0353663Y0119452D01*
X0353802Y0119402D01*
X0353939Y0119347D01*
X0354075Y0119289D01*
X0354210Y0119228D01*
X0354343Y0119163D01*
X0354474Y0119094D01*
X0354603Y0119022D01*
X0354730Y0118946D01*
X0354855Y0118867D01*
X0354978Y0118784D01*
X0355099Y0118699D01*
X0355217Y0118610D01*
X0355333Y0118518D01*
X0355446Y0118422D01*
X0355557Y0118324D01*
X0355665Y0118223D01*
X0355771Y0118119D01*
X0355873Y0118013D01*
X0355973Y0117903D01*
X0356069Y0117791D01*
X0356163Y0117676D01*
X0356254Y0117559D01*
X0356341Y0117440D01*
X0356425Y0117318D01*
X0356506Y0117194D01*
X0356583Y0117068D01*
X0356657Y0116940D01*
X0356728Y0116810D01*
X0356795Y0116678D01*
X0356858Y0116544D01*
X0356918Y0116409D01*
X0356974Y0116272D01*
X0357027Y0116133D01*
X0357075Y0115993D01*
X0357120Y0115852D01*
X0357161Y0115710D01*
X0357199Y0115567D01*
X0357232Y0115423D01*
X0357262Y0115278D01*
X0357288Y0115132D01*
X0357309Y0114986D01*
X0357327Y0114839D01*
X0357341Y0114692D01*
X0357351Y0114544D01*
X0357357Y0114396D01*
X0357359Y0114248D01*
X0357357Y0114100D01*
X0357351Y0113952D01*
X0357341Y0113804D01*
X0357327Y0113657D01*
X0357309Y0113510D01*
X0357288Y0113364D01*
X0357262Y0113218D01*
X0357232Y0113073D01*
X0357199Y0112929D01*
X0357161Y0112786D01*
X0357120Y0112644D01*
X0357075Y0112503D01*
X0357027Y0112363D01*
X0356974Y0112224D01*
X0356918Y0112087D01*
X0356858Y0111952D01*
X0356795Y0111818D01*
X0356728Y0111686D01*
X0356657Y0111556D01*
X0356583Y0111428D01*
X0356506Y0111302D01*
X0356425Y0111178D01*
X0356341Y0111056D01*
X0356254Y0110937D01*
X0356163Y0110820D01*
X0356069Y0110705D01*
X0355973Y0110593D01*
X0355873Y0110483D01*
X0355771Y0110377D01*
X0355665Y0110273D01*
X0355557Y0110172D01*
X0355446Y0110074D01*
X0355333Y0109978D01*
X0355217Y0109886D01*
X0355099Y0109797D01*
X0354978Y0109712D01*
X0354855Y0109629D01*
X0354730Y0109550D01*
X0354603Y0109474D01*
X0354474Y0109402D01*
X0354343Y0109333D01*
X0354210Y0109268D01*
X0354075Y0109207D01*
X0353939Y0109149D01*
X0353802Y0109094D01*
X0353663Y0109044D01*
X0353522Y0108997D01*
X0353381Y0108954D01*
X0353238Y0108914D01*
X0353094Y0108879D01*
X0352950Y0108847D01*
X0352804Y0108820D01*
X0352658Y0108796D01*
X0352511Y0108776D01*
X0352364Y0108760D01*
X0352217Y0108748D01*
X0352069Y0108740D01*
X0351921Y0108736D01*
X0351773Y0108736D01*
X0351625Y0108740D01*
X0351477Y0108748D01*
X0351330Y0108760D01*
X0351183Y0108776D01*
X0351036Y0108796D01*
X0350890Y0108820D01*
X0350744Y0108847D01*
X0350600Y0108879D01*
X0350456Y0108914D01*
X0350313Y0108954D01*
X0350172Y0108997D01*
X0350031Y0109044D01*
X0349892Y0109094D01*
X0349755Y0109149D01*
X0349619Y0109207D01*
X0349484Y0109268D01*
X0349351Y0109333D01*
X0349220Y0109402D01*
X0349091Y0109474D01*
X0348964Y0109550D01*
X0348839Y0109629D01*
X0348716Y0109712D01*
X0348595Y0109797D01*
X0348477Y0109886D01*
X0348361Y0109978D01*
X0348248Y0110074D01*
X0348137Y0110172D01*
X0348029Y0110273D01*
X0347923Y0110377D01*
X0347821Y0110483D01*
X0347721Y0110593D01*
X0347625Y0110705D01*
X0347531Y0110820D01*
X0347440Y0110937D01*
X0347353Y0111056D01*
X0347269Y0111178D01*
X0347188Y0111302D01*
X0347111Y0111428D01*
X0347037Y0111556D01*
X0346966Y0111686D01*
X0346899Y0111818D01*
X0346836Y0111952D01*
X0346776Y0112087D01*
X0346720Y0112224D01*
X0346667Y0112363D01*
X0346619Y0112503D01*
X0346574Y0112644D01*
X0346533Y0112786D01*
X0346495Y0112929D01*
X0346462Y0113073D01*
X0346432Y0113218D01*
X0346406Y0113364D01*
X0346385Y0113510D01*
X0346367Y0113657D01*
X0346353Y0113804D01*
X0346343Y0113952D01*
X0346337Y0114100D01*
X0346335Y0114248D01*
D11*
X0291926Y0114051D03*
X0285036Y0114051D03*
X0197142Y0131768D03*
X0190253Y0131768D03*
X0190253Y0158539D03*
X0197142Y0158539D03*
X0197142Y0166413D03*
X0190253Y0166413D03*
X0278835Y0199091D03*
X0285725Y0199091D03*
D12*
X0250784Y0181669D03*
X0243698Y0181669D03*
X0243698Y0174780D03*
X0250784Y0174780D03*
X0268501Y0120154D03*
X0268501Y0113264D03*
X0222831Y0110409D03*
X0222831Y0103520D03*
D13*
X0326257Y0109327D03*
D14*
X0326257Y0119169D03*
D15*
X0249918Y0103815D03*
X0243225Y0103815D03*
X0243461Y0095154D03*
X0250154Y0095154D03*
X0278934Y0174287D03*
X0285627Y0174287D03*
X0285627Y0182555D03*
X0278934Y0182555D03*
X0278934Y0190823D03*
X0285627Y0190823D03*
X0285627Y0207358D03*
X0278934Y0207358D03*
X0278934Y0215626D03*
X0285627Y0215626D03*
X0324721Y0228618D03*
X0331414Y0228618D03*
D16*
X0264564Y0137083D03*
X0264564Y0130390D03*
X0223619Y0069563D03*
X0213186Y0069720D03*
X0213186Y0063028D03*
X0223619Y0062870D03*
X0166138Y0148500D03*
X0166138Y0155193D03*
D17*
X0214367Y0164839D03*
X0216335Y0164839D03*
X0218304Y0164839D03*
X0220272Y0164839D03*
X0222241Y0164839D03*
X0224209Y0164839D03*
X0226178Y0164839D03*
X0228146Y0164839D03*
X0230115Y0164839D03*
X0232083Y0164839D03*
X0234052Y0164839D03*
X0236020Y0164839D03*
X0237989Y0164839D03*
X0239957Y0164839D03*
X0241926Y0164839D03*
X0243894Y0164839D03*
X0243894Y0120744D03*
X0241926Y0120744D03*
X0239957Y0120744D03*
X0237989Y0120744D03*
X0236020Y0120744D03*
X0234052Y0120744D03*
X0232083Y0120744D03*
X0230115Y0120744D03*
X0228146Y0120744D03*
X0226178Y0120744D03*
X0224209Y0120744D03*
X0222241Y0120744D03*
X0220272Y0120744D03*
X0218304Y0120744D03*
X0216335Y0120744D03*
X0214367Y0120744D03*
D18*
X0207083Y0128028D03*
X0207083Y0129996D03*
X0207083Y0131965D03*
X0207083Y0133933D03*
X0207083Y0135902D03*
X0207083Y0137870D03*
X0207083Y0139839D03*
X0207083Y0141807D03*
X0207083Y0143776D03*
X0207083Y0145744D03*
X0207083Y0147713D03*
X0207083Y0149681D03*
X0207083Y0151650D03*
X0207083Y0153618D03*
X0207083Y0155587D03*
X0207083Y0157555D03*
X0251178Y0157555D03*
X0251178Y0155587D03*
X0251178Y0153618D03*
X0251178Y0151650D03*
X0251178Y0149681D03*
X0251178Y0147713D03*
X0251178Y0145744D03*
X0251178Y0143776D03*
X0251178Y0141807D03*
X0251178Y0139839D03*
X0251178Y0137870D03*
X0251178Y0135902D03*
X0251178Y0133933D03*
X0251178Y0131965D03*
X0251178Y0129996D03*
X0251178Y0128028D03*
D19*
X0143894Y0107594D03*
X0143894Y0105035D03*
X0143894Y0102476D03*
X0143894Y0099917D03*
X0143894Y0097358D03*
X0143894Y0094799D03*
X0143894Y0092240D03*
X0143894Y0089681D03*
X0143894Y0087122D03*
X0143894Y0084563D03*
X0143894Y0082004D03*
X0143894Y0079445D03*
X0143894Y0076886D03*
X0143894Y0074327D03*
X0143894Y0071768D03*
X0143894Y0069209D03*
X0143894Y0066650D03*
X0143894Y0064091D03*
X0100390Y0064091D03*
X0100390Y0066650D03*
X0100390Y0069209D03*
X0100390Y0071768D03*
X0100390Y0074327D03*
X0100390Y0076886D03*
X0100390Y0079445D03*
X0100390Y0082004D03*
X0100390Y0084563D03*
X0100390Y0087122D03*
X0100390Y0089681D03*
X0100390Y0092240D03*
X0100390Y0094799D03*
X0100390Y0097358D03*
X0100390Y0099917D03*
X0100390Y0102476D03*
X0100390Y0105035D03*
X0100390Y0107594D03*
X0101060Y0181335D03*
X0101060Y0183894D03*
X0101060Y0186453D03*
X0101060Y0189012D03*
X0101060Y0191571D03*
X0101060Y0194130D03*
X0101060Y0196689D03*
X0101060Y0199248D03*
X0101060Y0201807D03*
X0101060Y0204366D03*
X0101060Y0206925D03*
X0101060Y0209484D03*
X0101060Y0212043D03*
X0101060Y0214602D03*
X0101060Y0217161D03*
X0101060Y0219720D03*
X0101060Y0222280D03*
X0101060Y0224839D03*
X0144564Y0224839D03*
X0144564Y0222280D03*
X0144564Y0219720D03*
X0144564Y0217161D03*
X0144564Y0214602D03*
X0144564Y0212043D03*
X0144564Y0209484D03*
X0144564Y0206925D03*
X0144564Y0204366D03*
X0144564Y0201807D03*
X0144564Y0199248D03*
X0144564Y0196689D03*
X0144564Y0194130D03*
X0144564Y0191571D03*
X0144564Y0189012D03*
X0144564Y0186453D03*
X0144564Y0183894D03*
X0144564Y0181335D03*
D20*
X0189131Y0179602D03*
X0189131Y0189602D03*
X0189131Y0199602D03*
X0189131Y0209602D03*
X0189131Y0219602D03*
X0269131Y0209602D03*
X0269131Y0199602D03*
X0269131Y0189602D03*
X0269131Y0179602D03*
X0309485Y0228382D03*
X0339485Y0228382D03*
D21*
X0269131Y0219602D03*
D22*
X0297438Y0213106D03*
X0297438Y0208776D03*
X0297438Y0204445D03*
X0297438Y0200114D03*
X0297438Y0195783D03*
X0297438Y0191453D03*
X0297438Y0187122D03*
X0297438Y0182791D03*
D23*
X0297635Y0216846D03*
D24*
X0297635Y0176689D03*
D25*
X0356572Y0167004D03*
X0356572Y0220941D03*
D26*
X0283776Y0147752D03*
D27*
X0283776Y0122752D03*
X0274721Y0122752D03*
X0292831Y0122752D03*
D28*
X0306493Y0140665D03*
X0316493Y0140665D03*
X0316493Y0150665D03*
X0306493Y0150665D03*
X0306493Y0160665D03*
X0316493Y0160665D03*
X0316493Y0086925D03*
X0306493Y0086925D03*
X0306493Y0076925D03*
X0316493Y0076925D03*
X0316493Y0066925D03*
X0306493Y0066925D03*
X0306493Y0056925D03*
X0316493Y0056925D03*
X0151768Y0126728D03*
X0141768Y0126728D03*
X0141768Y0136728D03*
X0151768Y0136728D03*
X0151768Y0146728D03*
X0141768Y0146728D03*
X0141768Y0156728D03*
X0151768Y0156728D03*
X0151768Y0166728D03*
X0141768Y0166728D03*
D29*
X0160422Y0196846D02*
X0166422Y0196846D01*
X0166422Y0206846D02*
X0160422Y0206846D01*
X0160422Y0088736D02*
X0166422Y0088736D01*
X0166422Y0078736D02*
X0160422Y0078736D01*
D30*
X0207871Y0174091D03*
X0207871Y0181571D03*
X0199209Y0177831D03*
D31*
X0275349Y0104010D03*
X0284349Y0104010D03*
X0293349Y0104010D03*
D32*
X0284249Y0079210D03*
D33*
X0281249Y0084260D02*
X0276293Y0084260D01*
X0275649Y0083616D01*
X0275649Y0074805D01*
X0276293Y0074160D01*
X0292204Y0074160D01*
X0292849Y0074805D01*
X0292849Y0076110D01*
X0294119Y0076110D01*
X0295258Y0076582D01*
X0302501Y0083825D01*
X0303795Y0083825D01*
X0304795Y0082825D01*
X0308191Y0082825D01*
X0309191Y0083825D01*
X0313795Y0083825D01*
X0314795Y0082825D01*
X0318191Y0082825D01*
X0320593Y0085227D01*
X0320593Y0088623D01*
X0318191Y0091025D01*
X0314795Y0091025D01*
X0313795Y0090025D01*
X0309191Y0090025D01*
X0308191Y0091025D01*
X0304795Y0091025D01*
X0303795Y0090025D01*
X0300601Y0090025D01*
X0299461Y0089553D01*
X0292849Y0082941D01*
X0292849Y0083616D01*
X0292204Y0084260D01*
X0287449Y0084260D01*
X0287449Y0098960D01*
X0287754Y0098960D01*
X0287767Y0098973D01*
X0287767Y0098428D01*
X0288704Y0097491D01*
X0301053Y0097491D01*
X0301990Y0098428D01*
X0301990Y0104077D01*
X0302233Y0104320D01*
X0305634Y0104320D01*
X0326486Y0083468D01*
X0326486Y0056839D01*
X0319020Y0049372D01*
X0225219Y0049372D01*
X0225219Y0059802D01*
X0226240Y0059802D01*
X0226884Y0060446D01*
X0226884Y0065294D01*
X0226240Y0065939D01*
X0220998Y0065939D01*
X0220353Y0065294D01*
X0220353Y0060446D01*
X0220998Y0059802D01*
X0222019Y0059802D01*
X0222019Y0049372D01*
X0153021Y0049372D01*
X0140730Y0061664D01*
X0157352Y0061664D01*
X0158290Y0062601D01*
X0172463Y0076774D01*
X0172463Y0080856D01*
X0171526Y0081793D01*
X0169189Y0084130D01*
X0169707Y0084648D01*
X0171675Y0086617D01*
X0171675Y0091879D01*
X0170738Y0092817D01*
X0153022Y0110533D01*
X0140673Y0110533D01*
X0139735Y0109596D01*
X0139735Y0098428D01*
X0140673Y0097491D01*
X0146578Y0097491D01*
X0149972Y0094097D01*
X0149972Y0091341D01*
X0150909Y0090404D01*
X0157602Y0083711D01*
X0158339Y0083711D01*
X0158239Y0083612D01*
X0148841Y0074213D01*
X0148841Y0083218D01*
X0147904Y0084155D01*
X0147494Y0084155D01*
X0147494Y0085806D01*
X0147458Y0085843D01*
X0147494Y0085879D01*
X0147494Y0088365D01*
X0146850Y0089009D01*
X0140939Y0089009D01*
X0140651Y0088722D01*
X0137037Y0088722D01*
X0129943Y0095816D01*
X0129943Y0130318D01*
X0137668Y0138043D01*
X0137668Y0135030D01*
X0140070Y0132628D01*
X0143467Y0132628D01*
X0145868Y0135030D01*
X0145868Y0135128D01*
X0147668Y0135128D01*
X0147668Y0135030D01*
X0150070Y0132628D01*
X0153467Y0132628D01*
X0153536Y0132698D01*
X0180819Y0105415D01*
X0175344Y0105415D01*
X0155799Y0124961D01*
X0155868Y0125030D01*
X0155868Y0128427D01*
X0153467Y0130828D01*
X0150070Y0130828D01*
X0147668Y0128427D01*
X0147668Y0128328D01*
X0145868Y0128328D01*
X0145868Y0128427D01*
X0143467Y0130828D01*
X0140070Y0130828D01*
X0137668Y0128427D01*
X0137668Y0125030D01*
X0140070Y0122628D01*
X0143467Y0122628D01*
X0145868Y0125030D01*
X0145868Y0125128D01*
X0147668Y0125128D01*
X0147668Y0125030D01*
X0150070Y0122628D01*
X0153467Y0122628D01*
X0153536Y0122698D01*
X0174019Y0102215D01*
X0212077Y0102215D01*
X0213014Y0103152D01*
X0218967Y0109105D01*
X0219605Y0109744D01*
X0219605Y0107887D01*
X0220250Y0107243D01*
X0225413Y0107243D01*
X0226057Y0107887D01*
X0226057Y0112932D01*
X0226006Y0112983D01*
X0226006Y0113186D01*
X0226546Y0113726D01*
X0226546Y0101919D01*
X0222956Y0098328D01*
X0222019Y0097391D01*
X0222019Y0072631D01*
X0220998Y0072631D01*
X0220353Y0071987D01*
X0220353Y0071163D01*
X0216451Y0071163D01*
X0216451Y0072145D01*
X0215807Y0072789D01*
X0210565Y0072789D01*
X0209920Y0072145D01*
X0209920Y0067296D01*
X0210565Y0066652D01*
X0215807Y0066652D01*
X0216451Y0067296D01*
X0216451Y0067963D01*
X0220353Y0067963D01*
X0220353Y0067139D01*
X0220998Y0066494D01*
X0226240Y0066494D01*
X0226884Y0067139D01*
X0226884Y0071987D01*
X0226240Y0072631D01*
X0225219Y0072631D01*
X0225219Y0078955D01*
X0227427Y0076747D01*
X0230372Y0075528D01*
X0233559Y0075528D01*
X0236504Y0076747D01*
X0238757Y0079001D01*
X0239977Y0081946D01*
X0239977Y0085133D01*
X0238757Y0088078D01*
X0236504Y0090331D01*
X0233559Y0091551D01*
X0230372Y0091551D01*
X0227427Y0090331D01*
X0225219Y0088123D01*
X0225219Y0096066D01*
X0229746Y0100593D01*
X0229746Y0116494D01*
X0230483Y0116494D01*
X0230483Y0112010D01*
X0231421Y0111073D01*
X0232736Y0109758D01*
X0232736Y0108768D01*
X0234083Y0107420D01*
X0235989Y0107420D01*
X0237336Y0108768D01*
X0237336Y0110673D01*
X0235989Y0112020D01*
X0234999Y0112020D01*
X0233683Y0113336D01*
X0233683Y0116494D01*
X0240326Y0116494D01*
X0240326Y0115554D01*
X0240710Y0115170D01*
X0239202Y0115170D01*
X0237854Y0113823D01*
X0237854Y0111917D01*
X0239202Y0110570D01*
X0240191Y0110570D01*
X0241625Y0109136D01*
X0241625Y0107080D01*
X0240801Y0107080D01*
X0240157Y0106436D01*
X0240157Y0101194D01*
X0240801Y0100550D01*
X0241625Y0100550D01*
X0241625Y0098419D01*
X0241037Y0098419D01*
X0240393Y0097775D01*
X0240393Y0092533D01*
X0241037Y0091888D01*
X0245885Y0091888D01*
X0246530Y0092533D01*
X0246530Y0097775D01*
X0245885Y0098419D01*
X0244825Y0098419D01*
X0244825Y0100550D01*
X0245649Y0100550D01*
X0246294Y0101194D01*
X0246294Y0106436D01*
X0245649Y0107080D01*
X0244825Y0107080D01*
X0244825Y0110462D01*
X0243888Y0111399D01*
X0243888Y0111399D01*
X0242454Y0112833D01*
X0242454Y0113425D01*
X0242641Y0113239D01*
X0246184Y0113239D01*
X0253121Y0106302D01*
X0253121Y0101187D01*
X0252986Y0101322D01*
X0252986Y0106436D01*
X0252342Y0107080D01*
X0247494Y0107080D01*
X0246849Y0106436D01*
X0246849Y0101194D01*
X0247494Y0100550D01*
X0248318Y0100550D01*
X0248318Y0100475D01*
X0249255Y0099538D01*
X0249255Y0099538D01*
X0249272Y0099522D01*
X0249272Y0098532D01*
X0249384Y0098419D01*
X0247730Y0098419D01*
X0247086Y0097775D01*
X0247086Y0092533D01*
X0247730Y0091888D01*
X0248554Y0091888D01*
X0248554Y0081341D01*
X0276043Y0053852D01*
X0276043Y0052862D01*
X0277390Y0051515D01*
X0279296Y0051515D01*
X0280643Y0052862D01*
X0280643Y0054768D01*
X0279296Y0056115D01*
X0278306Y0056115D01*
X0251754Y0082667D01*
X0251754Y0091888D01*
X0252578Y0091888D01*
X0253121Y0092431D01*
X0253121Y0081892D01*
X0254058Y0080955D01*
X0269806Y0065207D01*
X0275509Y0065207D01*
X0276209Y0064507D01*
X0278115Y0064507D01*
X0279462Y0065854D01*
X0279462Y0067760D01*
X0279259Y0067963D01*
X0302393Y0067963D01*
X0302393Y0065227D01*
X0304795Y0062825D01*
X0308191Y0062825D01*
X0310593Y0065227D01*
X0310593Y0068623D01*
X0308191Y0071025D01*
X0304795Y0071025D01*
X0304725Y0070956D01*
X0304518Y0071163D01*
X0302993Y0071163D01*
X0304725Y0072895D01*
X0304795Y0072825D01*
X0308191Y0072825D01*
X0310593Y0075227D01*
X0310593Y0078623D01*
X0308191Y0081025D01*
X0304795Y0081025D01*
X0302393Y0078623D01*
X0302393Y0075227D01*
X0302462Y0075157D01*
X0300830Y0073525D01*
X0274281Y0073525D01*
X0261046Y0086761D01*
X0261046Y0116388D01*
X0278612Y0116388D01*
X0279549Y0117325D01*
X0279549Y0127312D01*
X0278612Y0128250D01*
X0261046Y0128250D01*
X0261046Y0132430D01*
X0260108Y0133368D01*
X0259174Y0134302D01*
X0261655Y0134302D01*
X0261943Y0134014D01*
X0267185Y0134014D01*
X0267829Y0134659D01*
X0267829Y0139223D01*
X0269806Y0139223D01*
X0271625Y0137404D01*
X0272562Y0136467D01*
X0300515Y0136467D01*
X0302727Y0134255D01*
X0303665Y0133317D01*
X0321919Y0133317D01*
X0324675Y0136073D01*
X0325612Y0137010D01*
X0325612Y0153808D01*
X0320523Y0158898D01*
X0320593Y0158967D01*
X0320593Y0162364D01*
X0318191Y0164765D01*
X0314795Y0164765D01*
X0312393Y0162364D01*
X0312393Y0158967D01*
X0314795Y0156565D01*
X0318191Y0156565D01*
X0318261Y0156635D01*
X0322412Y0152483D01*
X0322412Y0138336D01*
X0320594Y0136517D01*
X0304990Y0136517D01*
X0301841Y0139667D01*
X0300316Y0139667D01*
X0304596Y0143947D01*
X0309321Y0143947D01*
X0311683Y0146309D01*
X0312620Y0147247D01*
X0312620Y0148740D01*
X0314795Y0146565D01*
X0318191Y0146565D01*
X0320593Y0148967D01*
X0320593Y0152364D01*
X0318191Y0154765D01*
X0314795Y0154765D01*
X0312620Y0152591D01*
X0312620Y0156801D01*
X0310523Y0158898D01*
X0310593Y0158967D01*
X0310593Y0162364D01*
X0308191Y0164765D01*
X0304795Y0164765D01*
X0302393Y0162364D01*
X0302393Y0158967D01*
X0304795Y0156565D01*
X0308191Y0156565D01*
X0308261Y0156635D01*
X0309420Y0155475D01*
X0309420Y0153536D01*
X0308191Y0154765D01*
X0305080Y0154765D01*
X0303736Y0156109D01*
X0286217Y0156109D01*
X0276306Y0166019D01*
X0276306Y0171225D01*
X0276510Y0171022D01*
X0277034Y0171022D01*
X0277034Y0167398D01*
X0284508Y0159924D01*
X0284508Y0159358D01*
X0285855Y0158011D01*
X0287760Y0158011D01*
X0289108Y0159358D01*
X0289108Y0161264D01*
X0287760Y0162611D01*
X0287195Y0162611D01*
X0281755Y0168050D01*
X0283233Y0168050D01*
X0284580Y0169398D01*
X0284580Y0170388D01*
X0285215Y0171022D01*
X0288051Y0171022D01*
X0288695Y0171666D01*
X0288695Y0175093D01*
X0294038Y0180436D01*
X0294182Y0180291D01*
X0300693Y0180291D01*
X0301338Y0180936D01*
X0301338Y0184647D01*
X0301028Y0184957D01*
X0301338Y0185266D01*
X0301338Y0188978D01*
X0301028Y0189287D01*
X0301338Y0189597D01*
X0301338Y0193308D01*
X0301028Y0193618D01*
X0301338Y0193928D01*
X0301338Y0197639D01*
X0301028Y0197949D01*
X0301338Y0198259D01*
X0301338Y0201970D01*
X0300693Y0202614D01*
X0294182Y0202614D01*
X0293538Y0201970D01*
X0293538Y0201714D01*
X0292358Y0201714D01*
X0291894Y0202178D01*
X0289989Y0202178D01*
X0288892Y0201081D01*
X0288892Y0201672D01*
X0288248Y0202317D01*
X0284580Y0202317D01*
X0284580Y0203065D01*
X0285608Y0204093D01*
X0288051Y0204093D01*
X0288695Y0204737D01*
X0288695Y0207176D01*
X0293538Y0207176D01*
X0293538Y0206920D01*
X0294182Y0206276D01*
X0300693Y0206276D01*
X0301338Y0206920D01*
X0301338Y0210631D01*
X0301028Y0210941D01*
X0301338Y0211251D01*
X0301338Y0214962D01*
X0301097Y0215203D01*
X0301097Y0218680D01*
X0300452Y0219324D01*
X0294817Y0219324D01*
X0294172Y0218680D01*
X0294172Y0215597D01*
X0293538Y0214962D01*
X0293538Y0214706D01*
X0288809Y0214706D01*
X0288695Y0214820D01*
X0288695Y0218247D01*
X0288051Y0218891D01*
X0283202Y0218891D01*
X0282558Y0218247D01*
X0282558Y0213595D01*
X0282002Y0213595D01*
X0282002Y0218247D01*
X0281358Y0218891D01*
X0280534Y0218891D01*
X0280534Y0225032D01*
X0281412Y0222911D01*
X0283660Y0220664D01*
X0286596Y0219447D01*
X0289775Y0219447D01*
X0292712Y0220664D01*
X0294959Y0222911D01*
X0296175Y0225848D01*
X0296175Y0229026D01*
X0294959Y0231963D01*
X0292712Y0234210D01*
X0292016Y0234498D01*
X0316578Y0234498D01*
X0321653Y0229424D01*
X0321653Y0225997D01*
X0322297Y0225353D01*
X0327145Y0225353D01*
X0327790Y0225997D01*
X0327790Y0231239D01*
X0327145Y0231883D01*
X0323718Y0231883D01*
X0318841Y0236761D01*
X0317904Y0237698D01*
X0281617Y0237698D01*
X0278271Y0234352D01*
X0277334Y0233415D01*
X0277334Y0218891D01*
X0276510Y0218891D01*
X0275865Y0218247D01*
X0275865Y0213005D01*
X0276510Y0212361D01*
X0277034Y0212361D01*
X0277034Y0210624D01*
X0276510Y0210624D01*
X0275865Y0209979D01*
X0275865Y0208748D01*
X0272112Y0204996D01*
X0272112Y0195154D01*
X0275865Y0191401D01*
X0275865Y0188202D01*
X0276510Y0187557D01*
X0277034Y0187557D01*
X0277034Y0185820D01*
X0276510Y0185820D01*
X0275865Y0185176D01*
X0275865Y0182208D01*
X0275193Y0182880D01*
X0271667Y0186407D01*
X0272566Y0187307D01*
X0273183Y0188796D01*
X0273183Y0190409D01*
X0272566Y0191898D01*
X0271426Y0193038D01*
X0269937Y0193655D01*
X0268324Y0193655D01*
X0266835Y0193038D01*
X0265695Y0191898D01*
X0265283Y0190903D01*
X0265283Y0203067D01*
X0267929Y0205714D01*
X0268324Y0205550D01*
X0269937Y0205550D01*
X0271426Y0206167D01*
X0272566Y0207307D01*
X0273183Y0208796D01*
X0273183Y0210409D01*
X0272566Y0211898D01*
X0271426Y0213038D01*
X0269937Y0213655D01*
X0268324Y0213655D01*
X0266835Y0213038D01*
X0265695Y0211898D01*
X0265078Y0210409D01*
X0265078Y0208796D01*
X0265242Y0208401D01*
X0262596Y0205754D01*
X0261483Y0204641D01*
X0261483Y0200691D01*
X0257161Y0200691D01*
X0256461Y0201391D01*
X0254556Y0201391D01*
X0253209Y0200043D01*
X0253209Y0198138D01*
X0254556Y0196791D01*
X0256461Y0196791D01*
X0257161Y0197491D01*
X0261483Y0197491D01*
X0261483Y0187280D01*
X0265026Y0183737D01*
X0266139Y0182624D01*
X0266420Y0182624D01*
X0265695Y0181898D01*
X0265078Y0180409D01*
X0265078Y0178796D01*
X0265695Y0177307D01*
X0266835Y0176167D01*
X0268155Y0175620D01*
X0267775Y0175240D01*
X0267775Y0173335D01*
X0268475Y0172635D01*
X0268475Y0168116D01*
X0268272Y0168320D01*
X0266367Y0168320D01*
X0265020Y0166972D01*
X0265020Y0165067D01*
X0265720Y0164367D01*
X0265720Y0161424D01*
X0265516Y0161627D01*
X0263611Y0161627D01*
X0262264Y0160279D01*
X0262264Y0158374D01*
X0262964Y0157674D01*
X0262964Y0157234D01*
X0262139Y0156409D01*
X0262139Y0156736D01*
X0260792Y0158083D01*
X0258887Y0158083D01*
X0258290Y0157487D01*
X0258290Y0163927D01*
X0256321Y0165895D01*
X0255384Y0166832D01*
X0249287Y0166832D01*
X0248587Y0167532D01*
X0246682Y0167532D01*
X0245585Y0166435D01*
X0245585Y0167318D01*
X0248484Y0170217D01*
X0248484Y0168610D01*
X0249831Y0167263D01*
X0251737Y0167263D01*
X0253084Y0168610D01*
X0253084Y0170516D01*
X0252684Y0170916D01*
X0252684Y0171613D01*
X0253366Y0171613D01*
X0254010Y0172257D01*
X0254010Y0177302D01*
X0253366Y0177946D01*
X0248202Y0177946D01*
X0247558Y0177302D01*
X0247558Y0173816D01*
X0246923Y0173182D01*
X0246923Y0177302D01*
X0246279Y0177946D01*
X0241557Y0177946D01*
X0241557Y0203743D01*
X0263739Y0225924D01*
X0264729Y0225924D01*
X0266076Y0227272D01*
X0266076Y0229177D01*
X0264729Y0230524D01*
X0262824Y0230524D01*
X0261611Y0229312D01*
X0260398Y0230524D01*
X0258493Y0230524D01*
X0257280Y0229312D01*
X0256068Y0230524D01*
X0254162Y0230524D01*
X0252815Y0229177D01*
X0252815Y0228187D01*
X0230483Y0205856D01*
X0230483Y0184849D01*
X0229690Y0185643D01*
X0227784Y0185643D01*
X0226437Y0184295D01*
X0226437Y0182390D01*
X0227137Y0181690D01*
X0227137Y0181109D01*
X0226934Y0181312D01*
X0225028Y0181312D01*
X0223681Y0179964D01*
X0223681Y0178059D01*
X0224578Y0177162D01*
X0224578Y0176418D01*
X0192895Y0208101D01*
X0193183Y0208796D01*
X0193183Y0210409D01*
X0192566Y0211898D01*
X0191426Y0213038D01*
X0189937Y0213655D01*
X0188324Y0213655D01*
X0186835Y0213038D01*
X0185695Y0211898D01*
X0185078Y0210409D01*
X0185078Y0208796D01*
X0185695Y0207307D01*
X0186835Y0206167D01*
X0188324Y0205550D01*
X0189937Y0205550D01*
X0190632Y0205838D01*
X0222609Y0173861D01*
X0222609Y0169088D01*
X0213321Y0169088D01*
X0212676Y0168444D01*
X0212676Y0161233D01*
X0212873Y0161036D01*
X0212873Y0160495D01*
X0212264Y0159886D01*
X0212264Y0157980D01*
X0213611Y0156633D01*
X0215516Y0156633D01*
X0216220Y0157336D01*
X0216220Y0157133D01*
X0216988Y0156365D01*
X0216988Y0155224D01*
X0218335Y0153877D01*
X0218813Y0153877D01*
X0218582Y0153646D01*
X0218582Y0128015D01*
X0217775Y0127209D01*
X0217775Y0125303D01*
X0218085Y0124994D01*
X0215564Y0124994D01*
X0216164Y0125593D01*
X0216164Y0151328D01*
X0215226Y0152265D01*
X0212274Y0155218D01*
X0211333Y0155218D01*
X0211333Y0158601D01*
X0210689Y0159246D01*
X0206573Y0159246D01*
X0200309Y0165509D01*
X0200309Y0168995D01*
X0199665Y0169639D01*
X0199042Y0169639D01*
X0199042Y0171655D01*
X0199541Y0172154D01*
X0199541Y0174059D01*
X0198838Y0174762D01*
X0202421Y0174762D01*
X0203065Y0175407D01*
X0203065Y0180255D01*
X0202421Y0180899D01*
X0195998Y0180899D01*
X0195353Y0180255D01*
X0195353Y0179431D01*
X0195003Y0179431D01*
X0184286Y0168713D01*
X0183296Y0168713D01*
X0183093Y0168510D01*
X0183093Y0232037D01*
X0182156Y0232974D01*
X0175463Y0239667D01*
X0174137Y0239667D01*
X0138704Y0239667D01*
X0137767Y0238730D01*
X0126349Y0227312D01*
X0126349Y0209451D01*
X0127287Y0208514D01*
X0134323Y0201478D01*
X0130974Y0201478D01*
X0115620Y0216832D01*
X0113695Y0216832D01*
X0113695Y0226481D01*
X0112820Y0227356D01*
X0111205Y0227356D01*
X0111186Y0227375D01*
X0109280Y0227375D01*
X0109261Y0227356D01*
X0107268Y0227356D01*
X0107249Y0227375D01*
X0105343Y0227375D01*
X0105324Y0227356D01*
X0097016Y0227356D01*
X0096141Y0226481D01*
X0096141Y0216188D01*
X0096431Y0215898D01*
X0096428Y0215895D01*
X0096428Y0205514D01*
X0097365Y0204577D01*
X0097460Y0204577D01*
X0097460Y0203407D01*
X0097326Y0203407D01*
X0095003Y0201084D01*
X0094066Y0200147D01*
X0094066Y0179604D01*
X0094020Y0179550D01*
X0094066Y0178950D01*
X0094066Y0178349D01*
X0094116Y0178299D01*
X0094122Y0178228D01*
X0094578Y0177837D01*
X0095003Y0177412D01*
X0095074Y0177412D01*
X0096122Y0176514D01*
X0096122Y0175697D01*
X0097469Y0174350D01*
X0099375Y0174350D01*
X0100722Y0175697D01*
X0100722Y0177602D01*
X0099375Y0178950D01*
X0098197Y0178950D01*
X0098154Y0178987D01*
X0111683Y0178987D01*
X0111920Y0179223D01*
X0111920Y0099831D01*
X0111204Y0099116D01*
X0111046Y0099116D01*
X0111046Y0109596D01*
X0110108Y0110533D01*
X0097167Y0110533D01*
X0100353Y0113720D01*
X0101343Y0113720D01*
X0102690Y0115067D01*
X0102690Y0116972D01*
X0101343Y0118320D01*
X0099438Y0118320D01*
X0098090Y0116972D01*
X0098090Y0115982D01*
X0093835Y0111727D01*
X0093835Y0231374D01*
X0093943Y0233298D01*
X0094800Y0237050D01*
X0096469Y0240517D01*
X0098869Y0243526D01*
X0101877Y0245925D01*
X0105344Y0247595D01*
X0109096Y0248451D01*
X0111020Y0248559D01*
X0347241Y0248559D01*
X0349165Y0248451D01*
X0352917Y0247595D01*
X0356384Y0245925D01*
X0359392Y0243526D01*
X0361792Y0240517D01*
X0363461Y0237050D01*
X0364318Y0233298D01*
X0364426Y0231374D01*
X0364426Y0054209D01*
X0364318Y0052285D01*
X0363461Y0048533D01*
X0361792Y0045066D01*
X0359392Y0042057D01*
X0356384Y0039658D01*
X0352917Y0037988D01*
X0349165Y0037132D01*
X0347241Y0037024D01*
X0111020Y0037024D01*
X0109096Y0037132D01*
X0105344Y0037988D01*
X0101877Y0039658D01*
X0098869Y0042057D01*
X0096469Y0045066D01*
X0094800Y0048533D01*
X0093943Y0052285D01*
X0093835Y0054209D01*
X0093835Y0084485D01*
X0094610Y0083711D01*
X0095358Y0082963D01*
X0097147Y0082963D01*
X0097435Y0082676D01*
X0103346Y0082676D01*
X0103990Y0083320D01*
X0103990Y0085806D01*
X0103954Y0085843D01*
X0103990Y0085879D01*
X0103990Y0087648D01*
X0107208Y0087648D01*
X0122169Y0072687D01*
X0126486Y0072687D01*
X0126486Y0061796D01*
X0127309Y0059811D01*
X0146206Y0040914D01*
X0147725Y0039395D01*
X0149710Y0038572D01*
X0322331Y0038572D01*
X0324315Y0039395D01*
X0334945Y0050024D01*
X0336464Y0051544D01*
X0337286Y0053528D01*
X0337286Y0086779D01*
X0336464Y0088764D01*
X0312449Y0112779D01*
X0310930Y0114298D01*
X0308945Y0115120D01*
X0301990Y0115120D01*
X0301990Y0128887D01*
X0301053Y0129824D01*
X0288704Y0129824D01*
X0287767Y0128887D01*
X0287767Y0109048D01*
X0287754Y0109060D01*
X0280943Y0109060D01*
X0280299Y0108416D01*
X0280299Y0099605D01*
X0280943Y0098960D01*
X0281249Y0098960D01*
X0281249Y0084260D01*
X0281249Y0084449D02*
X0263357Y0084449D01*
X0262359Y0085448D02*
X0281249Y0085448D01*
X0281249Y0086446D02*
X0261360Y0086446D01*
X0261046Y0087445D02*
X0281249Y0087445D01*
X0281249Y0088443D02*
X0261046Y0088443D01*
X0261046Y0089442D02*
X0281249Y0089442D01*
X0281249Y0090440D02*
X0261046Y0090440D01*
X0261046Y0091439D02*
X0281249Y0091439D01*
X0281249Y0092437D02*
X0261046Y0092437D01*
X0261046Y0093436D02*
X0281249Y0093436D01*
X0281249Y0094434D02*
X0261046Y0094434D01*
X0261046Y0095433D02*
X0281249Y0095433D01*
X0281249Y0096431D02*
X0261046Y0096431D01*
X0261046Y0097430D02*
X0281249Y0097430D01*
X0281249Y0098428D02*
X0261046Y0098428D01*
X0261046Y0099427D02*
X0280476Y0099427D01*
X0280299Y0100425D02*
X0261046Y0100425D01*
X0261046Y0101424D02*
X0280299Y0101424D01*
X0280299Y0102422D02*
X0261046Y0102422D01*
X0261046Y0103421D02*
X0280299Y0103421D01*
X0280299Y0104419D02*
X0261046Y0104419D01*
X0261046Y0105418D02*
X0280299Y0105418D01*
X0280299Y0106416D02*
X0261046Y0106416D01*
X0261046Y0107415D02*
X0280299Y0107415D01*
X0280299Y0108413D02*
X0261046Y0108413D01*
X0261046Y0109412D02*
X0287767Y0109412D01*
X0287767Y0110410D02*
X0261046Y0110410D01*
X0261046Y0111409D02*
X0287767Y0111409D01*
X0287767Y0112408D02*
X0261046Y0112408D01*
X0261046Y0113406D02*
X0287767Y0113406D01*
X0287767Y0114405D02*
X0261046Y0114405D01*
X0261046Y0115403D02*
X0287767Y0115403D01*
X0287767Y0116402D02*
X0278626Y0116402D01*
X0279549Y0117400D02*
X0287767Y0117400D01*
X0287767Y0118399D02*
X0279549Y0118399D01*
X0279549Y0119397D02*
X0287767Y0119397D01*
X0287767Y0120396D02*
X0279549Y0120396D01*
X0279549Y0121394D02*
X0287767Y0121394D01*
X0287767Y0122393D02*
X0279549Y0122393D01*
X0279549Y0123391D02*
X0287767Y0123391D01*
X0287767Y0124390D02*
X0279549Y0124390D01*
X0279549Y0125388D02*
X0287767Y0125388D01*
X0287767Y0126387D02*
X0279549Y0126387D01*
X0279477Y0127385D02*
X0287767Y0127385D01*
X0287767Y0128384D02*
X0261046Y0128384D01*
X0261046Y0129382D02*
X0288262Y0129382D01*
X0289367Y0128224D02*
X0300390Y0128224D01*
X0300390Y0099091D01*
X0289367Y0099091D01*
X0289367Y0128224D01*
X0289367Y0127385D02*
X0300390Y0127385D01*
X0300390Y0126387D02*
X0289367Y0126387D01*
X0289367Y0125388D02*
X0300390Y0125388D01*
X0300390Y0124390D02*
X0289367Y0124390D01*
X0289367Y0123391D02*
X0300390Y0123391D01*
X0300390Y0122393D02*
X0289367Y0122393D01*
X0289367Y0121394D02*
X0300390Y0121394D01*
X0300390Y0120396D02*
X0289367Y0120396D01*
X0289367Y0119397D02*
X0300390Y0119397D01*
X0300390Y0118399D02*
X0289367Y0118399D01*
X0289367Y0117400D02*
X0300390Y0117400D01*
X0300390Y0116402D02*
X0289367Y0116402D01*
X0289367Y0115403D02*
X0300390Y0115403D01*
X0300390Y0114405D02*
X0289367Y0114405D01*
X0289367Y0113406D02*
X0300390Y0113406D01*
X0300390Y0112408D02*
X0289367Y0112408D01*
X0289367Y0111409D02*
X0300390Y0111409D01*
X0300390Y0110410D02*
X0289367Y0110410D01*
X0289367Y0109412D02*
X0300390Y0109412D01*
X0300390Y0108413D02*
X0289367Y0108413D01*
X0289367Y0107415D02*
X0300390Y0107415D01*
X0300390Y0106416D02*
X0289367Y0106416D01*
X0289367Y0105418D02*
X0300390Y0105418D01*
X0300390Y0104419D02*
X0289367Y0104419D01*
X0289367Y0103421D02*
X0300390Y0103421D01*
X0300390Y0102422D02*
X0289367Y0102422D01*
X0289367Y0101424D02*
X0300390Y0101424D01*
X0300390Y0100425D02*
X0289367Y0100425D01*
X0289367Y0099427D02*
X0300390Y0099427D01*
X0301990Y0099427D02*
X0310528Y0099427D01*
X0311526Y0098428D02*
X0301990Y0098428D01*
X0301990Y0100425D02*
X0309529Y0100425D01*
X0308531Y0101424D02*
X0301990Y0101424D01*
X0301990Y0102422D02*
X0307532Y0102422D01*
X0306534Y0103421D02*
X0301990Y0103421D01*
X0312525Y0097430D02*
X0287449Y0097430D01*
X0287449Y0098428D02*
X0287767Y0098428D01*
X0287449Y0096431D02*
X0313523Y0096431D01*
X0314522Y0095433D02*
X0287449Y0095433D01*
X0287449Y0094434D02*
X0315520Y0094434D01*
X0316519Y0093436D02*
X0287449Y0093436D01*
X0287449Y0092437D02*
X0317517Y0092437D01*
X0318516Y0091439D02*
X0287449Y0091439D01*
X0287449Y0090440D02*
X0304210Y0090440D01*
X0308776Y0090440D02*
X0314210Y0090440D01*
X0318776Y0090440D02*
X0319514Y0090440D01*
X0319774Y0089442D02*
X0320513Y0089442D01*
X0320593Y0088443D02*
X0321511Y0088443D01*
X0320593Y0087445D02*
X0322510Y0087445D01*
X0323508Y0086446D02*
X0320593Y0086446D01*
X0320593Y0085448D02*
X0324507Y0085448D01*
X0325505Y0084449D02*
X0319815Y0084449D01*
X0318817Y0083451D02*
X0326486Y0083451D01*
X0326486Y0082452D02*
X0301128Y0082452D01*
X0300130Y0081454D02*
X0326486Y0081454D01*
X0326486Y0080455D02*
X0318761Y0080455D01*
X0318191Y0081025D02*
X0320593Y0078623D01*
X0320593Y0075227D01*
X0318191Y0072825D01*
X0314795Y0072825D01*
X0312393Y0075227D01*
X0312393Y0078623D01*
X0314795Y0081025D01*
X0318191Y0081025D01*
X0319760Y0079457D02*
X0326486Y0079457D01*
X0326486Y0078458D02*
X0320593Y0078458D01*
X0320593Y0077460D02*
X0326486Y0077460D01*
X0326486Y0076461D02*
X0320593Y0076461D01*
X0320593Y0075463D02*
X0326486Y0075463D01*
X0326486Y0074464D02*
X0319830Y0074464D01*
X0318831Y0073466D02*
X0326486Y0073466D01*
X0326486Y0072467D02*
X0304297Y0072467D01*
X0303299Y0071469D02*
X0326486Y0071469D01*
X0326486Y0070470D02*
X0318746Y0070470D01*
X0318191Y0071025D02*
X0320593Y0068623D01*
X0320593Y0065227D01*
X0318191Y0062825D01*
X0314795Y0062825D01*
X0312393Y0065227D01*
X0312393Y0068623D01*
X0314795Y0071025D01*
X0318191Y0071025D01*
X0319745Y0069472D02*
X0326486Y0069472D01*
X0326486Y0068473D02*
X0320593Y0068473D01*
X0320593Y0067474D02*
X0326486Y0067474D01*
X0326486Y0066476D02*
X0320593Y0066476D01*
X0320593Y0065477D02*
X0326486Y0065477D01*
X0326486Y0064479D02*
X0319845Y0064479D01*
X0318846Y0063480D02*
X0326486Y0063480D01*
X0326486Y0062482D02*
X0295038Y0062482D01*
X0294959Y0062672D02*
X0292712Y0064919D01*
X0289775Y0066135D01*
X0286596Y0066135D01*
X0283660Y0064919D01*
X0281412Y0062672D01*
X0280196Y0059735D01*
X0280196Y0056556D01*
X0281412Y0053620D01*
X0283660Y0051372D01*
X0286596Y0050156D01*
X0289775Y0050156D01*
X0292712Y0051372D01*
X0294959Y0053620D01*
X0296175Y0056556D01*
X0296175Y0059735D01*
X0294959Y0062672D01*
X0294150Y0063480D02*
X0304139Y0063480D01*
X0303141Y0064479D02*
X0293152Y0064479D01*
X0291363Y0065477D02*
X0302393Y0065477D01*
X0302393Y0066476D02*
X0279462Y0066476D01*
X0279462Y0067474D02*
X0302393Y0067474D01*
X0303855Y0069563D02*
X0306493Y0066925D01*
X0303855Y0069563D02*
X0272831Y0069563D01*
X0257083Y0085311D01*
X0257083Y0130193D01*
X0255312Y0131965D01*
X0251178Y0131965D01*
X0251178Y0133933D02*
X0257280Y0133933D01*
X0259446Y0131768D01*
X0259446Y0086098D01*
X0273619Y0071925D01*
X0301493Y0071925D01*
X0306493Y0076925D01*
X0310593Y0076461D02*
X0312393Y0076461D01*
X0312393Y0075463D02*
X0310593Y0075463D01*
X0309830Y0074464D02*
X0313156Y0074464D01*
X0314154Y0073466D02*
X0308831Y0073466D01*
X0308746Y0070470D02*
X0314239Y0070470D01*
X0313241Y0069472D02*
X0309745Y0069472D01*
X0310593Y0068473D02*
X0312393Y0068473D01*
X0312393Y0067474D02*
X0310593Y0067474D01*
X0310593Y0066476D02*
X0312393Y0066476D01*
X0312393Y0065477D02*
X0310593Y0065477D01*
X0309845Y0064479D02*
X0313141Y0064479D01*
X0314139Y0063480D02*
X0308846Y0063480D01*
X0296175Y0059486D02*
X0326486Y0059486D01*
X0326486Y0058488D02*
X0296175Y0058488D01*
X0296175Y0057489D02*
X0326486Y0057489D01*
X0326138Y0056491D02*
X0296148Y0056491D01*
X0295735Y0055492D02*
X0325140Y0055492D01*
X0324141Y0054494D02*
X0295321Y0054494D01*
X0294835Y0053495D02*
X0323143Y0053495D01*
X0322144Y0052497D02*
X0293836Y0052497D01*
X0292838Y0051498D02*
X0321146Y0051498D01*
X0320147Y0050500D02*
X0290605Y0050500D01*
X0285766Y0050500D02*
X0225219Y0050500D01*
X0225219Y0051498D02*
X0283534Y0051498D01*
X0282535Y0052497D02*
X0280278Y0052497D01*
X0280643Y0053495D02*
X0281537Y0053495D01*
X0281050Y0054494D02*
X0280643Y0054494D01*
X0280637Y0055492D02*
X0279918Y0055492D01*
X0280223Y0056491D02*
X0277930Y0056491D01*
X0276931Y0057489D02*
X0280196Y0057489D01*
X0280196Y0058488D02*
X0275933Y0058488D01*
X0274934Y0059486D02*
X0280196Y0059486D01*
X0280507Y0060485D02*
X0273936Y0060485D01*
X0272937Y0061483D02*
X0280920Y0061483D01*
X0281334Y0062482D02*
X0271939Y0062482D01*
X0270940Y0063480D02*
X0282221Y0063480D01*
X0283220Y0064479D02*
X0269942Y0064479D01*
X0269536Y0065477D02*
X0268943Y0065477D01*
X0268538Y0066476D02*
X0267945Y0066476D01*
X0267539Y0067474D02*
X0266946Y0067474D01*
X0266540Y0068473D02*
X0265948Y0068473D01*
X0265542Y0069472D02*
X0264949Y0069472D01*
X0264543Y0070470D02*
X0263951Y0070470D01*
X0263545Y0071469D02*
X0262952Y0071469D01*
X0262546Y0072467D02*
X0261954Y0072467D01*
X0261548Y0073466D02*
X0260955Y0073466D01*
X0260549Y0074464D02*
X0259957Y0074464D01*
X0259551Y0075463D02*
X0258958Y0075463D01*
X0258552Y0076461D02*
X0257960Y0076461D01*
X0257554Y0077460D02*
X0256961Y0077460D01*
X0256555Y0078458D02*
X0255963Y0078458D01*
X0255557Y0079457D02*
X0254964Y0079457D01*
X0254558Y0080455D02*
X0253966Y0080455D01*
X0253560Y0081454D02*
X0252967Y0081454D01*
X0253121Y0082452D02*
X0251969Y0082452D01*
X0251754Y0083451D02*
X0253121Y0083451D01*
X0253121Y0084449D02*
X0251754Y0084449D01*
X0251754Y0085448D02*
X0253121Y0085448D01*
X0253121Y0086446D02*
X0251754Y0086446D01*
X0251754Y0087445D02*
X0253121Y0087445D01*
X0253121Y0088443D02*
X0251754Y0088443D01*
X0251754Y0089442D02*
X0253121Y0089442D01*
X0253121Y0090440D02*
X0251754Y0090440D01*
X0251754Y0091439D02*
X0253121Y0091439D01*
X0248554Y0091439D02*
X0233830Y0091439D01*
X0236241Y0090440D02*
X0248554Y0090440D01*
X0248554Y0089442D02*
X0237393Y0089442D01*
X0238392Y0088443D02*
X0248554Y0088443D01*
X0248554Y0087445D02*
X0239019Y0087445D01*
X0239433Y0086446D02*
X0248554Y0086446D01*
X0248554Y0085448D02*
X0239847Y0085448D01*
X0239977Y0084449D02*
X0248554Y0084449D01*
X0248554Y0083451D02*
X0239977Y0083451D01*
X0239977Y0082452D02*
X0248554Y0082452D01*
X0248554Y0081454D02*
X0239773Y0081454D01*
X0239360Y0080455D02*
X0249440Y0080455D01*
X0250439Y0079457D02*
X0238946Y0079457D01*
X0238214Y0078458D02*
X0251437Y0078458D01*
X0252436Y0077460D02*
X0237216Y0077460D01*
X0235813Y0076461D02*
X0253434Y0076461D01*
X0254433Y0075463D02*
X0225219Y0075463D01*
X0225219Y0076461D02*
X0228118Y0076461D01*
X0226715Y0077460D02*
X0225219Y0077460D01*
X0225219Y0078458D02*
X0225716Y0078458D01*
X0222019Y0078458D02*
X0172463Y0078458D01*
X0172463Y0077460D02*
X0222019Y0077460D01*
X0222019Y0076461D02*
X0172150Y0076461D01*
X0171151Y0075463D02*
X0222019Y0075463D01*
X0222019Y0074464D02*
X0170153Y0074464D01*
X0169154Y0073466D02*
X0222019Y0073466D01*
X0220833Y0072467D02*
X0216129Y0072467D01*
X0216451Y0071469D02*
X0220353Y0071469D01*
X0223619Y0069563D02*
X0213343Y0069563D01*
X0213186Y0069720D01*
X0209920Y0069472D02*
X0165160Y0069472D01*
X0166159Y0070470D02*
X0209920Y0070470D01*
X0209920Y0071469D02*
X0167157Y0071469D01*
X0168156Y0072467D02*
X0210243Y0072467D01*
X0209920Y0068473D02*
X0164162Y0068473D01*
X0163163Y0067474D02*
X0209920Y0067474D01*
X0216451Y0067474D02*
X0220353Y0067474D01*
X0220537Y0065477D02*
X0173253Y0065477D01*
X0174601Y0064919D02*
X0171665Y0066135D01*
X0168486Y0066135D01*
X0165550Y0064919D01*
X0163302Y0062672D01*
X0162086Y0059735D01*
X0162086Y0056556D01*
X0163302Y0053620D01*
X0165550Y0051372D01*
X0168486Y0050156D01*
X0171665Y0050156D01*
X0174601Y0051372D01*
X0176849Y0053620D01*
X0178065Y0056556D01*
X0178065Y0059735D01*
X0176849Y0062672D01*
X0174601Y0064919D01*
X0175041Y0064479D02*
X0220353Y0064479D01*
X0220353Y0063480D02*
X0176040Y0063480D01*
X0176927Y0062482D02*
X0220353Y0062482D01*
X0220353Y0061483D02*
X0177341Y0061483D01*
X0177755Y0060485D02*
X0220353Y0060485D01*
X0222019Y0059486D02*
X0178065Y0059486D01*
X0178065Y0058488D02*
X0222019Y0058488D01*
X0222019Y0057489D02*
X0178065Y0057489D01*
X0178038Y0056491D02*
X0222019Y0056491D01*
X0222019Y0055492D02*
X0177624Y0055492D01*
X0177211Y0054494D02*
X0222019Y0054494D01*
X0222019Y0053495D02*
X0176724Y0053495D01*
X0175726Y0052497D02*
X0222019Y0052497D01*
X0222019Y0051498D02*
X0174727Y0051498D01*
X0172495Y0050500D02*
X0222019Y0050500D01*
X0222019Y0049501D02*
X0152892Y0049501D01*
X0151893Y0050500D02*
X0167656Y0050500D01*
X0165424Y0051498D02*
X0150895Y0051498D01*
X0149896Y0052497D02*
X0164425Y0052497D01*
X0163427Y0053495D02*
X0148898Y0053495D01*
X0147899Y0054494D02*
X0162940Y0054494D01*
X0162526Y0055492D02*
X0146901Y0055492D01*
X0145902Y0056491D02*
X0162113Y0056491D01*
X0162086Y0057489D02*
X0144904Y0057489D01*
X0143905Y0058488D02*
X0162086Y0058488D01*
X0162086Y0059486D02*
X0142907Y0059486D01*
X0141908Y0060485D02*
X0162396Y0060485D01*
X0162810Y0061483D02*
X0140910Y0061483D01*
X0139760Y0063264D02*
X0139760Y0072319D01*
X0149209Y0072319D01*
X0159839Y0082949D01*
X0168107Y0082949D01*
X0170863Y0080193D01*
X0170863Y0077437D01*
X0156690Y0063264D01*
X0139760Y0063264D01*
X0139760Y0063480D02*
X0156906Y0063480D01*
X0157905Y0064479D02*
X0139760Y0064479D01*
X0139760Y0065477D02*
X0158903Y0065477D01*
X0159902Y0066476D02*
X0139760Y0066476D01*
X0139760Y0067474D02*
X0160900Y0067474D01*
X0161899Y0068473D02*
X0139760Y0068473D01*
X0139760Y0069472D02*
X0162897Y0069472D01*
X0163896Y0070470D02*
X0139760Y0070470D01*
X0139760Y0071469D02*
X0164894Y0071469D01*
X0165893Y0072467D02*
X0149357Y0072467D01*
X0150356Y0073466D02*
X0166891Y0073466D01*
X0167890Y0074464D02*
X0151354Y0074464D01*
X0152353Y0075463D02*
X0168888Y0075463D01*
X0169887Y0076461D02*
X0153352Y0076461D01*
X0154350Y0077460D02*
X0170863Y0077460D01*
X0170863Y0078458D02*
X0155349Y0078458D01*
X0156347Y0079457D02*
X0170863Y0079457D01*
X0170601Y0080455D02*
X0157346Y0080455D01*
X0158344Y0081454D02*
X0169602Y0081454D01*
X0168604Y0082452D02*
X0159343Y0082452D01*
X0158078Y0083451D02*
X0148608Y0083451D01*
X0148841Y0082452D02*
X0157080Y0082452D01*
X0156081Y0081454D02*
X0148841Y0081454D01*
X0148841Y0080455D02*
X0155083Y0080455D01*
X0154084Y0079457D02*
X0148841Y0079457D01*
X0148841Y0078458D02*
X0153086Y0078458D01*
X0152087Y0077460D02*
X0148841Y0077460D01*
X0148841Y0076461D02*
X0151089Y0076461D01*
X0150090Y0075463D02*
X0148841Y0075463D01*
X0148841Y0074464D02*
X0149092Y0074464D01*
X0147241Y0074464D02*
X0122655Y0074464D01*
X0122831Y0074287D02*
X0107871Y0089248D01*
X0097635Y0089248D01*
X0097635Y0097516D01*
X0117713Y0097516D01*
X0132674Y0082555D01*
X0147241Y0082555D01*
X0147241Y0074287D01*
X0122831Y0074287D01*
X0121390Y0073466D02*
X0112530Y0073466D01*
X0112620Y0073375D02*
X0111683Y0074313D01*
X0096972Y0074313D01*
X0096035Y0073375D01*
X0096035Y0062207D01*
X0096972Y0061270D01*
X0098297Y0061270D01*
X0111683Y0061270D01*
X0112620Y0062207D01*
X0112620Y0073375D01*
X0112620Y0072467D02*
X0126486Y0072467D01*
X0126486Y0071469D02*
X0112620Y0071469D01*
X0112620Y0070470D02*
X0126486Y0070470D01*
X0126486Y0069472D02*
X0112620Y0069472D01*
X0112620Y0068473D02*
X0126486Y0068473D01*
X0126486Y0067474D02*
X0112620Y0067474D01*
X0112620Y0066476D02*
X0126486Y0066476D01*
X0126486Y0065477D02*
X0112620Y0065477D01*
X0112620Y0064479D02*
X0126486Y0064479D01*
X0126486Y0063480D02*
X0112620Y0063480D01*
X0112620Y0062482D02*
X0126486Y0062482D01*
X0126616Y0061483D02*
X0111896Y0061483D01*
X0111020Y0062870D02*
X0097635Y0062870D01*
X0097635Y0072439D01*
X0103346Y0072439D01*
X0103619Y0072713D01*
X0111020Y0072713D01*
X0111020Y0062870D01*
X0111020Y0063480D02*
X0097635Y0063480D01*
X0097635Y0064479D02*
X0111020Y0064479D01*
X0111020Y0065477D02*
X0097635Y0065477D01*
X0097635Y0066476D02*
X0111020Y0066476D01*
X0111020Y0067474D02*
X0097635Y0067474D01*
X0097635Y0068473D02*
X0111020Y0068473D01*
X0111020Y0069472D02*
X0097635Y0069472D01*
X0097635Y0070470D02*
X0111020Y0070470D01*
X0111020Y0071469D02*
X0097635Y0071469D01*
X0096035Y0071469D02*
X0093835Y0071469D01*
X0093835Y0072467D02*
X0096035Y0072467D01*
X0096125Y0073466D02*
X0093835Y0073466D01*
X0093835Y0074464D02*
X0120392Y0074464D01*
X0119393Y0075463D02*
X0093835Y0075463D01*
X0093835Y0076461D02*
X0118395Y0076461D01*
X0117396Y0077460D02*
X0093835Y0077460D01*
X0093835Y0078458D02*
X0116398Y0078458D01*
X0115399Y0079457D02*
X0093835Y0079457D01*
X0093835Y0080455D02*
X0114401Y0080455D01*
X0113402Y0081454D02*
X0093835Y0081454D01*
X0093835Y0082452D02*
X0112404Y0082452D01*
X0111405Y0083451D02*
X0103990Y0083451D01*
X0103990Y0084449D02*
X0110407Y0084449D01*
X0109408Y0085448D02*
X0103990Y0085448D01*
X0103990Y0086446D02*
X0108410Y0086446D01*
X0107411Y0087445D02*
X0103990Y0087445D01*
X0100390Y0084563D02*
X0096020Y0084563D01*
X0095272Y0085311D01*
X0095272Y0110902D01*
X0100390Y0116020D01*
X0102028Y0114405D02*
X0111920Y0114405D01*
X0111920Y0115403D02*
X0102690Y0115403D01*
X0102690Y0116402D02*
X0111920Y0116402D01*
X0111920Y0117400D02*
X0102263Y0117400D01*
X0098518Y0117400D02*
X0093835Y0117400D01*
X0093835Y0116402D02*
X0098090Y0116402D01*
X0097511Y0115403D02*
X0093835Y0115403D01*
X0093835Y0114405D02*
X0096513Y0114405D01*
X0095514Y0113406D02*
X0093835Y0113406D01*
X0093835Y0112408D02*
X0094516Y0112408D01*
X0098042Y0111409D02*
X0111920Y0111409D01*
X0111920Y0112408D02*
X0099041Y0112408D01*
X0100039Y0113406D02*
X0111920Y0113406D01*
X0111920Y0118399D02*
X0093835Y0118399D01*
X0093835Y0119397D02*
X0111920Y0119397D01*
X0111920Y0120396D02*
X0093835Y0120396D01*
X0093835Y0121394D02*
X0111920Y0121394D01*
X0111920Y0122393D02*
X0093835Y0122393D01*
X0093835Y0123391D02*
X0111920Y0123391D01*
X0111920Y0124390D02*
X0093835Y0124390D01*
X0093835Y0125388D02*
X0111920Y0125388D01*
X0111920Y0126387D02*
X0093835Y0126387D01*
X0093835Y0127385D02*
X0111920Y0127385D01*
X0111920Y0128384D02*
X0093835Y0128384D01*
X0093835Y0129382D02*
X0111920Y0129382D01*
X0111920Y0130381D02*
X0093835Y0130381D01*
X0093835Y0131379D02*
X0111920Y0131379D01*
X0111920Y0132378D02*
X0093835Y0132378D01*
X0093835Y0133376D02*
X0111920Y0133376D01*
X0111920Y0134375D02*
X0093835Y0134375D01*
X0093835Y0135373D02*
X0111920Y0135373D01*
X0111920Y0136372D02*
X0093835Y0136372D01*
X0093835Y0137370D02*
X0111920Y0137370D01*
X0111920Y0138369D02*
X0093835Y0138369D01*
X0093835Y0139367D02*
X0111920Y0139367D01*
X0111920Y0140366D02*
X0093835Y0140366D01*
X0093835Y0141364D02*
X0111920Y0141364D01*
X0111920Y0142363D02*
X0093835Y0142363D01*
X0093835Y0143361D02*
X0111920Y0143361D01*
X0111920Y0144360D02*
X0093835Y0144360D01*
X0093835Y0145358D02*
X0111920Y0145358D01*
X0111920Y0146357D02*
X0093835Y0146357D01*
X0093835Y0147355D02*
X0111920Y0147355D01*
X0111920Y0148354D02*
X0093835Y0148354D01*
X0093835Y0149352D02*
X0111920Y0149352D01*
X0111920Y0150351D02*
X0093835Y0150351D01*
X0093835Y0151349D02*
X0111920Y0151349D01*
X0111920Y0152348D02*
X0093835Y0152348D01*
X0093835Y0153346D02*
X0111920Y0153346D01*
X0111920Y0154345D02*
X0093835Y0154345D01*
X0093835Y0155343D02*
X0111920Y0155343D01*
X0111920Y0156342D02*
X0093835Y0156342D01*
X0093835Y0157341D02*
X0111920Y0157341D01*
X0111920Y0158339D02*
X0093835Y0158339D01*
X0093835Y0159338D02*
X0111920Y0159338D01*
X0111920Y0160336D02*
X0093835Y0160336D01*
X0093835Y0161335D02*
X0111920Y0161335D01*
X0111920Y0162333D02*
X0093835Y0162333D01*
X0093835Y0163332D02*
X0111920Y0163332D01*
X0111920Y0164330D02*
X0093835Y0164330D01*
X0093835Y0165329D02*
X0111920Y0165329D01*
X0111920Y0166327D02*
X0093835Y0166327D01*
X0093835Y0167326D02*
X0111920Y0167326D01*
X0111920Y0168324D02*
X0093835Y0168324D01*
X0093835Y0169323D02*
X0111920Y0169323D01*
X0111920Y0170321D02*
X0093835Y0170321D01*
X0093835Y0171320D02*
X0111920Y0171320D01*
X0111920Y0172318D02*
X0093835Y0172318D01*
X0093835Y0173317D02*
X0111920Y0173317D01*
X0111920Y0174315D02*
X0093835Y0174315D01*
X0093835Y0175314D02*
X0096505Y0175314D01*
X0096122Y0176312D02*
X0093835Y0176312D01*
X0093835Y0177311D02*
X0095192Y0177311D01*
X0094106Y0178309D02*
X0093835Y0178309D01*
X0093835Y0179308D02*
X0094039Y0179308D01*
X0094066Y0180306D02*
X0093835Y0180306D01*
X0093835Y0181305D02*
X0094066Y0181305D01*
X0094066Y0182303D02*
X0093835Y0182303D01*
X0093835Y0183302D02*
X0094066Y0183302D01*
X0094066Y0184300D02*
X0093835Y0184300D01*
X0093835Y0185299D02*
X0094066Y0185299D01*
X0094066Y0186297D02*
X0093835Y0186297D01*
X0093835Y0187296D02*
X0094066Y0187296D01*
X0094066Y0188294D02*
X0093835Y0188294D01*
X0093835Y0189293D02*
X0094066Y0189293D01*
X0094066Y0190291D02*
X0093835Y0190291D01*
X0093835Y0191290D02*
X0094066Y0191290D01*
X0094066Y0192288D02*
X0093835Y0192288D01*
X0093835Y0193287D02*
X0094066Y0193287D01*
X0094066Y0194285D02*
X0093835Y0194285D01*
X0093835Y0195284D02*
X0094066Y0195284D01*
X0094066Y0196282D02*
X0093835Y0196282D01*
X0093835Y0197281D02*
X0094066Y0197281D01*
X0094066Y0198279D02*
X0093835Y0198279D01*
X0093835Y0199278D02*
X0094066Y0199278D01*
X0094196Y0200277D02*
X0093835Y0200277D01*
X0093835Y0201275D02*
X0095194Y0201275D01*
X0096193Y0202274D02*
X0093835Y0202274D01*
X0093835Y0203272D02*
X0097191Y0203272D01*
X0097460Y0204271D02*
X0093835Y0204271D01*
X0093835Y0205269D02*
X0096674Y0205269D01*
X0096428Y0206268D02*
X0093835Y0206268D01*
X0093835Y0207266D02*
X0096428Y0207266D01*
X0096428Y0208265D02*
X0093835Y0208265D01*
X0093835Y0209263D02*
X0096428Y0209263D01*
X0096428Y0210262D02*
X0093835Y0210262D01*
X0093835Y0211260D02*
X0096428Y0211260D01*
X0096428Y0212259D02*
X0093835Y0212259D01*
X0093835Y0213257D02*
X0096428Y0213257D01*
X0096428Y0214256D02*
X0093835Y0214256D01*
X0093835Y0215254D02*
X0096428Y0215254D01*
X0096141Y0216253D02*
X0093835Y0216253D01*
X0093835Y0217251D02*
X0096141Y0217251D01*
X0096141Y0218250D02*
X0093835Y0218250D01*
X0093835Y0219248D02*
X0096141Y0219248D01*
X0096141Y0220247D02*
X0093835Y0220247D01*
X0093835Y0221245D02*
X0096141Y0221245D01*
X0096141Y0222244D02*
X0093835Y0222244D01*
X0093835Y0223242D02*
X0096141Y0223242D01*
X0096141Y0224241D02*
X0093835Y0224241D01*
X0093835Y0225239D02*
X0096141Y0225239D01*
X0096141Y0226238D02*
X0093835Y0226238D01*
X0093835Y0227236D02*
X0096896Y0227236D01*
X0093835Y0228235D02*
X0127272Y0228235D01*
X0126349Y0227236D02*
X0112940Y0227236D01*
X0113695Y0226238D02*
X0126349Y0226238D01*
X0126349Y0225239D02*
X0113695Y0225239D01*
X0113695Y0224241D02*
X0126349Y0224241D01*
X0126349Y0223242D02*
X0113695Y0223242D01*
X0113695Y0222244D02*
X0126349Y0222244D01*
X0126349Y0221245D02*
X0113695Y0221245D01*
X0113695Y0220247D02*
X0126349Y0220247D01*
X0126349Y0219248D02*
X0113695Y0219248D01*
X0113695Y0218250D02*
X0126349Y0218250D01*
X0126349Y0217251D02*
X0113695Y0217251D01*
X0114957Y0215232D02*
X0098028Y0215232D01*
X0098028Y0206178D01*
X0098104Y0206254D01*
X0104015Y0206254D01*
X0104092Y0206177D01*
X0105115Y0206177D01*
X0120075Y0191217D01*
X0147241Y0191217D01*
X0147241Y0199878D01*
X0130312Y0199878D01*
X0114957Y0215232D01*
X0115934Y0214256D02*
X0098028Y0214256D01*
X0098028Y0213257D02*
X0116932Y0213257D01*
X0117931Y0212259D02*
X0098028Y0212259D01*
X0098028Y0211260D02*
X0118930Y0211260D01*
X0119928Y0210262D02*
X0098028Y0210262D01*
X0098028Y0209263D02*
X0120927Y0209263D01*
X0121925Y0208265D02*
X0098028Y0208265D01*
X0098028Y0207266D02*
X0122924Y0207266D01*
X0123922Y0206268D02*
X0098028Y0206268D01*
X0104660Y0204370D02*
X0113748Y0195281D01*
X0112742Y0194275D01*
X0111920Y0192291D01*
X0111920Y0191399D01*
X0111683Y0191635D01*
X0097365Y0191635D01*
X0097266Y0191536D01*
X0097266Y0198822D01*
X0098364Y0199920D01*
X0104015Y0199920D01*
X0104660Y0200564D01*
X0104660Y0203050D01*
X0104623Y0203087D01*
X0104660Y0203123D01*
X0104660Y0204370D01*
X0104660Y0204271D02*
X0104759Y0204271D01*
X0104660Y0203272D02*
X0105757Y0203272D01*
X0106756Y0202274D02*
X0104660Y0202274D01*
X0104660Y0201275D02*
X0107754Y0201275D01*
X0108753Y0200277D02*
X0104372Y0200277D01*
X0101060Y0201807D02*
X0097989Y0201807D01*
X0095666Y0199484D01*
X0095666Y0179012D01*
X0098422Y0176650D01*
X0100015Y0178309D02*
X0111920Y0178309D01*
X0111920Y0177311D02*
X0100722Y0177311D01*
X0100722Y0176312D02*
X0111920Y0176312D01*
X0111920Y0175314D02*
X0100339Y0175314D01*
X0098028Y0180587D02*
X0098028Y0189759D01*
X0098104Y0189683D01*
X0104015Y0189683D01*
X0104367Y0190035D01*
X0111020Y0190035D01*
X0111020Y0180587D01*
X0098028Y0180587D01*
X0098028Y0181305D02*
X0111020Y0181305D01*
X0111020Y0182303D02*
X0098028Y0182303D01*
X0098028Y0183302D02*
X0111020Y0183302D01*
X0111020Y0184300D02*
X0098028Y0184300D01*
X0098028Y0185299D02*
X0111020Y0185299D01*
X0111020Y0186297D02*
X0098028Y0186297D01*
X0098028Y0187296D02*
X0111020Y0187296D01*
X0111020Y0188294D02*
X0098028Y0188294D01*
X0098028Y0189293D02*
X0111020Y0189293D01*
X0111920Y0192288D02*
X0097266Y0192288D01*
X0097266Y0193287D02*
X0112332Y0193287D01*
X0112752Y0194285D02*
X0097266Y0194285D01*
X0097266Y0195284D02*
X0113745Y0195284D01*
X0112747Y0196282D02*
X0097266Y0196282D01*
X0097266Y0197281D02*
X0111748Y0197281D01*
X0110750Y0198279D02*
X0097266Y0198279D01*
X0097722Y0199278D02*
X0109751Y0199278D01*
X0111015Y0200277D02*
X0129913Y0200277D01*
X0128915Y0201275D02*
X0110017Y0201275D01*
X0109018Y0202274D02*
X0127916Y0202274D01*
X0126918Y0203272D02*
X0108020Y0203272D01*
X0107021Y0204271D02*
X0125919Y0204271D01*
X0124921Y0205269D02*
X0106023Y0205269D01*
X0112014Y0199278D02*
X0147241Y0199278D01*
X0147241Y0198279D02*
X0113013Y0198279D01*
X0114011Y0197281D02*
X0147241Y0197281D01*
X0147241Y0196282D02*
X0115010Y0196282D01*
X0116008Y0195284D02*
X0147241Y0195284D01*
X0147241Y0194285D02*
X0117007Y0194285D01*
X0118005Y0193287D02*
X0147241Y0193287D01*
X0147241Y0192288D02*
X0119004Y0192288D01*
X0120002Y0191290D02*
X0147241Y0191290D01*
X0148678Y0190291D02*
X0166394Y0190291D01*
X0165396Y0189293D02*
X0147679Y0189293D01*
X0147635Y0189248D02*
X0141335Y0189248D01*
X0141335Y0180193D01*
X0156296Y0180193D01*
X0170469Y0194366D01*
X0170469Y0197516D01*
X0167713Y0200272D01*
X0158658Y0200272D01*
X0147635Y0189248D01*
X0149676Y0191290D02*
X0167393Y0191290D01*
X0168391Y0192288D02*
X0150675Y0192288D01*
X0151673Y0193287D02*
X0169390Y0193287D01*
X0170388Y0194285D02*
X0152672Y0194285D01*
X0153670Y0195284D02*
X0170469Y0195284D01*
X0170469Y0196282D02*
X0154669Y0196282D01*
X0155667Y0197281D02*
X0170469Y0197281D01*
X0169705Y0198279D02*
X0156666Y0198279D01*
X0157664Y0199278D02*
X0168707Y0199278D01*
X0169971Y0200277D02*
X0177924Y0200277D01*
X0177924Y0201275D02*
X0169405Y0201275D01*
X0169189Y0201059D02*
X0169707Y0201577D01*
X0171675Y0203546D01*
X0171675Y0209990D01*
X0170738Y0210927D01*
X0153809Y0227856D01*
X0140673Y0227856D01*
X0139735Y0226919D01*
X0139735Y0215751D01*
X0140673Y0214813D01*
X0147365Y0214813D01*
X0148790Y0213388D01*
X0148790Y0211420D01*
X0149728Y0210483D01*
X0158339Y0201872D01*
X0157995Y0201872D01*
X0157058Y0200934D01*
X0148841Y0192717D01*
X0148841Y0200541D01*
X0148164Y0201218D01*
X0148164Y0203050D01*
X0148127Y0203087D01*
X0148164Y0203123D01*
X0148164Y0205609D01*
X0147519Y0206254D01*
X0141608Y0206254D01*
X0141321Y0205966D01*
X0138297Y0205966D01*
X0132305Y0211958D01*
X0132305Y0225593D01*
X0141211Y0234498D01*
X0166245Y0234498D01*
X0165550Y0234210D01*
X0163302Y0231963D01*
X0162086Y0229026D01*
X0162086Y0225848D01*
X0163302Y0222911D01*
X0165550Y0220664D01*
X0168486Y0219447D01*
X0171665Y0219447D01*
X0174601Y0220664D01*
X0176849Y0222911D01*
X0177924Y0225508D01*
X0177924Y0168116D01*
X0177327Y0168713D01*
X0175422Y0168713D01*
X0174075Y0167366D01*
X0174075Y0166376D01*
X0172956Y0165257D01*
X0172019Y0164320D01*
X0172019Y0156643D01*
X0169404Y0154028D01*
X0169404Y0157617D01*
X0168759Y0158261D01*
X0165333Y0158261D01*
X0161046Y0162549D01*
X0161046Y0162792D01*
X0161746Y0163492D01*
X0161746Y0165398D01*
X0161046Y0166098D01*
X0161046Y0174603D01*
X0161746Y0175303D01*
X0161746Y0177209D01*
X0160398Y0178556D01*
X0158493Y0178556D01*
X0157146Y0177209D01*
X0157146Y0175303D01*
X0157846Y0174603D01*
X0157846Y0166098D01*
X0157146Y0165398D01*
X0157146Y0163492D01*
X0157846Y0162792D01*
X0157846Y0161223D01*
X0158783Y0160286D01*
X0162873Y0156196D01*
X0162873Y0152769D01*
X0163517Y0152124D01*
X0167500Y0152124D01*
X0166944Y0151568D01*
X0163517Y0151568D01*
X0162873Y0150924D01*
X0162873Y0146076D01*
X0163517Y0145431D01*
X0164345Y0145431D01*
X0163838Y0144925D01*
X0163838Y0143020D01*
X0165186Y0141672D01*
X0167091Y0141672D01*
X0168438Y0143020D01*
X0168438Y0144925D01*
X0167932Y0145431D01*
X0168759Y0145431D01*
X0169404Y0146076D01*
X0169404Y0149503D01*
X0174281Y0154380D01*
X0175219Y0155318D01*
X0175219Y0162995D01*
X0176337Y0164113D01*
X0177327Y0164113D01*
X0177924Y0164710D01*
X0177924Y0154333D01*
X0188113Y0144144D01*
X0202834Y0144144D01*
X0202834Y0141439D01*
X0163061Y0141439D01*
X0161242Y0143257D01*
X0160305Y0144194D01*
X0155033Y0144194D01*
X0155868Y0145030D01*
X0155868Y0148427D01*
X0153467Y0150828D01*
X0150070Y0150828D01*
X0147668Y0148427D01*
X0147668Y0148328D01*
X0145868Y0148328D01*
X0145868Y0148427D01*
X0143467Y0150828D01*
X0140070Y0150828D01*
X0137668Y0148427D01*
X0137668Y0145030D01*
X0138504Y0144194D01*
X0136932Y0144194D01*
X0135995Y0143257D01*
X0123987Y0131249D01*
X0123987Y0093703D01*
X0124925Y0092766D01*
X0133536Y0084155D01*
X0133337Y0084155D01*
X0122208Y0095284D01*
X0122720Y0096520D01*
X0122720Y0188980D01*
X0123356Y0189617D01*
X0139735Y0189617D01*
X0139735Y0179530D01*
X0140673Y0178593D01*
X0156959Y0178593D01*
X0157896Y0179530D01*
X0172069Y0193703D01*
X0172069Y0198178D01*
X0171132Y0199116D01*
X0169189Y0201059D01*
X0168107Y0202240D02*
X0160233Y0202240D01*
X0150390Y0212083D01*
X0150390Y0214051D01*
X0148028Y0216413D01*
X0147596Y0216413D01*
X0147519Y0216490D01*
X0141608Y0216490D01*
X0141532Y0216413D01*
X0141335Y0216413D01*
X0141335Y0226256D01*
X0153146Y0226256D01*
X0170075Y0209327D01*
X0170075Y0204209D01*
X0168107Y0202240D01*
X0168140Y0202274D02*
X0160200Y0202274D01*
X0159201Y0203272D02*
X0169139Y0203272D01*
X0170075Y0204271D02*
X0158203Y0204271D01*
X0157204Y0205269D02*
X0170075Y0205269D01*
X0170075Y0206268D02*
X0156206Y0206268D01*
X0155207Y0207266D02*
X0170075Y0207266D01*
X0170075Y0208265D02*
X0154209Y0208265D01*
X0153210Y0209263D02*
X0170075Y0209263D01*
X0169141Y0210262D02*
X0152211Y0210262D01*
X0151213Y0211260D02*
X0168142Y0211260D01*
X0167144Y0212259D02*
X0150390Y0212259D01*
X0150390Y0213257D02*
X0166145Y0213257D01*
X0165147Y0214256D02*
X0150186Y0214256D01*
X0149187Y0215254D02*
X0164148Y0215254D01*
X0163150Y0216253D02*
X0148189Y0216253D01*
X0147923Y0214256D02*
X0132305Y0214256D01*
X0132305Y0215254D02*
X0140232Y0215254D01*
X0139735Y0216253D02*
X0132305Y0216253D01*
X0132305Y0217251D02*
X0139735Y0217251D01*
X0139735Y0218250D02*
X0132305Y0218250D01*
X0132305Y0219248D02*
X0139735Y0219248D01*
X0139735Y0220247D02*
X0132305Y0220247D01*
X0132305Y0221245D02*
X0139735Y0221245D01*
X0139735Y0222244D02*
X0132305Y0222244D01*
X0132305Y0223242D02*
X0139735Y0223242D01*
X0139735Y0224241D02*
X0132305Y0224241D01*
X0132305Y0225239D02*
X0139735Y0225239D01*
X0139735Y0226238D02*
X0132950Y0226238D01*
X0133949Y0227236D02*
X0140053Y0227236D01*
X0141335Y0226238D02*
X0153164Y0226238D01*
X0154163Y0225239D02*
X0141335Y0225239D01*
X0141335Y0224241D02*
X0155161Y0224241D01*
X0156160Y0223242D02*
X0141335Y0223242D01*
X0141335Y0222244D02*
X0157158Y0222244D01*
X0158157Y0221245D02*
X0141335Y0221245D01*
X0141335Y0220247D02*
X0159155Y0220247D01*
X0160154Y0219248D02*
X0141335Y0219248D01*
X0141335Y0218250D02*
X0161153Y0218250D01*
X0162151Y0217251D02*
X0141335Y0217251D01*
X0148790Y0213257D02*
X0132305Y0213257D01*
X0132305Y0212259D02*
X0148790Y0212259D01*
X0148950Y0211260D02*
X0133003Y0211260D01*
X0134002Y0210262D02*
X0149949Y0210262D01*
X0150947Y0209263D02*
X0135000Y0209263D01*
X0135999Y0208265D02*
X0151946Y0208265D01*
X0152944Y0207266D02*
X0136997Y0207266D01*
X0137996Y0206268D02*
X0153943Y0206268D01*
X0154941Y0205269D02*
X0148164Y0205269D01*
X0148164Y0204271D02*
X0155940Y0204271D01*
X0156938Y0203272D02*
X0148164Y0203272D01*
X0148164Y0202274D02*
X0157937Y0202274D01*
X0157399Y0201275D02*
X0148164Y0201275D01*
X0148841Y0200277D02*
X0156400Y0200277D01*
X0155402Y0199278D02*
X0148841Y0199278D01*
X0148841Y0198279D02*
X0154403Y0198279D01*
X0153405Y0197281D02*
X0148841Y0197281D01*
X0148841Y0196282D02*
X0152406Y0196282D01*
X0151408Y0195284D02*
X0148841Y0195284D01*
X0148841Y0194285D02*
X0150409Y0194285D01*
X0149411Y0193287D02*
X0148841Y0193287D01*
X0141335Y0188294D02*
X0164397Y0188294D01*
X0163399Y0187296D02*
X0141335Y0187296D01*
X0141335Y0186297D02*
X0162400Y0186297D01*
X0161402Y0185299D02*
X0141335Y0185299D01*
X0141335Y0184300D02*
X0160403Y0184300D01*
X0159405Y0183302D02*
X0141335Y0183302D01*
X0141335Y0182303D02*
X0158406Y0182303D01*
X0157408Y0181305D02*
X0141335Y0181305D01*
X0141335Y0180306D02*
X0156409Y0180306D01*
X0157674Y0179308D02*
X0177924Y0179308D01*
X0177924Y0180306D02*
X0158672Y0180306D01*
X0159671Y0181305D02*
X0177924Y0181305D01*
X0177924Y0182303D02*
X0160669Y0182303D01*
X0161668Y0183302D02*
X0177924Y0183302D01*
X0177924Y0184300D02*
X0162666Y0184300D01*
X0163665Y0185299D02*
X0177924Y0185299D01*
X0177924Y0186297D02*
X0164663Y0186297D01*
X0165662Y0187296D02*
X0177924Y0187296D01*
X0177924Y0188294D02*
X0166660Y0188294D01*
X0167659Y0189293D02*
X0177924Y0189293D01*
X0177924Y0190291D02*
X0168657Y0190291D01*
X0169656Y0191290D02*
X0177924Y0191290D01*
X0177924Y0192288D02*
X0170654Y0192288D01*
X0171653Y0193287D02*
X0177924Y0193287D01*
X0177924Y0194285D02*
X0172069Y0194285D01*
X0172069Y0195284D02*
X0177924Y0195284D01*
X0177924Y0196282D02*
X0172069Y0196282D01*
X0172069Y0197281D02*
X0177924Y0197281D01*
X0177924Y0198279D02*
X0171968Y0198279D01*
X0170970Y0199278D02*
X0177924Y0199278D01*
X0177924Y0202274D02*
X0170403Y0202274D01*
X0171402Y0203272D02*
X0177924Y0203272D01*
X0177924Y0204271D02*
X0171675Y0204271D01*
X0171675Y0205269D02*
X0177924Y0205269D01*
X0177924Y0206268D02*
X0171675Y0206268D01*
X0171675Y0207266D02*
X0177924Y0207266D01*
X0177924Y0208265D02*
X0171675Y0208265D01*
X0171675Y0209263D02*
X0177924Y0209263D01*
X0177924Y0210262D02*
X0171403Y0210262D01*
X0170405Y0211260D02*
X0177924Y0211260D01*
X0177924Y0212259D02*
X0169406Y0212259D01*
X0168408Y0213257D02*
X0177924Y0213257D01*
X0177924Y0214256D02*
X0167409Y0214256D01*
X0166411Y0215254D02*
X0177924Y0215254D01*
X0177924Y0216253D02*
X0165412Y0216253D01*
X0164414Y0217251D02*
X0177924Y0217251D01*
X0177924Y0218250D02*
X0163415Y0218250D01*
X0162417Y0219248D02*
X0177924Y0219248D01*
X0177924Y0220247D02*
X0173595Y0220247D01*
X0175183Y0221245D02*
X0177924Y0221245D01*
X0177924Y0222244D02*
X0176181Y0222244D01*
X0176986Y0223242D02*
X0177924Y0223242D01*
X0177924Y0224241D02*
X0177400Y0224241D01*
X0177813Y0225239D02*
X0177924Y0225239D01*
X0183093Y0225239D02*
X0249867Y0225239D01*
X0248868Y0224241D02*
X0183093Y0224241D01*
X0183093Y0223242D02*
X0187328Y0223242D01*
X0186835Y0223038D02*
X0185695Y0221898D01*
X0185078Y0220409D01*
X0185078Y0218796D01*
X0185695Y0217307D01*
X0186835Y0216167D01*
X0188324Y0215550D01*
X0189937Y0215550D01*
X0191426Y0216167D01*
X0192566Y0217307D01*
X0193183Y0218796D01*
X0193183Y0220409D01*
X0192566Y0221898D01*
X0191426Y0223038D01*
X0189937Y0223655D01*
X0188324Y0223655D01*
X0186835Y0223038D01*
X0186041Y0222244D02*
X0183093Y0222244D01*
X0183093Y0221245D02*
X0185424Y0221245D01*
X0185078Y0220247D02*
X0183093Y0220247D01*
X0183093Y0219248D02*
X0185078Y0219248D01*
X0185304Y0218250D02*
X0183093Y0218250D01*
X0183093Y0217251D02*
X0185750Y0217251D01*
X0186749Y0216253D02*
X0183093Y0216253D01*
X0183093Y0215254D02*
X0239882Y0215254D01*
X0238883Y0214256D02*
X0183093Y0214256D01*
X0183093Y0213257D02*
X0187364Y0213257D01*
X0186055Y0212259D02*
X0183093Y0212259D01*
X0183093Y0211260D02*
X0185431Y0211260D01*
X0185078Y0210262D02*
X0183093Y0210262D01*
X0183093Y0209263D02*
X0185078Y0209263D01*
X0185298Y0208265D02*
X0183093Y0208265D01*
X0183093Y0207266D02*
X0185735Y0207266D01*
X0186734Y0206268D02*
X0183093Y0206268D01*
X0183093Y0205269D02*
X0191201Y0205269D01*
X0192200Y0204271D02*
X0183093Y0204271D01*
X0183093Y0203272D02*
X0187400Y0203272D01*
X0186835Y0203038D02*
X0185695Y0201898D01*
X0185078Y0200409D01*
X0185078Y0198796D01*
X0185695Y0197307D01*
X0186835Y0196167D01*
X0188324Y0195550D01*
X0189937Y0195550D01*
X0191426Y0196167D01*
X0192566Y0197307D01*
X0193183Y0198796D01*
X0193183Y0200409D01*
X0192566Y0201898D01*
X0191426Y0203038D01*
X0189937Y0203655D01*
X0188324Y0203655D01*
X0186835Y0203038D01*
X0186070Y0202274D02*
X0183093Y0202274D01*
X0183093Y0201275D02*
X0185437Y0201275D01*
X0185078Y0200277D02*
X0183093Y0200277D01*
X0183093Y0199278D02*
X0185078Y0199278D01*
X0185292Y0198279D02*
X0183093Y0198279D01*
X0183093Y0197281D02*
X0185720Y0197281D01*
X0186719Y0196282D02*
X0183093Y0196282D01*
X0183093Y0195284D02*
X0201186Y0195284D01*
X0200188Y0196282D02*
X0191542Y0196282D01*
X0192541Y0197281D02*
X0199189Y0197281D01*
X0198191Y0198279D02*
X0192969Y0198279D01*
X0193183Y0199278D02*
X0197192Y0199278D01*
X0196194Y0200277D02*
X0193183Y0200277D01*
X0192824Y0201275D02*
X0195195Y0201275D01*
X0194197Y0202274D02*
X0192191Y0202274D01*
X0193198Y0203272D02*
X0190862Y0203272D01*
X0194728Y0206268D02*
X0230895Y0206268D01*
X0230483Y0205269D02*
X0195727Y0205269D01*
X0196725Y0204271D02*
X0230483Y0204271D01*
X0230483Y0203272D02*
X0197724Y0203272D01*
X0198722Y0202274D02*
X0230483Y0202274D01*
X0230483Y0201275D02*
X0199721Y0201275D01*
X0200719Y0200277D02*
X0230483Y0200277D01*
X0230483Y0199278D02*
X0201718Y0199278D01*
X0202716Y0198279D02*
X0230483Y0198279D01*
X0230483Y0197281D02*
X0203715Y0197281D01*
X0204713Y0196282D02*
X0230483Y0196282D01*
X0230483Y0195284D02*
X0205712Y0195284D01*
X0206710Y0194285D02*
X0230483Y0194285D01*
X0230483Y0193287D02*
X0207709Y0193287D01*
X0208707Y0192288D02*
X0230483Y0192288D01*
X0230483Y0191290D02*
X0209706Y0191290D01*
X0210704Y0190291D02*
X0230483Y0190291D01*
X0230483Y0189293D02*
X0211703Y0189293D01*
X0212701Y0188294D02*
X0230483Y0188294D01*
X0230483Y0187296D02*
X0213700Y0187296D01*
X0214698Y0186297D02*
X0230483Y0186297D01*
X0230483Y0185299D02*
X0230033Y0185299D01*
X0228737Y0183343D02*
X0228737Y0175862D01*
X0228146Y0175272D01*
X0228146Y0164839D01*
X0226178Y0164839D02*
X0226178Y0178815D01*
X0225981Y0179012D01*
X0224429Y0177311D02*
X0223685Y0177311D01*
X0223681Y0178309D02*
X0222686Y0178309D01*
X0223681Y0179308D02*
X0221688Y0179308D01*
X0220689Y0180306D02*
X0224023Y0180306D01*
X0225021Y0181305D02*
X0219691Y0181305D01*
X0218692Y0182303D02*
X0226523Y0182303D01*
X0226437Y0183302D02*
X0217694Y0183302D01*
X0216695Y0184300D02*
X0226442Y0184300D01*
X0227441Y0185299D02*
X0215697Y0185299D01*
X0213168Y0183302D02*
X0211727Y0183302D01*
X0211727Y0183995D02*
X0211082Y0184639D01*
X0204659Y0184639D01*
X0204015Y0183995D01*
X0204015Y0179147D01*
X0204659Y0178502D01*
X0208676Y0178502D01*
X0210689Y0176490D01*
X0210689Y0175303D01*
X0212036Y0173956D01*
X0213942Y0173956D01*
X0215289Y0175303D01*
X0215289Y0177209D01*
X0213942Y0178556D01*
X0213148Y0178556D01*
X0211727Y0179978D01*
X0211727Y0183995D01*
X0211421Y0184300D02*
X0212170Y0184300D01*
X0211171Y0185299D02*
X0183093Y0185299D01*
X0183093Y0186297D02*
X0186704Y0186297D01*
X0186835Y0186167D02*
X0188324Y0185550D01*
X0189937Y0185550D01*
X0191426Y0186167D01*
X0192566Y0187307D01*
X0193183Y0188796D01*
X0193183Y0190409D01*
X0192566Y0191898D01*
X0191426Y0193038D01*
X0189937Y0193655D01*
X0188324Y0193655D01*
X0186835Y0193038D01*
X0185695Y0191898D01*
X0185078Y0190409D01*
X0185078Y0188796D01*
X0185695Y0187307D01*
X0186835Y0186167D01*
X0185706Y0187296D02*
X0183093Y0187296D01*
X0183093Y0188294D02*
X0185286Y0188294D01*
X0185078Y0189293D02*
X0183093Y0189293D01*
X0183093Y0190291D02*
X0185078Y0190291D01*
X0185443Y0191290D02*
X0183093Y0191290D01*
X0183093Y0192288D02*
X0186085Y0192288D01*
X0187436Y0193287D02*
X0183093Y0193287D01*
X0183093Y0194285D02*
X0202185Y0194285D01*
X0203183Y0193287D02*
X0190826Y0193287D01*
X0192176Y0192288D02*
X0204182Y0192288D01*
X0205180Y0191290D02*
X0192818Y0191290D01*
X0193183Y0190291D02*
X0206179Y0190291D01*
X0207177Y0189293D02*
X0193183Y0189293D01*
X0192975Y0188294D02*
X0208176Y0188294D01*
X0209174Y0187296D02*
X0192556Y0187296D01*
X0191557Y0186297D02*
X0210173Y0186297D01*
X0211727Y0182303D02*
X0214167Y0182303D01*
X0215165Y0181305D02*
X0211727Y0181305D01*
X0211727Y0180306D02*
X0216164Y0180306D01*
X0217162Y0179308D02*
X0212397Y0179308D01*
X0214188Y0178309D02*
X0218161Y0178309D01*
X0219159Y0177311D02*
X0215187Y0177311D01*
X0215289Y0176312D02*
X0220158Y0176312D01*
X0221156Y0175314D02*
X0215289Y0175314D01*
X0214301Y0174315D02*
X0222155Y0174315D01*
X0222609Y0173317D02*
X0199541Y0173317D01*
X0199541Y0172318D02*
X0222609Y0172318D01*
X0222609Y0171320D02*
X0199042Y0171320D01*
X0199042Y0170321D02*
X0222609Y0170321D01*
X0222609Y0169323D02*
X0199982Y0169323D01*
X0200309Y0168324D02*
X0212676Y0168324D01*
X0212676Y0167326D02*
X0200309Y0167326D01*
X0200309Y0166327D02*
X0212676Y0166327D01*
X0212676Y0165329D02*
X0200490Y0165329D01*
X0201488Y0164330D02*
X0212676Y0164330D01*
X0212676Y0163332D02*
X0202487Y0163332D01*
X0203485Y0162333D02*
X0212676Y0162333D01*
X0212676Y0161335D02*
X0204484Y0161335D01*
X0205482Y0160336D02*
X0212714Y0160336D01*
X0212264Y0159338D02*
X0206481Y0159338D01*
X0206001Y0157555D02*
X0207083Y0157555D01*
X0206001Y0157555D02*
X0197142Y0166413D01*
X0193975Y0166327D02*
X0186549Y0166327D01*
X0186549Y0166451D02*
X0195429Y0175331D01*
X0195821Y0174939D01*
X0194941Y0174059D01*
X0194941Y0172154D01*
X0195242Y0171852D01*
X0195242Y0169639D01*
X0194620Y0169639D01*
X0193975Y0168995D01*
X0193975Y0163832D01*
X0194620Y0163187D01*
X0198106Y0163187D01*
X0199528Y0161765D01*
X0194620Y0161765D01*
X0193975Y0161121D01*
X0193975Y0155958D01*
X0194620Y0155313D01*
X0198106Y0155313D01*
X0198495Y0154924D01*
X0199432Y0153987D01*
X0202834Y0153987D01*
X0202834Y0150603D01*
X0203478Y0149959D01*
X0210251Y0149959D01*
X0210995Y0149215D01*
X0210995Y0149097D01*
X0210689Y0149403D01*
X0203478Y0149403D01*
X0203388Y0149313D01*
X0190620Y0149313D01*
X0183093Y0156840D01*
X0183093Y0164317D01*
X0183296Y0164113D01*
X0185201Y0164113D01*
X0186549Y0165461D01*
X0186549Y0166451D01*
X0186417Y0165329D02*
X0193975Y0165329D01*
X0193975Y0164330D02*
X0185418Y0164330D01*
X0184249Y0166413D02*
X0195666Y0177831D01*
X0199209Y0177831D01*
X0199285Y0174315D02*
X0211677Y0174315D01*
X0210689Y0175314D02*
X0202972Y0175314D01*
X0203065Y0176312D02*
X0210689Y0176312D01*
X0209868Y0177311D02*
X0203065Y0177311D01*
X0203065Y0178309D02*
X0208870Y0178309D01*
X0207871Y0181571D02*
X0212989Y0176453D01*
X0212989Y0176256D01*
X0224209Y0174524D02*
X0189131Y0209602D01*
X0192831Y0211260D02*
X0235888Y0211260D01*
X0236886Y0212259D02*
X0192206Y0212259D01*
X0190897Y0213257D02*
X0237885Y0213257D01*
X0240880Y0216253D02*
X0191512Y0216253D01*
X0192511Y0217251D02*
X0241879Y0217251D01*
X0242877Y0218250D02*
X0192957Y0218250D01*
X0193183Y0219248D02*
X0243876Y0219248D01*
X0244874Y0220247D02*
X0193183Y0220247D01*
X0192837Y0221245D02*
X0245873Y0221245D01*
X0246871Y0222244D02*
X0192221Y0222244D01*
X0190933Y0223242D02*
X0247870Y0223242D01*
X0250865Y0226238D02*
X0183093Y0226238D01*
X0183093Y0227236D02*
X0251864Y0227236D01*
X0252815Y0228235D02*
X0183093Y0228235D01*
X0183093Y0229233D02*
X0252871Y0229233D01*
X0253870Y0230232D02*
X0183093Y0230232D01*
X0183093Y0231230D02*
X0277334Y0231230D01*
X0277334Y0230232D02*
X0265021Y0230232D01*
X0266020Y0229233D02*
X0277334Y0229233D01*
X0277334Y0228235D02*
X0266076Y0228235D01*
X0266041Y0227236D02*
X0277334Y0227236D01*
X0277334Y0226238D02*
X0265042Y0226238D01*
X0263054Y0225239D02*
X0277334Y0225239D01*
X0277334Y0224241D02*
X0262055Y0224241D01*
X0261057Y0223242D02*
X0265309Y0223242D01*
X0265078Y0223011D02*
X0265078Y0216194D01*
X0265722Y0215550D01*
X0272539Y0215550D01*
X0273183Y0216194D01*
X0273183Y0223011D01*
X0272539Y0223655D01*
X0265722Y0223655D01*
X0265078Y0223011D01*
X0265078Y0222244D02*
X0260058Y0222244D01*
X0259060Y0221245D02*
X0265078Y0221245D01*
X0265078Y0220247D02*
X0258061Y0220247D01*
X0257063Y0219248D02*
X0265078Y0219248D01*
X0265078Y0218250D02*
X0256064Y0218250D01*
X0255066Y0217251D02*
X0265078Y0217251D01*
X0265078Y0216253D02*
X0254067Y0216253D01*
X0253069Y0215254D02*
X0275865Y0215254D01*
X0275865Y0214256D02*
X0252070Y0214256D01*
X0251072Y0213257D02*
X0267364Y0213257D01*
X0266055Y0212259D02*
X0250073Y0212259D01*
X0249075Y0211260D02*
X0265431Y0211260D01*
X0265078Y0210262D02*
X0248076Y0210262D01*
X0247078Y0209263D02*
X0265078Y0209263D01*
X0265106Y0208265D02*
X0246079Y0208265D01*
X0245081Y0207266D02*
X0264107Y0207266D01*
X0263109Y0206268D02*
X0244082Y0206268D01*
X0243084Y0205269D02*
X0262110Y0205269D01*
X0261483Y0204271D02*
X0242085Y0204271D01*
X0241557Y0203272D02*
X0261483Y0203272D01*
X0261483Y0202274D02*
X0241557Y0202274D01*
X0241557Y0201275D02*
X0254440Y0201275D01*
X0253442Y0200277D02*
X0241557Y0200277D01*
X0241557Y0199278D02*
X0253209Y0199278D01*
X0253209Y0198279D02*
X0241557Y0198279D01*
X0241557Y0197281D02*
X0254065Y0197281D01*
X0255509Y0199091D02*
X0263383Y0199091D01*
X0265283Y0199278D02*
X0272112Y0199278D01*
X0272112Y0200277D02*
X0265283Y0200277D01*
X0265283Y0201275D02*
X0272112Y0201275D01*
X0272112Y0202274D02*
X0265283Y0202274D01*
X0265487Y0203272D02*
X0272112Y0203272D01*
X0272112Y0204271D02*
X0266486Y0204271D01*
X0267484Y0205269D02*
X0272386Y0205269D01*
X0271527Y0206268D02*
X0273384Y0206268D01*
X0272526Y0207266D02*
X0274383Y0207266D01*
X0275381Y0208265D02*
X0272963Y0208265D01*
X0273183Y0209263D02*
X0275865Y0209263D01*
X0276148Y0210262D02*
X0273183Y0210262D01*
X0272831Y0211260D02*
X0277034Y0211260D01*
X0277034Y0212259D02*
X0272206Y0212259D01*
X0270897Y0213257D02*
X0275865Y0213257D01*
X0275865Y0216253D02*
X0273183Y0216253D01*
X0273183Y0217251D02*
X0275865Y0217251D01*
X0275868Y0218250D02*
X0273183Y0218250D01*
X0273183Y0219248D02*
X0277334Y0219248D01*
X0277334Y0220247D02*
X0273183Y0220247D01*
X0273183Y0221245D02*
X0277334Y0221245D01*
X0277334Y0222244D02*
X0273183Y0222244D01*
X0272952Y0223242D02*
X0277334Y0223242D01*
X0280534Y0223242D02*
X0281275Y0223242D01*
X0280862Y0224241D02*
X0280534Y0224241D01*
X0280534Y0222244D02*
X0282080Y0222244D01*
X0283078Y0221245D02*
X0280534Y0221245D01*
X0280534Y0220247D02*
X0284666Y0220247D01*
X0282561Y0218250D02*
X0281999Y0218250D01*
X0282002Y0217251D02*
X0282558Y0217251D01*
X0282558Y0216253D02*
X0282002Y0216253D01*
X0282002Y0215254D02*
X0282558Y0215254D01*
X0282558Y0214256D02*
X0282002Y0214256D01*
X0282280Y0211295D02*
X0282674Y0211295D01*
X0285627Y0214248D01*
X0285627Y0215626D01*
X0288146Y0213106D01*
X0297438Y0213106D01*
X0301338Y0213257D02*
X0364426Y0213257D01*
X0364426Y0212259D02*
X0301338Y0212259D01*
X0301338Y0211260D02*
X0364426Y0211260D01*
X0364426Y0210262D02*
X0301338Y0210262D01*
X0301338Y0209263D02*
X0364426Y0209263D01*
X0364426Y0208265D02*
X0301338Y0208265D01*
X0301338Y0207266D02*
X0364426Y0207266D01*
X0364426Y0206268D02*
X0288695Y0206268D01*
X0288695Y0205269D02*
X0364426Y0205269D01*
X0364426Y0204271D02*
X0288228Y0204271D01*
X0288291Y0202274D02*
X0293841Y0202274D01*
X0291178Y0200114D02*
X0290942Y0199878D01*
X0291178Y0200114D02*
X0297438Y0200114D01*
X0301338Y0200277D02*
X0364426Y0200277D01*
X0364426Y0201275D02*
X0301338Y0201275D01*
X0301034Y0202274D02*
X0364426Y0202274D01*
X0364426Y0203272D02*
X0284787Y0203272D01*
X0282280Y0203028D02*
X0285627Y0206374D01*
X0285627Y0207358D01*
X0287044Y0208776D01*
X0297438Y0208776D01*
X0301338Y0214256D02*
X0364426Y0214256D01*
X0364426Y0215254D02*
X0301097Y0215254D01*
X0301097Y0216253D02*
X0364426Y0216253D01*
X0364426Y0217251D02*
X0301097Y0217251D01*
X0301097Y0218250D02*
X0350472Y0218250D01*
X0350472Y0217985D02*
X0351116Y0217341D01*
X0362027Y0217341D01*
X0362672Y0217985D01*
X0362672Y0223897D01*
X0362027Y0224541D01*
X0351116Y0224541D01*
X0350472Y0223897D01*
X0350472Y0217985D01*
X0350472Y0219248D02*
X0300529Y0219248D01*
X0294740Y0219248D02*
X0280534Y0219248D01*
X0278934Y0215626D02*
X0278934Y0232752D01*
X0282280Y0236098D01*
X0317241Y0236098D01*
X0324721Y0228618D01*
X0321653Y0228235D02*
X0296175Y0228235D01*
X0296175Y0227236D02*
X0321653Y0227236D01*
X0321653Y0226238D02*
X0296175Y0226238D01*
X0295923Y0225239D02*
X0336896Y0225239D01*
X0337189Y0224946D02*
X0338679Y0224329D01*
X0340291Y0224329D01*
X0341781Y0224946D01*
X0342921Y0226086D01*
X0343538Y0227576D01*
X0343538Y0229188D01*
X0342921Y0230678D01*
X0341781Y0231818D01*
X0340291Y0232435D01*
X0338679Y0232435D01*
X0337189Y0231818D01*
X0336049Y0230678D01*
X0335761Y0229982D01*
X0334483Y0229982D01*
X0334483Y0231239D01*
X0333838Y0231883D01*
X0328990Y0231883D01*
X0328346Y0231239D01*
X0328346Y0225997D01*
X0328990Y0225353D01*
X0333838Y0225353D01*
X0334483Y0225997D01*
X0334483Y0226782D01*
X0335761Y0226782D01*
X0336049Y0226086D01*
X0337189Y0224946D01*
X0335986Y0226238D02*
X0334483Y0226238D01*
X0331650Y0228382D02*
X0339485Y0228382D01*
X0342368Y0231230D02*
X0364426Y0231230D01*
X0364426Y0230232D02*
X0343105Y0230232D01*
X0343519Y0229233D02*
X0364426Y0229233D01*
X0364426Y0228235D02*
X0343538Y0228235D01*
X0343397Y0227236D02*
X0364426Y0227236D01*
X0364426Y0226238D02*
X0342983Y0226238D01*
X0342074Y0225239D02*
X0364426Y0225239D01*
X0364426Y0224241D02*
X0362327Y0224241D01*
X0362672Y0223242D02*
X0364426Y0223242D01*
X0364426Y0222244D02*
X0362672Y0222244D01*
X0362672Y0221245D02*
X0364426Y0221245D01*
X0364426Y0220247D02*
X0362672Y0220247D01*
X0362672Y0219248D02*
X0364426Y0219248D01*
X0364426Y0218250D02*
X0362672Y0218250D01*
X0350472Y0220247D02*
X0291705Y0220247D01*
X0293293Y0221245D02*
X0350472Y0221245D01*
X0350472Y0222244D02*
X0294292Y0222244D01*
X0295096Y0223242D02*
X0350472Y0223242D01*
X0350816Y0224241D02*
X0295510Y0224241D01*
X0296090Y0229233D02*
X0321653Y0229233D01*
X0320845Y0230232D02*
X0295676Y0230232D01*
X0295262Y0231230D02*
X0319846Y0231230D01*
X0318848Y0232229D02*
X0294693Y0232229D01*
X0293695Y0233227D02*
X0317849Y0233227D01*
X0316851Y0234226D02*
X0292674Y0234226D01*
X0281140Y0237221D02*
X0177908Y0237221D01*
X0178907Y0236223D02*
X0280142Y0236223D01*
X0279143Y0235224D02*
X0179905Y0235224D01*
X0180904Y0234226D02*
X0278145Y0234226D01*
X0277334Y0233227D02*
X0181902Y0233227D01*
X0182901Y0232229D02*
X0277334Y0232229D01*
X0263776Y0228224D02*
X0239957Y0204406D01*
X0239957Y0164839D01*
X0241926Y0164839D02*
X0241926Y0173008D01*
X0243698Y0174780D01*
X0246923Y0174315D02*
X0247558Y0174315D01*
X0247558Y0175314D02*
X0246923Y0175314D01*
X0246923Y0176312D02*
X0247558Y0176312D01*
X0247567Y0177311D02*
X0246915Y0177311D01*
X0250784Y0174780D02*
X0243894Y0167890D01*
X0243894Y0164839D01*
X0245585Y0164029D02*
X0246682Y0162932D01*
X0248587Y0162932D01*
X0249287Y0163632D01*
X0254058Y0163632D01*
X0255090Y0162601D01*
X0255090Y0158939D01*
X0254783Y0159246D01*
X0247573Y0159246D01*
X0247482Y0159155D01*
X0244806Y0159155D01*
X0242641Y0156990D01*
X0241704Y0156052D01*
X0241704Y0151577D01*
X0242972Y0150309D01*
X0242972Y0149716D01*
X0235761Y0156927D01*
X0235761Y0157917D01*
X0234414Y0159265D01*
X0232509Y0159265D01*
X0231161Y0157917D01*
X0231161Y0156012D01*
X0232509Y0154665D01*
X0233499Y0154665D01*
X0244019Y0144144D01*
X0246928Y0144144D01*
X0246928Y0130918D01*
X0247573Y0130274D01*
X0254739Y0130274D01*
X0255483Y0129530D01*
X0255483Y0108465D01*
X0248447Y0115501D01*
X0247510Y0116439D01*
X0243967Y0116439D01*
X0243911Y0116494D01*
X0244941Y0116494D01*
X0245585Y0117139D01*
X0245585Y0124349D01*
X0244941Y0124994D01*
X0223163Y0124994D01*
X0222519Y0124349D01*
X0222519Y0117139D01*
X0222986Y0116671D01*
X0222106Y0115791D01*
X0222106Y0113886D01*
X0222416Y0113576D01*
X0221927Y0113576D01*
X0221872Y0113631D01*
X0221872Y0117048D01*
X0221963Y0117139D01*
X0221963Y0124349D01*
X0221692Y0124620D01*
X0222375Y0125303D01*
X0222375Y0127209D01*
X0221569Y0128015D01*
X0221569Y0151431D01*
X0222666Y0150334D01*
X0224571Y0150334D01*
X0225919Y0151681D01*
X0225919Y0153587D01*
X0225112Y0154393D01*
X0225112Y0157977D01*
X0222500Y0160589D01*
X0244941Y0160589D01*
X0245585Y0161233D01*
X0245585Y0164029D01*
X0245585Y0163332D02*
X0246283Y0163332D01*
X0245585Y0162333D02*
X0255090Y0162333D01*
X0255090Y0161335D02*
X0245585Y0161335D01*
X0243990Y0158339D02*
X0235339Y0158339D01*
X0235761Y0157341D02*
X0242992Y0157341D01*
X0241993Y0156342D02*
X0236347Y0156342D01*
X0237345Y0155343D02*
X0241704Y0155343D01*
X0241704Y0154345D02*
X0238344Y0154345D01*
X0239342Y0153346D02*
X0241704Y0153346D01*
X0241704Y0152348D02*
X0240341Y0152348D01*
X0241339Y0151349D02*
X0241932Y0151349D01*
X0242338Y0150351D02*
X0242930Y0150351D01*
X0243304Y0152240D02*
X0245272Y0150272D01*
X0243304Y0152240D02*
X0243304Y0155390D01*
X0245469Y0157555D01*
X0251178Y0157555D01*
X0251178Y0155587D02*
X0254918Y0155587D01*
X0256690Y0157358D01*
X0256690Y0163264D01*
X0254721Y0165232D01*
X0247635Y0165232D01*
X0248986Y0163332D02*
X0254359Y0163332D01*
X0256888Y0165329D02*
X0265020Y0165329D01*
X0265020Y0166327D02*
X0255889Y0166327D01*
X0257886Y0164330D02*
X0265720Y0164330D01*
X0265720Y0163332D02*
X0258290Y0163332D01*
X0258290Y0162333D02*
X0265720Y0162333D01*
X0263319Y0161335D02*
X0258290Y0161335D01*
X0258290Y0160336D02*
X0262320Y0160336D01*
X0262264Y0159338D02*
X0258290Y0159338D01*
X0258290Y0158339D02*
X0262299Y0158339D01*
X0262964Y0157341D02*
X0261535Y0157341D01*
X0259839Y0155783D02*
X0257674Y0153618D01*
X0251178Y0153618D01*
X0251178Y0151650D02*
X0259642Y0151650D01*
X0264564Y0156571D01*
X0264564Y0159327D01*
X0267320Y0156965D02*
X0267320Y0166020D01*
X0265373Y0167326D02*
X0251799Y0167326D01*
X0252798Y0168324D02*
X0268475Y0168324D01*
X0268475Y0169323D02*
X0253084Y0169323D01*
X0253084Y0170321D02*
X0268475Y0170321D01*
X0268475Y0171320D02*
X0252684Y0171320D01*
X0254010Y0172318D02*
X0268475Y0172318D01*
X0267793Y0173317D02*
X0254010Y0173317D01*
X0254010Y0174315D02*
X0267775Y0174315D01*
X0267849Y0175314D02*
X0254010Y0175314D01*
X0254010Y0176312D02*
X0266689Y0176312D01*
X0265693Y0177311D02*
X0254001Y0177311D01*
X0247059Y0173317D02*
X0246923Y0173317D01*
X0247590Y0169323D02*
X0248484Y0169323D01*
X0248770Y0168324D02*
X0246591Y0168324D01*
X0246475Y0167326D02*
X0245593Y0167326D01*
X0248794Y0167326D02*
X0249769Y0167326D01*
X0255090Y0160336D02*
X0222753Y0160336D01*
X0223752Y0159338D02*
X0255090Y0159338D01*
X0260036Y0149681D02*
X0267320Y0156965D01*
X0270075Y0156965D02*
X0270075Y0174287D01*
X0271675Y0172635D02*
X0272375Y0173335D01*
X0272375Y0175240D01*
X0271438Y0176178D01*
X0272506Y0177247D01*
X0272506Y0164445D01*
X0273619Y0163332D01*
X0283530Y0153422D01*
X0284643Y0152309D01*
X0302162Y0152309D01*
X0302393Y0152078D01*
X0302393Y0148967D01*
X0304213Y0147147D01*
X0303271Y0147147D01*
X0302334Y0146210D01*
X0297759Y0141635D01*
X0274675Y0141635D01*
X0271919Y0144391D01*
X0270594Y0144391D01*
X0260751Y0144391D01*
X0259814Y0143454D01*
X0257799Y0141439D01*
X0255427Y0141439D01*
X0255427Y0146113D01*
X0261486Y0146113D01*
X0270738Y0155365D01*
X0271675Y0156302D01*
X0271675Y0172635D01*
X0271675Y0172318D02*
X0272506Y0172318D01*
X0272506Y0171320D02*
X0271675Y0171320D01*
X0271675Y0170321D02*
X0272506Y0170321D01*
X0272506Y0169323D02*
X0271675Y0169323D01*
X0271675Y0168324D02*
X0272506Y0168324D01*
X0272506Y0167326D02*
X0271675Y0167326D01*
X0271675Y0166327D02*
X0272506Y0166327D01*
X0272506Y0165329D02*
X0271675Y0165329D01*
X0271675Y0164330D02*
X0272621Y0164330D01*
X0271675Y0163332D02*
X0273620Y0163332D01*
X0274618Y0162333D02*
X0271675Y0162333D01*
X0271675Y0161335D02*
X0275617Y0161335D01*
X0276615Y0160336D02*
X0271675Y0160336D01*
X0271675Y0159338D02*
X0277614Y0159338D01*
X0278612Y0158339D02*
X0271675Y0158339D01*
X0271675Y0157341D02*
X0279611Y0157341D01*
X0280609Y0156342D02*
X0271675Y0156342D01*
X0270717Y0155343D02*
X0281608Y0155343D01*
X0282606Y0154345D02*
X0269719Y0154345D01*
X0268720Y0153346D02*
X0283605Y0153346D01*
X0284603Y0152348D02*
X0267722Y0152348D01*
X0266723Y0151349D02*
X0302393Y0151349D01*
X0302393Y0150351D02*
X0265725Y0150351D01*
X0264726Y0149352D02*
X0302393Y0149352D01*
X0303006Y0148354D02*
X0263728Y0148354D01*
X0262729Y0147355D02*
X0304004Y0147355D01*
X0303934Y0145547D02*
X0308658Y0145547D01*
X0311020Y0147909D01*
X0311020Y0156138D01*
X0306493Y0160665D01*
X0310593Y0160336D02*
X0312393Y0160336D01*
X0312393Y0159338D02*
X0310593Y0159338D01*
X0311082Y0158339D02*
X0313021Y0158339D01*
X0312080Y0157341D02*
X0314019Y0157341D01*
X0312620Y0156342D02*
X0318553Y0156342D01*
X0319552Y0155343D02*
X0312620Y0155343D01*
X0312620Y0154345D02*
X0314374Y0154345D01*
X0313376Y0153346D02*
X0312620Y0153346D01*
X0309420Y0154345D02*
X0308611Y0154345D01*
X0309420Y0155343D02*
X0304502Y0155343D01*
X0304019Y0157341D02*
X0284985Y0157341D01*
X0285527Y0158339D02*
X0283986Y0158339D01*
X0284529Y0159338D02*
X0282988Y0159338D01*
X0281989Y0160336D02*
X0284096Y0160336D01*
X0283097Y0161335D02*
X0280991Y0161335D01*
X0279992Y0162333D02*
X0282099Y0162333D01*
X0281100Y0163332D02*
X0278994Y0163332D01*
X0277995Y0164330D02*
X0280102Y0164330D01*
X0279103Y0165329D02*
X0276997Y0165329D01*
X0276306Y0166327D02*
X0278105Y0166327D01*
X0277106Y0167326D02*
X0276306Y0167326D01*
X0276306Y0168324D02*
X0277034Y0168324D01*
X0277034Y0169323D02*
X0276306Y0169323D01*
X0276306Y0170321D02*
X0277034Y0170321D01*
X0272506Y0173317D02*
X0272357Y0173317D01*
X0272375Y0174315D02*
X0272506Y0174315D01*
X0272506Y0175314D02*
X0272302Y0175314D01*
X0272506Y0176312D02*
X0271572Y0176312D01*
X0265280Y0178309D02*
X0241557Y0178309D01*
X0241557Y0179308D02*
X0265078Y0179308D01*
X0265078Y0180306D02*
X0241557Y0180306D01*
X0241557Y0181305D02*
X0265449Y0181305D01*
X0266100Y0182303D02*
X0241557Y0182303D01*
X0241557Y0183302D02*
X0265461Y0183302D01*
X0264462Y0184300D02*
X0241557Y0184300D01*
X0241557Y0185299D02*
X0263464Y0185299D01*
X0262465Y0186297D02*
X0241557Y0186297D01*
X0241557Y0187296D02*
X0261483Y0187296D01*
X0261483Y0188294D02*
X0241557Y0188294D01*
X0241557Y0189293D02*
X0261483Y0189293D01*
X0261483Y0190291D02*
X0241557Y0190291D01*
X0241557Y0191290D02*
X0261483Y0191290D01*
X0261483Y0192288D02*
X0241557Y0192288D01*
X0241557Y0193287D02*
X0261483Y0193287D01*
X0261483Y0194285D02*
X0241557Y0194285D01*
X0241557Y0195284D02*
X0261483Y0195284D01*
X0261483Y0196282D02*
X0241557Y0196282D01*
X0234052Y0202831D02*
X0259446Y0228224D01*
X0260691Y0230232D02*
X0262531Y0230232D01*
X0258200Y0230232D02*
X0256360Y0230232D01*
X0255115Y0228224D02*
X0232083Y0205193D01*
X0232083Y0164839D01*
X0234052Y0164839D02*
X0234052Y0202831D01*
X0231894Y0207266D02*
X0193730Y0207266D01*
X0192963Y0208265D02*
X0232892Y0208265D01*
X0233891Y0209263D02*
X0193183Y0209263D01*
X0193183Y0210262D02*
X0234889Y0210262D01*
X0256577Y0201275D02*
X0261483Y0201275D01*
X0265283Y0198279D02*
X0272112Y0198279D01*
X0272112Y0197281D02*
X0265283Y0197281D01*
X0265283Y0196282D02*
X0272112Y0196282D01*
X0272112Y0195284D02*
X0265283Y0195284D01*
X0265283Y0194285D02*
X0272981Y0194285D01*
X0273979Y0193287D02*
X0270826Y0193287D01*
X0272176Y0192288D02*
X0274978Y0192288D01*
X0275865Y0191290D02*
X0272818Y0191290D01*
X0273183Y0190291D02*
X0275865Y0190291D01*
X0275865Y0189293D02*
X0273183Y0189293D01*
X0272975Y0188294D02*
X0275865Y0188294D01*
X0277034Y0187296D02*
X0272556Y0187296D01*
X0271776Y0186297D02*
X0277034Y0186297D01*
X0275988Y0185299D02*
X0272775Y0185299D01*
X0273773Y0184300D02*
X0275865Y0184300D01*
X0275865Y0183302D02*
X0274772Y0183302D01*
X0275770Y0182303D02*
X0275865Y0182303D01*
X0282280Y0178618D02*
X0285627Y0181965D01*
X0285627Y0182555D01*
X0290194Y0187122D01*
X0297438Y0187122D01*
X0301338Y0187296D02*
X0364426Y0187296D01*
X0364426Y0188294D02*
X0301338Y0188294D01*
X0301033Y0189293D02*
X0364426Y0189293D01*
X0364426Y0190291D02*
X0301338Y0190291D01*
X0301338Y0191290D02*
X0364426Y0191290D01*
X0364426Y0192288D02*
X0301338Y0192288D01*
X0301338Y0193287D02*
X0364426Y0193287D01*
X0364426Y0194285D02*
X0301338Y0194285D01*
X0301338Y0195284D02*
X0364426Y0195284D01*
X0364426Y0196282D02*
X0301338Y0196282D01*
X0301338Y0197281D02*
X0364426Y0197281D01*
X0364426Y0198279D02*
X0301338Y0198279D01*
X0301338Y0199278D02*
X0364426Y0199278D01*
X0364426Y0186297D02*
X0301338Y0186297D01*
X0301338Y0185299D02*
X0364426Y0185299D01*
X0364426Y0184300D02*
X0301338Y0184300D01*
X0301338Y0183302D02*
X0364426Y0183302D01*
X0364426Y0182303D02*
X0301338Y0182303D01*
X0301338Y0181305D02*
X0364426Y0181305D01*
X0364426Y0180306D02*
X0300708Y0180306D01*
X0300452Y0179757D02*
X0294817Y0179757D01*
X0294172Y0179113D01*
X0294172Y0174265D01*
X0294817Y0173620D01*
X0300452Y0173620D01*
X0301097Y0174265D01*
X0301097Y0179113D01*
X0300452Y0179757D01*
X0300902Y0179308D02*
X0364426Y0179308D01*
X0364426Y0178309D02*
X0301097Y0178309D01*
X0301097Y0177311D02*
X0364426Y0177311D01*
X0364426Y0176312D02*
X0301097Y0176312D01*
X0301097Y0175314D02*
X0364426Y0175314D01*
X0364426Y0174315D02*
X0301097Y0174315D01*
X0294172Y0174315D02*
X0288695Y0174315D01*
X0288695Y0173317D02*
X0364426Y0173317D01*
X0364426Y0172318D02*
X0288695Y0172318D01*
X0288348Y0171320D02*
X0364426Y0171320D01*
X0364426Y0170321D02*
X0362310Y0170321D01*
X0362027Y0170604D02*
X0351116Y0170604D01*
X0350472Y0169960D01*
X0350472Y0164048D01*
X0351116Y0163404D01*
X0362027Y0163404D01*
X0362672Y0164048D01*
X0362672Y0169960D01*
X0362027Y0170604D01*
X0362672Y0169323D02*
X0364426Y0169323D01*
X0364426Y0168324D02*
X0362672Y0168324D01*
X0362672Y0167326D02*
X0364426Y0167326D01*
X0364426Y0166327D02*
X0362672Y0166327D01*
X0362672Y0165329D02*
X0364426Y0165329D01*
X0364426Y0164330D02*
X0362672Y0164330D01*
X0364426Y0163332D02*
X0319625Y0163332D01*
X0320593Y0162333D02*
X0364426Y0162333D01*
X0364426Y0161335D02*
X0320593Y0161335D01*
X0320593Y0160336D02*
X0364426Y0160336D01*
X0364426Y0159338D02*
X0320593Y0159338D01*
X0321082Y0158339D02*
X0364426Y0158339D01*
X0364426Y0157341D02*
X0322080Y0157341D01*
X0323079Y0156342D02*
X0364426Y0156342D01*
X0364426Y0155343D02*
X0324077Y0155343D01*
X0325076Y0154345D02*
X0364426Y0154345D01*
X0364426Y0153346D02*
X0325612Y0153346D01*
X0325612Y0152348D02*
X0364426Y0152348D01*
X0364426Y0151349D02*
X0325612Y0151349D01*
X0325612Y0150351D02*
X0364426Y0150351D01*
X0364426Y0149352D02*
X0325612Y0149352D01*
X0325612Y0148354D02*
X0364426Y0148354D01*
X0364426Y0147355D02*
X0325612Y0147355D01*
X0325612Y0146357D02*
X0364426Y0146357D01*
X0364426Y0145358D02*
X0325612Y0145358D01*
X0325612Y0144360D02*
X0364426Y0144360D01*
X0364426Y0143361D02*
X0325612Y0143361D01*
X0325612Y0142363D02*
X0364426Y0142363D01*
X0364426Y0141364D02*
X0325612Y0141364D01*
X0325612Y0140366D02*
X0364426Y0140366D01*
X0364426Y0139367D02*
X0325612Y0139367D01*
X0325612Y0138369D02*
X0364426Y0138369D01*
X0364426Y0137370D02*
X0325612Y0137370D01*
X0324974Y0136372D02*
X0364426Y0136372D01*
X0364426Y0135373D02*
X0323975Y0135373D01*
X0322977Y0134375D02*
X0364426Y0134375D01*
X0364426Y0133376D02*
X0321978Y0133376D01*
X0321257Y0134917D02*
X0324012Y0137673D01*
X0324012Y0153146D01*
X0316493Y0160665D01*
X0313361Y0163332D02*
X0309625Y0163332D01*
X0310593Y0162333D02*
X0312393Y0162333D01*
X0312393Y0161335D02*
X0310593Y0161335D01*
X0308626Y0164330D02*
X0314359Y0164330D01*
X0318626Y0164330D02*
X0350472Y0164330D01*
X0350472Y0165329D02*
X0284477Y0165329D01*
X0283479Y0166327D02*
X0350472Y0166327D01*
X0350472Y0167326D02*
X0282480Y0167326D01*
X0283507Y0168324D02*
X0350472Y0168324D01*
X0350472Y0169323D02*
X0284505Y0169323D01*
X0284580Y0170321D02*
X0350833Y0170321D01*
X0322412Y0152348D02*
X0320593Y0152348D01*
X0320593Y0151349D02*
X0322412Y0151349D01*
X0322412Y0150351D02*
X0320593Y0150351D01*
X0320593Y0149352D02*
X0322412Y0149352D01*
X0322412Y0148354D02*
X0319980Y0148354D01*
X0318981Y0147355D02*
X0322412Y0147355D01*
X0322412Y0146357D02*
X0311731Y0146357D01*
X0312620Y0147355D02*
X0314004Y0147355D01*
X0313006Y0148354D02*
X0312620Y0148354D01*
X0310732Y0145358D02*
X0322412Y0145358D01*
X0322412Y0144360D02*
X0309733Y0144360D01*
X0304011Y0143361D02*
X0322412Y0143361D01*
X0322412Y0142363D02*
X0303012Y0142363D01*
X0302014Y0141364D02*
X0322412Y0141364D01*
X0322412Y0140366D02*
X0301015Y0140366D01*
X0302140Y0139367D02*
X0322412Y0139367D01*
X0322412Y0138369D02*
X0303139Y0138369D01*
X0304137Y0137370D02*
X0321447Y0137370D01*
X0321257Y0134917D02*
X0304327Y0134917D01*
X0301178Y0138067D01*
X0296060Y0138067D01*
X0273225Y0138067D01*
X0270469Y0140823D01*
X0262201Y0140823D01*
X0259249Y0137870D01*
X0251178Y0137870D01*
X0251178Y0135902D02*
X0263383Y0135902D01*
X0264564Y0137083D01*
X0267829Y0137370D02*
X0271659Y0137370D01*
X0270660Y0138369D02*
X0267829Y0138369D01*
X0267829Y0136372D02*
X0300610Y0136372D01*
X0301609Y0135373D02*
X0267829Y0135373D01*
X0267545Y0134375D02*
X0302607Y0134375D01*
X0303606Y0133376D02*
X0260100Y0133376D01*
X0260108Y0133368D02*
X0260108Y0133368D01*
X0261046Y0132378D02*
X0364426Y0132378D01*
X0364426Y0131379D02*
X0261046Y0131379D01*
X0261046Y0130381D02*
X0364426Y0130381D01*
X0364426Y0129382D02*
X0301495Y0129382D01*
X0301990Y0128384D02*
X0364426Y0128384D01*
X0364426Y0127385D02*
X0301990Y0127385D01*
X0301990Y0126387D02*
X0364426Y0126387D01*
X0364426Y0125388D02*
X0301990Y0125388D01*
X0301990Y0124390D02*
X0364426Y0124390D01*
X0364426Y0123391D02*
X0301990Y0123391D01*
X0301990Y0122393D02*
X0364426Y0122393D01*
X0364426Y0121394D02*
X0355531Y0121394D01*
X0356385Y0121040D02*
X0353441Y0122260D01*
X0350253Y0122260D01*
X0347309Y0121040D01*
X0345055Y0118786D01*
X0343835Y0115842D01*
X0343835Y0112654D01*
X0345055Y0109710D01*
X0347309Y0107456D01*
X0350253Y0106236D01*
X0353441Y0106236D01*
X0356385Y0107456D01*
X0358639Y0109710D01*
X0359859Y0112654D01*
X0359859Y0115842D01*
X0358639Y0118786D01*
X0356385Y0121040D01*
X0357030Y0120396D02*
X0364426Y0120396D01*
X0364426Y0119397D02*
X0358028Y0119397D01*
X0358800Y0118399D02*
X0364426Y0118399D01*
X0364426Y0117400D02*
X0359213Y0117400D01*
X0359627Y0116402D02*
X0364426Y0116402D01*
X0364426Y0115403D02*
X0359859Y0115403D01*
X0359859Y0114405D02*
X0364426Y0114405D01*
X0364426Y0113406D02*
X0359859Y0113406D01*
X0359757Y0112408D02*
X0364426Y0112408D01*
X0364426Y0111409D02*
X0359343Y0111409D01*
X0358929Y0110410D02*
X0364426Y0110410D01*
X0364426Y0109412D02*
X0358341Y0109412D01*
X0357343Y0108413D02*
X0364426Y0108413D01*
X0364426Y0107415D02*
X0356286Y0107415D01*
X0353876Y0106416D02*
X0364426Y0106416D01*
X0364426Y0105418D02*
X0329903Y0105418D01*
X0329712Y0105227D02*
X0330357Y0105871D01*
X0330357Y0112782D01*
X0329712Y0113427D01*
X0322801Y0113427D01*
X0322157Y0112782D01*
X0322157Y0105871D01*
X0322801Y0105227D01*
X0329712Y0105227D01*
X0330357Y0106416D02*
X0349818Y0106416D01*
X0347408Y0107415D02*
X0330357Y0107415D01*
X0330357Y0108413D02*
X0346351Y0108413D01*
X0345353Y0109412D02*
X0330357Y0109412D01*
X0330357Y0110410D02*
X0344765Y0110410D01*
X0344351Y0111409D02*
X0330357Y0111409D01*
X0330357Y0112408D02*
X0343938Y0112408D01*
X0343835Y0113406D02*
X0329733Y0113406D01*
X0322780Y0113406D02*
X0311822Y0113406D01*
X0312820Y0112408D02*
X0322157Y0112408D01*
X0322157Y0111409D02*
X0313819Y0111409D01*
X0314817Y0110410D02*
X0322157Y0110410D01*
X0322157Y0109412D02*
X0315816Y0109412D01*
X0316814Y0108413D02*
X0322157Y0108413D01*
X0322157Y0107415D02*
X0317813Y0107415D01*
X0318812Y0106416D02*
X0322157Y0106416D01*
X0322610Y0105418D02*
X0319810Y0105418D01*
X0320809Y0104419D02*
X0364426Y0104419D01*
X0364426Y0103421D02*
X0321807Y0103421D01*
X0322806Y0102422D02*
X0364426Y0102422D01*
X0364426Y0101424D02*
X0323804Y0101424D01*
X0324803Y0100425D02*
X0364426Y0100425D01*
X0364426Y0099427D02*
X0325801Y0099427D01*
X0326800Y0098428D02*
X0364426Y0098428D01*
X0364426Y0097430D02*
X0327798Y0097430D01*
X0328797Y0096431D02*
X0364426Y0096431D01*
X0364426Y0095433D02*
X0329795Y0095433D01*
X0330794Y0094434D02*
X0364426Y0094434D01*
X0364426Y0093436D02*
X0331792Y0093436D01*
X0332791Y0092437D02*
X0364426Y0092437D01*
X0364426Y0091439D02*
X0333789Y0091439D01*
X0334788Y0090440D02*
X0364426Y0090440D01*
X0364426Y0089442D02*
X0335786Y0089442D01*
X0336597Y0088443D02*
X0364426Y0088443D01*
X0364426Y0087445D02*
X0337011Y0087445D01*
X0337286Y0086446D02*
X0364426Y0086446D01*
X0364426Y0085448D02*
X0337286Y0085448D01*
X0337286Y0084449D02*
X0364426Y0084449D01*
X0364426Y0083451D02*
X0337286Y0083451D01*
X0337286Y0082452D02*
X0364426Y0082452D01*
X0364426Y0081454D02*
X0337286Y0081454D01*
X0337286Y0080455D02*
X0364426Y0080455D01*
X0364426Y0079457D02*
X0337286Y0079457D01*
X0337286Y0078458D02*
X0364426Y0078458D01*
X0364426Y0077460D02*
X0337286Y0077460D01*
X0337286Y0076461D02*
X0364426Y0076461D01*
X0364426Y0075463D02*
X0337286Y0075463D01*
X0337286Y0074464D02*
X0364426Y0074464D01*
X0364426Y0073466D02*
X0337286Y0073466D01*
X0337286Y0072467D02*
X0364426Y0072467D01*
X0364426Y0071469D02*
X0337286Y0071469D01*
X0337286Y0070470D02*
X0364426Y0070470D01*
X0364426Y0069472D02*
X0337286Y0069472D01*
X0337286Y0068473D02*
X0364426Y0068473D01*
X0364426Y0067474D02*
X0337286Y0067474D01*
X0337286Y0066476D02*
X0364426Y0066476D01*
X0364426Y0065477D02*
X0337286Y0065477D01*
X0337286Y0064479D02*
X0364426Y0064479D01*
X0364426Y0063480D02*
X0337286Y0063480D01*
X0337286Y0062482D02*
X0364426Y0062482D01*
X0364426Y0061483D02*
X0337286Y0061483D01*
X0337286Y0060485D02*
X0364426Y0060485D01*
X0364426Y0059486D02*
X0337286Y0059486D01*
X0337286Y0058488D02*
X0364426Y0058488D01*
X0364426Y0057489D02*
X0337286Y0057489D01*
X0337286Y0056491D02*
X0364426Y0056491D01*
X0364426Y0055492D02*
X0337286Y0055492D01*
X0337286Y0054494D02*
X0364426Y0054494D01*
X0364386Y0053495D02*
X0337273Y0053495D01*
X0336859Y0052497D02*
X0364330Y0052497D01*
X0364138Y0051498D02*
X0336419Y0051498D01*
X0335421Y0050500D02*
X0363910Y0050500D01*
X0363683Y0049501D02*
X0334422Y0049501D01*
X0333424Y0048503D02*
X0363447Y0048503D01*
X0362966Y0047504D02*
X0332425Y0047504D01*
X0331427Y0046506D02*
X0362485Y0046506D01*
X0362004Y0045507D02*
X0330428Y0045507D01*
X0329430Y0044509D02*
X0361348Y0044509D01*
X0360551Y0043510D02*
X0328431Y0043510D01*
X0327433Y0042512D02*
X0359755Y0042512D01*
X0358711Y0041513D02*
X0326434Y0041513D01*
X0325436Y0040515D02*
X0357458Y0040515D01*
X0356090Y0039516D02*
X0324437Y0039516D01*
X0319149Y0049501D02*
X0225219Y0049501D01*
X0225219Y0052497D02*
X0276409Y0052497D01*
X0276043Y0053495D02*
X0225219Y0053495D01*
X0225219Y0054494D02*
X0275402Y0054494D01*
X0274403Y0055492D02*
X0225219Y0055492D01*
X0225219Y0056491D02*
X0273405Y0056491D01*
X0272406Y0057489D02*
X0225219Y0057489D01*
X0225219Y0058488D02*
X0271407Y0058488D01*
X0270409Y0059486D02*
X0225219Y0059486D01*
X0226884Y0060485D02*
X0269410Y0060485D01*
X0268412Y0061483D02*
X0226884Y0061483D01*
X0226884Y0062482D02*
X0267413Y0062482D01*
X0266415Y0063480D02*
X0226884Y0063480D01*
X0226884Y0064479D02*
X0265416Y0064479D01*
X0264418Y0065477D02*
X0226701Y0065477D01*
X0226884Y0067474D02*
X0262421Y0067474D01*
X0263419Y0066476D02*
X0162165Y0066476D01*
X0161166Y0065477D02*
X0166898Y0065477D01*
X0165110Y0064479D02*
X0160168Y0064479D01*
X0159169Y0063480D02*
X0164111Y0063480D01*
X0163224Y0062482D02*
X0158171Y0062482D01*
X0147241Y0075463D02*
X0121656Y0075463D01*
X0120658Y0076461D02*
X0147241Y0076461D01*
X0147241Y0077460D02*
X0119659Y0077460D01*
X0118661Y0078458D02*
X0147241Y0078458D01*
X0147241Y0079457D02*
X0117662Y0079457D01*
X0116664Y0080455D02*
X0147241Y0080455D01*
X0147241Y0081454D02*
X0115665Y0081454D01*
X0114667Y0082452D02*
X0147241Y0082452D01*
X0147494Y0084449D02*
X0156864Y0084449D01*
X0155865Y0085448D02*
X0147494Y0085448D01*
X0147494Y0086446D02*
X0154866Y0086446D01*
X0153868Y0087445D02*
X0147494Y0087445D01*
X0147416Y0088443D02*
X0152869Y0088443D01*
X0151871Y0089442D02*
X0136318Y0089442D01*
X0135319Y0090440D02*
X0150872Y0090440D01*
X0149972Y0091439D02*
X0134321Y0091439D01*
X0133322Y0092437D02*
X0149972Y0092437D01*
X0149972Y0093436D02*
X0132324Y0093436D01*
X0131325Y0094434D02*
X0149634Y0094434D01*
X0148636Y0095433D02*
X0130327Y0095433D01*
X0129943Y0096431D02*
X0147637Y0096431D01*
X0146639Y0097430D02*
X0129943Y0097430D01*
X0129943Y0098428D02*
X0139735Y0098428D01*
X0139735Y0099427D02*
X0129943Y0099427D01*
X0129943Y0100425D02*
X0139735Y0100425D01*
X0139735Y0101424D02*
X0129943Y0101424D01*
X0129943Y0102422D02*
X0139735Y0102422D01*
X0139735Y0103421D02*
X0129943Y0103421D01*
X0129943Y0104419D02*
X0139735Y0104419D01*
X0139735Y0105418D02*
X0129943Y0105418D01*
X0129943Y0106416D02*
X0139735Y0106416D01*
X0139735Y0107415D02*
X0129943Y0107415D01*
X0129943Y0108413D02*
X0139735Y0108413D01*
X0139735Y0109412D02*
X0129943Y0109412D01*
X0129943Y0110410D02*
X0140550Y0110410D01*
X0141335Y0108933D02*
X0152359Y0108933D01*
X0170075Y0091217D01*
X0170075Y0087280D01*
X0168107Y0085311D01*
X0158264Y0085311D01*
X0151572Y0092004D01*
X0151572Y0094760D01*
X0147241Y0099091D01*
X0147005Y0099091D01*
X0146850Y0099246D01*
X0141335Y0099246D01*
X0141335Y0108933D01*
X0141335Y0108413D02*
X0152879Y0108413D01*
X0153877Y0107415D02*
X0141335Y0107415D01*
X0141335Y0106416D02*
X0154876Y0106416D01*
X0155874Y0105418D02*
X0141335Y0105418D01*
X0141335Y0104419D02*
X0156873Y0104419D01*
X0157871Y0103421D02*
X0141335Y0103421D01*
X0141335Y0102422D02*
X0158870Y0102422D01*
X0159868Y0101424D02*
X0141335Y0101424D01*
X0141335Y0100425D02*
X0160867Y0100425D01*
X0161865Y0099427D02*
X0141335Y0099427D01*
X0147903Y0098428D02*
X0162864Y0098428D01*
X0163862Y0097430D02*
X0148902Y0097430D01*
X0149900Y0096431D02*
X0164861Y0096431D01*
X0165859Y0095433D02*
X0150899Y0095433D01*
X0151572Y0094434D02*
X0166858Y0094434D01*
X0167856Y0093436D02*
X0151572Y0093436D01*
X0151572Y0092437D02*
X0168855Y0092437D01*
X0169853Y0091439D02*
X0152137Y0091439D01*
X0153135Y0090440D02*
X0170075Y0090440D01*
X0170075Y0089442D02*
X0154134Y0089442D01*
X0155132Y0088443D02*
X0170075Y0088443D01*
X0170075Y0087445D02*
X0156131Y0087445D01*
X0157129Y0086446D02*
X0169242Y0086446D01*
X0168244Y0085448D02*
X0158128Y0085448D01*
X0169508Y0084449D02*
X0222019Y0084449D01*
X0222019Y0083451D02*
X0169868Y0083451D01*
X0170866Y0082452D02*
X0222019Y0082452D01*
X0222019Y0081454D02*
X0171865Y0081454D01*
X0172463Y0080455D02*
X0222019Y0080455D01*
X0222019Y0079457D02*
X0172463Y0079457D01*
X0170506Y0085448D02*
X0222019Y0085448D01*
X0222019Y0086446D02*
X0171505Y0086446D01*
X0171675Y0087445D02*
X0222019Y0087445D01*
X0222019Y0088443D02*
X0171675Y0088443D01*
X0171675Y0089442D02*
X0222019Y0089442D01*
X0222019Y0090440D02*
X0171675Y0090440D01*
X0171675Y0091439D02*
X0222019Y0091439D01*
X0222019Y0092437D02*
X0171117Y0092437D01*
X0170119Y0093436D02*
X0222019Y0093436D01*
X0222019Y0094434D02*
X0169120Y0094434D01*
X0168122Y0095433D02*
X0222019Y0095433D01*
X0222019Y0096431D02*
X0167123Y0096431D01*
X0166125Y0097430D02*
X0222058Y0097430D01*
X0223056Y0098428D02*
X0165126Y0098428D01*
X0164128Y0099427D02*
X0224055Y0099427D01*
X0225053Y0100425D02*
X0163129Y0100425D01*
X0162131Y0101424D02*
X0226052Y0101424D01*
X0226546Y0102422D02*
X0212284Y0102422D01*
X0213283Y0103421D02*
X0226546Y0103421D01*
X0226546Y0104419D02*
X0214281Y0104419D01*
X0215280Y0105418D02*
X0226546Y0105418D01*
X0226546Y0106416D02*
X0216278Y0106416D01*
X0217277Y0107415D02*
X0220077Y0107415D01*
X0219605Y0108413D02*
X0218275Y0108413D01*
X0219274Y0109412D02*
X0219605Y0109412D01*
X0218304Y0110705D02*
X0218304Y0120744D01*
X0220272Y0120744D02*
X0220272Y0112969D01*
X0222831Y0110409D01*
X0224406Y0111984D01*
X0224406Y0114839D01*
X0222716Y0116402D02*
X0221872Y0116402D01*
X0221872Y0115403D02*
X0222106Y0115403D01*
X0222106Y0114405D02*
X0221872Y0114405D01*
X0221963Y0117400D02*
X0222519Y0117400D01*
X0222519Y0118399D02*
X0221963Y0118399D01*
X0221963Y0119397D02*
X0222519Y0119397D01*
X0222519Y0120396D02*
X0221963Y0120396D01*
X0221963Y0121394D02*
X0222519Y0121394D01*
X0222519Y0122393D02*
X0221963Y0122393D01*
X0221963Y0123391D02*
X0222519Y0123391D01*
X0222559Y0124390D02*
X0221923Y0124390D01*
X0222375Y0125388D02*
X0250059Y0125388D01*
X0250059Y0125506D02*
X0250059Y0124516D01*
X0251406Y0123169D01*
X0253312Y0123169D01*
X0254659Y0124516D01*
X0254659Y0126337D01*
X0254783Y0126337D01*
X0255427Y0126981D01*
X0255427Y0129074D01*
X0254783Y0129718D01*
X0247573Y0129718D01*
X0246928Y0129074D01*
X0246928Y0126981D01*
X0247573Y0126337D01*
X0249578Y0126337D01*
X0249578Y0125987D01*
X0250059Y0125506D01*
X0250185Y0124390D02*
X0245545Y0124390D01*
X0245585Y0123391D02*
X0251184Y0123391D01*
X0253534Y0123391D02*
X0255483Y0123391D01*
X0255483Y0122393D02*
X0245585Y0122393D01*
X0245585Y0121394D02*
X0255483Y0121394D01*
X0255483Y0120396D02*
X0245585Y0120396D01*
X0245585Y0119397D02*
X0255483Y0119397D01*
X0255483Y0118399D02*
X0245585Y0118399D01*
X0245585Y0117400D02*
X0255483Y0117400D01*
X0255483Y0116402D02*
X0247547Y0116402D01*
X0248545Y0115403D02*
X0255483Y0115403D01*
X0255483Y0114405D02*
X0249544Y0114405D01*
X0250542Y0113406D02*
X0255483Y0113406D01*
X0255483Y0112408D02*
X0251541Y0112408D01*
X0252539Y0111409D02*
X0255483Y0111409D01*
X0255483Y0110410D02*
X0253538Y0110410D01*
X0254536Y0109412D02*
X0255483Y0109412D01*
X0254721Y0106965D02*
X0246847Y0114839D01*
X0243304Y0114839D01*
X0241926Y0116217D01*
X0241926Y0120744D01*
X0240326Y0116402D02*
X0233683Y0116402D01*
X0233683Y0115403D02*
X0240477Y0115403D01*
X0238436Y0114405D02*
X0233683Y0114405D01*
X0233683Y0113406D02*
X0237854Y0113406D01*
X0237854Y0112408D02*
X0234612Y0112408D01*
X0236600Y0111409D02*
X0238363Y0111409D01*
X0237336Y0110410D02*
X0240351Y0110410D01*
X0241350Y0109412D02*
X0237336Y0109412D01*
X0236982Y0108413D02*
X0241625Y0108413D01*
X0241625Y0107415D02*
X0229746Y0107415D01*
X0229746Y0108413D02*
X0233090Y0108413D01*
X0232736Y0109412D02*
X0229746Y0109412D01*
X0229746Y0110410D02*
X0232083Y0110410D01*
X0231085Y0111409D02*
X0229746Y0111409D01*
X0229746Y0112408D02*
X0230483Y0112408D01*
X0230483Y0113406D02*
X0229746Y0113406D01*
X0229746Y0114405D02*
X0230483Y0114405D01*
X0230483Y0115403D02*
X0229746Y0115403D01*
X0229746Y0116402D02*
X0230483Y0116402D01*
X0232083Y0112673D02*
X0232083Y0120744D01*
X0228146Y0120744D02*
X0228146Y0101256D01*
X0223619Y0096728D01*
X0223619Y0069563D01*
X0226884Y0069472D02*
X0260424Y0069472D01*
X0259425Y0070470D02*
X0226884Y0070470D01*
X0226884Y0071469D02*
X0258427Y0071469D01*
X0257428Y0072467D02*
X0226404Y0072467D01*
X0225219Y0073466D02*
X0256430Y0073466D01*
X0255431Y0074464D02*
X0225219Y0074464D01*
X0226884Y0068473D02*
X0261422Y0068473D01*
X0270469Y0066807D02*
X0254721Y0082555D01*
X0254721Y0106965D01*
X0253007Y0106416D02*
X0252986Y0106416D01*
X0252986Y0105418D02*
X0253121Y0105418D01*
X0253121Y0104419D02*
X0252986Y0104419D01*
X0252986Y0103421D02*
X0253121Y0103421D01*
X0253121Y0102422D02*
X0252986Y0102422D01*
X0252986Y0101424D02*
X0253121Y0101424D01*
X0251572Y0099484D02*
X0249918Y0101138D01*
X0249918Y0103815D01*
X0246849Y0103421D02*
X0246294Y0103421D01*
X0246294Y0104419D02*
X0246849Y0104419D01*
X0246849Y0105418D02*
X0246294Y0105418D01*
X0246294Y0106416D02*
X0246849Y0106416D01*
X0244825Y0107415D02*
X0252008Y0107415D01*
X0251009Y0108413D02*
X0244825Y0108413D01*
X0244825Y0109412D02*
X0250011Y0109412D01*
X0249012Y0110410D02*
X0244825Y0110410D01*
X0243878Y0111409D02*
X0248014Y0111409D01*
X0247015Y0112408D02*
X0242879Y0112408D01*
X0242474Y0113406D02*
X0242454Y0113406D01*
X0240154Y0112870D02*
X0243225Y0109799D01*
X0243225Y0103815D01*
X0243225Y0095390D01*
X0243461Y0095154D01*
X0240393Y0095433D02*
X0225219Y0095433D01*
X0225219Y0094434D02*
X0240393Y0094434D01*
X0240393Y0093436D02*
X0225219Y0093436D01*
X0225219Y0092437D02*
X0240488Y0092437D01*
X0240393Y0096431D02*
X0225584Y0096431D01*
X0226583Y0097430D02*
X0240393Y0097430D01*
X0241625Y0098428D02*
X0227581Y0098428D01*
X0228580Y0099427D02*
X0241625Y0099427D01*
X0241625Y0100425D02*
X0229579Y0100425D01*
X0229746Y0101424D02*
X0240157Y0101424D01*
X0240157Y0102422D02*
X0229746Y0102422D01*
X0229746Y0103421D02*
X0240157Y0103421D01*
X0240157Y0104419D02*
X0229746Y0104419D01*
X0229746Y0105418D02*
X0240157Y0105418D01*
X0240157Y0106416D02*
X0229746Y0106416D01*
X0226546Y0107415D02*
X0225585Y0107415D01*
X0226057Y0108413D02*
X0226546Y0108413D01*
X0226546Y0109412D02*
X0226057Y0109412D01*
X0226057Y0110410D02*
X0226546Y0110410D01*
X0226546Y0111409D02*
X0226057Y0111409D01*
X0226057Y0112408D02*
X0226546Y0112408D01*
X0226546Y0113406D02*
X0226226Y0113406D01*
X0232083Y0112673D02*
X0235036Y0109720D01*
X0246294Y0102422D02*
X0246849Y0102422D01*
X0246849Y0101424D02*
X0246294Y0101424D01*
X0244825Y0100425D02*
X0248368Y0100425D01*
X0249272Y0099427D02*
X0244825Y0099427D01*
X0244825Y0098428D02*
X0249375Y0098428D01*
X0247086Y0097430D02*
X0246530Y0097430D01*
X0246530Y0096431D02*
X0247086Y0096431D01*
X0247086Y0095433D02*
X0246530Y0095433D01*
X0246530Y0094434D02*
X0247086Y0094434D01*
X0247086Y0093436D02*
X0246530Y0093436D01*
X0246435Y0092437D02*
X0247181Y0092437D01*
X0250154Y0095154D02*
X0250154Y0082004D01*
X0278343Y0053815D01*
X0279085Y0065477D02*
X0285008Y0065477D01*
X0277162Y0066807D02*
X0270469Y0066807D01*
X0273343Y0074464D02*
X0275989Y0074464D01*
X0275649Y0075463D02*
X0272344Y0075463D01*
X0271346Y0076461D02*
X0275649Y0076461D01*
X0275649Y0077460D02*
X0270347Y0077460D01*
X0269349Y0078458D02*
X0275649Y0078458D01*
X0275649Y0079457D02*
X0268350Y0079457D01*
X0267352Y0080455D02*
X0275649Y0080455D01*
X0275649Y0081454D02*
X0266353Y0081454D01*
X0265355Y0082452D02*
X0275649Y0082452D01*
X0275649Y0083451D02*
X0264356Y0083451D01*
X0287449Y0084449D02*
X0294357Y0084449D01*
X0293359Y0083451D02*
X0292849Y0083451D01*
X0295356Y0085448D02*
X0287449Y0085448D01*
X0287449Y0086446D02*
X0296354Y0086446D01*
X0297353Y0087445D02*
X0287449Y0087445D01*
X0287449Y0088443D02*
X0298351Y0088443D01*
X0299350Y0089442D02*
X0287449Y0089442D01*
X0298133Y0079457D02*
X0303226Y0079457D01*
X0302393Y0078458D02*
X0297134Y0078458D01*
X0296136Y0077460D02*
X0302393Y0077460D01*
X0302393Y0076461D02*
X0294966Y0076461D01*
X0292849Y0075463D02*
X0302393Y0075463D01*
X0301769Y0074464D02*
X0292508Y0074464D01*
X0299131Y0080455D02*
X0304224Y0080455D01*
X0304169Y0083451D02*
X0302127Y0083451D01*
X0308817Y0083451D02*
X0314169Y0083451D01*
X0314224Y0080455D02*
X0308761Y0080455D01*
X0309760Y0079457D02*
X0313226Y0079457D01*
X0312393Y0078458D02*
X0310593Y0078458D01*
X0310593Y0077460D02*
X0312393Y0077460D01*
X0326486Y0061483D02*
X0295451Y0061483D01*
X0295865Y0060485D02*
X0326486Y0060485D01*
X0350863Y0037519D02*
X0107399Y0037519D01*
X0104245Y0038518D02*
X0354017Y0038518D01*
X0343835Y0114405D02*
X0310673Y0114405D01*
X0301990Y0115403D02*
X0343835Y0115403D01*
X0344067Y0116402D02*
X0301990Y0116402D01*
X0301990Y0117400D02*
X0344481Y0117400D01*
X0344894Y0118399D02*
X0301990Y0118399D01*
X0301990Y0119397D02*
X0345666Y0119397D01*
X0346664Y0120396D02*
X0301990Y0120396D01*
X0301990Y0121394D02*
X0348163Y0121394D01*
X0303934Y0145547D02*
X0298422Y0140035D01*
X0274012Y0140035D01*
X0271257Y0142791D01*
X0261414Y0142791D01*
X0258461Y0139839D01*
X0251178Y0139839D01*
X0246928Y0139367D02*
X0221569Y0139367D01*
X0221569Y0138369D02*
X0246928Y0138369D01*
X0246928Y0137370D02*
X0221569Y0137370D01*
X0221569Y0136372D02*
X0246928Y0136372D01*
X0246928Y0135373D02*
X0221569Y0135373D01*
X0221569Y0134375D02*
X0246928Y0134375D01*
X0246928Y0133376D02*
X0221569Y0133376D01*
X0221569Y0132378D02*
X0246928Y0132378D01*
X0246928Y0131379D02*
X0221569Y0131379D01*
X0221569Y0130381D02*
X0247466Y0130381D01*
X0247237Y0129382D02*
X0221569Y0129382D01*
X0221569Y0128384D02*
X0246928Y0128384D01*
X0246928Y0127385D02*
X0222199Y0127385D01*
X0222375Y0126387D02*
X0247523Y0126387D01*
X0251178Y0126650D02*
X0252359Y0125469D01*
X0251178Y0126650D02*
X0251178Y0128028D01*
X0254833Y0126387D02*
X0255483Y0126387D01*
X0255483Y0127385D02*
X0255427Y0127385D01*
X0255427Y0128384D02*
X0255483Y0128384D01*
X0255483Y0129382D02*
X0255119Y0129382D01*
X0255483Y0125388D02*
X0254659Y0125388D01*
X0254533Y0124390D02*
X0255483Y0124390D01*
X0261414Y0124390D02*
X0277949Y0124390D01*
X0277949Y0125388D02*
X0261414Y0125388D01*
X0261414Y0126387D02*
X0277949Y0126387D01*
X0277949Y0126650D02*
X0277949Y0117988D01*
X0261414Y0117988D01*
X0261414Y0126650D01*
X0277949Y0126650D01*
X0277949Y0123391D02*
X0261414Y0123391D01*
X0261414Y0122393D02*
X0277949Y0122393D01*
X0277949Y0121394D02*
X0261414Y0121394D01*
X0261414Y0120396D02*
X0277949Y0120396D01*
X0277949Y0119397D02*
X0261414Y0119397D01*
X0261414Y0118399D02*
X0277949Y0118399D01*
X0296060Y0138067D02*
X0296847Y0138067D01*
X0298487Y0142363D02*
X0273948Y0142363D01*
X0272949Y0143361D02*
X0299485Y0143361D01*
X0300484Y0144360D02*
X0271951Y0144360D01*
X0261731Y0146357D02*
X0302481Y0146357D01*
X0301482Y0145358D02*
X0255427Y0145358D01*
X0255427Y0144360D02*
X0260720Y0144360D01*
X0259721Y0143361D02*
X0255427Y0143361D01*
X0255427Y0142363D02*
X0258723Y0142363D01*
X0260823Y0147713D02*
X0251178Y0147713D01*
X0251178Y0149681D02*
X0260036Y0149681D01*
X0260823Y0147713D02*
X0270075Y0156965D01*
X0285476Y0164330D02*
X0304359Y0164330D01*
X0303361Y0163332D02*
X0286474Y0163332D01*
X0288038Y0162333D02*
X0302393Y0162333D01*
X0302393Y0161335D02*
X0289037Y0161335D01*
X0289108Y0160336D02*
X0302393Y0160336D01*
X0302393Y0159338D02*
X0289087Y0159338D01*
X0288088Y0158339D02*
X0303021Y0158339D01*
X0308553Y0156342D02*
X0285983Y0156342D01*
X0282280Y0170350D02*
X0285627Y0173697D01*
X0285627Y0174287D01*
X0294131Y0182791D01*
X0297438Y0182791D01*
X0294167Y0180306D02*
X0293908Y0180306D01*
X0294367Y0179308D02*
X0292910Y0179308D01*
X0291911Y0178309D02*
X0294172Y0178309D01*
X0294172Y0177311D02*
X0290913Y0177311D01*
X0289914Y0176312D02*
X0294172Y0176312D01*
X0294172Y0175314D02*
X0288916Y0175314D01*
X0282280Y0186886D02*
X0285627Y0190232D01*
X0285627Y0190823D01*
X0286257Y0191453D01*
X0297438Y0191453D01*
X0282558Y0198611D02*
X0282558Y0200728D01*
X0281327Y0200728D01*
X0279980Y0202075D01*
X0279980Y0203980D01*
X0280093Y0204093D01*
X0276584Y0204093D01*
X0275912Y0203422D01*
X0275912Y0196728D01*
X0278294Y0194346D01*
X0282558Y0198611D01*
X0282227Y0198279D02*
X0275912Y0198279D01*
X0275912Y0197281D02*
X0281228Y0197281D01*
X0280230Y0196282D02*
X0276358Y0196282D01*
X0277356Y0195284D02*
X0279231Y0195284D01*
X0275912Y0199278D02*
X0282558Y0199278D01*
X0282558Y0200277D02*
X0275912Y0200277D01*
X0275912Y0201275D02*
X0280780Y0201275D01*
X0279980Y0202274D02*
X0275912Y0202274D01*
X0275912Y0203272D02*
X0279980Y0203272D01*
X0288892Y0201275D02*
X0289086Y0201275D01*
X0288695Y0215254D02*
X0293830Y0215254D01*
X0294172Y0216253D02*
X0288695Y0216253D01*
X0288695Y0217251D02*
X0294172Y0217251D01*
X0294172Y0218250D02*
X0288692Y0218250D01*
X0261483Y0197281D02*
X0256952Y0197281D01*
X0265283Y0193287D02*
X0267436Y0193287D01*
X0266085Y0192288D02*
X0265283Y0192288D01*
X0265283Y0191290D02*
X0265443Y0191290D01*
X0237005Y0176256D02*
X0237005Y0170350D01*
X0236020Y0169366D01*
X0236020Y0164839D01*
X0231583Y0158339D02*
X0224750Y0158339D01*
X0225112Y0157341D02*
X0231161Y0157341D01*
X0231161Y0156342D02*
X0225112Y0156342D01*
X0225112Y0155343D02*
X0231830Y0155343D01*
X0233818Y0154345D02*
X0225160Y0154345D01*
X0225919Y0153346D02*
X0234817Y0153346D01*
X0235815Y0152348D02*
X0225919Y0152348D01*
X0225587Y0151349D02*
X0236814Y0151349D01*
X0237812Y0150351D02*
X0224589Y0150351D01*
X0222649Y0150351D02*
X0221569Y0150351D01*
X0221569Y0151349D02*
X0221650Y0151349D01*
X0221569Y0149352D02*
X0238811Y0149352D01*
X0239809Y0148354D02*
X0221569Y0148354D01*
X0221569Y0147355D02*
X0240808Y0147355D01*
X0241806Y0146357D02*
X0221569Y0146357D01*
X0221569Y0145358D02*
X0242805Y0145358D01*
X0243803Y0144360D02*
X0221569Y0144360D01*
X0221569Y0143361D02*
X0246928Y0143361D01*
X0246928Y0142363D02*
X0221569Y0142363D01*
X0221569Y0141364D02*
X0246928Y0141364D01*
X0246928Y0140366D02*
X0221569Y0140366D01*
X0218582Y0140366D02*
X0216164Y0140366D01*
X0216164Y0141364D02*
X0218582Y0141364D01*
X0218582Y0142363D02*
X0216164Y0142363D01*
X0216164Y0143361D02*
X0218582Y0143361D01*
X0218582Y0144360D02*
X0216164Y0144360D01*
X0216164Y0145358D02*
X0218582Y0145358D01*
X0218582Y0146357D02*
X0216164Y0146357D01*
X0216164Y0147355D02*
X0218582Y0147355D01*
X0218582Y0148354D02*
X0216164Y0148354D01*
X0216164Y0149352D02*
X0218582Y0149352D01*
X0218582Y0150351D02*
X0216164Y0150351D01*
X0216142Y0151349D02*
X0218582Y0151349D01*
X0218582Y0152348D02*
X0215144Y0152348D01*
X0214145Y0153346D02*
X0218582Y0153346D01*
X0217868Y0154345D02*
X0213147Y0154345D01*
X0211611Y0153618D02*
X0214564Y0150665D01*
X0214564Y0126256D01*
X0206296Y0117988D01*
X0203540Y0117988D01*
X0200390Y0116807D02*
X0208658Y0108539D01*
X0206358Y0108577D02*
X0206358Y0107587D01*
X0206561Y0107383D01*
X0183376Y0107383D01*
X0155799Y0134961D01*
X0155868Y0135030D01*
X0155868Y0138427D01*
X0155033Y0139262D01*
X0156775Y0139262D01*
X0159767Y0136270D01*
X0202834Y0136270D01*
X0202834Y0133565D01*
X0200309Y0133565D01*
X0200309Y0134349D01*
X0199665Y0134994D01*
X0194620Y0134994D01*
X0193975Y0134349D01*
X0193975Y0129186D01*
X0194620Y0128542D01*
X0195242Y0128542D01*
X0195242Y0126329D01*
X0194941Y0126027D01*
X0194941Y0124122D01*
X0196288Y0122775D01*
X0198193Y0122775D01*
X0199541Y0124122D01*
X0199541Y0126027D01*
X0199042Y0126526D01*
X0199042Y0128542D01*
X0199665Y0128542D01*
X0200309Y0129186D01*
X0200309Y0130365D01*
X0203388Y0130365D01*
X0203478Y0130274D01*
X0210689Y0130274D01*
X0210995Y0130581D01*
X0210995Y0129412D01*
X0210689Y0129718D01*
X0203478Y0129718D01*
X0202834Y0129074D01*
X0202834Y0126981D01*
X0203304Y0126511D01*
X0199728Y0122935D01*
X0198790Y0121997D01*
X0198790Y0116144D01*
X0206358Y0108577D01*
X0206358Y0108413D02*
X0182346Y0108413D01*
X0183344Y0107415D02*
X0206530Y0107415D01*
X0205523Y0109412D02*
X0181347Y0109412D01*
X0180349Y0110410D02*
X0204524Y0110410D01*
X0203526Y0111409D02*
X0179350Y0111409D01*
X0178352Y0112408D02*
X0202527Y0112408D01*
X0201529Y0113406D02*
X0177353Y0113406D01*
X0176355Y0114405D02*
X0200530Y0114405D01*
X0199532Y0115403D02*
X0175356Y0115403D01*
X0174358Y0116402D02*
X0198790Y0116402D01*
X0198790Y0117400D02*
X0173359Y0117400D01*
X0172361Y0118399D02*
X0198790Y0118399D01*
X0198790Y0119397D02*
X0171362Y0119397D01*
X0170364Y0120396D02*
X0198790Y0120396D01*
X0198790Y0121394D02*
X0169365Y0121394D01*
X0168367Y0122393D02*
X0199186Y0122393D01*
X0198810Y0123391D02*
X0200184Y0123391D01*
X0199541Y0124390D02*
X0201183Y0124390D01*
X0202181Y0125388D02*
X0199541Y0125388D01*
X0199182Y0126387D02*
X0203180Y0126387D01*
X0202834Y0127385D02*
X0199042Y0127385D01*
X0199042Y0128384D02*
X0202834Y0128384D01*
X0203142Y0129382D02*
X0200309Y0129382D01*
X0197339Y0131965D02*
X0197142Y0131768D01*
X0197339Y0131965D02*
X0207083Y0131965D01*
X0210795Y0130381D02*
X0210995Y0130381D01*
X0212595Y0128224D02*
X0212595Y0149878D01*
X0210823Y0151650D01*
X0207083Y0151650D01*
X0207083Y0153618D02*
X0211611Y0153618D01*
X0211333Y0155343D02*
X0216988Y0155343D01*
X0216988Y0156342D02*
X0211333Y0156342D01*
X0211333Y0157341D02*
X0212904Y0157341D01*
X0212264Y0158339D02*
X0211333Y0158339D01*
X0207083Y0155587D02*
X0200095Y0155587D01*
X0197142Y0158539D01*
X0193975Y0158339D02*
X0183093Y0158339D01*
X0183093Y0157341D02*
X0193975Y0157341D01*
X0193975Y0156342D02*
X0183591Y0156342D01*
X0184589Y0155343D02*
X0194590Y0155343D01*
X0193975Y0159338D02*
X0183093Y0159338D01*
X0183093Y0160336D02*
X0193975Y0160336D01*
X0194189Y0161335D02*
X0183093Y0161335D01*
X0183093Y0162333D02*
X0198960Y0162333D01*
X0194476Y0163332D02*
X0183093Y0163332D01*
X0177924Y0163332D02*
X0175556Y0163332D01*
X0175219Y0162333D02*
X0177924Y0162333D01*
X0177924Y0161335D02*
X0175219Y0161335D01*
X0175219Y0160336D02*
X0177924Y0160336D01*
X0177924Y0159338D02*
X0175219Y0159338D01*
X0175219Y0158339D02*
X0177924Y0158339D01*
X0177924Y0157341D02*
X0175219Y0157341D01*
X0175219Y0156342D02*
X0177924Y0156342D01*
X0177924Y0155343D02*
X0175219Y0155343D01*
X0174246Y0154345D02*
X0177924Y0154345D01*
X0178911Y0153346D02*
X0173248Y0153346D01*
X0172249Y0152348D02*
X0179910Y0152348D01*
X0180908Y0151349D02*
X0171251Y0151349D01*
X0170252Y0150351D02*
X0181907Y0150351D01*
X0182905Y0149352D02*
X0169404Y0149352D01*
X0169404Y0148354D02*
X0183904Y0148354D01*
X0184902Y0147355D02*
X0169404Y0147355D01*
X0169404Y0146357D02*
X0185901Y0146357D01*
X0186899Y0145358D02*
X0168005Y0145358D01*
X0168438Y0144360D02*
X0187898Y0144360D01*
X0188776Y0145744D02*
X0179524Y0154996D01*
X0179524Y0230193D01*
X0173619Y0236098D01*
X0140548Y0236098D01*
X0130705Y0226256D01*
X0130705Y0211295D01*
X0137635Y0204366D01*
X0144564Y0204366D01*
X0144564Y0201807D02*
X0136257Y0201807D01*
X0127949Y0210114D01*
X0127949Y0226650D01*
X0139367Y0238067D01*
X0174800Y0238067D01*
X0181493Y0231374D01*
X0181493Y0156177D01*
X0189957Y0147713D01*
X0207083Y0147713D01*
X0207083Y0145744D02*
X0188776Y0145744D01*
X0190580Y0149352D02*
X0203427Y0149352D01*
X0203086Y0150351D02*
X0189582Y0150351D01*
X0188583Y0151349D02*
X0202834Y0151349D01*
X0202834Y0152348D02*
X0187585Y0152348D01*
X0186586Y0153346D02*
X0202834Y0153346D01*
X0199074Y0154345D02*
X0185588Y0154345D01*
X0173619Y0155980D02*
X0173619Y0163657D01*
X0176375Y0166413D01*
X0177717Y0168324D02*
X0177924Y0168324D01*
X0177924Y0169323D02*
X0161046Y0169323D01*
X0161046Y0170321D02*
X0177924Y0170321D01*
X0177924Y0171320D02*
X0161046Y0171320D01*
X0161046Y0172318D02*
X0177924Y0172318D01*
X0177924Y0173317D02*
X0161046Y0173317D01*
X0161046Y0174315D02*
X0177924Y0174315D01*
X0177924Y0175314D02*
X0161746Y0175314D01*
X0161746Y0176312D02*
X0177924Y0176312D01*
X0177924Y0177311D02*
X0161643Y0177311D01*
X0160645Y0178309D02*
X0177924Y0178309D01*
X0183093Y0178309D02*
X0185280Y0178309D01*
X0185078Y0178796D02*
X0185695Y0177307D01*
X0186835Y0176167D01*
X0188324Y0175550D01*
X0189937Y0175550D01*
X0191426Y0176167D01*
X0192566Y0177307D01*
X0193183Y0178796D01*
X0193183Y0180409D01*
X0192566Y0181898D01*
X0191426Y0183038D01*
X0189937Y0183655D01*
X0188324Y0183655D01*
X0186835Y0183038D01*
X0185695Y0181898D01*
X0185078Y0180409D01*
X0185078Y0178796D01*
X0185078Y0179308D02*
X0183093Y0179308D01*
X0183093Y0180306D02*
X0185078Y0180306D01*
X0185449Y0181305D02*
X0183093Y0181305D01*
X0183093Y0182303D02*
X0186100Y0182303D01*
X0187471Y0183302D02*
X0183093Y0183302D01*
X0183093Y0184300D02*
X0204320Y0184300D01*
X0204015Y0183302D02*
X0190790Y0183302D01*
X0192161Y0182303D02*
X0204015Y0182303D01*
X0204015Y0181305D02*
X0192812Y0181305D01*
X0193183Y0180306D02*
X0195405Y0180306D01*
X0194880Y0179308D02*
X0193183Y0179308D01*
X0192982Y0178309D02*
X0193882Y0178309D01*
X0192883Y0177311D02*
X0192568Y0177311D01*
X0191885Y0176312D02*
X0191572Y0176312D01*
X0190886Y0175314D02*
X0183093Y0175314D01*
X0183093Y0176312D02*
X0186689Y0176312D01*
X0185693Y0177311D02*
X0183093Y0177311D01*
X0183093Y0174315D02*
X0189888Y0174315D01*
X0188889Y0173317D02*
X0183093Y0173317D01*
X0183093Y0172318D02*
X0187891Y0172318D01*
X0186892Y0171320D02*
X0183093Y0171320D01*
X0183093Y0170321D02*
X0185894Y0170321D01*
X0184895Y0169323D02*
X0183093Y0169323D01*
X0187424Y0167326D02*
X0193975Y0167326D01*
X0193975Y0168324D02*
X0188422Y0168324D01*
X0189421Y0169323D02*
X0194303Y0169323D01*
X0195242Y0170321D02*
X0190419Y0170321D01*
X0191418Y0171320D02*
X0195242Y0171320D01*
X0194941Y0172318D02*
X0192416Y0172318D01*
X0193415Y0173317D02*
X0194941Y0173317D01*
X0195197Y0174315D02*
X0194413Y0174315D01*
X0195412Y0175314D02*
X0195446Y0175314D01*
X0203065Y0179308D02*
X0204015Y0179308D01*
X0204015Y0180306D02*
X0203014Y0180306D01*
X0224209Y0174524D02*
X0224209Y0164839D01*
X0233461Y0156965D02*
X0244682Y0145744D01*
X0251178Y0145744D01*
X0218582Y0139367D02*
X0216164Y0139367D01*
X0216164Y0138369D02*
X0218582Y0138369D01*
X0218582Y0137370D02*
X0216164Y0137370D01*
X0216164Y0136372D02*
X0218582Y0136372D01*
X0218582Y0135373D02*
X0216164Y0135373D01*
X0216164Y0134375D02*
X0218582Y0134375D01*
X0218582Y0133376D02*
X0216164Y0133376D01*
X0216164Y0132378D02*
X0218582Y0132378D01*
X0218582Y0131379D02*
X0216164Y0131379D01*
X0216164Y0130381D02*
X0218582Y0130381D01*
X0218582Y0129382D02*
X0216164Y0129382D01*
X0216164Y0128384D02*
X0218582Y0128384D01*
X0217952Y0127385D02*
X0216164Y0127385D01*
X0216164Y0126387D02*
X0217775Y0126387D01*
X0217775Y0125388D02*
X0215959Y0125388D01*
X0212595Y0128224D02*
X0206296Y0121925D01*
X0200390Y0121335D02*
X0200390Y0116807D01*
X0200390Y0121335D02*
X0207083Y0128028D01*
X0202834Y0134375D02*
X0200284Y0134375D01*
X0202834Y0135373D02*
X0155868Y0135373D01*
X0155868Y0136372D02*
X0159665Y0136372D01*
X0158667Y0137370D02*
X0155868Y0137370D01*
X0155868Y0138369D02*
X0157668Y0138369D01*
X0157438Y0140862D02*
X0138225Y0140862D01*
X0128343Y0130980D01*
X0128343Y0095154D01*
X0136375Y0087122D01*
X0143894Y0087122D01*
X0143894Y0084563D02*
X0135390Y0084563D01*
X0125587Y0094366D01*
X0125587Y0130587D01*
X0137595Y0142594D01*
X0159642Y0142594D01*
X0162398Y0139839D01*
X0207083Y0139839D01*
X0207083Y0137870D02*
X0160430Y0137870D01*
X0157438Y0140862D01*
X0155198Y0144360D02*
X0163838Y0144360D01*
X0163838Y0143361D02*
X0161138Y0143361D01*
X0162137Y0142363D02*
X0164495Y0142363D01*
X0166138Y0143972D02*
X0166138Y0148500D01*
X0173619Y0155980D01*
X0171718Y0156342D02*
X0169404Y0156342D01*
X0169404Y0157341D02*
X0172019Y0157341D01*
X0172019Y0158339D02*
X0165255Y0158339D01*
X0164257Y0159338D02*
X0172019Y0159338D01*
X0172019Y0160336D02*
X0163258Y0160336D01*
X0162260Y0161335D02*
X0172019Y0161335D01*
X0172019Y0162333D02*
X0161261Y0162333D01*
X0161585Y0163332D02*
X0172019Y0163332D01*
X0172029Y0164330D02*
X0161746Y0164330D01*
X0161746Y0165329D02*
X0173027Y0165329D01*
X0174026Y0166327D02*
X0161046Y0166327D01*
X0161046Y0167326D02*
X0174075Y0167326D01*
X0175033Y0168324D02*
X0161046Y0168324D01*
X0157846Y0168324D02*
X0155868Y0168324D01*
X0155868Y0168427D02*
X0153467Y0170828D01*
X0150070Y0170828D01*
X0147668Y0168427D01*
X0147668Y0165030D01*
X0150070Y0162628D01*
X0153467Y0162628D01*
X0155868Y0165030D01*
X0155868Y0168427D01*
X0155868Y0167326D02*
X0157846Y0167326D01*
X0157846Y0166327D02*
X0155868Y0166327D01*
X0155868Y0165329D02*
X0157146Y0165329D01*
X0157146Y0164330D02*
X0155168Y0164330D01*
X0154170Y0163332D02*
X0157306Y0163332D01*
X0157846Y0162333D02*
X0122720Y0162333D01*
X0122720Y0161335D02*
X0157846Y0161335D01*
X0158733Y0160336D02*
X0153959Y0160336D01*
X0153467Y0160828D02*
X0150070Y0160828D01*
X0147668Y0158427D01*
X0147668Y0158328D01*
X0145868Y0158328D01*
X0145868Y0158427D01*
X0143467Y0160828D01*
X0140070Y0160828D01*
X0137668Y0158427D01*
X0137668Y0155030D01*
X0140070Y0152628D01*
X0143467Y0152628D01*
X0145868Y0155030D01*
X0145868Y0155128D01*
X0147668Y0155128D01*
X0147668Y0155030D01*
X0150070Y0152628D01*
X0153467Y0152628D01*
X0155868Y0155030D01*
X0155868Y0158427D01*
X0153467Y0160828D01*
X0154957Y0159338D02*
X0159731Y0159338D01*
X0158783Y0160286D02*
X0158783Y0160286D01*
X0159446Y0161886D02*
X0159446Y0164445D01*
X0159446Y0176256D01*
X0157146Y0176312D02*
X0122720Y0176312D01*
X0122720Y0175314D02*
X0157146Y0175314D01*
X0157846Y0174315D02*
X0122720Y0174315D01*
X0122720Y0173317D02*
X0157846Y0173317D01*
X0157846Y0172318D02*
X0122720Y0172318D01*
X0122720Y0171320D02*
X0157846Y0171320D01*
X0157846Y0170321D02*
X0153974Y0170321D01*
X0154972Y0169323D02*
X0157846Y0169323D01*
X0149563Y0170321D02*
X0122720Y0170321D01*
X0122720Y0169323D02*
X0148564Y0169323D01*
X0147668Y0168324D02*
X0122720Y0168324D01*
X0122720Y0167326D02*
X0147668Y0167326D01*
X0147668Y0166327D02*
X0122720Y0166327D01*
X0122720Y0165329D02*
X0147668Y0165329D01*
X0148368Y0164330D02*
X0122720Y0164330D01*
X0122720Y0163332D02*
X0149367Y0163332D01*
X0149578Y0160336D02*
X0143959Y0160336D01*
X0144957Y0159338D02*
X0148579Y0159338D01*
X0147668Y0158339D02*
X0145868Y0158339D01*
X0141768Y0156728D02*
X0151768Y0156728D01*
X0155868Y0156342D02*
X0162727Y0156342D01*
X0162873Y0155343D02*
X0155868Y0155343D01*
X0155183Y0154345D02*
X0162873Y0154345D01*
X0162873Y0153346D02*
X0154185Y0153346D01*
X0153944Y0150351D02*
X0162873Y0150351D01*
X0162873Y0149352D02*
X0154943Y0149352D01*
X0155868Y0148354D02*
X0162873Y0148354D01*
X0162873Y0147355D02*
X0155868Y0147355D01*
X0155868Y0146357D02*
X0162873Y0146357D01*
X0164272Y0145358D02*
X0155868Y0145358D01*
X0151768Y0146728D02*
X0141768Y0146728D01*
X0137668Y0146357D02*
X0122720Y0146357D01*
X0122720Y0147355D02*
X0137668Y0147355D01*
X0137668Y0148354D02*
X0122720Y0148354D01*
X0122720Y0149352D02*
X0138594Y0149352D01*
X0139593Y0150351D02*
X0122720Y0150351D01*
X0122720Y0151349D02*
X0163298Y0151349D01*
X0163294Y0152348D02*
X0122720Y0152348D01*
X0122720Y0153346D02*
X0139352Y0153346D01*
X0138353Y0154345D02*
X0122720Y0154345D01*
X0122720Y0155343D02*
X0137668Y0155343D01*
X0137668Y0156342D02*
X0122720Y0156342D01*
X0122720Y0157341D02*
X0137668Y0157341D01*
X0137668Y0158339D02*
X0122720Y0158339D01*
X0122720Y0159338D02*
X0138579Y0159338D01*
X0139578Y0160336D02*
X0122720Y0160336D01*
X0122720Y0145358D02*
X0137668Y0145358D01*
X0138339Y0144360D02*
X0122720Y0144360D01*
X0122720Y0143361D02*
X0136099Y0143361D01*
X0135101Y0142363D02*
X0122720Y0142363D01*
X0122720Y0141364D02*
X0134102Y0141364D01*
X0133104Y0140366D02*
X0122720Y0140366D01*
X0122720Y0139367D02*
X0132105Y0139367D01*
X0131107Y0138369D02*
X0122720Y0138369D01*
X0122720Y0137370D02*
X0130108Y0137370D01*
X0129110Y0136372D02*
X0122720Y0136372D01*
X0122720Y0135373D02*
X0128111Y0135373D01*
X0127113Y0134375D02*
X0122720Y0134375D01*
X0122720Y0133376D02*
X0126114Y0133376D01*
X0125116Y0132378D02*
X0122720Y0132378D01*
X0122720Y0131379D02*
X0124117Y0131379D01*
X0123987Y0130381D02*
X0122720Y0130381D01*
X0122720Y0129382D02*
X0123987Y0129382D01*
X0123987Y0128384D02*
X0122720Y0128384D01*
X0122720Y0127385D02*
X0123987Y0127385D01*
X0123987Y0126387D02*
X0122720Y0126387D01*
X0122720Y0125388D02*
X0123987Y0125388D01*
X0123987Y0124390D02*
X0122720Y0124390D01*
X0122720Y0123391D02*
X0123987Y0123391D01*
X0123987Y0122393D02*
X0122720Y0122393D01*
X0122720Y0121394D02*
X0123987Y0121394D01*
X0123987Y0120396D02*
X0122720Y0120396D01*
X0122720Y0119397D02*
X0123987Y0119397D01*
X0123987Y0118399D02*
X0122720Y0118399D01*
X0122720Y0117400D02*
X0123987Y0117400D01*
X0123987Y0116402D02*
X0122720Y0116402D01*
X0122720Y0115403D02*
X0123987Y0115403D01*
X0123987Y0114405D02*
X0122720Y0114405D01*
X0122720Y0113406D02*
X0123987Y0113406D01*
X0123987Y0112408D02*
X0122720Y0112408D01*
X0122720Y0111409D02*
X0123987Y0111409D01*
X0123987Y0110410D02*
X0122720Y0110410D01*
X0122720Y0109412D02*
X0123987Y0109412D01*
X0123987Y0108413D02*
X0122720Y0108413D01*
X0122720Y0107415D02*
X0123987Y0107415D01*
X0123987Y0106416D02*
X0122720Y0106416D01*
X0122720Y0105418D02*
X0123987Y0105418D01*
X0123987Y0104419D02*
X0122720Y0104419D01*
X0122720Y0103421D02*
X0123987Y0103421D01*
X0123987Y0102422D02*
X0122720Y0102422D01*
X0122720Y0101424D02*
X0123987Y0101424D01*
X0123987Y0100425D02*
X0122720Y0100425D01*
X0122720Y0099427D02*
X0123987Y0099427D01*
X0123987Y0098428D02*
X0122720Y0098428D01*
X0122720Y0097430D02*
X0123987Y0097430D01*
X0123987Y0096431D02*
X0122683Y0096431D01*
X0122269Y0095433D02*
X0123987Y0095433D01*
X0123987Y0094434D02*
X0123057Y0094434D01*
X0124056Y0093436D02*
X0124255Y0093436D01*
X0125054Y0092437D02*
X0125253Y0092437D01*
X0126053Y0091439D02*
X0126252Y0091439D01*
X0127051Y0090440D02*
X0127250Y0090440D01*
X0128050Y0089442D02*
X0128249Y0089442D01*
X0129048Y0088443D02*
X0129247Y0088443D01*
X0130047Y0087445D02*
X0130246Y0087445D01*
X0131046Y0086446D02*
X0131244Y0086446D01*
X0132044Y0085448D02*
X0132243Y0085448D01*
X0133043Y0084449D02*
X0133241Y0084449D01*
X0131778Y0083451D02*
X0113668Y0083451D01*
X0112670Y0084449D02*
X0130780Y0084449D01*
X0129781Y0085448D02*
X0111671Y0085448D01*
X0110673Y0086446D02*
X0128783Y0086446D01*
X0127784Y0087445D02*
X0109674Y0087445D01*
X0108676Y0088443D02*
X0126786Y0088443D01*
X0125787Y0089442D02*
X0097635Y0089442D01*
X0097635Y0090440D02*
X0124789Y0090440D01*
X0123790Y0091439D02*
X0097635Y0091439D01*
X0097635Y0092437D02*
X0122792Y0092437D01*
X0121793Y0093436D02*
X0097635Y0093436D01*
X0097635Y0094434D02*
X0120795Y0094434D01*
X0119796Y0095433D02*
X0097635Y0095433D01*
X0097635Y0096431D02*
X0118798Y0096431D01*
X0117799Y0097430D02*
X0097635Y0097430D01*
X0097635Y0099484D02*
X0097635Y0108933D01*
X0109446Y0108933D01*
X0109446Y0099484D01*
X0097635Y0099484D01*
X0097635Y0100425D02*
X0109446Y0100425D01*
X0109446Y0101424D02*
X0097635Y0101424D01*
X0097635Y0102422D02*
X0109446Y0102422D01*
X0109446Y0103421D02*
X0097635Y0103421D01*
X0097635Y0104419D02*
X0109446Y0104419D01*
X0109446Y0105418D02*
X0097635Y0105418D01*
X0097635Y0106416D02*
X0109446Y0106416D01*
X0109446Y0107415D02*
X0097635Y0107415D01*
X0097635Y0108413D02*
X0109446Y0108413D01*
X0111046Y0108413D02*
X0111920Y0108413D01*
X0111920Y0107415D02*
X0111046Y0107415D01*
X0111046Y0106416D02*
X0111920Y0106416D01*
X0111920Y0105418D02*
X0111046Y0105418D01*
X0111046Y0104419D02*
X0111920Y0104419D01*
X0111920Y0103421D02*
X0111046Y0103421D01*
X0111046Y0102422D02*
X0111920Y0102422D01*
X0111920Y0101424D02*
X0111046Y0101424D01*
X0111046Y0100425D02*
X0111920Y0100425D01*
X0111515Y0099427D02*
X0111046Y0099427D01*
X0111046Y0109412D02*
X0111920Y0109412D01*
X0111920Y0110410D02*
X0110231Y0110410D01*
X0129943Y0111409D02*
X0164825Y0111409D01*
X0165823Y0110410D02*
X0153144Y0110410D01*
X0154143Y0109412D02*
X0166822Y0109412D01*
X0167821Y0108413D02*
X0155141Y0108413D01*
X0156140Y0107415D02*
X0168819Y0107415D01*
X0169818Y0106416D02*
X0157138Y0106416D01*
X0158137Y0105418D02*
X0170816Y0105418D01*
X0171815Y0104419D02*
X0159135Y0104419D01*
X0160134Y0103421D02*
X0172813Y0103421D01*
X0173812Y0102422D02*
X0161132Y0102422D01*
X0170349Y0110410D02*
X0175823Y0110410D01*
X0174825Y0111409D02*
X0169350Y0111409D01*
X0168352Y0112408D02*
X0173826Y0112408D01*
X0172828Y0113406D02*
X0167353Y0113406D01*
X0166355Y0114405D02*
X0171829Y0114405D01*
X0170831Y0115403D02*
X0165356Y0115403D01*
X0164358Y0116402D02*
X0169832Y0116402D01*
X0168834Y0117400D02*
X0163359Y0117400D01*
X0162361Y0118399D02*
X0167835Y0118399D01*
X0166837Y0119397D02*
X0161362Y0119397D01*
X0160364Y0120396D02*
X0165838Y0120396D01*
X0164840Y0121394D02*
X0159365Y0121394D01*
X0158367Y0122393D02*
X0163841Y0122393D01*
X0162843Y0123391D02*
X0157368Y0123391D01*
X0156370Y0124390D02*
X0161844Y0124390D01*
X0160846Y0125388D02*
X0155868Y0125388D01*
X0155868Y0126387D02*
X0159847Y0126387D01*
X0158849Y0127385D02*
X0155868Y0127385D01*
X0155868Y0128384D02*
X0157850Y0128384D01*
X0156852Y0129382D02*
X0154913Y0129382D01*
X0155853Y0130381D02*
X0153914Y0130381D01*
X0154855Y0131379D02*
X0131005Y0131379D01*
X0130006Y0130381D02*
X0139622Y0130381D01*
X0138624Y0129382D02*
X0129943Y0129382D01*
X0129943Y0128384D02*
X0137668Y0128384D01*
X0137668Y0127385D02*
X0129943Y0127385D01*
X0129943Y0126387D02*
X0137668Y0126387D01*
X0137668Y0125388D02*
X0129943Y0125388D01*
X0129943Y0124390D02*
X0138309Y0124390D01*
X0139307Y0123391D02*
X0129943Y0123391D01*
X0129943Y0122393D02*
X0153841Y0122393D01*
X0154840Y0121394D02*
X0129943Y0121394D01*
X0129943Y0120396D02*
X0155838Y0120396D01*
X0156837Y0119397D02*
X0129943Y0119397D01*
X0129943Y0118399D02*
X0157835Y0118399D01*
X0158834Y0117400D02*
X0129943Y0117400D01*
X0129943Y0116402D02*
X0159832Y0116402D01*
X0160831Y0115403D02*
X0129943Y0115403D01*
X0129943Y0114405D02*
X0161829Y0114405D01*
X0162828Y0113406D02*
X0129943Y0113406D01*
X0129943Y0112408D02*
X0163826Y0112408D01*
X0171347Y0109412D02*
X0176822Y0109412D01*
X0177821Y0108413D02*
X0172346Y0108413D01*
X0173344Y0107415D02*
X0178819Y0107415D01*
X0179818Y0106416D02*
X0174343Y0106416D01*
X0175342Y0105418D02*
X0180816Y0105418D01*
X0182713Y0105783D02*
X0151768Y0136728D01*
X0141768Y0136728D01*
X0137668Y0136372D02*
X0135997Y0136372D01*
X0134999Y0135373D02*
X0137668Y0135373D01*
X0138324Y0134375D02*
X0134000Y0134375D01*
X0133002Y0133376D02*
X0139322Y0133376D01*
X0144215Y0133376D02*
X0149322Y0133376D01*
X0148324Y0134375D02*
X0145213Y0134375D01*
X0143914Y0130381D02*
X0149622Y0130381D01*
X0148624Y0129382D02*
X0144913Y0129382D01*
X0145868Y0128384D02*
X0147668Y0128384D01*
X0148309Y0124390D02*
X0145228Y0124390D01*
X0144229Y0123391D02*
X0149307Y0123391D01*
X0151768Y0126728D02*
X0141768Y0126728D01*
X0132003Y0132378D02*
X0153856Y0132378D01*
X0156385Y0134375D02*
X0194001Y0134375D01*
X0193975Y0133376D02*
X0157383Y0133376D01*
X0158382Y0132378D02*
X0193975Y0132378D01*
X0193975Y0131379D02*
X0159380Y0131379D01*
X0160379Y0130381D02*
X0193975Y0130381D01*
X0193975Y0129382D02*
X0161377Y0129382D01*
X0162376Y0128384D02*
X0195242Y0128384D01*
X0195242Y0127385D02*
X0163374Y0127385D01*
X0164373Y0126387D02*
X0195242Y0126387D01*
X0194941Y0125388D02*
X0165371Y0125388D01*
X0166370Y0124390D02*
X0194941Y0124390D01*
X0195672Y0123391D02*
X0167368Y0123391D01*
X0151768Y0126728D02*
X0174682Y0103815D01*
X0211414Y0103815D01*
X0218304Y0110705D01*
X0216335Y0111886D02*
X0210233Y0105783D01*
X0182713Y0105783D01*
X0213383Y0114839D02*
X0214367Y0115823D01*
X0214367Y0120744D01*
X0216335Y0120744D02*
X0216335Y0111886D01*
X0216335Y0116610D02*
X0216335Y0120744D01*
X0202834Y0142363D02*
X0167782Y0142363D01*
X0168438Y0143361D02*
X0202834Y0143361D01*
X0210739Y0149352D02*
X0210858Y0149352D01*
X0177924Y0164330D02*
X0177544Y0164330D01*
X0170719Y0155343D02*
X0169404Y0155343D01*
X0169404Y0154345D02*
X0169721Y0154345D01*
X0166138Y0155193D02*
X0159446Y0161886D01*
X0160730Y0158339D02*
X0155868Y0158339D01*
X0155868Y0157341D02*
X0161728Y0157341D01*
X0149352Y0153346D02*
X0144185Y0153346D01*
X0145183Y0154345D02*
X0148353Y0154345D01*
X0149593Y0150351D02*
X0143944Y0150351D01*
X0144943Y0149352D02*
X0148594Y0149352D01*
X0147668Y0148354D02*
X0145868Y0148354D01*
X0137668Y0137370D02*
X0136996Y0137370D01*
X0122720Y0177311D02*
X0157248Y0177311D01*
X0158246Y0178309D02*
X0122720Y0178309D01*
X0122720Y0179308D02*
X0139958Y0179308D01*
X0139735Y0180306D02*
X0122720Y0180306D01*
X0122720Y0181305D02*
X0139735Y0181305D01*
X0139735Y0182303D02*
X0122720Y0182303D01*
X0122720Y0183302D02*
X0139735Y0183302D01*
X0139735Y0184300D02*
X0122720Y0184300D01*
X0122720Y0185299D02*
X0139735Y0185299D01*
X0139735Y0186297D02*
X0122720Y0186297D01*
X0122720Y0187296D02*
X0139735Y0187296D01*
X0139735Y0188294D02*
X0122720Y0188294D01*
X0123033Y0189293D02*
X0139735Y0189293D01*
X0133527Y0202274D02*
X0130179Y0202274D01*
X0129180Y0203272D02*
X0132529Y0203272D01*
X0131530Y0204271D02*
X0128182Y0204271D01*
X0127183Y0205269D02*
X0130532Y0205269D01*
X0129533Y0206268D02*
X0126185Y0206268D01*
X0125186Y0207266D02*
X0128535Y0207266D01*
X0127536Y0208265D02*
X0124188Y0208265D01*
X0123189Y0209263D02*
X0126538Y0209263D01*
X0126349Y0210262D02*
X0122191Y0210262D01*
X0121192Y0211260D02*
X0126349Y0211260D01*
X0126349Y0212259D02*
X0120194Y0212259D01*
X0119195Y0213257D02*
X0126349Y0213257D01*
X0126349Y0214256D02*
X0118197Y0214256D01*
X0117198Y0215254D02*
X0126349Y0215254D01*
X0126349Y0216253D02*
X0116200Y0216253D01*
X0128270Y0229233D02*
X0093835Y0229233D01*
X0093835Y0230232D02*
X0129269Y0230232D01*
X0130267Y0231230D02*
X0093835Y0231230D01*
X0093883Y0232229D02*
X0131266Y0232229D01*
X0132265Y0233227D02*
X0093939Y0233227D01*
X0094155Y0234226D02*
X0133263Y0234226D01*
X0134262Y0235224D02*
X0094383Y0235224D01*
X0094611Y0236223D02*
X0135260Y0236223D01*
X0136259Y0237221D02*
X0094882Y0237221D01*
X0095363Y0238220D02*
X0137257Y0238220D01*
X0138256Y0239218D02*
X0095844Y0239218D01*
X0096325Y0240217D02*
X0361936Y0240217D01*
X0362417Y0239218D02*
X0175911Y0239218D01*
X0176910Y0238220D02*
X0362898Y0238220D01*
X0363379Y0237221D02*
X0318381Y0237221D01*
X0319379Y0236223D02*
X0363650Y0236223D01*
X0363878Y0235224D02*
X0320378Y0235224D01*
X0321376Y0234226D02*
X0364106Y0234226D01*
X0364322Y0233227D02*
X0322375Y0233227D01*
X0323373Y0232229D02*
X0338182Y0232229D01*
X0336602Y0231230D02*
X0334483Y0231230D01*
X0334483Y0230232D02*
X0335865Y0230232D01*
X0331650Y0228382D02*
X0331414Y0228618D01*
X0328346Y0228235D02*
X0327790Y0228235D01*
X0327790Y0229233D02*
X0328346Y0229233D01*
X0328346Y0230232D02*
X0327790Y0230232D01*
X0327790Y0231230D02*
X0328346Y0231230D01*
X0328346Y0227236D02*
X0327790Y0227236D01*
X0327790Y0226238D02*
X0328346Y0226238D01*
X0340788Y0232229D02*
X0364378Y0232229D01*
X0361235Y0241215D02*
X0097026Y0241215D01*
X0097823Y0242214D02*
X0360438Y0242214D01*
X0359642Y0243212D02*
X0098619Y0243212D01*
X0099728Y0244211D02*
X0358533Y0244211D01*
X0357281Y0245210D02*
X0100980Y0245210D01*
X0102465Y0246208D02*
X0355796Y0246208D01*
X0353723Y0247207D02*
X0104538Y0247207D01*
X0108019Y0248205D02*
X0350243Y0248205D01*
X0255115Y0228224D02*
X0254721Y0227831D01*
X0227137Y0181305D02*
X0226941Y0181305D01*
X0166556Y0220247D02*
X0161418Y0220247D01*
X0160420Y0221245D02*
X0164968Y0221245D01*
X0163969Y0222244D02*
X0159421Y0222244D01*
X0158423Y0223242D02*
X0163165Y0223242D01*
X0162751Y0224241D02*
X0157424Y0224241D01*
X0156426Y0225239D02*
X0162338Y0225239D01*
X0162086Y0226238D02*
X0155427Y0226238D01*
X0154429Y0227236D02*
X0162086Y0227236D01*
X0162086Y0228235D02*
X0134947Y0228235D01*
X0135946Y0229233D02*
X0162171Y0229233D01*
X0162585Y0230232D02*
X0136944Y0230232D01*
X0137943Y0231230D02*
X0162999Y0231230D01*
X0163568Y0232229D02*
X0138941Y0232229D01*
X0139940Y0233227D02*
X0164567Y0233227D01*
X0165587Y0234226D02*
X0140938Y0234226D01*
X0318611Y0154345D02*
X0320550Y0154345D01*
X0319610Y0153346D02*
X0321549Y0153346D01*
X0230100Y0091439D02*
X0225219Y0091439D01*
X0225219Y0090440D02*
X0227690Y0090440D01*
X0226537Y0089442D02*
X0225219Y0089442D01*
X0225219Y0088443D02*
X0225539Y0088443D01*
X0223619Y0062870D02*
X0223619Y0044760D01*
X0222831Y0043972D01*
X0147604Y0039516D02*
X0102171Y0039516D01*
X0100803Y0040515D02*
X0146605Y0040515D01*
X0145607Y0041513D02*
X0099551Y0041513D01*
X0098506Y0042512D02*
X0144608Y0042512D01*
X0143610Y0043510D02*
X0097710Y0043510D01*
X0096913Y0044509D02*
X0142611Y0044509D01*
X0141613Y0045507D02*
X0096257Y0045507D01*
X0095776Y0046506D02*
X0140614Y0046506D01*
X0139616Y0047504D02*
X0095295Y0047504D01*
X0094814Y0048503D02*
X0138617Y0048503D01*
X0137619Y0049501D02*
X0094579Y0049501D01*
X0094351Y0050500D02*
X0136620Y0050500D01*
X0135621Y0051498D02*
X0094123Y0051498D01*
X0093931Y0052497D02*
X0134623Y0052497D01*
X0133624Y0053495D02*
X0093875Y0053495D01*
X0093835Y0054494D02*
X0132626Y0054494D01*
X0131627Y0055492D02*
X0093835Y0055492D01*
X0093835Y0056491D02*
X0130629Y0056491D01*
X0129630Y0057489D02*
X0093835Y0057489D01*
X0093835Y0058488D02*
X0128632Y0058488D01*
X0127633Y0059486D02*
X0093835Y0059486D01*
X0093835Y0060485D02*
X0127030Y0060485D01*
X0111020Y0072467D02*
X0103374Y0072467D01*
X0096035Y0070470D02*
X0093835Y0070470D01*
X0093835Y0069472D02*
X0096035Y0069472D01*
X0096035Y0068473D02*
X0093835Y0068473D01*
X0093835Y0067474D02*
X0096035Y0067474D01*
X0096035Y0066476D02*
X0093835Y0066476D01*
X0093835Y0065477D02*
X0096035Y0065477D01*
X0096035Y0064479D02*
X0093835Y0064479D01*
X0093835Y0063480D02*
X0096035Y0063480D01*
X0096035Y0062482D02*
X0093835Y0062482D01*
X0093835Y0061483D02*
X0096758Y0061483D01*
X0094870Y0083451D02*
X0093835Y0083451D01*
X0093835Y0084449D02*
X0093871Y0084449D01*
D34*
X0107871Y0081768D03*
X0107871Y0078224D03*
X0112595Y0078224D03*
X0109839Y0071138D03*
X0105902Y0071138D03*
X0105902Y0067594D03*
X0105902Y0064051D03*
X0109839Y0064051D03*
X0109839Y0067594D03*
X0113776Y0049878D03*
X0120469Y0049484D03*
X0149603Y0064445D03*
X0149603Y0067988D03*
X0154327Y0067988D03*
X0154327Y0071531D03*
X0154327Y0075469D03*
X0149603Y0071531D03*
X0176375Y0073106D03*
X0178343Y0077043D03*
X0177556Y0095547D03*
X0154721Y0096728D03*
X0154721Y0100272D03*
X0154721Y0103815D03*
X0150784Y0103815D03*
X0150784Y0107358D03*
X0150784Y0100272D03*
X0137398Y0096335D03*
X0137398Y0092791D03*
X0133461Y0096335D03*
X0108264Y0100665D03*
X0104721Y0100665D03*
X0104721Y0104209D03*
X0104721Y0107752D03*
X0108264Y0107752D03*
X0108264Y0104209D03*
X0100390Y0116020D03*
X0151572Y0116020D03*
X0151572Y0119957D03*
X0156296Y0116020D03*
X0178737Y0117988D03*
X0177162Y0129406D03*
X0185430Y0131374D03*
X0197241Y0125075D03*
X0200784Y0128224D03*
X0206296Y0121925D03*
X0203540Y0117988D03*
X0213383Y0114839D03*
X0208658Y0108539D03*
X0224406Y0114839D03*
X0235036Y0109720D03*
X0240154Y0112870D03*
X0253540Y0112870D03*
X0252359Y0125469D03*
X0243304Y0129406D03*
X0262989Y0125469D03*
X0266926Y0125469D03*
X0270075Y0133343D03*
X0256690Y0144760D03*
X0245272Y0150272D03*
X0239760Y0156571D03*
X0233461Y0156965D03*
X0231099Y0154209D03*
X0223619Y0152634D03*
X0219288Y0156177D03*
X0214564Y0158933D03*
X0206296Y0166020D03*
X0197241Y0173106D03*
X0184249Y0166413D03*
X0176375Y0166413D03*
X0176768Y0158933D03*
X0185823Y0158539D03*
X0199603Y0150665D03*
X0166138Y0143972D03*
X0159446Y0164445D03*
X0159446Y0176256D03*
X0150784Y0182949D03*
X0150784Y0186886D03*
X0150784Y0190823D03*
X0155115Y0190823D03*
X0155115Y0186886D03*
X0155115Y0194760D03*
X0151572Y0199484D03*
X0151572Y0203028D03*
X0151572Y0206571D03*
X0156296Y0213657D03*
X0156296Y0217201D03*
X0151965Y0217201D03*
X0151965Y0221138D03*
X0151965Y0225075D03*
X0156296Y0221138D03*
X0201572Y0223106D03*
X0216138Y0195547D03*
X0228737Y0183343D03*
X0225981Y0179012D03*
X0237005Y0176256D03*
X0250784Y0169563D03*
X0247635Y0165232D03*
X0259839Y0155783D03*
X0264564Y0159327D03*
X0267320Y0166020D03*
X0270075Y0174287D03*
X0260233Y0181374D03*
X0282280Y0178618D03*
X0290942Y0174287D03*
X0282280Y0170350D03*
X0286808Y0160311D03*
X0296847Y0151059D03*
X0320469Y0128224D03*
X0298816Y0126256D03*
X0298816Y0122713D03*
X0298816Y0119169D03*
X0298816Y0115626D03*
X0298816Y0112083D03*
X0298816Y0108539D03*
X0303146Y0095154D03*
X0309052Y0095547D03*
X0279918Y0110508D03*
X0276768Y0093579D03*
X0251572Y0099484D03*
X0214957Y0093185D03*
X0220075Y0126256D03*
X0212989Y0176256D03*
X0255509Y0199091D03*
X0278343Y0203028D03*
X0282280Y0203028D03*
X0291335Y0204209D03*
X0290942Y0199878D03*
X0282280Y0186886D03*
X0282280Y0211295D03*
X0262595Y0222713D03*
X0263776Y0228224D03*
X0259446Y0228224D03*
X0255115Y0228224D03*
X0301965Y0230193D03*
X0349603Y0238461D03*
X0354721Y0234917D03*
X0356690Y0195941D03*
X0349997Y0187673D03*
X0344091Y0161295D03*
X0346453Y0129012D03*
X0349209Y0100665D03*
X0277162Y0066807D03*
X0278343Y0053815D03*
X0338186Y0043185D03*
X0212201Y0055783D03*
X0206690Y0055783D03*
X0106296Y0163657D03*
X0098422Y0176650D03*
X0106296Y0181768D03*
X0106296Y0185311D03*
X0109839Y0185311D03*
X0109839Y0181768D03*
X0109839Y0188854D03*
X0106296Y0188854D03*
X0107083Y0195547D03*
X0107083Y0199091D03*
X0111020Y0195547D03*
X0110233Y0217988D03*
X0106296Y0217988D03*
X0106296Y0221531D03*
X0106296Y0225075D03*
X0110233Y0225075D03*
X0110233Y0221531D03*
D35*
X0197142Y0173008D02*
X0197142Y0166413D01*
X0197241Y0166413D01*
X0197142Y0173008D02*
X0197241Y0173106D01*
X0250784Y0174780D02*
X0250784Y0169563D01*
X0266926Y0184524D02*
X0270863Y0184524D01*
X0274406Y0180980D01*
X0274406Y0165232D01*
X0285430Y0154209D01*
X0302949Y0154209D01*
X0306493Y0150665D01*
X0286808Y0160311D02*
X0278934Y0168185D01*
X0278934Y0174287D01*
X0278934Y0182555D01*
X0278934Y0190823D01*
X0278934Y0191020D01*
X0274012Y0195941D01*
X0274012Y0204209D01*
X0277162Y0207358D01*
X0278934Y0207358D01*
X0278934Y0215626D01*
X0269131Y0209602D02*
X0263383Y0203854D01*
X0263383Y0199091D01*
X0263383Y0188067D01*
X0266926Y0184524D01*
X0278934Y0190823D02*
X0278934Y0192299D01*
X0285725Y0199091D01*
X0289032Y0195783D01*
X0297438Y0195783D01*
X0197142Y0131768D02*
X0197142Y0125173D01*
X0197241Y0125075D01*
D36*
X0284349Y0104010D02*
X0284349Y0078718D01*
X0283068Y0077437D01*
X0283068Y0078029D01*
X0284249Y0079210D01*
X0293502Y0079210D01*
X0301217Y0086925D01*
X0306493Y0086925D01*
X0316493Y0086925D01*
D37*
X0288186Y0058146D03*
X0170075Y0058146D03*
X0170075Y0227437D03*
X0288186Y0227437D03*
D38*
X0131886Y0077437D02*
X0114524Y0094799D01*
X0100390Y0094799D01*
D39*
X0114524Y0094799D02*
X0117320Y0097594D01*
X0117320Y0191217D01*
X0122044Y0195941D01*
X0298816Y0108539D02*
X0299997Y0109720D01*
X0307871Y0109720D01*
X0331886Y0085705D01*
X0331886Y0054602D01*
X0321257Y0043972D01*
X0222831Y0043972D01*
X0150784Y0043972D01*
X0131886Y0062870D01*
X0131886Y0077437D01*
D40*
X0220075Y0126256D02*
X0220075Y0153028D01*
X0222044Y0154996D01*
X0222044Y0156965D01*
X0218304Y0160705D01*
X0218304Y0164839D01*
X0220272Y0164839D02*
X0220272Y0160705D01*
X0223619Y0157358D01*
X0223619Y0152634D01*
X0219288Y0156177D02*
X0217713Y0157752D01*
X0217713Y0159327D01*
X0216335Y0160705D01*
X0216335Y0164839D01*
X0214367Y0164839D02*
X0214367Y0159130D01*
X0214564Y0158933D01*
X0112201Y0216807D02*
X0112201Y0225862D01*
X0097635Y0225862D01*
X0097635Y0216807D01*
X0112201Y0216807D01*
X0112201Y0216855D02*
X0097635Y0216855D01*
X0097635Y0217641D02*
X0112201Y0217641D01*
X0112201Y0218427D02*
X0097635Y0218427D01*
X0097635Y0219213D02*
X0112201Y0219213D01*
X0112201Y0219999D02*
X0097635Y0219999D01*
X0097635Y0220785D02*
X0112201Y0220785D01*
X0112201Y0221571D02*
X0097635Y0221571D01*
X0097635Y0222357D02*
X0112201Y0222357D01*
X0112201Y0223143D02*
X0097635Y0223143D01*
X0097635Y0223929D02*
X0112201Y0223929D01*
X0112201Y0224715D02*
X0097635Y0224715D01*
X0097635Y0225500D02*
X0112201Y0225500D01*
M02*
