G75*
%MOIN*%
%OFA0B0*%
%FSLAX25Y25*%
%IPPOS*%
%LPD*%
%AMOC8*
5,1,8,0,0,1.08239X$1,22.5*
%
%ADD10C,0.00000*%
%ADD11R,0.04134X0.04252*%
%ADD12R,0.04252X0.04134*%
%ADD13R,0.06000X0.06000*%
%ADD14C,0.06000*%
%ADD15C,0.11024*%
%ADD16R,0.03937X0.04331*%
%ADD17R,0.04331X0.03937*%
%ADD18R,0.01181X0.06299*%
%ADD19R,0.06299X0.01181*%
%ADD20R,0.05000X0.01575*%
%ADD21C,0.05906*%
%ADD22R,0.05906X0.05906*%
%ADD23R,0.05600X0.02800*%
%ADD24R,0.05315X0.03150*%
%ADD25R,0.05709X0.04724*%
%ADD26R,0.10000X0.05000*%
%ADD27R,0.15748X0.07874*%
%ADD28R,0.04724X0.06693*%
%ADD29OC8,0.06000*%
%ADD30C,0.06000*%
%ADD31R,0.05512X0.03937*%
%ADD32R,0.05900X0.07900*%
%ADD33R,0.15000X0.07900*%
D10*
X0091335Y0054209D02*
X0091335Y0231374D01*
X0091341Y0231850D01*
X0091358Y0232325D01*
X0091387Y0232800D01*
X0091427Y0233274D01*
X0091479Y0233747D01*
X0091542Y0234218D01*
X0091616Y0234688D01*
X0091702Y0235156D01*
X0091799Y0235622D01*
X0091907Y0236085D01*
X0092026Y0236545D01*
X0092157Y0237003D01*
X0092298Y0237457D01*
X0092451Y0237908D01*
X0092614Y0238354D01*
X0092788Y0238797D01*
X0092973Y0239235D01*
X0093168Y0239669D01*
X0093374Y0240098D01*
X0093590Y0240522D01*
X0093816Y0240941D01*
X0094052Y0241354D01*
X0094298Y0241761D01*
X0094554Y0242162D01*
X0094820Y0242556D01*
X0095095Y0242945D01*
X0095379Y0243326D01*
X0095672Y0243700D01*
X0095974Y0244068D01*
X0096286Y0244428D01*
X0096605Y0244780D01*
X0096933Y0245124D01*
X0097270Y0245461D01*
X0097614Y0245789D01*
X0097966Y0246108D01*
X0098326Y0246420D01*
X0098694Y0246722D01*
X0099068Y0247015D01*
X0099449Y0247299D01*
X0099838Y0247574D01*
X0100232Y0247840D01*
X0100633Y0248096D01*
X0101040Y0248342D01*
X0101453Y0248578D01*
X0101872Y0248804D01*
X0102296Y0249020D01*
X0102725Y0249226D01*
X0103159Y0249421D01*
X0103597Y0249606D01*
X0104040Y0249780D01*
X0104486Y0249943D01*
X0104937Y0250096D01*
X0105391Y0250237D01*
X0105849Y0250368D01*
X0106309Y0250487D01*
X0106772Y0250595D01*
X0107238Y0250692D01*
X0107706Y0250778D01*
X0108176Y0250852D01*
X0108647Y0250915D01*
X0109120Y0250967D01*
X0109594Y0251007D01*
X0110069Y0251036D01*
X0110544Y0251053D01*
X0111020Y0251059D01*
X0347241Y0251059D01*
X0347717Y0251053D01*
X0348192Y0251036D01*
X0348667Y0251007D01*
X0349141Y0250967D01*
X0349614Y0250915D01*
X0350085Y0250852D01*
X0350555Y0250778D01*
X0351023Y0250692D01*
X0351489Y0250595D01*
X0351952Y0250487D01*
X0352412Y0250368D01*
X0352870Y0250237D01*
X0353324Y0250096D01*
X0353775Y0249943D01*
X0354221Y0249780D01*
X0354664Y0249606D01*
X0355102Y0249421D01*
X0355536Y0249226D01*
X0355965Y0249020D01*
X0356389Y0248804D01*
X0356808Y0248578D01*
X0357221Y0248342D01*
X0357628Y0248096D01*
X0358029Y0247840D01*
X0358423Y0247574D01*
X0358812Y0247299D01*
X0359193Y0247015D01*
X0359567Y0246722D01*
X0359935Y0246420D01*
X0360295Y0246108D01*
X0360647Y0245789D01*
X0360991Y0245461D01*
X0361328Y0245124D01*
X0361656Y0244780D01*
X0361975Y0244428D01*
X0362287Y0244068D01*
X0362589Y0243700D01*
X0362882Y0243326D01*
X0363166Y0242945D01*
X0363441Y0242556D01*
X0363707Y0242162D01*
X0363963Y0241761D01*
X0364209Y0241354D01*
X0364445Y0240941D01*
X0364671Y0240522D01*
X0364887Y0240098D01*
X0365093Y0239669D01*
X0365288Y0239235D01*
X0365473Y0238797D01*
X0365647Y0238354D01*
X0365810Y0237908D01*
X0365963Y0237457D01*
X0366104Y0237003D01*
X0366235Y0236545D01*
X0366354Y0236085D01*
X0366462Y0235622D01*
X0366559Y0235156D01*
X0366645Y0234688D01*
X0366719Y0234218D01*
X0366782Y0233747D01*
X0366834Y0233274D01*
X0366874Y0232800D01*
X0366903Y0232325D01*
X0366920Y0231850D01*
X0366926Y0231374D01*
X0366926Y0054209D01*
X0366920Y0053733D01*
X0366903Y0053258D01*
X0366874Y0052783D01*
X0366834Y0052309D01*
X0366782Y0051836D01*
X0366719Y0051365D01*
X0366645Y0050895D01*
X0366559Y0050427D01*
X0366462Y0049961D01*
X0366354Y0049498D01*
X0366235Y0049038D01*
X0366104Y0048580D01*
X0365963Y0048126D01*
X0365810Y0047675D01*
X0365647Y0047229D01*
X0365473Y0046786D01*
X0365288Y0046348D01*
X0365093Y0045914D01*
X0364887Y0045485D01*
X0364671Y0045061D01*
X0364445Y0044642D01*
X0364209Y0044229D01*
X0363963Y0043822D01*
X0363707Y0043421D01*
X0363441Y0043027D01*
X0363166Y0042638D01*
X0362882Y0042257D01*
X0362589Y0041883D01*
X0362287Y0041515D01*
X0361975Y0041155D01*
X0361656Y0040803D01*
X0361328Y0040459D01*
X0360991Y0040122D01*
X0360647Y0039794D01*
X0360295Y0039475D01*
X0359935Y0039163D01*
X0359567Y0038861D01*
X0359193Y0038568D01*
X0358812Y0038284D01*
X0358423Y0038009D01*
X0358029Y0037743D01*
X0357628Y0037487D01*
X0357221Y0037241D01*
X0356808Y0037005D01*
X0356389Y0036779D01*
X0355965Y0036563D01*
X0355536Y0036357D01*
X0355102Y0036162D01*
X0354664Y0035977D01*
X0354221Y0035803D01*
X0353775Y0035640D01*
X0353324Y0035487D01*
X0352870Y0035346D01*
X0352412Y0035215D01*
X0351952Y0035096D01*
X0351489Y0034988D01*
X0351023Y0034891D01*
X0350555Y0034805D01*
X0350085Y0034731D01*
X0349614Y0034668D01*
X0349141Y0034616D01*
X0348667Y0034576D01*
X0348192Y0034547D01*
X0347717Y0034530D01*
X0347241Y0034524D01*
X0111020Y0034524D01*
X0110544Y0034530D01*
X0110069Y0034547D01*
X0109594Y0034576D01*
X0109120Y0034616D01*
X0108647Y0034668D01*
X0108176Y0034731D01*
X0107706Y0034805D01*
X0107238Y0034891D01*
X0106772Y0034988D01*
X0106309Y0035096D01*
X0105849Y0035215D01*
X0105391Y0035346D01*
X0104937Y0035487D01*
X0104486Y0035640D01*
X0104040Y0035803D01*
X0103597Y0035977D01*
X0103159Y0036162D01*
X0102725Y0036357D01*
X0102296Y0036563D01*
X0101872Y0036779D01*
X0101453Y0037005D01*
X0101040Y0037241D01*
X0100633Y0037487D01*
X0100232Y0037743D01*
X0099838Y0038009D01*
X0099449Y0038284D01*
X0099068Y0038568D01*
X0098694Y0038861D01*
X0098326Y0039163D01*
X0097966Y0039475D01*
X0097614Y0039794D01*
X0097270Y0040122D01*
X0096933Y0040459D01*
X0096605Y0040803D01*
X0096286Y0041155D01*
X0095974Y0041515D01*
X0095672Y0041883D01*
X0095379Y0042257D01*
X0095095Y0042638D01*
X0094820Y0043027D01*
X0094554Y0043421D01*
X0094298Y0043822D01*
X0094052Y0044229D01*
X0093816Y0044642D01*
X0093590Y0045061D01*
X0093374Y0045485D01*
X0093168Y0045914D01*
X0092973Y0046348D01*
X0092788Y0046786D01*
X0092614Y0047229D01*
X0092451Y0047675D01*
X0092298Y0048126D01*
X0092157Y0048580D01*
X0092026Y0049038D01*
X0091907Y0049498D01*
X0091799Y0049961D01*
X0091702Y0050427D01*
X0091616Y0050895D01*
X0091542Y0051365D01*
X0091479Y0051836D01*
X0091427Y0052309D01*
X0091387Y0052783D01*
X0091358Y0053258D01*
X0091341Y0053733D01*
X0091335Y0054209D01*
X0226453Y0083539D02*
X0226455Y0083687D01*
X0226461Y0083835D01*
X0226471Y0083983D01*
X0226485Y0084130D01*
X0226503Y0084277D01*
X0226524Y0084423D01*
X0226550Y0084569D01*
X0226580Y0084714D01*
X0226613Y0084858D01*
X0226651Y0085001D01*
X0226692Y0085143D01*
X0226737Y0085284D01*
X0226785Y0085424D01*
X0226838Y0085563D01*
X0226894Y0085700D01*
X0226954Y0085835D01*
X0227017Y0085969D01*
X0227084Y0086101D01*
X0227155Y0086231D01*
X0227229Y0086359D01*
X0227306Y0086485D01*
X0227387Y0086609D01*
X0227471Y0086731D01*
X0227558Y0086850D01*
X0227649Y0086967D01*
X0227743Y0087082D01*
X0227839Y0087194D01*
X0227939Y0087304D01*
X0228041Y0087410D01*
X0228147Y0087514D01*
X0228255Y0087615D01*
X0228366Y0087713D01*
X0228479Y0087809D01*
X0228595Y0087901D01*
X0228713Y0087990D01*
X0228834Y0088075D01*
X0228957Y0088158D01*
X0229082Y0088237D01*
X0229209Y0088313D01*
X0229338Y0088385D01*
X0229469Y0088454D01*
X0229602Y0088519D01*
X0229737Y0088580D01*
X0229873Y0088638D01*
X0230010Y0088693D01*
X0230149Y0088743D01*
X0230290Y0088790D01*
X0230431Y0088833D01*
X0230574Y0088873D01*
X0230718Y0088908D01*
X0230862Y0088940D01*
X0231008Y0088967D01*
X0231154Y0088991D01*
X0231301Y0089011D01*
X0231448Y0089027D01*
X0231595Y0089039D01*
X0231743Y0089047D01*
X0231891Y0089051D01*
X0232039Y0089051D01*
X0232187Y0089047D01*
X0232335Y0089039D01*
X0232482Y0089027D01*
X0232629Y0089011D01*
X0232776Y0088991D01*
X0232922Y0088967D01*
X0233068Y0088940D01*
X0233212Y0088908D01*
X0233356Y0088873D01*
X0233499Y0088833D01*
X0233640Y0088790D01*
X0233781Y0088743D01*
X0233920Y0088693D01*
X0234057Y0088638D01*
X0234193Y0088580D01*
X0234328Y0088519D01*
X0234461Y0088454D01*
X0234592Y0088385D01*
X0234721Y0088313D01*
X0234848Y0088237D01*
X0234973Y0088158D01*
X0235096Y0088075D01*
X0235217Y0087990D01*
X0235335Y0087901D01*
X0235451Y0087809D01*
X0235564Y0087713D01*
X0235675Y0087615D01*
X0235783Y0087514D01*
X0235889Y0087410D01*
X0235991Y0087304D01*
X0236091Y0087194D01*
X0236187Y0087082D01*
X0236281Y0086967D01*
X0236372Y0086850D01*
X0236459Y0086731D01*
X0236543Y0086609D01*
X0236624Y0086485D01*
X0236701Y0086359D01*
X0236775Y0086231D01*
X0236846Y0086101D01*
X0236913Y0085969D01*
X0236976Y0085835D01*
X0237036Y0085700D01*
X0237092Y0085563D01*
X0237145Y0085424D01*
X0237193Y0085284D01*
X0237238Y0085143D01*
X0237279Y0085001D01*
X0237317Y0084858D01*
X0237350Y0084714D01*
X0237380Y0084569D01*
X0237406Y0084423D01*
X0237427Y0084277D01*
X0237445Y0084130D01*
X0237459Y0083983D01*
X0237469Y0083835D01*
X0237475Y0083687D01*
X0237477Y0083539D01*
X0237475Y0083391D01*
X0237469Y0083243D01*
X0237459Y0083095D01*
X0237445Y0082948D01*
X0237427Y0082801D01*
X0237406Y0082655D01*
X0237380Y0082509D01*
X0237350Y0082364D01*
X0237317Y0082220D01*
X0237279Y0082077D01*
X0237238Y0081935D01*
X0237193Y0081794D01*
X0237145Y0081654D01*
X0237092Y0081515D01*
X0237036Y0081378D01*
X0236976Y0081243D01*
X0236913Y0081109D01*
X0236846Y0080977D01*
X0236775Y0080847D01*
X0236701Y0080719D01*
X0236624Y0080593D01*
X0236543Y0080469D01*
X0236459Y0080347D01*
X0236372Y0080228D01*
X0236281Y0080111D01*
X0236187Y0079996D01*
X0236091Y0079884D01*
X0235991Y0079774D01*
X0235889Y0079668D01*
X0235783Y0079564D01*
X0235675Y0079463D01*
X0235564Y0079365D01*
X0235451Y0079269D01*
X0235335Y0079177D01*
X0235217Y0079088D01*
X0235096Y0079003D01*
X0234973Y0078920D01*
X0234848Y0078841D01*
X0234721Y0078765D01*
X0234592Y0078693D01*
X0234461Y0078624D01*
X0234328Y0078559D01*
X0234193Y0078498D01*
X0234057Y0078440D01*
X0233920Y0078385D01*
X0233781Y0078335D01*
X0233640Y0078288D01*
X0233499Y0078245D01*
X0233356Y0078205D01*
X0233212Y0078170D01*
X0233068Y0078138D01*
X0232922Y0078111D01*
X0232776Y0078087D01*
X0232629Y0078067D01*
X0232482Y0078051D01*
X0232335Y0078039D01*
X0232187Y0078031D01*
X0232039Y0078027D01*
X0231891Y0078027D01*
X0231743Y0078031D01*
X0231595Y0078039D01*
X0231448Y0078051D01*
X0231301Y0078067D01*
X0231154Y0078087D01*
X0231008Y0078111D01*
X0230862Y0078138D01*
X0230718Y0078170D01*
X0230574Y0078205D01*
X0230431Y0078245D01*
X0230290Y0078288D01*
X0230149Y0078335D01*
X0230010Y0078385D01*
X0229873Y0078440D01*
X0229737Y0078498D01*
X0229602Y0078559D01*
X0229469Y0078624D01*
X0229338Y0078693D01*
X0229209Y0078765D01*
X0229082Y0078841D01*
X0228957Y0078920D01*
X0228834Y0079003D01*
X0228713Y0079088D01*
X0228595Y0079177D01*
X0228479Y0079269D01*
X0228366Y0079365D01*
X0228255Y0079463D01*
X0228147Y0079564D01*
X0228041Y0079668D01*
X0227939Y0079774D01*
X0227839Y0079884D01*
X0227743Y0079996D01*
X0227649Y0080111D01*
X0227558Y0080228D01*
X0227471Y0080347D01*
X0227387Y0080469D01*
X0227306Y0080593D01*
X0227229Y0080719D01*
X0227155Y0080847D01*
X0227084Y0080977D01*
X0227017Y0081109D01*
X0226954Y0081243D01*
X0226894Y0081378D01*
X0226838Y0081515D01*
X0226785Y0081654D01*
X0226737Y0081794D01*
X0226692Y0081935D01*
X0226651Y0082077D01*
X0226613Y0082220D01*
X0226580Y0082364D01*
X0226550Y0082509D01*
X0226524Y0082655D01*
X0226503Y0082801D01*
X0226485Y0082948D01*
X0226471Y0083095D01*
X0226461Y0083243D01*
X0226455Y0083391D01*
X0226453Y0083539D01*
X0346335Y0114248D02*
X0346337Y0114396D01*
X0346343Y0114544D01*
X0346353Y0114692D01*
X0346367Y0114839D01*
X0346385Y0114986D01*
X0346406Y0115132D01*
X0346432Y0115278D01*
X0346462Y0115423D01*
X0346495Y0115567D01*
X0346533Y0115710D01*
X0346574Y0115852D01*
X0346619Y0115993D01*
X0346667Y0116133D01*
X0346720Y0116272D01*
X0346776Y0116409D01*
X0346836Y0116544D01*
X0346899Y0116678D01*
X0346966Y0116810D01*
X0347037Y0116940D01*
X0347111Y0117068D01*
X0347188Y0117194D01*
X0347269Y0117318D01*
X0347353Y0117440D01*
X0347440Y0117559D01*
X0347531Y0117676D01*
X0347625Y0117791D01*
X0347721Y0117903D01*
X0347821Y0118013D01*
X0347923Y0118119D01*
X0348029Y0118223D01*
X0348137Y0118324D01*
X0348248Y0118422D01*
X0348361Y0118518D01*
X0348477Y0118610D01*
X0348595Y0118699D01*
X0348716Y0118784D01*
X0348839Y0118867D01*
X0348964Y0118946D01*
X0349091Y0119022D01*
X0349220Y0119094D01*
X0349351Y0119163D01*
X0349484Y0119228D01*
X0349619Y0119289D01*
X0349755Y0119347D01*
X0349892Y0119402D01*
X0350031Y0119452D01*
X0350172Y0119499D01*
X0350313Y0119542D01*
X0350456Y0119582D01*
X0350600Y0119617D01*
X0350744Y0119649D01*
X0350890Y0119676D01*
X0351036Y0119700D01*
X0351183Y0119720D01*
X0351330Y0119736D01*
X0351477Y0119748D01*
X0351625Y0119756D01*
X0351773Y0119760D01*
X0351921Y0119760D01*
X0352069Y0119756D01*
X0352217Y0119748D01*
X0352364Y0119736D01*
X0352511Y0119720D01*
X0352658Y0119700D01*
X0352804Y0119676D01*
X0352950Y0119649D01*
X0353094Y0119617D01*
X0353238Y0119582D01*
X0353381Y0119542D01*
X0353522Y0119499D01*
X0353663Y0119452D01*
X0353802Y0119402D01*
X0353939Y0119347D01*
X0354075Y0119289D01*
X0354210Y0119228D01*
X0354343Y0119163D01*
X0354474Y0119094D01*
X0354603Y0119022D01*
X0354730Y0118946D01*
X0354855Y0118867D01*
X0354978Y0118784D01*
X0355099Y0118699D01*
X0355217Y0118610D01*
X0355333Y0118518D01*
X0355446Y0118422D01*
X0355557Y0118324D01*
X0355665Y0118223D01*
X0355771Y0118119D01*
X0355873Y0118013D01*
X0355973Y0117903D01*
X0356069Y0117791D01*
X0356163Y0117676D01*
X0356254Y0117559D01*
X0356341Y0117440D01*
X0356425Y0117318D01*
X0356506Y0117194D01*
X0356583Y0117068D01*
X0356657Y0116940D01*
X0356728Y0116810D01*
X0356795Y0116678D01*
X0356858Y0116544D01*
X0356918Y0116409D01*
X0356974Y0116272D01*
X0357027Y0116133D01*
X0357075Y0115993D01*
X0357120Y0115852D01*
X0357161Y0115710D01*
X0357199Y0115567D01*
X0357232Y0115423D01*
X0357262Y0115278D01*
X0357288Y0115132D01*
X0357309Y0114986D01*
X0357327Y0114839D01*
X0357341Y0114692D01*
X0357351Y0114544D01*
X0357357Y0114396D01*
X0357359Y0114248D01*
X0357357Y0114100D01*
X0357351Y0113952D01*
X0357341Y0113804D01*
X0357327Y0113657D01*
X0357309Y0113510D01*
X0357288Y0113364D01*
X0357262Y0113218D01*
X0357232Y0113073D01*
X0357199Y0112929D01*
X0357161Y0112786D01*
X0357120Y0112644D01*
X0357075Y0112503D01*
X0357027Y0112363D01*
X0356974Y0112224D01*
X0356918Y0112087D01*
X0356858Y0111952D01*
X0356795Y0111818D01*
X0356728Y0111686D01*
X0356657Y0111556D01*
X0356583Y0111428D01*
X0356506Y0111302D01*
X0356425Y0111178D01*
X0356341Y0111056D01*
X0356254Y0110937D01*
X0356163Y0110820D01*
X0356069Y0110705D01*
X0355973Y0110593D01*
X0355873Y0110483D01*
X0355771Y0110377D01*
X0355665Y0110273D01*
X0355557Y0110172D01*
X0355446Y0110074D01*
X0355333Y0109978D01*
X0355217Y0109886D01*
X0355099Y0109797D01*
X0354978Y0109712D01*
X0354855Y0109629D01*
X0354730Y0109550D01*
X0354603Y0109474D01*
X0354474Y0109402D01*
X0354343Y0109333D01*
X0354210Y0109268D01*
X0354075Y0109207D01*
X0353939Y0109149D01*
X0353802Y0109094D01*
X0353663Y0109044D01*
X0353522Y0108997D01*
X0353381Y0108954D01*
X0353238Y0108914D01*
X0353094Y0108879D01*
X0352950Y0108847D01*
X0352804Y0108820D01*
X0352658Y0108796D01*
X0352511Y0108776D01*
X0352364Y0108760D01*
X0352217Y0108748D01*
X0352069Y0108740D01*
X0351921Y0108736D01*
X0351773Y0108736D01*
X0351625Y0108740D01*
X0351477Y0108748D01*
X0351330Y0108760D01*
X0351183Y0108776D01*
X0351036Y0108796D01*
X0350890Y0108820D01*
X0350744Y0108847D01*
X0350600Y0108879D01*
X0350456Y0108914D01*
X0350313Y0108954D01*
X0350172Y0108997D01*
X0350031Y0109044D01*
X0349892Y0109094D01*
X0349755Y0109149D01*
X0349619Y0109207D01*
X0349484Y0109268D01*
X0349351Y0109333D01*
X0349220Y0109402D01*
X0349091Y0109474D01*
X0348964Y0109550D01*
X0348839Y0109629D01*
X0348716Y0109712D01*
X0348595Y0109797D01*
X0348477Y0109886D01*
X0348361Y0109978D01*
X0348248Y0110074D01*
X0348137Y0110172D01*
X0348029Y0110273D01*
X0347923Y0110377D01*
X0347821Y0110483D01*
X0347721Y0110593D01*
X0347625Y0110705D01*
X0347531Y0110820D01*
X0347440Y0110937D01*
X0347353Y0111056D01*
X0347269Y0111178D01*
X0347188Y0111302D01*
X0347111Y0111428D01*
X0347037Y0111556D01*
X0346966Y0111686D01*
X0346899Y0111818D01*
X0346836Y0111952D01*
X0346776Y0112087D01*
X0346720Y0112224D01*
X0346667Y0112363D01*
X0346619Y0112503D01*
X0346574Y0112644D01*
X0346533Y0112786D01*
X0346495Y0112929D01*
X0346462Y0113073D01*
X0346432Y0113218D01*
X0346406Y0113364D01*
X0346385Y0113510D01*
X0346367Y0113657D01*
X0346353Y0113804D01*
X0346343Y0113952D01*
X0346337Y0114100D01*
X0346335Y0114248D01*
D11*
X0291926Y0114051D03*
X0285036Y0114051D03*
X0197142Y0131768D03*
X0190253Y0131768D03*
X0190253Y0158539D03*
X0197142Y0158539D03*
X0197142Y0166413D03*
X0190253Y0166413D03*
X0278835Y0199091D03*
X0285725Y0199091D03*
D12*
X0250784Y0181669D03*
X0243698Y0181669D03*
X0243698Y0174780D03*
X0250784Y0174780D03*
X0268501Y0120154D03*
X0268501Y0113264D03*
X0222831Y0110409D03*
X0222831Y0103520D03*
D13*
X0326257Y0109327D03*
D14*
X0326257Y0119169D03*
D15*
X0351847Y0114248D03*
X0231965Y0083539D03*
D16*
X0243461Y0095154D03*
X0250154Y0095154D03*
X0249918Y0103815D03*
X0243225Y0103815D03*
X0278934Y0174287D03*
X0285627Y0174287D03*
X0285627Y0182555D03*
X0278934Y0182555D03*
X0278934Y0190823D03*
X0285627Y0190823D03*
X0285627Y0207358D03*
X0278934Y0207358D03*
X0278934Y0215626D03*
X0285627Y0215626D03*
X0324721Y0228618D03*
X0331414Y0228618D03*
D17*
X0264564Y0137083D03*
X0264564Y0130390D03*
X0223619Y0069563D03*
X0213186Y0069720D03*
X0213186Y0063028D03*
X0223619Y0062870D03*
X0166138Y0148500D03*
X0166138Y0155193D03*
D18*
X0214367Y0164839D03*
X0216335Y0164839D03*
X0218304Y0164839D03*
X0220272Y0164839D03*
X0222241Y0164839D03*
X0224209Y0164839D03*
X0226178Y0164839D03*
X0228146Y0164839D03*
X0230115Y0164839D03*
X0232083Y0164839D03*
X0234052Y0164839D03*
X0236020Y0164839D03*
X0237989Y0164839D03*
X0239957Y0164839D03*
X0241926Y0164839D03*
X0243894Y0164839D03*
X0243894Y0120744D03*
X0241926Y0120744D03*
X0239957Y0120744D03*
X0237989Y0120744D03*
X0236020Y0120744D03*
X0234052Y0120744D03*
X0232083Y0120744D03*
X0230115Y0120744D03*
X0228146Y0120744D03*
X0226178Y0120744D03*
X0224209Y0120744D03*
X0222241Y0120744D03*
X0220272Y0120744D03*
X0218304Y0120744D03*
X0216335Y0120744D03*
X0214367Y0120744D03*
D19*
X0207083Y0128028D03*
X0207083Y0129996D03*
X0207083Y0131965D03*
X0207083Y0133933D03*
X0207083Y0135902D03*
X0207083Y0137870D03*
X0207083Y0139839D03*
X0207083Y0141807D03*
X0207083Y0143776D03*
X0207083Y0145744D03*
X0207083Y0147713D03*
X0207083Y0149681D03*
X0207083Y0151650D03*
X0207083Y0153618D03*
X0207083Y0155587D03*
X0207083Y0157555D03*
X0251178Y0157555D03*
X0251178Y0155587D03*
X0251178Y0153618D03*
X0251178Y0151650D03*
X0251178Y0149681D03*
X0251178Y0147713D03*
X0251178Y0145744D03*
X0251178Y0143776D03*
X0251178Y0141807D03*
X0251178Y0139839D03*
X0251178Y0137870D03*
X0251178Y0135902D03*
X0251178Y0133933D03*
X0251178Y0131965D03*
X0251178Y0129996D03*
X0251178Y0128028D03*
D20*
X0143894Y0107594D03*
X0143894Y0105035D03*
X0143894Y0102476D03*
X0143894Y0099917D03*
X0143894Y0097358D03*
X0143894Y0094799D03*
X0143894Y0092240D03*
X0143894Y0089681D03*
X0143894Y0087122D03*
X0143894Y0084563D03*
X0143894Y0082004D03*
X0143894Y0079445D03*
X0143894Y0076886D03*
X0143894Y0074327D03*
X0143894Y0071768D03*
X0143894Y0069209D03*
X0143894Y0066650D03*
X0143894Y0064091D03*
X0100390Y0064091D03*
X0100390Y0066650D03*
X0100390Y0069209D03*
X0100390Y0071768D03*
X0100390Y0074327D03*
X0100390Y0076886D03*
X0100390Y0079445D03*
X0100390Y0082004D03*
X0100390Y0084563D03*
X0100390Y0087122D03*
X0100390Y0089681D03*
X0100390Y0092240D03*
X0100390Y0094799D03*
X0100390Y0097358D03*
X0100390Y0099917D03*
X0100390Y0102476D03*
X0100390Y0105035D03*
X0100390Y0107594D03*
X0101060Y0181335D03*
X0101060Y0183894D03*
X0101060Y0186453D03*
X0101060Y0189012D03*
X0101060Y0191571D03*
X0101060Y0194130D03*
X0101060Y0196689D03*
X0101060Y0199248D03*
X0101060Y0201807D03*
X0101060Y0204366D03*
X0101060Y0206925D03*
X0101060Y0209484D03*
X0101060Y0212043D03*
X0101060Y0214602D03*
X0101060Y0217161D03*
X0101060Y0219720D03*
X0101060Y0222280D03*
X0101060Y0224839D03*
X0144564Y0224839D03*
X0144564Y0222280D03*
X0144564Y0219720D03*
X0144564Y0217161D03*
X0144564Y0214602D03*
X0144564Y0212043D03*
X0144564Y0209484D03*
X0144564Y0206925D03*
X0144564Y0204366D03*
X0144564Y0201807D03*
X0144564Y0199248D03*
X0144564Y0196689D03*
X0144564Y0194130D03*
X0144564Y0191571D03*
X0144564Y0189012D03*
X0144564Y0186453D03*
X0144564Y0183894D03*
X0144564Y0181335D03*
D21*
X0189131Y0179602D03*
X0189131Y0189602D03*
X0189131Y0199602D03*
X0189131Y0209602D03*
X0189131Y0219602D03*
X0269131Y0209602D03*
X0269131Y0199602D03*
X0269131Y0189602D03*
X0269131Y0179602D03*
X0309485Y0228382D03*
X0339485Y0228382D03*
D22*
X0269131Y0219602D03*
D23*
X0297438Y0213106D03*
X0297438Y0208776D03*
X0297438Y0204445D03*
X0297438Y0200114D03*
X0297438Y0195783D03*
X0297438Y0191453D03*
X0297438Y0187122D03*
X0297438Y0182791D03*
D24*
X0297654Y0216807D03*
D25*
X0297654Y0176650D03*
D26*
X0356572Y0167004D03*
X0356572Y0220941D03*
D27*
X0283776Y0147752D03*
D28*
X0283776Y0122752D03*
X0274721Y0122752D03*
X0292831Y0122752D03*
D29*
X0306493Y0140665D03*
X0316493Y0140665D03*
X0316493Y0150665D03*
X0306493Y0150665D03*
X0306493Y0160665D03*
X0316493Y0160665D03*
X0316493Y0086925D03*
X0306493Y0086925D03*
X0306493Y0076925D03*
X0316493Y0076925D03*
X0316493Y0066925D03*
X0306493Y0066925D03*
X0306493Y0056925D03*
X0316493Y0056925D03*
X0151768Y0126728D03*
X0141768Y0126728D03*
X0141768Y0136728D03*
X0151768Y0136728D03*
X0151768Y0146728D03*
X0141768Y0146728D03*
X0141768Y0156728D03*
X0151768Y0156728D03*
X0151768Y0166728D03*
X0141768Y0166728D03*
D30*
X0160422Y0196846D02*
X0166422Y0196846D01*
X0166422Y0206846D02*
X0160422Y0206846D01*
X0160422Y0088736D02*
X0166422Y0088736D01*
X0166422Y0078736D02*
X0160422Y0078736D01*
D31*
X0207871Y0174091D03*
X0207871Y0181571D03*
X0199209Y0177831D03*
D32*
X0275349Y0104010D03*
X0284349Y0104010D03*
X0293349Y0104010D03*
D33*
X0284249Y0079210D03*
M02*
