G75*
%MOIN*%
%OFA0B0*%
%FSLAX25Y25*%
%IPPOS*%
%LPD*%
%AMOC8*
5,1,8,0,0,1.08239X$1,22.5*
%
%ADD10C,0.00000*%
%ADD11C,0.00400*%
%ADD12C,0.00300*%
%ADD13C,0.00600*%
%ADD14C,0.00500*%
%ADD15R,0.01181X0.00591*%
%ADD16R,0.01181X0.01181*%
%ADD17C,0.03000*%
%ADD18R,0.02000X0.03000*%
%ADD19R,0.04000X0.03000*%
%ADD20R,0.03000X0.03000*%
%ADD21C,0.00800*%
D10*
X0091335Y0054209D02*
X0091335Y0231374D01*
X0091341Y0231850D01*
X0091358Y0232325D01*
X0091387Y0232800D01*
X0091427Y0233274D01*
X0091479Y0233747D01*
X0091542Y0234218D01*
X0091616Y0234688D01*
X0091702Y0235156D01*
X0091799Y0235622D01*
X0091907Y0236085D01*
X0092026Y0236545D01*
X0092157Y0237003D01*
X0092298Y0237457D01*
X0092451Y0237908D01*
X0092614Y0238354D01*
X0092788Y0238797D01*
X0092973Y0239235D01*
X0093168Y0239669D01*
X0093374Y0240098D01*
X0093590Y0240522D01*
X0093816Y0240941D01*
X0094052Y0241354D01*
X0094298Y0241761D01*
X0094554Y0242162D01*
X0094820Y0242556D01*
X0095095Y0242945D01*
X0095379Y0243326D01*
X0095672Y0243700D01*
X0095974Y0244068D01*
X0096286Y0244428D01*
X0096605Y0244780D01*
X0096933Y0245124D01*
X0097270Y0245461D01*
X0097614Y0245789D01*
X0097966Y0246108D01*
X0098326Y0246420D01*
X0098694Y0246722D01*
X0099068Y0247015D01*
X0099449Y0247299D01*
X0099838Y0247574D01*
X0100232Y0247840D01*
X0100633Y0248096D01*
X0101040Y0248342D01*
X0101453Y0248578D01*
X0101872Y0248804D01*
X0102296Y0249020D01*
X0102725Y0249226D01*
X0103159Y0249421D01*
X0103597Y0249606D01*
X0104040Y0249780D01*
X0104486Y0249943D01*
X0104937Y0250096D01*
X0105391Y0250237D01*
X0105849Y0250368D01*
X0106309Y0250487D01*
X0106772Y0250595D01*
X0107238Y0250692D01*
X0107706Y0250778D01*
X0108176Y0250852D01*
X0108647Y0250915D01*
X0109120Y0250967D01*
X0109594Y0251007D01*
X0110069Y0251036D01*
X0110544Y0251053D01*
X0111020Y0251059D01*
X0347241Y0251059D01*
X0347717Y0251053D01*
X0348192Y0251036D01*
X0348667Y0251007D01*
X0349141Y0250967D01*
X0349614Y0250915D01*
X0350085Y0250852D01*
X0350555Y0250778D01*
X0351023Y0250692D01*
X0351489Y0250595D01*
X0351952Y0250487D01*
X0352412Y0250368D01*
X0352870Y0250237D01*
X0353324Y0250096D01*
X0353775Y0249943D01*
X0354221Y0249780D01*
X0354664Y0249606D01*
X0355102Y0249421D01*
X0355536Y0249226D01*
X0355965Y0249020D01*
X0356389Y0248804D01*
X0356808Y0248578D01*
X0357221Y0248342D01*
X0357628Y0248096D01*
X0358029Y0247840D01*
X0358423Y0247574D01*
X0358812Y0247299D01*
X0359193Y0247015D01*
X0359567Y0246722D01*
X0359935Y0246420D01*
X0360295Y0246108D01*
X0360647Y0245789D01*
X0360991Y0245461D01*
X0361328Y0245124D01*
X0361656Y0244780D01*
X0361975Y0244428D01*
X0362287Y0244068D01*
X0362589Y0243700D01*
X0362882Y0243326D01*
X0363166Y0242945D01*
X0363441Y0242556D01*
X0363707Y0242162D01*
X0363963Y0241761D01*
X0364209Y0241354D01*
X0364445Y0240941D01*
X0364671Y0240522D01*
X0364887Y0240098D01*
X0365093Y0239669D01*
X0365288Y0239235D01*
X0365473Y0238797D01*
X0365647Y0238354D01*
X0365810Y0237908D01*
X0365963Y0237457D01*
X0366104Y0237003D01*
X0366235Y0236545D01*
X0366354Y0236085D01*
X0366462Y0235622D01*
X0366559Y0235156D01*
X0366645Y0234688D01*
X0366719Y0234218D01*
X0366782Y0233747D01*
X0366834Y0233274D01*
X0366874Y0232800D01*
X0366903Y0232325D01*
X0366920Y0231850D01*
X0366926Y0231374D01*
X0366926Y0054209D01*
X0366920Y0053733D01*
X0366903Y0053258D01*
X0366874Y0052783D01*
X0366834Y0052309D01*
X0366782Y0051836D01*
X0366719Y0051365D01*
X0366645Y0050895D01*
X0366559Y0050427D01*
X0366462Y0049961D01*
X0366354Y0049498D01*
X0366235Y0049038D01*
X0366104Y0048580D01*
X0365963Y0048126D01*
X0365810Y0047675D01*
X0365647Y0047229D01*
X0365473Y0046786D01*
X0365288Y0046348D01*
X0365093Y0045914D01*
X0364887Y0045485D01*
X0364671Y0045061D01*
X0364445Y0044642D01*
X0364209Y0044229D01*
X0363963Y0043822D01*
X0363707Y0043421D01*
X0363441Y0043027D01*
X0363166Y0042638D01*
X0362882Y0042257D01*
X0362589Y0041883D01*
X0362287Y0041515D01*
X0361975Y0041155D01*
X0361656Y0040803D01*
X0361328Y0040459D01*
X0360991Y0040122D01*
X0360647Y0039794D01*
X0360295Y0039475D01*
X0359935Y0039163D01*
X0359567Y0038861D01*
X0359193Y0038568D01*
X0358812Y0038284D01*
X0358423Y0038009D01*
X0358029Y0037743D01*
X0357628Y0037487D01*
X0357221Y0037241D01*
X0356808Y0037005D01*
X0356389Y0036779D01*
X0355965Y0036563D01*
X0355536Y0036357D01*
X0355102Y0036162D01*
X0354664Y0035977D01*
X0354221Y0035803D01*
X0353775Y0035640D01*
X0353324Y0035487D01*
X0352870Y0035346D01*
X0352412Y0035215D01*
X0351952Y0035096D01*
X0351489Y0034988D01*
X0351023Y0034891D01*
X0350555Y0034805D01*
X0350085Y0034731D01*
X0349614Y0034668D01*
X0349141Y0034616D01*
X0348667Y0034576D01*
X0348192Y0034547D01*
X0347717Y0034530D01*
X0347241Y0034524D01*
X0111020Y0034524D01*
X0110544Y0034530D01*
X0110069Y0034547D01*
X0109594Y0034576D01*
X0109120Y0034616D01*
X0108647Y0034668D01*
X0108176Y0034731D01*
X0107706Y0034805D01*
X0107238Y0034891D01*
X0106772Y0034988D01*
X0106309Y0035096D01*
X0105849Y0035215D01*
X0105391Y0035346D01*
X0104937Y0035487D01*
X0104486Y0035640D01*
X0104040Y0035803D01*
X0103597Y0035977D01*
X0103159Y0036162D01*
X0102725Y0036357D01*
X0102296Y0036563D01*
X0101872Y0036779D01*
X0101453Y0037005D01*
X0101040Y0037241D01*
X0100633Y0037487D01*
X0100232Y0037743D01*
X0099838Y0038009D01*
X0099449Y0038284D01*
X0099068Y0038568D01*
X0098694Y0038861D01*
X0098326Y0039163D01*
X0097966Y0039475D01*
X0097614Y0039794D01*
X0097270Y0040122D01*
X0096933Y0040459D01*
X0096605Y0040803D01*
X0096286Y0041155D01*
X0095974Y0041515D01*
X0095672Y0041883D01*
X0095379Y0042257D01*
X0095095Y0042638D01*
X0094820Y0043027D01*
X0094554Y0043421D01*
X0094298Y0043822D01*
X0094052Y0044229D01*
X0093816Y0044642D01*
X0093590Y0045061D01*
X0093374Y0045485D01*
X0093168Y0045914D01*
X0092973Y0046348D01*
X0092788Y0046786D01*
X0092614Y0047229D01*
X0092451Y0047675D01*
X0092298Y0048126D01*
X0092157Y0048580D01*
X0092026Y0049038D01*
X0091907Y0049498D01*
X0091799Y0049961D01*
X0091702Y0050427D01*
X0091616Y0050895D01*
X0091542Y0051365D01*
X0091479Y0051836D01*
X0091427Y0052309D01*
X0091387Y0052783D01*
X0091358Y0053258D01*
X0091341Y0053733D01*
X0091335Y0054209D01*
X0226453Y0083539D02*
X0226455Y0083687D01*
X0226461Y0083835D01*
X0226471Y0083983D01*
X0226485Y0084130D01*
X0226503Y0084277D01*
X0226524Y0084423D01*
X0226550Y0084569D01*
X0226580Y0084714D01*
X0226613Y0084858D01*
X0226651Y0085001D01*
X0226692Y0085143D01*
X0226737Y0085284D01*
X0226785Y0085424D01*
X0226838Y0085563D01*
X0226894Y0085700D01*
X0226954Y0085835D01*
X0227017Y0085969D01*
X0227084Y0086101D01*
X0227155Y0086231D01*
X0227229Y0086359D01*
X0227306Y0086485D01*
X0227387Y0086609D01*
X0227471Y0086731D01*
X0227558Y0086850D01*
X0227649Y0086967D01*
X0227743Y0087082D01*
X0227839Y0087194D01*
X0227939Y0087304D01*
X0228041Y0087410D01*
X0228147Y0087514D01*
X0228255Y0087615D01*
X0228366Y0087713D01*
X0228479Y0087809D01*
X0228595Y0087901D01*
X0228713Y0087990D01*
X0228834Y0088075D01*
X0228957Y0088158D01*
X0229082Y0088237D01*
X0229209Y0088313D01*
X0229338Y0088385D01*
X0229469Y0088454D01*
X0229602Y0088519D01*
X0229737Y0088580D01*
X0229873Y0088638D01*
X0230010Y0088693D01*
X0230149Y0088743D01*
X0230290Y0088790D01*
X0230431Y0088833D01*
X0230574Y0088873D01*
X0230718Y0088908D01*
X0230862Y0088940D01*
X0231008Y0088967D01*
X0231154Y0088991D01*
X0231301Y0089011D01*
X0231448Y0089027D01*
X0231595Y0089039D01*
X0231743Y0089047D01*
X0231891Y0089051D01*
X0232039Y0089051D01*
X0232187Y0089047D01*
X0232335Y0089039D01*
X0232482Y0089027D01*
X0232629Y0089011D01*
X0232776Y0088991D01*
X0232922Y0088967D01*
X0233068Y0088940D01*
X0233212Y0088908D01*
X0233356Y0088873D01*
X0233499Y0088833D01*
X0233640Y0088790D01*
X0233781Y0088743D01*
X0233920Y0088693D01*
X0234057Y0088638D01*
X0234193Y0088580D01*
X0234328Y0088519D01*
X0234461Y0088454D01*
X0234592Y0088385D01*
X0234721Y0088313D01*
X0234848Y0088237D01*
X0234973Y0088158D01*
X0235096Y0088075D01*
X0235217Y0087990D01*
X0235335Y0087901D01*
X0235451Y0087809D01*
X0235564Y0087713D01*
X0235675Y0087615D01*
X0235783Y0087514D01*
X0235889Y0087410D01*
X0235991Y0087304D01*
X0236091Y0087194D01*
X0236187Y0087082D01*
X0236281Y0086967D01*
X0236372Y0086850D01*
X0236459Y0086731D01*
X0236543Y0086609D01*
X0236624Y0086485D01*
X0236701Y0086359D01*
X0236775Y0086231D01*
X0236846Y0086101D01*
X0236913Y0085969D01*
X0236976Y0085835D01*
X0237036Y0085700D01*
X0237092Y0085563D01*
X0237145Y0085424D01*
X0237193Y0085284D01*
X0237238Y0085143D01*
X0237279Y0085001D01*
X0237317Y0084858D01*
X0237350Y0084714D01*
X0237380Y0084569D01*
X0237406Y0084423D01*
X0237427Y0084277D01*
X0237445Y0084130D01*
X0237459Y0083983D01*
X0237469Y0083835D01*
X0237475Y0083687D01*
X0237477Y0083539D01*
X0237475Y0083391D01*
X0237469Y0083243D01*
X0237459Y0083095D01*
X0237445Y0082948D01*
X0237427Y0082801D01*
X0237406Y0082655D01*
X0237380Y0082509D01*
X0237350Y0082364D01*
X0237317Y0082220D01*
X0237279Y0082077D01*
X0237238Y0081935D01*
X0237193Y0081794D01*
X0237145Y0081654D01*
X0237092Y0081515D01*
X0237036Y0081378D01*
X0236976Y0081243D01*
X0236913Y0081109D01*
X0236846Y0080977D01*
X0236775Y0080847D01*
X0236701Y0080719D01*
X0236624Y0080593D01*
X0236543Y0080469D01*
X0236459Y0080347D01*
X0236372Y0080228D01*
X0236281Y0080111D01*
X0236187Y0079996D01*
X0236091Y0079884D01*
X0235991Y0079774D01*
X0235889Y0079668D01*
X0235783Y0079564D01*
X0235675Y0079463D01*
X0235564Y0079365D01*
X0235451Y0079269D01*
X0235335Y0079177D01*
X0235217Y0079088D01*
X0235096Y0079003D01*
X0234973Y0078920D01*
X0234848Y0078841D01*
X0234721Y0078765D01*
X0234592Y0078693D01*
X0234461Y0078624D01*
X0234328Y0078559D01*
X0234193Y0078498D01*
X0234057Y0078440D01*
X0233920Y0078385D01*
X0233781Y0078335D01*
X0233640Y0078288D01*
X0233499Y0078245D01*
X0233356Y0078205D01*
X0233212Y0078170D01*
X0233068Y0078138D01*
X0232922Y0078111D01*
X0232776Y0078087D01*
X0232629Y0078067D01*
X0232482Y0078051D01*
X0232335Y0078039D01*
X0232187Y0078031D01*
X0232039Y0078027D01*
X0231891Y0078027D01*
X0231743Y0078031D01*
X0231595Y0078039D01*
X0231448Y0078051D01*
X0231301Y0078067D01*
X0231154Y0078087D01*
X0231008Y0078111D01*
X0230862Y0078138D01*
X0230718Y0078170D01*
X0230574Y0078205D01*
X0230431Y0078245D01*
X0230290Y0078288D01*
X0230149Y0078335D01*
X0230010Y0078385D01*
X0229873Y0078440D01*
X0229737Y0078498D01*
X0229602Y0078559D01*
X0229469Y0078624D01*
X0229338Y0078693D01*
X0229209Y0078765D01*
X0229082Y0078841D01*
X0228957Y0078920D01*
X0228834Y0079003D01*
X0228713Y0079088D01*
X0228595Y0079177D01*
X0228479Y0079269D01*
X0228366Y0079365D01*
X0228255Y0079463D01*
X0228147Y0079564D01*
X0228041Y0079668D01*
X0227939Y0079774D01*
X0227839Y0079884D01*
X0227743Y0079996D01*
X0227649Y0080111D01*
X0227558Y0080228D01*
X0227471Y0080347D01*
X0227387Y0080469D01*
X0227306Y0080593D01*
X0227229Y0080719D01*
X0227155Y0080847D01*
X0227084Y0080977D01*
X0227017Y0081109D01*
X0226954Y0081243D01*
X0226894Y0081378D01*
X0226838Y0081515D01*
X0226785Y0081654D01*
X0226737Y0081794D01*
X0226692Y0081935D01*
X0226651Y0082077D01*
X0226613Y0082220D01*
X0226580Y0082364D01*
X0226550Y0082509D01*
X0226524Y0082655D01*
X0226503Y0082801D01*
X0226485Y0082948D01*
X0226471Y0083095D01*
X0226461Y0083243D01*
X0226455Y0083391D01*
X0226453Y0083539D01*
X0346335Y0114248D02*
X0346337Y0114396D01*
X0346343Y0114544D01*
X0346353Y0114692D01*
X0346367Y0114839D01*
X0346385Y0114986D01*
X0346406Y0115132D01*
X0346432Y0115278D01*
X0346462Y0115423D01*
X0346495Y0115567D01*
X0346533Y0115710D01*
X0346574Y0115852D01*
X0346619Y0115993D01*
X0346667Y0116133D01*
X0346720Y0116272D01*
X0346776Y0116409D01*
X0346836Y0116544D01*
X0346899Y0116678D01*
X0346966Y0116810D01*
X0347037Y0116940D01*
X0347111Y0117068D01*
X0347188Y0117194D01*
X0347269Y0117318D01*
X0347353Y0117440D01*
X0347440Y0117559D01*
X0347531Y0117676D01*
X0347625Y0117791D01*
X0347721Y0117903D01*
X0347821Y0118013D01*
X0347923Y0118119D01*
X0348029Y0118223D01*
X0348137Y0118324D01*
X0348248Y0118422D01*
X0348361Y0118518D01*
X0348477Y0118610D01*
X0348595Y0118699D01*
X0348716Y0118784D01*
X0348839Y0118867D01*
X0348964Y0118946D01*
X0349091Y0119022D01*
X0349220Y0119094D01*
X0349351Y0119163D01*
X0349484Y0119228D01*
X0349619Y0119289D01*
X0349755Y0119347D01*
X0349892Y0119402D01*
X0350031Y0119452D01*
X0350172Y0119499D01*
X0350313Y0119542D01*
X0350456Y0119582D01*
X0350600Y0119617D01*
X0350744Y0119649D01*
X0350890Y0119676D01*
X0351036Y0119700D01*
X0351183Y0119720D01*
X0351330Y0119736D01*
X0351477Y0119748D01*
X0351625Y0119756D01*
X0351773Y0119760D01*
X0351921Y0119760D01*
X0352069Y0119756D01*
X0352217Y0119748D01*
X0352364Y0119736D01*
X0352511Y0119720D01*
X0352658Y0119700D01*
X0352804Y0119676D01*
X0352950Y0119649D01*
X0353094Y0119617D01*
X0353238Y0119582D01*
X0353381Y0119542D01*
X0353522Y0119499D01*
X0353663Y0119452D01*
X0353802Y0119402D01*
X0353939Y0119347D01*
X0354075Y0119289D01*
X0354210Y0119228D01*
X0354343Y0119163D01*
X0354474Y0119094D01*
X0354603Y0119022D01*
X0354730Y0118946D01*
X0354855Y0118867D01*
X0354978Y0118784D01*
X0355099Y0118699D01*
X0355217Y0118610D01*
X0355333Y0118518D01*
X0355446Y0118422D01*
X0355557Y0118324D01*
X0355665Y0118223D01*
X0355771Y0118119D01*
X0355873Y0118013D01*
X0355973Y0117903D01*
X0356069Y0117791D01*
X0356163Y0117676D01*
X0356254Y0117559D01*
X0356341Y0117440D01*
X0356425Y0117318D01*
X0356506Y0117194D01*
X0356583Y0117068D01*
X0356657Y0116940D01*
X0356728Y0116810D01*
X0356795Y0116678D01*
X0356858Y0116544D01*
X0356918Y0116409D01*
X0356974Y0116272D01*
X0357027Y0116133D01*
X0357075Y0115993D01*
X0357120Y0115852D01*
X0357161Y0115710D01*
X0357199Y0115567D01*
X0357232Y0115423D01*
X0357262Y0115278D01*
X0357288Y0115132D01*
X0357309Y0114986D01*
X0357327Y0114839D01*
X0357341Y0114692D01*
X0357351Y0114544D01*
X0357357Y0114396D01*
X0357359Y0114248D01*
X0357357Y0114100D01*
X0357351Y0113952D01*
X0357341Y0113804D01*
X0357327Y0113657D01*
X0357309Y0113510D01*
X0357288Y0113364D01*
X0357262Y0113218D01*
X0357232Y0113073D01*
X0357199Y0112929D01*
X0357161Y0112786D01*
X0357120Y0112644D01*
X0357075Y0112503D01*
X0357027Y0112363D01*
X0356974Y0112224D01*
X0356918Y0112087D01*
X0356858Y0111952D01*
X0356795Y0111818D01*
X0356728Y0111686D01*
X0356657Y0111556D01*
X0356583Y0111428D01*
X0356506Y0111302D01*
X0356425Y0111178D01*
X0356341Y0111056D01*
X0356254Y0110937D01*
X0356163Y0110820D01*
X0356069Y0110705D01*
X0355973Y0110593D01*
X0355873Y0110483D01*
X0355771Y0110377D01*
X0355665Y0110273D01*
X0355557Y0110172D01*
X0355446Y0110074D01*
X0355333Y0109978D01*
X0355217Y0109886D01*
X0355099Y0109797D01*
X0354978Y0109712D01*
X0354855Y0109629D01*
X0354730Y0109550D01*
X0354603Y0109474D01*
X0354474Y0109402D01*
X0354343Y0109333D01*
X0354210Y0109268D01*
X0354075Y0109207D01*
X0353939Y0109149D01*
X0353802Y0109094D01*
X0353663Y0109044D01*
X0353522Y0108997D01*
X0353381Y0108954D01*
X0353238Y0108914D01*
X0353094Y0108879D01*
X0352950Y0108847D01*
X0352804Y0108820D01*
X0352658Y0108796D01*
X0352511Y0108776D01*
X0352364Y0108760D01*
X0352217Y0108748D01*
X0352069Y0108740D01*
X0351921Y0108736D01*
X0351773Y0108736D01*
X0351625Y0108740D01*
X0351477Y0108748D01*
X0351330Y0108760D01*
X0351183Y0108776D01*
X0351036Y0108796D01*
X0350890Y0108820D01*
X0350744Y0108847D01*
X0350600Y0108879D01*
X0350456Y0108914D01*
X0350313Y0108954D01*
X0350172Y0108997D01*
X0350031Y0109044D01*
X0349892Y0109094D01*
X0349755Y0109149D01*
X0349619Y0109207D01*
X0349484Y0109268D01*
X0349351Y0109333D01*
X0349220Y0109402D01*
X0349091Y0109474D01*
X0348964Y0109550D01*
X0348839Y0109629D01*
X0348716Y0109712D01*
X0348595Y0109797D01*
X0348477Y0109886D01*
X0348361Y0109978D01*
X0348248Y0110074D01*
X0348137Y0110172D01*
X0348029Y0110273D01*
X0347923Y0110377D01*
X0347821Y0110483D01*
X0347721Y0110593D01*
X0347625Y0110705D01*
X0347531Y0110820D01*
X0347440Y0110937D01*
X0347353Y0111056D01*
X0347269Y0111178D01*
X0347188Y0111302D01*
X0347111Y0111428D01*
X0347037Y0111556D01*
X0346966Y0111686D01*
X0346899Y0111818D01*
X0346836Y0111952D01*
X0346776Y0112087D01*
X0346720Y0112224D01*
X0346667Y0112363D01*
X0346619Y0112503D01*
X0346574Y0112644D01*
X0346533Y0112786D01*
X0346495Y0112929D01*
X0346462Y0113073D01*
X0346432Y0113218D01*
X0346406Y0113364D01*
X0346385Y0113510D01*
X0346367Y0113657D01*
X0346353Y0113804D01*
X0346343Y0113952D01*
X0346337Y0114100D01*
X0346335Y0114248D01*
D11*
X0300904Y0089328D02*
X0300904Y0086258D01*
X0299369Y0084724D01*
X0297835Y0086258D01*
X0297835Y0089328D01*
X0303379Y0079091D02*
X0306448Y0079091D01*
X0304913Y0079091D02*
X0304913Y0074487D01*
X0305681Y0070430D02*
X0306448Y0069663D01*
X0306448Y0068128D01*
X0305681Y0067361D01*
X0303379Y0067361D01*
X0304913Y0067361D02*
X0306448Y0065826D01*
X0303379Y0065826D02*
X0303379Y0070430D01*
X0305681Y0070430D01*
X0292636Y0069663D02*
X0292636Y0068128D01*
X0291869Y0067361D01*
X0289567Y0067361D01*
X0289567Y0065826D02*
X0289567Y0070430D01*
X0291869Y0070430D01*
X0292636Y0069663D01*
X0289567Y0074487D02*
X0289567Y0079091D01*
X0291869Y0079091D01*
X0292636Y0078324D01*
X0292636Y0076789D01*
X0291869Y0076022D01*
X0289567Y0076022D01*
X0298208Y0059406D02*
X0297441Y0058639D01*
X0297441Y0055570D01*
X0298208Y0054802D01*
X0299743Y0054802D01*
X0300510Y0055570D01*
X0300510Y0057104D01*
X0298975Y0057104D01*
X0300510Y0058639D02*
X0299743Y0059406D01*
X0298208Y0059406D01*
X0296043Y0051473D02*
X0296043Y0046869D01*
X0299112Y0046869D01*
X0300647Y0046869D02*
X0303716Y0046869D01*
X0305251Y0046869D02*
X0307553Y0046869D01*
X0308320Y0047637D01*
X0308320Y0050706D01*
X0307553Y0051473D01*
X0305251Y0051473D01*
X0305251Y0046869D01*
X0302182Y0049171D02*
X0300647Y0049171D01*
X0300647Y0051473D02*
X0300647Y0046869D01*
X0300647Y0051473D02*
X0303716Y0051473D01*
X0309855Y0049939D02*
X0311390Y0051473D01*
X0311390Y0046869D01*
X0310807Y0046554D02*
X0313876Y0046554D01*
X0312924Y0046869D02*
X0309855Y0046869D01*
X0310807Y0046554D02*
X0310807Y0051158D01*
X0315411Y0051158D02*
X0315411Y0046554D01*
X0318480Y0046554D01*
X0320015Y0046554D02*
X0322317Y0046554D01*
X0323084Y0047322D01*
X0323084Y0050391D01*
X0322317Y0051158D01*
X0320015Y0051158D01*
X0320015Y0046554D01*
X0316946Y0048856D02*
X0315411Y0048856D01*
X0315411Y0051158D02*
X0318480Y0051158D01*
X0324619Y0050391D02*
X0325386Y0051158D01*
X0326921Y0051158D01*
X0327688Y0050391D01*
X0327688Y0049624D01*
X0324619Y0046554D01*
X0327688Y0046554D01*
X0285453Y0037066D02*
X0282384Y0037066D01*
X0280849Y0037066D02*
X0277780Y0037066D01*
X0276246Y0037066D02*
X0274711Y0038601D01*
X0275478Y0038601D02*
X0273176Y0038601D01*
X0273176Y0037066D02*
X0273176Y0041670D01*
X0275478Y0041670D01*
X0276246Y0040903D01*
X0276246Y0039368D01*
X0275478Y0038601D01*
X0277780Y0040135D02*
X0279315Y0041670D01*
X0279315Y0037066D01*
X0282384Y0040135D02*
X0283919Y0041670D01*
X0283919Y0037066D01*
X0276864Y0092637D02*
X0277631Y0093404D01*
X0277631Y0094939D01*
X0276864Y0095706D01*
X0276864Y0097241D02*
X0277631Y0097241D01*
X0276864Y0097241D02*
X0273795Y0100310D01*
X0273027Y0100310D01*
X0273027Y0097241D01*
X0273795Y0095706D02*
X0273027Y0094939D01*
X0273027Y0093404D01*
X0273795Y0092637D01*
X0276864Y0092637D01*
X0297421Y0138267D02*
X0298955Y0138267D01*
X0299723Y0139034D01*
X0299723Y0140569D01*
X0298188Y0140569D01*
X0296653Y0142104D02*
X0296653Y0139034D01*
X0297421Y0138267D01*
X0296653Y0142104D02*
X0297421Y0142871D01*
X0298955Y0142871D01*
X0299723Y0142104D01*
X0298582Y0148503D02*
X0300116Y0150038D01*
X0300116Y0153107D01*
X0297047Y0153107D02*
X0297047Y0150038D01*
X0298582Y0148503D01*
X0299349Y0158739D02*
X0297814Y0158739D01*
X0297047Y0159507D01*
X0297814Y0161041D02*
X0299349Y0161041D01*
X0300116Y0160274D01*
X0300116Y0159507D01*
X0299349Y0158739D01*
X0297814Y0161041D02*
X0297047Y0161809D01*
X0297047Y0162576D01*
X0297814Y0163343D01*
X0299349Y0163343D01*
X0300116Y0162576D01*
X0270901Y0161119D02*
X0270901Y0160352D01*
X0267832Y0157283D01*
X0270901Y0157283D01*
X0266297Y0158050D02*
X0265530Y0157283D01*
X0263996Y0157283D01*
X0263228Y0158050D01*
X0263228Y0161119D01*
X0263996Y0161887D01*
X0265530Y0161887D01*
X0266297Y0161119D01*
X0267832Y0161119D02*
X0268599Y0161887D01*
X0270134Y0161887D01*
X0270901Y0161119D01*
X0223583Y0149702D02*
X0223583Y0146633D01*
X0222816Y0145865D01*
X0221281Y0145865D01*
X0220514Y0146633D01*
X0218979Y0146633D02*
X0218979Y0147400D01*
X0218212Y0148167D01*
X0216677Y0148167D01*
X0215910Y0148935D01*
X0215910Y0149702D01*
X0216677Y0150469D01*
X0218212Y0150469D01*
X0218979Y0149702D01*
X0220514Y0149702D02*
X0221281Y0150469D01*
X0222816Y0150469D01*
X0223583Y0149702D01*
X0223583Y0148167D02*
X0221281Y0148167D01*
X0220514Y0148935D01*
X0220514Y0149702D01*
X0217445Y0151237D02*
X0217445Y0145098D01*
X0218212Y0145865D02*
X0218979Y0146633D01*
X0218212Y0145865D02*
X0216677Y0145865D01*
X0215910Y0146633D01*
X0214375Y0146633D02*
X0214375Y0150469D01*
X0211306Y0150469D02*
X0211306Y0146633D01*
X0212073Y0145865D01*
X0213608Y0145865D01*
X0214375Y0146633D01*
X0161608Y0131253D02*
X0161608Y0128951D01*
X0160840Y0128183D01*
X0159306Y0128183D01*
X0158538Y0128951D01*
X0158538Y0131253D01*
X0159306Y0126649D02*
X0161608Y0126649D01*
X0159306Y0126649D02*
X0158538Y0125881D01*
X0158538Y0123580D01*
X0161608Y0123580D01*
X0160073Y0122045D02*
X0160073Y0118976D01*
X0159306Y0118976D02*
X0158538Y0119743D01*
X0158538Y0121278D01*
X0159306Y0122045D01*
X0160073Y0122045D01*
X0161608Y0121278D02*
X0161608Y0119743D01*
X0160840Y0118976D01*
X0159306Y0118976D01*
X0142107Y0112556D02*
X0142107Y0111789D01*
X0141340Y0111022D01*
X0142107Y0110254D01*
X0142107Y0109487D01*
X0141340Y0108720D01*
X0139805Y0108720D01*
X0139038Y0109487D01*
X0137503Y0108720D02*
X0134434Y0108720D01*
X0135968Y0108720D02*
X0135968Y0113324D01*
X0134434Y0111789D01*
X0132899Y0112556D02*
X0132899Y0111022D01*
X0132132Y0110254D01*
X0129830Y0110254D01*
X0129830Y0108720D02*
X0129830Y0113324D01*
X0132132Y0113324D01*
X0132899Y0112556D01*
X0131364Y0110254D02*
X0132899Y0108720D01*
X0139038Y0112556D02*
X0139805Y0113324D01*
X0141340Y0113324D01*
X0142107Y0112556D01*
X0141340Y0111022D02*
X0140572Y0111022D01*
X0114563Y0086985D02*
X0113796Y0087753D01*
X0112261Y0087753D01*
X0111494Y0086985D01*
X0109959Y0087753D02*
X0108424Y0086218D01*
X0106890Y0087753D01*
X0106890Y0083149D01*
X0109959Y0083149D02*
X0109959Y0087753D01*
X0114563Y0086985D02*
X0114563Y0086218D01*
X0111494Y0083149D01*
X0114563Y0083149D01*
X0128649Y0169350D02*
X0128649Y0173954D01*
X0130951Y0173954D01*
X0131718Y0173186D01*
X0131718Y0171652D01*
X0130951Y0170884D01*
X0128649Y0170884D01*
X0130183Y0170884D02*
X0131718Y0169350D01*
X0133253Y0169350D02*
X0136322Y0169350D01*
X0134787Y0169350D02*
X0134787Y0173954D01*
X0133253Y0172419D01*
X0137857Y0171652D02*
X0140926Y0171652D01*
X0140159Y0169350D02*
X0140159Y0173954D01*
X0137857Y0171652D01*
X0114563Y0200865D02*
X0111494Y0200865D01*
X0113028Y0200865D02*
X0113028Y0205469D01*
X0111494Y0203935D01*
X0109959Y0205469D02*
X0109959Y0200865D01*
X0106890Y0200865D02*
X0106890Y0205469D01*
X0108424Y0203935D01*
X0109959Y0205469D01*
D12*
X0227899Y0126543D02*
X0228517Y0127160D01*
X0229134Y0127160D01*
X0229751Y0126543D01*
X0230368Y0127160D01*
X0230985Y0127160D01*
X0231603Y0126543D01*
X0231603Y0125308D01*
X0230985Y0124691D01*
X0231603Y0123477D02*
X0231603Y0121008D01*
X0229134Y0123477D01*
X0228517Y0123477D01*
X0227899Y0122860D01*
X0227899Y0121625D01*
X0228517Y0121008D01*
X0228517Y0119794D02*
X0227899Y0119177D01*
X0227899Y0117942D01*
X0228517Y0117325D01*
X0230985Y0117325D01*
X0231603Y0117942D01*
X0231603Y0119177D01*
X0230985Y0119794D01*
X0235773Y0119177D02*
X0235773Y0117942D01*
X0236391Y0117325D01*
X0238859Y0117325D01*
X0239477Y0117942D01*
X0239477Y0119177D01*
X0238859Y0119794D01*
X0239477Y0121008D02*
X0239477Y0123477D01*
X0239477Y0122243D02*
X0235773Y0122243D01*
X0237008Y0121008D01*
X0236391Y0119794D02*
X0235773Y0119177D01*
X0236391Y0124691D02*
X0235773Y0125308D01*
X0235773Y0126543D01*
X0236391Y0127160D01*
X0237008Y0127160D01*
X0237625Y0126543D01*
X0238242Y0127160D01*
X0238859Y0127160D01*
X0239477Y0126543D01*
X0239477Y0125308D01*
X0238859Y0124691D01*
X0237625Y0125926D02*
X0237625Y0126543D01*
X0229751Y0126543D02*
X0229751Y0125926D01*
X0228517Y0124691D02*
X0227899Y0125308D01*
X0227899Y0126543D01*
X0243848Y0142181D02*
X0244465Y0141563D01*
X0245699Y0141563D01*
X0246316Y0142181D01*
X0247531Y0141563D02*
X0249999Y0141563D01*
X0251214Y0141563D02*
X0253683Y0141563D01*
X0252448Y0141563D02*
X0252448Y0145267D01*
X0251214Y0144032D01*
X0248765Y0145267D02*
X0248765Y0141563D01*
X0247531Y0144032D02*
X0248765Y0145267D01*
X0246316Y0144649D02*
X0245699Y0145267D01*
X0244465Y0145267D01*
X0243848Y0144649D01*
X0243848Y0142181D01*
X0184043Y0120400D02*
X0184043Y0116697D01*
X0184661Y0118549D02*
X0182192Y0118549D01*
X0184043Y0120400D01*
X0179743Y0120400D02*
X0179743Y0116697D01*
X0178509Y0116697D02*
X0180978Y0116697D01*
X0178509Y0119166D02*
X0179743Y0120400D01*
X0177294Y0119783D02*
X0176677Y0120400D01*
X0175443Y0120400D01*
X0174826Y0119783D01*
X0174826Y0117314D01*
X0175443Y0116697D01*
X0176677Y0116697D01*
X0177294Y0117314D01*
X0181443Y0088085D02*
X0182060Y0088085D01*
X0184529Y0085616D01*
X0185146Y0085616D01*
X0185146Y0084402D02*
X0185146Y0081933D01*
X0185146Y0083168D02*
X0181443Y0083168D01*
X0182677Y0081933D01*
X0182060Y0080719D02*
X0181443Y0080102D01*
X0181443Y0078867D01*
X0182060Y0078250D01*
X0184529Y0078250D01*
X0185146Y0078867D01*
X0185146Y0080102D01*
X0184529Y0080719D01*
X0181443Y0085616D02*
X0181443Y0088085D01*
D13*
X0155922Y0083736D02*
X0155922Y0073736D01*
X0145922Y0073736D01*
X0145922Y0083736D01*
X0145922Y0093736D01*
X0155922Y0093736D01*
X0155922Y0083736D01*
X0145922Y0083736D01*
X0134268Y0121728D02*
X0124268Y0121728D01*
X0124268Y0131728D01*
X0124268Y0141728D01*
X0124268Y0151728D01*
X0124268Y0161728D01*
X0124268Y0171728D01*
X0134268Y0171728D01*
X0134268Y0161728D01*
X0124268Y0161728D01*
X0134268Y0161728D02*
X0134268Y0151728D01*
X0124268Y0151728D01*
X0134268Y0151728D02*
X0134268Y0141728D01*
X0124268Y0141728D01*
X0134268Y0141728D02*
X0134268Y0131728D01*
X0124268Y0131728D01*
X0134268Y0131728D02*
X0134268Y0121728D01*
X0168906Y0176193D02*
X0179906Y0176193D01*
X0179966Y0176195D01*
X0180027Y0176200D01*
X0180086Y0176209D01*
X0180145Y0176222D01*
X0180204Y0176238D01*
X0180261Y0176258D01*
X0180316Y0176281D01*
X0180371Y0176308D01*
X0180423Y0176337D01*
X0180474Y0176370D01*
X0180523Y0176406D01*
X0180569Y0176444D01*
X0180613Y0176486D01*
X0180655Y0176530D01*
X0180693Y0176576D01*
X0180729Y0176625D01*
X0180762Y0176676D01*
X0180791Y0176728D01*
X0180818Y0176783D01*
X0180841Y0176838D01*
X0180861Y0176895D01*
X0180877Y0176954D01*
X0180890Y0177013D01*
X0180899Y0177072D01*
X0180904Y0177133D01*
X0180906Y0177193D01*
X0180906Y0183193D01*
X0180904Y0183253D01*
X0180899Y0183314D01*
X0180890Y0183373D01*
X0180877Y0183432D01*
X0180861Y0183491D01*
X0180841Y0183548D01*
X0180818Y0183603D01*
X0180791Y0183658D01*
X0180762Y0183710D01*
X0180729Y0183761D01*
X0180693Y0183810D01*
X0180655Y0183856D01*
X0180613Y0183900D01*
X0180569Y0183942D01*
X0180523Y0183980D01*
X0180474Y0184016D01*
X0180423Y0184049D01*
X0180371Y0184078D01*
X0180316Y0184105D01*
X0180261Y0184128D01*
X0180204Y0184148D01*
X0180145Y0184164D01*
X0180086Y0184177D01*
X0180027Y0184186D01*
X0179966Y0184191D01*
X0179906Y0184193D01*
X0168906Y0184193D01*
X0168846Y0184191D01*
X0168785Y0184186D01*
X0168726Y0184177D01*
X0168667Y0184164D01*
X0168608Y0184148D01*
X0168551Y0184128D01*
X0168496Y0184105D01*
X0168441Y0184078D01*
X0168389Y0184049D01*
X0168338Y0184016D01*
X0168289Y0183980D01*
X0168243Y0183942D01*
X0168199Y0183900D01*
X0168157Y0183856D01*
X0168119Y0183810D01*
X0168083Y0183761D01*
X0168050Y0183710D01*
X0168021Y0183658D01*
X0167994Y0183603D01*
X0167971Y0183548D01*
X0167951Y0183491D01*
X0167935Y0183432D01*
X0167922Y0183373D01*
X0167913Y0183314D01*
X0167908Y0183253D01*
X0167906Y0183193D01*
X0167906Y0177193D01*
X0167908Y0177133D01*
X0167913Y0177072D01*
X0167922Y0177013D01*
X0167935Y0176954D01*
X0167951Y0176895D01*
X0167971Y0176838D01*
X0167994Y0176783D01*
X0168021Y0176728D01*
X0168050Y0176676D01*
X0168083Y0176625D01*
X0168119Y0176576D01*
X0168157Y0176530D01*
X0168199Y0176486D01*
X0168243Y0176444D01*
X0168289Y0176406D01*
X0168338Y0176370D01*
X0168389Y0176337D01*
X0168441Y0176308D01*
X0168496Y0176281D01*
X0168551Y0176258D01*
X0168608Y0176238D01*
X0168667Y0176222D01*
X0168726Y0176209D01*
X0168785Y0176200D01*
X0168846Y0176195D01*
X0168906Y0176193D01*
X0155922Y0191846D02*
X0145922Y0191846D01*
X0145922Y0201846D01*
X0145922Y0211846D01*
X0155922Y0211846D01*
X0155922Y0201846D01*
X0145922Y0201846D01*
X0155922Y0201846D02*
X0155922Y0191846D01*
X0312871Y0128815D02*
X0312871Y0125665D01*
X0334918Y0125665D01*
X0334918Y0102831D01*
X0312871Y0102831D01*
X0312871Y0099681D01*
X0362477Y0099681D01*
X0362477Y0128815D01*
X0312871Y0128815D01*
X0323993Y0135665D02*
X0333993Y0135665D01*
X0333993Y0145665D01*
X0333993Y0155665D01*
X0333993Y0165665D01*
X0323993Y0165665D01*
X0323993Y0155665D01*
X0323993Y0145665D01*
X0323993Y0135665D01*
X0323993Y0145665D02*
X0333993Y0145665D01*
X0333993Y0155665D02*
X0323993Y0155665D01*
X0323993Y0091925D02*
X0333993Y0091925D01*
X0333993Y0081925D01*
X0333993Y0071925D01*
X0333993Y0061925D01*
X0333993Y0051925D01*
X0323993Y0051925D01*
X0323993Y0061925D01*
X0333993Y0061925D01*
X0323993Y0061925D02*
X0323993Y0071925D01*
X0333993Y0071925D01*
X0323993Y0071925D02*
X0323993Y0081925D01*
X0333993Y0081925D01*
X0323993Y0081925D02*
X0323993Y0091925D01*
D14*
X0321347Y0094675D02*
X0321347Y0099179D01*
X0323599Y0099179D01*
X0324349Y0098428D01*
X0324349Y0096927D01*
X0323599Y0096176D01*
X0321347Y0096176D01*
X0318995Y0095426D02*
X0318995Y0099179D01*
X0319745Y0099179D02*
X0318244Y0099179D01*
X0318995Y0095426D02*
X0318244Y0094675D01*
X0317493Y0094675D01*
X0316743Y0095426D01*
X0325951Y0095426D02*
X0326701Y0094675D01*
X0328203Y0094675D01*
X0328953Y0095426D01*
X0328953Y0096176D01*
X0328203Y0096927D01*
X0325951Y0096927D01*
X0325951Y0095426D01*
X0325951Y0096927D02*
X0327452Y0098428D01*
X0328953Y0099179D01*
X0365873Y0116004D02*
X0366623Y0115253D01*
X0369626Y0115253D01*
X0370377Y0116004D01*
X0370377Y0117505D01*
X0369626Y0118256D01*
X0370377Y0119857D02*
X0365873Y0119857D01*
X0370377Y0122860D01*
X0365873Y0122860D01*
X0367374Y0124461D02*
X0365873Y0125962D01*
X0370377Y0125962D01*
X0370377Y0124461D02*
X0370377Y0127464D01*
X0366623Y0118256D02*
X0365873Y0117505D01*
X0365873Y0116004D01*
X0328203Y0168415D02*
X0328203Y0172919D01*
X0325951Y0170667D01*
X0328953Y0170667D01*
X0324349Y0170667D02*
X0324349Y0172169D01*
X0323599Y0172919D01*
X0321347Y0172919D01*
X0321347Y0168415D01*
X0321347Y0169917D02*
X0323599Y0169917D01*
X0324349Y0170667D01*
X0319745Y0172919D02*
X0318244Y0172919D01*
X0318995Y0172919D02*
X0318995Y0169166D01*
X0318244Y0168415D01*
X0317493Y0168415D01*
X0316743Y0169166D01*
X0341768Y0176256D02*
X0358304Y0176256D01*
X0358304Y0211689D01*
X0341768Y0211689D01*
X0341768Y0176256D01*
X0279131Y0159602D02*
X0179131Y0159602D01*
X0179131Y0239602D01*
X0279131Y0239602D01*
X0279131Y0159602D01*
X0249131Y0179602D02*
X0239131Y0189602D01*
X0219131Y0189602D01*
X0209131Y0179602D01*
X0209131Y0209602D01*
X0249131Y0209602D01*
X0249131Y0179602D01*
X0240942Y0192004D02*
X0248816Y0199878D01*
X0244879Y0203815D01*
X0260627Y0203815D01*
X0260627Y0219563D01*
X0244879Y0219563D01*
X0244879Y0223500D01*
X0248816Y0227437D01*
X0233068Y0223500D02*
X0229131Y0223500D01*
X0229131Y0219563D01*
X0229131Y0223500D02*
X0225194Y0223500D01*
X0229131Y0223500D02*
X0229131Y0227437D01*
X0213383Y0223500D02*
X0213383Y0219563D01*
X0197635Y0219563D01*
X0197635Y0203815D01*
X0213383Y0203815D01*
X0209446Y0199878D01*
X0217320Y0192004D01*
X0221257Y0195941D01*
X0237005Y0195941D01*
X0240942Y0192004D01*
X0209446Y0211689D02*
X0209452Y0212172D01*
X0209470Y0212655D01*
X0209499Y0213137D01*
X0209541Y0213618D01*
X0209594Y0214099D01*
X0209659Y0214577D01*
X0209736Y0215054D01*
X0209824Y0215529D01*
X0209924Y0216002D01*
X0210036Y0216472D01*
X0210159Y0216939D01*
X0210294Y0217403D01*
X0210440Y0217864D01*
X0210597Y0218321D01*
X0210765Y0218774D01*
X0210944Y0219222D01*
X0211135Y0219666D01*
X0211336Y0220105D01*
X0211548Y0220540D01*
X0211770Y0220968D01*
X0212003Y0221392D01*
X0212247Y0221809D01*
X0212500Y0222220D01*
X0212764Y0222625D01*
X0213037Y0223024D01*
X0213320Y0223415D01*
X0213612Y0223800D01*
X0213914Y0224177D01*
X0214225Y0224547D01*
X0214545Y0224909D01*
X0214874Y0225263D01*
X0215212Y0225608D01*
X0215557Y0225946D01*
X0215911Y0226275D01*
X0216273Y0226595D01*
X0216643Y0226906D01*
X0217020Y0227208D01*
X0217405Y0227500D01*
X0217796Y0227783D01*
X0218195Y0228056D01*
X0218600Y0228320D01*
X0219011Y0228573D01*
X0219428Y0228817D01*
X0219852Y0229050D01*
X0220280Y0229272D01*
X0220715Y0229484D01*
X0221154Y0229685D01*
X0221598Y0229876D01*
X0222046Y0230055D01*
X0222499Y0230223D01*
X0222956Y0230380D01*
X0223417Y0230526D01*
X0223881Y0230661D01*
X0224348Y0230784D01*
X0224818Y0230896D01*
X0225291Y0230996D01*
X0225766Y0231084D01*
X0226243Y0231161D01*
X0226721Y0231226D01*
X0227202Y0231279D01*
X0227683Y0231321D01*
X0228165Y0231350D01*
X0228648Y0231368D01*
X0229131Y0231374D01*
X0229614Y0231368D01*
X0230097Y0231350D01*
X0230579Y0231321D01*
X0231060Y0231279D01*
X0231541Y0231226D01*
X0232019Y0231161D01*
X0232496Y0231084D01*
X0232971Y0230996D01*
X0233444Y0230896D01*
X0233914Y0230784D01*
X0234381Y0230661D01*
X0234845Y0230526D01*
X0235306Y0230380D01*
X0235763Y0230223D01*
X0236216Y0230055D01*
X0236664Y0229876D01*
X0237108Y0229685D01*
X0237547Y0229484D01*
X0237982Y0229272D01*
X0238410Y0229050D01*
X0238834Y0228817D01*
X0239251Y0228573D01*
X0239662Y0228320D01*
X0240067Y0228056D01*
X0240466Y0227783D01*
X0240857Y0227500D01*
X0241242Y0227208D01*
X0241619Y0226906D01*
X0241989Y0226595D01*
X0242351Y0226275D01*
X0242705Y0225946D01*
X0243050Y0225608D01*
X0243388Y0225263D01*
X0243717Y0224909D01*
X0244037Y0224547D01*
X0244348Y0224177D01*
X0244650Y0223800D01*
X0244942Y0223415D01*
X0245225Y0223024D01*
X0245498Y0222625D01*
X0245762Y0222220D01*
X0246015Y0221809D01*
X0246259Y0221392D01*
X0246492Y0220968D01*
X0246714Y0220540D01*
X0246926Y0220105D01*
X0247127Y0219666D01*
X0247318Y0219222D01*
X0247497Y0218774D01*
X0247665Y0218321D01*
X0247822Y0217864D01*
X0247968Y0217403D01*
X0248103Y0216939D01*
X0248226Y0216472D01*
X0248338Y0216002D01*
X0248438Y0215529D01*
X0248526Y0215054D01*
X0248603Y0214577D01*
X0248668Y0214099D01*
X0248721Y0213618D01*
X0248763Y0213137D01*
X0248792Y0212655D01*
X0248810Y0212172D01*
X0248816Y0211689D01*
X0248810Y0211206D01*
X0248792Y0210723D01*
X0248763Y0210241D01*
X0248721Y0209760D01*
X0248668Y0209279D01*
X0248603Y0208801D01*
X0248526Y0208324D01*
X0248438Y0207849D01*
X0248338Y0207376D01*
X0248226Y0206906D01*
X0248103Y0206439D01*
X0247968Y0205975D01*
X0247822Y0205514D01*
X0247665Y0205057D01*
X0247497Y0204604D01*
X0247318Y0204156D01*
X0247127Y0203712D01*
X0246926Y0203273D01*
X0246714Y0202838D01*
X0246492Y0202410D01*
X0246259Y0201986D01*
X0246015Y0201569D01*
X0245762Y0201158D01*
X0245498Y0200753D01*
X0245225Y0200354D01*
X0244942Y0199963D01*
X0244650Y0199578D01*
X0244348Y0199201D01*
X0244037Y0198831D01*
X0243717Y0198469D01*
X0243388Y0198115D01*
X0243050Y0197770D01*
X0242705Y0197432D01*
X0242351Y0197103D01*
X0241989Y0196783D01*
X0241619Y0196472D01*
X0241242Y0196170D01*
X0240857Y0195878D01*
X0240466Y0195595D01*
X0240067Y0195322D01*
X0239662Y0195058D01*
X0239251Y0194805D01*
X0238834Y0194561D01*
X0238410Y0194328D01*
X0237982Y0194106D01*
X0237547Y0193894D01*
X0237108Y0193693D01*
X0236664Y0193502D01*
X0236216Y0193323D01*
X0235763Y0193155D01*
X0235306Y0192998D01*
X0234845Y0192852D01*
X0234381Y0192717D01*
X0233914Y0192594D01*
X0233444Y0192482D01*
X0232971Y0192382D01*
X0232496Y0192294D01*
X0232019Y0192217D01*
X0231541Y0192152D01*
X0231060Y0192099D01*
X0230579Y0192057D01*
X0230097Y0192028D01*
X0229614Y0192010D01*
X0229131Y0192004D01*
X0228648Y0192010D01*
X0228165Y0192028D01*
X0227683Y0192057D01*
X0227202Y0192099D01*
X0226721Y0192152D01*
X0226243Y0192217D01*
X0225766Y0192294D01*
X0225291Y0192382D01*
X0224818Y0192482D01*
X0224348Y0192594D01*
X0223881Y0192717D01*
X0223417Y0192852D01*
X0222956Y0192998D01*
X0222499Y0193155D01*
X0222046Y0193323D01*
X0221598Y0193502D01*
X0221154Y0193693D01*
X0220715Y0193894D01*
X0220280Y0194106D01*
X0219852Y0194328D01*
X0219428Y0194561D01*
X0219011Y0194805D01*
X0218600Y0195058D01*
X0218195Y0195322D01*
X0217796Y0195595D01*
X0217405Y0195878D01*
X0217020Y0196170D01*
X0216643Y0196472D01*
X0216273Y0196783D01*
X0215911Y0197103D01*
X0215557Y0197432D01*
X0215212Y0197770D01*
X0214874Y0198115D01*
X0214545Y0198469D01*
X0214225Y0198831D01*
X0213914Y0199201D01*
X0213612Y0199578D01*
X0213320Y0199963D01*
X0213037Y0200354D01*
X0212764Y0200753D01*
X0212500Y0201158D01*
X0212247Y0201569D01*
X0212003Y0201986D01*
X0211770Y0202410D01*
X0211548Y0202838D01*
X0211336Y0203273D01*
X0211135Y0203712D01*
X0210944Y0204156D01*
X0210765Y0204604D01*
X0210597Y0205057D01*
X0210440Y0205514D01*
X0210294Y0205975D01*
X0210159Y0206439D01*
X0210036Y0206906D01*
X0209924Y0207376D01*
X0209824Y0207849D01*
X0209736Y0208324D01*
X0209659Y0208801D01*
X0209594Y0209279D01*
X0209541Y0209760D01*
X0209499Y0210241D01*
X0209470Y0210723D01*
X0209452Y0211206D01*
X0209446Y0211689D01*
X0200390Y0211689D02*
X0200392Y0211794D01*
X0200398Y0211899D01*
X0200408Y0212003D01*
X0200422Y0212107D01*
X0200440Y0212211D01*
X0200462Y0212313D01*
X0200487Y0212415D01*
X0200517Y0212516D01*
X0200550Y0212615D01*
X0200587Y0212713D01*
X0200628Y0212810D01*
X0200673Y0212905D01*
X0200721Y0212998D01*
X0200772Y0213090D01*
X0200828Y0213179D01*
X0200886Y0213266D01*
X0200948Y0213351D01*
X0201012Y0213434D01*
X0201080Y0213514D01*
X0201151Y0213591D01*
X0201225Y0213665D01*
X0201302Y0213737D01*
X0201381Y0213806D01*
X0201463Y0213871D01*
X0201547Y0213934D01*
X0201634Y0213993D01*
X0201723Y0214049D01*
X0201814Y0214102D01*
X0201907Y0214151D01*
X0202001Y0214196D01*
X0202097Y0214238D01*
X0202195Y0214276D01*
X0202294Y0214310D01*
X0202395Y0214341D01*
X0202496Y0214367D01*
X0202599Y0214390D01*
X0202702Y0214409D01*
X0202806Y0214424D01*
X0202910Y0214435D01*
X0203015Y0214442D01*
X0203120Y0214445D01*
X0203225Y0214444D01*
X0203330Y0214439D01*
X0203434Y0214430D01*
X0203538Y0214417D01*
X0203642Y0214400D01*
X0203745Y0214379D01*
X0203847Y0214354D01*
X0203948Y0214326D01*
X0204047Y0214293D01*
X0204146Y0214257D01*
X0204243Y0214217D01*
X0204338Y0214174D01*
X0204432Y0214126D01*
X0204524Y0214076D01*
X0204614Y0214022D01*
X0204702Y0213964D01*
X0204787Y0213903D01*
X0204870Y0213839D01*
X0204951Y0213772D01*
X0205029Y0213702D01*
X0205104Y0213628D01*
X0205176Y0213553D01*
X0205246Y0213474D01*
X0205312Y0213393D01*
X0205376Y0213309D01*
X0205436Y0213223D01*
X0205492Y0213135D01*
X0205546Y0213044D01*
X0205596Y0212952D01*
X0205642Y0212858D01*
X0205685Y0212762D01*
X0205724Y0212664D01*
X0205759Y0212566D01*
X0205790Y0212465D01*
X0205818Y0212364D01*
X0205842Y0212262D01*
X0205862Y0212159D01*
X0205878Y0212055D01*
X0205890Y0211951D01*
X0205898Y0211846D01*
X0205902Y0211741D01*
X0205902Y0211637D01*
X0205898Y0211532D01*
X0205890Y0211427D01*
X0205878Y0211323D01*
X0205862Y0211219D01*
X0205842Y0211116D01*
X0205818Y0211014D01*
X0205790Y0210913D01*
X0205759Y0210812D01*
X0205724Y0210714D01*
X0205685Y0210616D01*
X0205642Y0210520D01*
X0205596Y0210426D01*
X0205546Y0210334D01*
X0205492Y0210243D01*
X0205436Y0210155D01*
X0205376Y0210069D01*
X0205312Y0209985D01*
X0205246Y0209904D01*
X0205176Y0209825D01*
X0205104Y0209750D01*
X0205029Y0209676D01*
X0204951Y0209606D01*
X0204870Y0209539D01*
X0204787Y0209475D01*
X0204702Y0209414D01*
X0204614Y0209356D01*
X0204524Y0209302D01*
X0204432Y0209252D01*
X0204338Y0209204D01*
X0204243Y0209161D01*
X0204146Y0209121D01*
X0204047Y0209085D01*
X0203948Y0209052D01*
X0203847Y0209024D01*
X0203745Y0208999D01*
X0203642Y0208978D01*
X0203538Y0208961D01*
X0203434Y0208948D01*
X0203330Y0208939D01*
X0203225Y0208934D01*
X0203120Y0208933D01*
X0203015Y0208936D01*
X0202910Y0208943D01*
X0202806Y0208954D01*
X0202702Y0208969D01*
X0202599Y0208988D01*
X0202496Y0209011D01*
X0202395Y0209037D01*
X0202294Y0209068D01*
X0202195Y0209102D01*
X0202097Y0209140D01*
X0202001Y0209182D01*
X0201907Y0209227D01*
X0201814Y0209276D01*
X0201723Y0209329D01*
X0201634Y0209385D01*
X0201547Y0209444D01*
X0201463Y0209507D01*
X0201381Y0209572D01*
X0201302Y0209641D01*
X0201225Y0209713D01*
X0201151Y0209787D01*
X0201080Y0209864D01*
X0201012Y0209944D01*
X0200948Y0210027D01*
X0200886Y0210112D01*
X0200828Y0210199D01*
X0200772Y0210288D01*
X0200721Y0210380D01*
X0200673Y0210473D01*
X0200628Y0210568D01*
X0200587Y0210665D01*
X0200550Y0210763D01*
X0200517Y0210862D01*
X0200487Y0210963D01*
X0200462Y0211065D01*
X0200440Y0211167D01*
X0200422Y0211271D01*
X0200408Y0211375D01*
X0200398Y0211479D01*
X0200392Y0211584D01*
X0200390Y0211689D01*
X0213383Y0223500D02*
X0209446Y0227437D01*
X0252359Y0211689D02*
X0252361Y0211794D01*
X0252367Y0211899D01*
X0252377Y0212003D01*
X0252391Y0212107D01*
X0252409Y0212211D01*
X0252431Y0212313D01*
X0252456Y0212415D01*
X0252486Y0212516D01*
X0252519Y0212615D01*
X0252556Y0212713D01*
X0252597Y0212810D01*
X0252642Y0212905D01*
X0252690Y0212998D01*
X0252741Y0213090D01*
X0252797Y0213179D01*
X0252855Y0213266D01*
X0252917Y0213351D01*
X0252981Y0213434D01*
X0253049Y0213514D01*
X0253120Y0213591D01*
X0253194Y0213665D01*
X0253271Y0213737D01*
X0253350Y0213806D01*
X0253432Y0213871D01*
X0253516Y0213934D01*
X0253603Y0213993D01*
X0253692Y0214049D01*
X0253783Y0214102D01*
X0253876Y0214151D01*
X0253970Y0214196D01*
X0254066Y0214238D01*
X0254164Y0214276D01*
X0254263Y0214310D01*
X0254364Y0214341D01*
X0254465Y0214367D01*
X0254568Y0214390D01*
X0254671Y0214409D01*
X0254775Y0214424D01*
X0254879Y0214435D01*
X0254984Y0214442D01*
X0255089Y0214445D01*
X0255194Y0214444D01*
X0255299Y0214439D01*
X0255403Y0214430D01*
X0255507Y0214417D01*
X0255611Y0214400D01*
X0255714Y0214379D01*
X0255816Y0214354D01*
X0255917Y0214326D01*
X0256016Y0214293D01*
X0256115Y0214257D01*
X0256212Y0214217D01*
X0256307Y0214174D01*
X0256401Y0214126D01*
X0256493Y0214076D01*
X0256583Y0214022D01*
X0256671Y0213964D01*
X0256756Y0213903D01*
X0256839Y0213839D01*
X0256920Y0213772D01*
X0256998Y0213702D01*
X0257073Y0213628D01*
X0257145Y0213553D01*
X0257215Y0213474D01*
X0257281Y0213393D01*
X0257345Y0213309D01*
X0257405Y0213223D01*
X0257461Y0213135D01*
X0257515Y0213044D01*
X0257565Y0212952D01*
X0257611Y0212858D01*
X0257654Y0212762D01*
X0257693Y0212664D01*
X0257728Y0212566D01*
X0257759Y0212465D01*
X0257787Y0212364D01*
X0257811Y0212262D01*
X0257831Y0212159D01*
X0257847Y0212055D01*
X0257859Y0211951D01*
X0257867Y0211846D01*
X0257871Y0211741D01*
X0257871Y0211637D01*
X0257867Y0211532D01*
X0257859Y0211427D01*
X0257847Y0211323D01*
X0257831Y0211219D01*
X0257811Y0211116D01*
X0257787Y0211014D01*
X0257759Y0210913D01*
X0257728Y0210812D01*
X0257693Y0210714D01*
X0257654Y0210616D01*
X0257611Y0210520D01*
X0257565Y0210426D01*
X0257515Y0210334D01*
X0257461Y0210243D01*
X0257405Y0210155D01*
X0257345Y0210069D01*
X0257281Y0209985D01*
X0257215Y0209904D01*
X0257145Y0209825D01*
X0257073Y0209750D01*
X0256998Y0209676D01*
X0256920Y0209606D01*
X0256839Y0209539D01*
X0256756Y0209475D01*
X0256671Y0209414D01*
X0256583Y0209356D01*
X0256493Y0209302D01*
X0256401Y0209252D01*
X0256307Y0209204D01*
X0256212Y0209161D01*
X0256115Y0209121D01*
X0256016Y0209085D01*
X0255917Y0209052D01*
X0255816Y0209024D01*
X0255714Y0208999D01*
X0255611Y0208978D01*
X0255507Y0208961D01*
X0255403Y0208948D01*
X0255299Y0208939D01*
X0255194Y0208934D01*
X0255089Y0208933D01*
X0254984Y0208936D01*
X0254879Y0208943D01*
X0254775Y0208954D01*
X0254671Y0208969D01*
X0254568Y0208988D01*
X0254465Y0209011D01*
X0254364Y0209037D01*
X0254263Y0209068D01*
X0254164Y0209102D01*
X0254066Y0209140D01*
X0253970Y0209182D01*
X0253876Y0209227D01*
X0253783Y0209276D01*
X0253692Y0209329D01*
X0253603Y0209385D01*
X0253516Y0209444D01*
X0253432Y0209507D01*
X0253350Y0209572D01*
X0253271Y0209641D01*
X0253194Y0209713D01*
X0253120Y0209787D01*
X0253049Y0209864D01*
X0252981Y0209944D01*
X0252917Y0210027D01*
X0252855Y0210112D01*
X0252797Y0210199D01*
X0252741Y0210288D01*
X0252690Y0210380D01*
X0252642Y0210473D01*
X0252597Y0210568D01*
X0252556Y0210665D01*
X0252519Y0210763D01*
X0252486Y0210862D01*
X0252456Y0210963D01*
X0252431Y0211065D01*
X0252409Y0211167D01*
X0252391Y0211271D01*
X0252377Y0211375D01*
X0252367Y0211479D01*
X0252361Y0211584D01*
X0252359Y0211689D01*
X0309485Y0221689D02*
X0309485Y0235075D01*
X0339485Y0235075D01*
X0339485Y0221689D01*
X0309485Y0221689D01*
X0196453Y0167201D02*
X0196453Y0134130D01*
X0163383Y0134130D01*
X0163383Y0167201D01*
X0196453Y0167201D01*
X0174012Y0158539D02*
X0166138Y0158539D01*
X0170075Y0154602D02*
X0170075Y0162476D01*
X0170408Y0184943D02*
X0168907Y0184943D01*
X0168156Y0185694D01*
X0168907Y0187195D02*
X0170408Y0187195D01*
X0171159Y0186444D01*
X0171159Y0185694D01*
X0170408Y0184943D01*
X0172760Y0185694D02*
X0173511Y0184943D01*
X0174261Y0184943D01*
X0175012Y0185694D01*
X0175012Y0189447D01*
X0174261Y0189447D02*
X0175763Y0189447D01*
X0177364Y0187945D02*
X0178865Y0189447D01*
X0178865Y0184943D01*
X0177364Y0184943D02*
X0180367Y0184943D01*
X0171159Y0188696D02*
X0170408Y0189447D01*
X0168907Y0189447D01*
X0168156Y0188696D01*
X0168156Y0187945D01*
X0168907Y0187195D01*
X0162071Y0187599D02*
X0161320Y0186848D01*
X0162071Y0186098D01*
X0162071Y0185347D01*
X0161320Y0184596D01*
X0159819Y0184596D01*
X0159068Y0185347D01*
X0160569Y0186848D02*
X0161320Y0186848D01*
X0162071Y0187599D02*
X0162071Y0188350D01*
X0161320Y0189100D01*
X0159819Y0189100D01*
X0159068Y0188350D01*
X0157467Y0188350D02*
X0157467Y0186848D01*
X0156716Y0186098D01*
X0154464Y0186098D01*
X0154464Y0184596D02*
X0154464Y0189100D01*
X0156716Y0189100D01*
X0157467Y0188350D01*
X0152863Y0189100D02*
X0151361Y0189100D01*
X0152112Y0189100D02*
X0152112Y0185347D01*
X0151361Y0184596D01*
X0150611Y0184596D01*
X0149860Y0185347D01*
X0223225Y0148697D02*
X0223225Y0136886D01*
X0235036Y0136886D01*
X0235036Y0148697D01*
X0223225Y0148697D01*
X0224473Y0146335D02*
X0224475Y0146402D01*
X0224481Y0146468D01*
X0224491Y0146534D01*
X0224505Y0146599D01*
X0224522Y0146663D01*
X0224544Y0146726D01*
X0224569Y0146788D01*
X0224598Y0146848D01*
X0224631Y0146906D01*
X0224667Y0146963D01*
X0224706Y0147016D01*
X0224748Y0147068D01*
X0224793Y0147117D01*
X0224842Y0147163D01*
X0224892Y0147206D01*
X0224946Y0147246D01*
X0225001Y0147283D01*
X0225059Y0147316D01*
X0225119Y0147346D01*
X0225180Y0147372D01*
X0225243Y0147394D01*
X0225307Y0147413D01*
X0225372Y0147428D01*
X0225437Y0147439D01*
X0225504Y0147446D01*
X0225570Y0147449D01*
X0225637Y0147448D01*
X0225703Y0147443D01*
X0225769Y0147434D01*
X0225835Y0147421D01*
X0225899Y0147404D01*
X0225963Y0147384D01*
X0226025Y0147359D01*
X0226085Y0147331D01*
X0226144Y0147300D01*
X0226201Y0147265D01*
X0226255Y0147226D01*
X0226307Y0147185D01*
X0226357Y0147140D01*
X0226404Y0147093D01*
X0226447Y0147043D01*
X0226488Y0146990D01*
X0226526Y0146935D01*
X0226560Y0146878D01*
X0226591Y0146818D01*
X0226618Y0146757D01*
X0226641Y0146695D01*
X0226661Y0146631D01*
X0226677Y0146567D01*
X0226689Y0146501D01*
X0226697Y0146435D01*
X0226701Y0146368D01*
X0226701Y0146302D01*
X0226697Y0146235D01*
X0226689Y0146169D01*
X0226677Y0146103D01*
X0226661Y0146039D01*
X0226641Y0145975D01*
X0226618Y0145913D01*
X0226591Y0145852D01*
X0226560Y0145792D01*
X0226526Y0145735D01*
X0226488Y0145680D01*
X0226447Y0145627D01*
X0226404Y0145577D01*
X0226357Y0145530D01*
X0226307Y0145485D01*
X0226255Y0145444D01*
X0226201Y0145405D01*
X0226144Y0145370D01*
X0226085Y0145339D01*
X0226025Y0145311D01*
X0225963Y0145286D01*
X0225899Y0145266D01*
X0225835Y0145249D01*
X0225769Y0145236D01*
X0225703Y0145227D01*
X0225637Y0145222D01*
X0225570Y0145221D01*
X0225504Y0145224D01*
X0225437Y0145231D01*
X0225372Y0145242D01*
X0225307Y0145257D01*
X0225243Y0145276D01*
X0225180Y0145298D01*
X0225119Y0145324D01*
X0225059Y0145354D01*
X0225001Y0145387D01*
X0224946Y0145424D01*
X0224892Y0145464D01*
X0224842Y0145507D01*
X0224793Y0145553D01*
X0224748Y0145602D01*
X0224706Y0145654D01*
X0224667Y0145707D01*
X0224631Y0145764D01*
X0224598Y0145822D01*
X0224569Y0145882D01*
X0224544Y0145944D01*
X0224522Y0146007D01*
X0224505Y0146071D01*
X0224491Y0146136D01*
X0224481Y0146202D01*
X0224475Y0146268D01*
X0224473Y0146335D01*
X0190233Y0118382D02*
X0190233Y0035705D01*
X0267005Y0035705D01*
X0267005Y0118382D01*
X0190233Y0118382D01*
X0140417Y0114478D02*
X0137414Y0114478D01*
X0138916Y0114478D02*
X0138916Y0118982D01*
X0137414Y0117481D01*
X0135813Y0118232D02*
X0135813Y0116730D01*
X0135062Y0115980D01*
X0132810Y0115980D01*
X0132810Y0114478D02*
X0132810Y0118982D01*
X0135062Y0118982D01*
X0135813Y0118232D01*
X0131209Y0118982D02*
X0129708Y0118982D01*
X0130458Y0118982D02*
X0130458Y0115229D01*
X0129708Y0114478D01*
X0128957Y0114478D01*
X0128207Y0115229D01*
X0151361Y0070990D02*
X0152863Y0070990D01*
X0152112Y0070990D02*
X0152112Y0067237D01*
X0151361Y0066486D01*
X0150611Y0066486D01*
X0149860Y0067237D01*
X0154464Y0067988D02*
X0156716Y0067988D01*
X0157467Y0068738D01*
X0157467Y0070239D01*
X0156716Y0070990D01*
X0154464Y0070990D01*
X0154464Y0066486D01*
X0159068Y0066486D02*
X0162071Y0069489D01*
X0162071Y0070239D01*
X0161320Y0070990D01*
X0159819Y0070990D01*
X0159068Y0070239D01*
X0159068Y0066486D02*
X0162071Y0066486D01*
D15*
X0298934Y0045646D03*
X0298934Y0042693D03*
X0313698Y0042378D03*
X0313698Y0045331D03*
D16*
X0313698Y0043854D03*
X0298934Y0044169D03*
D17*
X0336493Y0056925D02*
X0358993Y0056925D01*
X0358993Y0066925D02*
X0336493Y0066925D01*
X0336493Y0076925D02*
X0358993Y0076925D01*
X0358993Y0086925D02*
X0336493Y0086925D01*
X0336493Y0140665D02*
X0358993Y0140665D01*
X0358993Y0150665D02*
X0336493Y0150665D01*
X0336493Y0160665D02*
X0358993Y0160665D01*
X0143422Y0196846D02*
X0120922Y0196846D01*
X0120922Y0206846D02*
X0143422Y0206846D01*
X0121768Y0166728D02*
X0099268Y0166728D01*
X0099268Y0156728D02*
X0121768Y0156728D01*
X0121768Y0146728D02*
X0099268Y0146728D01*
X0099268Y0136728D02*
X0121768Y0136728D01*
X0121768Y0126728D02*
X0099268Y0126728D01*
X0120922Y0088736D02*
X0143422Y0088736D01*
X0143422Y0078736D02*
X0120922Y0078736D01*
D18*
X0144922Y0078736D03*
X0144922Y0088736D03*
X0123268Y0126728D03*
X0123268Y0136728D03*
X0123268Y0146728D03*
X0123268Y0156728D03*
X0123268Y0166728D03*
X0144922Y0196846D03*
X0144922Y0206846D03*
X0334993Y0160665D03*
X0334993Y0150665D03*
X0334993Y0140665D03*
X0334993Y0086925D03*
X0334993Y0076925D03*
X0334993Y0066925D03*
X0334993Y0056925D03*
D19*
X0321993Y0056925D03*
X0321993Y0066925D03*
X0321993Y0076925D03*
X0321993Y0086925D03*
X0321993Y0140665D03*
X0321993Y0150665D03*
X0321993Y0160665D03*
X0157922Y0196846D03*
X0157922Y0206846D03*
X0136268Y0166728D03*
X0136268Y0156728D03*
X0136268Y0146728D03*
X0136268Y0136728D03*
X0136268Y0126728D03*
X0157922Y0088736D03*
X0157922Y0078736D03*
D20*
X0146768Y0126728D03*
X0146768Y0136728D03*
X0146768Y0146728D03*
X0146768Y0156728D03*
X0146768Y0166728D03*
X0311493Y0160665D03*
X0311493Y0150665D03*
X0311493Y0140665D03*
X0311493Y0086925D03*
X0311493Y0076925D03*
X0311493Y0066925D03*
X0311493Y0056925D03*
D21*
X0305115Y0092791D02*
X0296453Y0092791D01*
X0287792Y0092791D02*
X0279131Y0092791D01*
X0279131Y0115232D01*
X0282674Y0118776D01*
X0287792Y0118776D01*
X0296453Y0118776D02*
X0301572Y0118776D01*
X0305115Y0115232D01*
X0305115Y0092791D01*
X0288383Y0094170D02*
X0288102Y0094264D01*
X0287823Y0094366D01*
X0287547Y0094474D01*
X0287274Y0094589D01*
X0287003Y0094710D01*
X0286736Y0094838D01*
X0286471Y0094973D01*
X0286210Y0095114D01*
X0285953Y0095261D01*
X0285699Y0095414D01*
X0285449Y0095574D01*
X0285203Y0095739D01*
X0284961Y0095911D01*
X0284724Y0096088D01*
X0284490Y0096271D01*
X0284262Y0096460D01*
X0284037Y0096655D01*
X0283818Y0096854D01*
X0283604Y0097059D01*
X0283395Y0097269D01*
X0283191Y0097484D01*
X0282992Y0097705D01*
X0282798Y0097929D01*
X0282611Y0098159D01*
X0282428Y0098393D01*
X0282252Y0098631D01*
X0282081Y0098874D01*
X0281917Y0099120D01*
X0281758Y0099371D01*
X0281606Y0099625D01*
X0281460Y0099884D01*
X0281320Y0100145D01*
X0281186Y0100410D01*
X0281059Y0100678D01*
X0280939Y0100949D01*
X0280825Y0101223D01*
X0280718Y0101499D01*
X0280618Y0101779D01*
X0280525Y0102060D01*
X0280438Y0102344D01*
X0280359Y0102629D01*
X0280286Y0102917D01*
X0280220Y0103206D01*
X0280162Y0103497D01*
X0280111Y0103789D01*
X0280066Y0104082D01*
X0280029Y0104376D01*
X0279999Y0104671D01*
X0279976Y0104967D01*
X0279961Y0105263D01*
X0279953Y0105560D01*
X0279951Y0105856D01*
X0279958Y0106153D01*
X0279971Y0106449D01*
X0279991Y0106745D01*
X0280019Y0107040D01*
X0280054Y0107334D01*
X0280096Y0107628D01*
X0280146Y0107920D01*
X0280202Y0108212D01*
X0280265Y0108501D01*
X0280336Y0108789D01*
X0280413Y0109076D01*
X0280498Y0109360D01*
X0280589Y0109642D01*
X0280687Y0109922D01*
X0280792Y0110199D01*
X0280904Y0110474D01*
X0281022Y0110746D01*
X0281147Y0111015D01*
X0281279Y0111281D01*
X0281416Y0111543D01*
X0281561Y0111802D01*
X0281711Y0112058D01*
X0281868Y0112310D01*
X0282031Y0112558D01*
X0282199Y0112801D01*
X0282374Y0113041D01*
X0282555Y0113276D01*
X0282741Y0113507D01*
X0282932Y0113734D01*
X0283129Y0113955D01*
X0283332Y0114172D01*
X0283540Y0114383D01*
X0283752Y0114590D01*
X0283970Y0114791D01*
X0284193Y0114987D01*
X0284420Y0115178D01*
X0284652Y0115363D01*
X0284888Y0115542D01*
X0285129Y0115715D01*
X0285374Y0115882D01*
X0285623Y0116044D01*
X0285875Y0116199D01*
X0286132Y0116348D01*
X0286391Y0116491D01*
X0286655Y0116628D01*
X0286921Y0116758D01*
X0287191Y0116881D01*
X0287463Y0116998D01*
X0287739Y0117108D01*
X0288017Y0117211D01*
X0288297Y0117308D01*
X0288580Y0117398D01*
X0295863Y0117397D02*
X0296144Y0117303D01*
X0296423Y0117201D01*
X0296699Y0117093D01*
X0296972Y0116978D01*
X0297243Y0116857D01*
X0297510Y0116729D01*
X0297775Y0116594D01*
X0298036Y0116453D01*
X0298293Y0116306D01*
X0298547Y0116153D01*
X0298797Y0115993D01*
X0299043Y0115828D01*
X0299285Y0115656D01*
X0299522Y0115479D01*
X0299756Y0115296D01*
X0299984Y0115107D01*
X0300209Y0114912D01*
X0300428Y0114713D01*
X0300642Y0114508D01*
X0300851Y0114298D01*
X0301055Y0114083D01*
X0301254Y0113862D01*
X0301448Y0113638D01*
X0301635Y0113408D01*
X0301818Y0113174D01*
X0301994Y0112936D01*
X0302165Y0112693D01*
X0302329Y0112447D01*
X0302488Y0112196D01*
X0302640Y0111942D01*
X0302786Y0111683D01*
X0302926Y0111422D01*
X0303060Y0111157D01*
X0303187Y0110889D01*
X0303307Y0110618D01*
X0303421Y0110344D01*
X0303528Y0110068D01*
X0303628Y0109788D01*
X0303721Y0109507D01*
X0303808Y0109223D01*
X0303887Y0108938D01*
X0303960Y0108650D01*
X0304026Y0108361D01*
X0304084Y0108070D01*
X0304135Y0107778D01*
X0304180Y0107485D01*
X0304217Y0107191D01*
X0304247Y0106896D01*
X0304270Y0106600D01*
X0304285Y0106304D01*
X0304293Y0106007D01*
X0304295Y0105711D01*
X0304288Y0105414D01*
X0304275Y0105118D01*
X0304255Y0104822D01*
X0304227Y0104527D01*
X0304192Y0104233D01*
X0304150Y0103939D01*
X0304100Y0103647D01*
X0304044Y0103355D01*
X0303981Y0103066D01*
X0303910Y0102778D01*
X0303833Y0102491D01*
X0303748Y0102207D01*
X0303657Y0101925D01*
X0303559Y0101645D01*
X0303454Y0101368D01*
X0303342Y0101093D01*
X0303224Y0100821D01*
X0303099Y0100552D01*
X0302967Y0100286D01*
X0302830Y0100024D01*
X0302685Y0099765D01*
X0302535Y0099509D01*
X0302378Y0099257D01*
X0302215Y0099009D01*
X0302047Y0098766D01*
X0301872Y0098526D01*
X0301691Y0098291D01*
X0301505Y0098060D01*
X0301314Y0097833D01*
X0301117Y0097612D01*
X0300914Y0097395D01*
X0300706Y0097184D01*
X0300494Y0096977D01*
X0300276Y0096776D01*
X0300053Y0096580D01*
X0299826Y0096389D01*
X0299594Y0096204D01*
X0299358Y0096025D01*
X0299117Y0095852D01*
X0298872Y0095685D01*
X0298623Y0095523D01*
X0298371Y0095368D01*
X0298114Y0095219D01*
X0297855Y0095076D01*
X0297591Y0094939D01*
X0297325Y0094809D01*
X0297055Y0094686D01*
X0296783Y0094569D01*
X0296507Y0094459D01*
X0296229Y0094356D01*
X0295949Y0094259D01*
X0295666Y0094169D01*
X0285823Y0129799D02*
X0263383Y0129799D01*
X0263383Y0138461D01*
X0263383Y0147122D02*
X0263383Y0155783D01*
X0285823Y0155783D01*
X0289367Y0152240D01*
X0289367Y0147122D01*
X0289367Y0138461D02*
X0289367Y0133343D01*
X0285823Y0129799D01*
X0287989Y0139051D02*
X0287895Y0138770D01*
X0287793Y0138491D01*
X0287685Y0138215D01*
X0287570Y0137942D01*
X0287449Y0137671D01*
X0287321Y0137404D01*
X0287186Y0137139D01*
X0287045Y0136878D01*
X0286898Y0136621D01*
X0286745Y0136367D01*
X0286585Y0136117D01*
X0286420Y0135871D01*
X0286248Y0135629D01*
X0286071Y0135392D01*
X0285888Y0135158D01*
X0285699Y0134930D01*
X0285504Y0134705D01*
X0285305Y0134486D01*
X0285100Y0134272D01*
X0284890Y0134063D01*
X0284675Y0133859D01*
X0284454Y0133660D01*
X0284230Y0133466D01*
X0284000Y0133279D01*
X0283766Y0133096D01*
X0283528Y0132920D01*
X0283285Y0132749D01*
X0283039Y0132585D01*
X0282788Y0132426D01*
X0282534Y0132274D01*
X0282275Y0132128D01*
X0282014Y0131988D01*
X0281749Y0131854D01*
X0281481Y0131727D01*
X0281210Y0131607D01*
X0280936Y0131493D01*
X0280660Y0131386D01*
X0280380Y0131286D01*
X0280099Y0131193D01*
X0279815Y0131106D01*
X0279530Y0131027D01*
X0279242Y0130954D01*
X0278953Y0130888D01*
X0278662Y0130830D01*
X0278370Y0130779D01*
X0278077Y0130734D01*
X0277783Y0130697D01*
X0277488Y0130667D01*
X0277192Y0130644D01*
X0276896Y0130629D01*
X0276599Y0130621D01*
X0276303Y0130619D01*
X0276006Y0130626D01*
X0275710Y0130639D01*
X0275414Y0130659D01*
X0275119Y0130687D01*
X0274825Y0130722D01*
X0274531Y0130764D01*
X0274239Y0130814D01*
X0273947Y0130870D01*
X0273658Y0130933D01*
X0273370Y0131004D01*
X0273083Y0131081D01*
X0272799Y0131166D01*
X0272517Y0131257D01*
X0272237Y0131355D01*
X0271960Y0131460D01*
X0271685Y0131572D01*
X0271413Y0131690D01*
X0271144Y0131815D01*
X0270878Y0131947D01*
X0270616Y0132084D01*
X0270357Y0132229D01*
X0270101Y0132379D01*
X0269849Y0132536D01*
X0269601Y0132699D01*
X0269358Y0132867D01*
X0269118Y0133042D01*
X0268883Y0133223D01*
X0268652Y0133409D01*
X0268425Y0133600D01*
X0268204Y0133797D01*
X0267987Y0134000D01*
X0267776Y0134208D01*
X0267569Y0134420D01*
X0267368Y0134638D01*
X0267172Y0134861D01*
X0266981Y0135088D01*
X0266796Y0135320D01*
X0266617Y0135556D01*
X0266444Y0135797D01*
X0266277Y0136042D01*
X0266115Y0136291D01*
X0265960Y0136543D01*
X0265811Y0136800D01*
X0265668Y0137059D01*
X0265531Y0137323D01*
X0265401Y0137589D01*
X0265278Y0137859D01*
X0265161Y0138131D01*
X0265051Y0138407D01*
X0264948Y0138685D01*
X0264851Y0138965D01*
X0264761Y0139248D01*
X0264761Y0146531D02*
X0264855Y0146812D01*
X0264957Y0147091D01*
X0265065Y0147367D01*
X0265180Y0147640D01*
X0265301Y0147911D01*
X0265429Y0148178D01*
X0265564Y0148443D01*
X0265705Y0148704D01*
X0265852Y0148961D01*
X0266005Y0149215D01*
X0266165Y0149465D01*
X0266330Y0149711D01*
X0266502Y0149953D01*
X0266679Y0150190D01*
X0266862Y0150424D01*
X0267051Y0150652D01*
X0267246Y0150877D01*
X0267445Y0151096D01*
X0267650Y0151310D01*
X0267860Y0151519D01*
X0268075Y0151723D01*
X0268296Y0151922D01*
X0268520Y0152116D01*
X0268750Y0152303D01*
X0268984Y0152486D01*
X0269222Y0152662D01*
X0269465Y0152833D01*
X0269711Y0152997D01*
X0269962Y0153156D01*
X0270216Y0153308D01*
X0270475Y0153454D01*
X0270736Y0153594D01*
X0271001Y0153728D01*
X0271269Y0153855D01*
X0271540Y0153975D01*
X0271814Y0154089D01*
X0272090Y0154196D01*
X0272370Y0154296D01*
X0272651Y0154389D01*
X0272935Y0154476D01*
X0273220Y0154555D01*
X0273508Y0154628D01*
X0273797Y0154694D01*
X0274088Y0154752D01*
X0274380Y0154803D01*
X0274673Y0154848D01*
X0274967Y0154885D01*
X0275262Y0154915D01*
X0275558Y0154938D01*
X0275854Y0154953D01*
X0276151Y0154961D01*
X0276447Y0154963D01*
X0276744Y0154956D01*
X0277040Y0154943D01*
X0277336Y0154923D01*
X0277631Y0154895D01*
X0277925Y0154860D01*
X0278219Y0154818D01*
X0278511Y0154768D01*
X0278803Y0154712D01*
X0279092Y0154649D01*
X0279380Y0154578D01*
X0279667Y0154501D01*
X0279951Y0154416D01*
X0280233Y0154325D01*
X0280513Y0154227D01*
X0280790Y0154122D01*
X0281065Y0154010D01*
X0281337Y0153892D01*
X0281606Y0153767D01*
X0281872Y0153635D01*
X0282134Y0153498D01*
X0282393Y0153353D01*
X0282649Y0153203D01*
X0282901Y0153046D01*
X0283149Y0152883D01*
X0283392Y0152715D01*
X0283632Y0152540D01*
X0283867Y0152359D01*
X0284098Y0152173D01*
X0284325Y0151982D01*
X0284546Y0151785D01*
X0284763Y0151582D01*
X0284974Y0151374D01*
X0285181Y0151162D01*
X0285382Y0150944D01*
X0285578Y0150721D01*
X0285769Y0150494D01*
X0285954Y0150262D01*
X0286133Y0150026D01*
X0286306Y0149785D01*
X0286473Y0149540D01*
X0286635Y0149291D01*
X0286790Y0149039D01*
X0286939Y0148782D01*
X0287082Y0148523D01*
X0287219Y0148259D01*
X0287349Y0147993D01*
X0287472Y0147723D01*
X0287589Y0147451D01*
X0287699Y0147175D01*
X0287802Y0146897D01*
X0287899Y0146617D01*
X0287989Y0146334D01*
M02*
