%
M48
M72
T01C0.01200
T02C0.03937
T03C0.04000
T04C0.08661
T05C0.11024
%
T01
X105902Y64051
X105902Y67594
X109839Y67594
X109839Y64051
X109839Y71138
X105902Y71138
X107871Y78224
X112595Y78224
X107871Y81768
X133461Y96335
X137398Y96335
X137398Y92791
X150784Y100272
X150784Y103815
X150784Y107358
X154721Y103815
X154721Y100272
X154721Y96728
X177556Y95547
X178343Y77043
X176375Y73106
X154327Y71531
X154327Y75469
X149603Y71531
X149603Y67988
X149603Y64445
X154327Y67988
X120469Y49484
X113776Y49878
X108264Y100665
X104721Y100665
X104721Y104209
X104721Y107752
X108264Y107752
X108264Y104209
X100390Y116020
X151572Y116020
X151572Y119957
X156296Y116020
X178737Y117988
X177162Y129406
X185430Y131374
X197241Y125075
X200784Y128224
X206296Y121925
X203540Y117988
X213383Y114839
X208658Y108539
X224406Y114839
X235036Y109720
X240154Y112870
X253540Y112870
X252359Y125469
X243304Y129406
X262989Y125469
X266926Y125469
X270075Y133343
X256690Y144760
X245272Y150272
X239760Y156571
X233461Y156965
X231099Y154209
X223619Y152634
X219288Y156177
X214564Y158933
X206296Y166020
X197241Y173106
X184249Y166413
X176375Y166413
X176768Y158933
X185823Y158539
X199603Y150665
X166138Y143972
X159446Y164445
X159446Y176256
X150784Y182949
X150784Y186886
X150784Y190823
X155115Y190823
X155115Y186886
X155115Y194760
X151572Y199484
X151572Y203028
X151572Y206571
X156296Y213657
X156296Y217201
X151965Y217201
X151965Y221138
X151965Y225075
X156296Y221138
X201572Y223106
X216138Y195547
X228737Y183343
X225981Y179012
X237005Y176256
X250784Y169563
X247635Y165232
X259839Y155783
X264564Y159327
X267320Y166020
X270075Y174287
X260233Y181374
X282280Y178618
X290942Y174287
X282280Y170350
X286808Y160311
X296847Y151059
X320469Y128224
X298816Y126256
X298816Y122713
X298816Y119169
X298816Y115626
X298816Y112083
X298816Y108539
X303146Y95154
X309052Y95547
X279918Y110508
X276768Y93579
X251572Y99484
X214957Y93185
X220075Y126256
X212989Y176256
X255509Y199091
X278343Y203028
X282280Y203028
X291335Y204209
X290942Y199878
X282280Y186886
X282280Y211295
X262595Y222713
X263776Y228224
X259446Y228224
X255115Y228224
X301965Y230193
X349603Y238461
X354721Y234917
X356690Y195941
X349997Y187673
X344091Y161295
X346453Y129012
X349209Y100665
X277162Y66807
X278343Y53815
X338186Y43185
X212201Y55783
X206690Y55783
X106296Y163657
X98422Y176650
X106296Y181768
X106296Y185311
X109839Y185311
X109839Y181768
X109839Y188854
X106296Y188854
X107083Y195547
X107083Y199091
X111020Y195547
X110233Y217988
X106296Y217988
X106296Y221531
X106296Y225075
X110233Y225075
X110233Y221531
T02
X189131Y219602
X189131Y209602
X189131Y199602
X189131Y189602
X189131Y179602
X269131Y179602
X269131Y189602
X269131Y199602
X269131Y209602
X269131Y219602
X309485Y228382
X339485Y228382
T03
X316493Y160665
X306493Y160665
X306493Y150665
X316493Y150665
X316493Y140665
X306493Y140665
X326257Y119169
X326257Y109327
X316493Y86925
X306493Y86925
X306493Y76925
X316493Y76925
X316493Y66925
X306493Y66925
X306493Y56925
X316493Y56925
X163422Y78736
X163422Y88736
X151768Y126728
X141768Y126728
X141768Y136728
X151768Y136728
X151768Y146728
X141768Y146728
X141768Y156728
X151768Y156728
X151768Y166728
X141768Y166728
X163422Y196846
X163422Y206846
T04
X170075Y227437
X288186Y227437
X288186Y58146
X170075Y58146
T05
X231965Y83539
X351847Y114248
M30
