%
M48
M72
T01C0.03150
T02C0.03937
T03C0.04000
T04C0.04724
T05C0.08661
T06C0.11811
T07C0.12598
%
T01
X95540Y58178
X105540Y58178
T02
X99359Y84280
X99359Y94280
X81643Y115028
X81643Y125028
X81643Y135028
X72194Y162233
X72194Y172233
T03
X140973Y58139
X140973Y48139
T04
X141485Y96367
X181643Y96367
T05
X126524Y146209
X196603Y156209
X196603Y186131
T06
X254083Y149910
X254083Y90855
X45422Y90855
X45422Y149910
T07
X41485Y51485
X41485Y189280
X258020Y189280
X258020Y51485
M30
